<svg width="256" height="256" viewBox="0 0 256 256" fill="none" xmlns="http://www.w3.org/2000/svg">
<rect width="256" height="256" fill="white"/>
<path d="M45.7528 178.727V202.215H63.883V207.215H38V178.698H45.7528V178.727ZM65.0595 178.727L62.1333 187.186H65.7533L70.1577 178.727H65.0595ZM84.7282 196.372H98.6048L91.6967 183.581L84.7282 196.372ZM96.6742 178.727L113.206 207.244H104.457L101.109 201.052H82.2243L78.8155 207.244H70.6705L87.413 178.727H96.6742ZM131.577 208C136.977 208 141.954 207.331 147.143 206.227V191.808H130.883V196.459H139.873V202.099C137.61 202.68 134.473 203.203 131.879 203.203C123.432 203.203 119.541 199.366 119.541 192.826C119.541 186.953 123.251 182.767 130.823 182.767C135.167 182.767 138.515 183.988 138.968 187.273H147.113C146.57 180.326 139.028 178 130.732 178C119.329 178 111.546 183.174 111.546 192.884C111.516 203.145 119.51 208 131.577 208ZM178.607 207.244V202.215H159.692V195.238H177.099V190.267H159.692V183.756H178.154V178.727H151.909V207.244H178.607ZM207.627 183.756V178.727H182.8V207.244H190.583V195.762H206.722V190.762H190.583V183.785H207.627V183.756ZM211.217 207.244H219V178.727H211.217V207.244Z" fill="#CF371E"/>
<path d="M99.8539 119.157H154.989L127.541 67.5769L99.8539 119.157ZM147.318 48L213 163H178.241L164.937 138.031H89.9057L76.3617 163H44L110.521 48H147.318Z" fill="#CF371E"/>
</svg>
