<svg width="256" height="256" viewBox="0 0 256 256" fill="none" xmlns="http://www.w3.org/2000/svg">
<g clip-path="url(#clip0_24_721)">
<path d="M0 0C85.3242 0 170.676 0 256 0C256 85.3242 256 170.648 256 256C170.676 256 85.3515 256 0 256C0 170.676 0 85.3242 0 0Z" fill="#4AB24A"/>
<path d="M74.8361 229.234C73.7436 229.152 72.4873 229.507 71.5313 228.797C70.193 227.977 69.5375 226.421 69.0186 225C65.9596 216.37 62.8733 207.739 59.8143 199.108C58.6945 196.131 57.7931 193.099 56.5641 190.177C52.0575 190.232 47.5783 190.204 43.0717 190.177C42.6893 190.177 42.1158 190.122 42.0611 190.614C38.0735 201.812 34.1132 213.01 30.0983 224.181C29.4428 225.765 28.9511 227.677 27.4216 228.688C25.9741 229.48 24.2534 229.07 22.6966 229.179C22.6693 231.173 22.6966 233.167 22.6966 235.161C29.3335 235.161 35.9705 235.161 42.6074 235.161C42.6074 233.167 42.6074 231.173 42.6074 229.206C40.8867 229.152 38.9475 229.425 37.4726 228.332C37.2541 227.568 37.4726 226.748 37.6911 226.011C38.2101 224.29 38.7563 222.597 39.3026 220.903C44.2188 220.876 49.1351 220.903 54.0513 220.903C54.6795 223.143 55.6355 225.328 55.9086 227.677C56.0178 228.114 55.854 228.688 55.3623 228.797C53.5597 229.398 51.6478 229.125 49.7906 229.206C49.7906 231.2 49.7906 233.194 49.7906 235.188C58.1482 235.188 66.5058 235.215 74.8361 235.188C74.8361 233.221 74.8361 231.228 74.8361 229.234ZM41.4603 214.949C43.1263 210.033 44.8743 205.117 46.6223 200.228C48.3976 205.117 50.2003 210.006 51.839 214.949C48.3703 214.977 44.9016 214.949 41.4603 214.949Z" fill="#FDFEFD"/>
<path d="M79.7251 190.259C87.0176 190.204 94.2827 190.259 101.575 190.232C107.475 199.791 113.21 209.487 119.082 219.073C119.164 212.3 119.11 205.527 119.11 198.753C119.164 197.715 118.7 196.486 117.58 196.295C115.941 196.076 114.275 196.268 112.609 196.186C112.609 194.192 112.609 192.225 112.609 190.232C119.383 190.232 126.156 190.232 132.957 190.232C133.121 190.259 133.421 190.313 133.585 190.341C133.667 192.28 133.585 194.246 133.613 196.213C132.274 196.213 130.963 196.213 129.625 196.213C128.942 196.213 128.177 196.322 127.713 196.868C127.167 197.551 127.249 198.48 127.222 199.327C127.249 211.289 127.194 223.225 127.249 235.188C122.524 235.27 117.799 235.215 113.074 235.215C107.092 225.028 101.083 214.84 95.0474 204.68C94.9382 212 95.0201 219.319 95.0201 226.612C94.9382 227.704 95.5664 228.879 96.6862 229.125C98.0518 229.316 99.4174 229.179 100.783 229.206C100.81 231.2 100.783 233.194 100.783 235.188C93.7637 235.188 86.7444 235.188 79.7251 235.188C79.7251 233.194 79.7251 231.2 79.7251 229.206C81.2 229.152 82.6749 229.288 84.1224 229.125C85.2696 228.906 85.9251 227.704 85.8158 226.584C85.8158 217.298 85.8158 207.985 85.8158 198.698C85.8978 197.579 85.133 196.404 83.9586 196.268C82.5383 196.076 81.0908 196.213 79.6432 196.186C79.7251 194.219 79.7251 192.253 79.7251 190.259Z" fill="#FDFEFD"/>
<path d="M146.122 191.706C149.645 189.685 153.769 189.084 157.784 188.948C162.291 188.62 166.852 189.822 170.785 192.007C171.249 192.28 171.714 192.526 172.233 192.744C172.615 191.706 173.025 190.696 173.38 189.658C175.264 189.603 177.122 189.658 179.006 189.631C179.088 195.202 179.033 200.774 179.033 206.319C176.93 206.291 174.827 206.373 172.751 206.264C172.287 202.577 169.938 199.272 166.825 197.333C163.684 195.339 159.751 194.765 156.146 195.585C154.179 196.049 152.322 197.551 151.939 199.6C151.748 200.856 151.666 202.358 152.704 203.287C154.343 204.789 156.583 205.281 158.686 205.827C163.547 206.919 168.545 207.602 173.134 209.651C175.565 210.771 177.859 212.355 179.306 214.649C181.41 217.735 181.655 221.696 181.027 225.301C180.399 228.824 178.05 231.91 174.964 233.686C171.277 235.843 166.934 236.499 162.728 236.554C157.484 236.554 151.967 235.57 147.651 232.375C147.05 233.576 146.477 234.778 145.849 235.98C143.964 235.98 142.052 235.98 140.168 235.98C140.113 230.053 140.168 224.126 140.14 218.2C142.243 218.2 144.347 218.2 146.45 218.2C146.941 221.75 148.771 225.11 151.666 227.267C154.589 229.425 158.276 230.381 161.881 230.244C164.121 230.053 166.497 229.316 168.026 227.54C169.447 225.956 169.638 223.28 168.163 221.668C167.071 220.63 165.623 220.166 164.23 219.647C160.297 218.418 156.2 217.899 152.212 216.916C148.635 215.933 145.002 214.43 142.517 211.563C139.785 208.695 139.348 204.407 139.84 200.638C140.25 196.868 142.817 193.536 146.122 191.706Z" fill="#FDFEFD"/>
<path d="M234.423 229.234C233.604 229.206 232.757 229.288 231.938 229.179C230.299 228.633 229.425 227.021 228.824 225.519C224.645 213.748 220.466 201.976 216.26 190.232C211.481 190.204 206.701 190.259 201.921 190.204C201.484 191.078 201.211 192.034 200.856 192.963C197.087 203.505 193.372 214.048 189.603 224.591C188.92 226.257 188.292 228.387 186.408 229.043C185.069 229.37 183.676 229.179 182.311 229.234C182.311 231.2 182.311 233.194 182.311 235.188C188.948 235.243 195.585 235.188 202.222 235.215C202.222 233.221 202.222 231.228 202.222 229.234C200.446 229.234 198.48 229.425 196.978 228.278C197.087 225.71 198.261 223.362 198.944 220.931C203.86 220.931 208.804 220.903 213.72 220.958C214.321 223.498 215.632 225.902 215.55 228.578C213.666 229.562 211.481 229.152 209.459 229.261C209.459 231.255 209.459 233.249 209.459 235.243C217.79 235.243 226.12 235.243 234.45 235.243C234.423 233.221 234.45 231.228 234.423 229.234ZM201.047 214.949C202.741 210.06 204.489 205.199 206.182 200.337C206.51 200.856 206.701 201.43 206.892 202.003C208.422 206.319 209.978 210.634 211.508 214.949C208.012 214.977 204.516 214.977 201.047 214.949Z" fill="#FDFEFD"/>
<rect width="256" height="256" fill="url(#paint0_linear_24_721)"/>
</g>
<defs>
<linearGradient id="paint0_linear_24_721" x1="0" y1="0" x2="256" y2="256" gradientUnits="userSpaceOnUse">
<stop stop-color="white" stop-opacity="0.15"/>
<stop offset="1" stop-opacity="0"/>
</linearGradient>
<clipPath id="clip0_24_721">
<rect width="256" height="256" fill="white"/>
</clipPath>
</defs>
</svg>
