<svg width="256" height="256" viewBox="0 0 256 256" fill="none" xmlns="http://www.w3.org/2000/svg">
<g clip-path="url(#clip0_24_723)">
<rect width="256" height="256" fill="url(#paint0_linear_24_723)"/>
<rect width="256" height="256" fill="white"/>
<rect width="256" height="256" fill="url(#paint1_linear_24_723)"/>
<path d="M24.0395 118.702H18.2312V125.725H24.0395C26.5652 125.751 28.6922 124.902 28.6922 122.098C28.6922 119.872 27.0131 118.702 24.0395 118.702ZM26.8976 117.745C29.1217 118.13 30.5359 119.855 30.5359 122.152C30.5359 123.887 29.9142 127.315 24.0395 127.315H16.3855V109.251H24.0395C27.0612 109.251 29.8579 110.308 29.8579 113.713C29.8579 115.553 28.6748 117.256 26.8976 117.745ZM24.0395 110.84H18.2312V117.11H24.0395C26.7544 117.11 28.0152 115.772 28.0152 114.139C28.0152 111.951 26.6777 110.84 24.0395 110.84Z" fill="black"/>
<path d="M33.1047 127.315H31.126L38.4118 109.251H40.414L47.5004 127.315H45.5187L43.3355 121.74H35.2674L33.1047 127.315ZM42.7067 120.151L39.3373 111.214L35.8451 120.151H42.7067Z" fill="black"/>
<path d="M61.3513 124.34V109.246H63.1939V127.315H61.1793L50.7848 112.222V127.315H48.9421V109.246H50.9536L61.3513 124.34Z" fill="black"/>
<path d="M74.3299 108.871C77.878 108.871 81.1605 111.008 81.6157 114.81H79.7749C79.1921 112.129 77.0395 110.463 74.3299 110.463C69.6362 110.463 67.6422 114.383 67.6422 118.281C67.6422 122.185 69.6362 126.103 74.3299 126.103C77.7348 126.103 79.7034 123.435 80.0204 120.35H81.8641C81.406 124.57 78.8291 127.698 74.3299 127.698C68.6288 127.698 65.7964 123.205 65.7964 118.281C65.7964 113.361 68.6288 108.871 74.3299 108.871Z" fill="black"/>
<path d="M91.9107 127.694C86.2067 127.694 83.3793 123.205 83.3793 118.281C83.3793 113.361 86.2067 108.871 91.9107 108.871C97.586 108.871 100.418 113.361 100.418 118.281C100.418 123.205 97.586 127.694 91.9107 127.694ZM91.9107 110.463C87.219 110.463 85.2198 114.383 85.2198 118.281C85.2198 122.183 87.219 126.103 91.9107 126.103C96.5756 126.103 98.5748 122.183 98.5748 118.281C98.5748 114.383 96.5756 110.463 91.9107 110.463Z" fill="black"/>
<path d="M111.505 110.317H106.953V126.251H111.73C115.051 126.251 118.817 124.432 118.817 118.258C118.817 110.959 114.157 110.317 111.505 110.317ZM111.628 127.296H105.758V109.27H111.679C118.121 109.27 120.013 113.699 120.013 118.258C120.013 123.351 117.416 127.296 111.628 127.296Z" fill="black"/>
<path d="M123.71 118.454V126.249H134.787V127.293H122.513V109.27H134.665V110.313H123.71V117.407H134.01V118.454H123.71Z" fill="black"/>
<path fill-rule="evenodd" clip-rule="evenodd" d="M172.359 127.251H176.306V120.821H180.447C184.921 120.821 186.654 117.983 186.654 115.068C186.654 112.153 184.921 109.315 180.447 109.315H172.359V127.251ZM176.306 112.379H179.369C181.204 112.379 182.835 112.784 182.835 115.068C182.835 117.355 181.204 117.754 179.369 117.754H176.306V112.379Z" fill="black"/>
<path fill-rule="evenodd" clip-rule="evenodd" d="M185.35 127.251H189.344L190.75 123.256H197.458L198.813 127.251H202.908L196.2 109.315H192.159L185.35 127.251ZM194.117 113.735H194.165L196.428 120.316H191.783L194.117 113.735Z" fill="black"/>
<path fill-rule="evenodd" clip-rule="evenodd" d="M214.908 104.366C214.934 104.843 214.606 105.246 213.855 105.246C213.277 105.246 212.725 105.018 212.193 104.793C211.67 104.593 211.166 104.366 210.588 104.366C208.379 104.366 207.75 105.974 207.423 107.433H208.955C209.105 106.802 209.33 106.373 210.01 106.373C210.588 106.373 211.14 106.576 211.769 106.802C212.398 107.004 213.076 107.23 213.829 107.23C214.857 107.23 215.46 106.802 215.862 106.227C216.266 105.648 216.466 104.943 216.639 104.366H214.908ZM204.46 127.251H208.149V115.242H208.203L215.66 127.251H219.607V109.315H215.913V121.345H215.862L208.379 109.315H204.46V127.251Z" fill="black"/>
<path fill-rule="evenodd" clip-rule="evenodd" d="M221.164 127.251H225.159L226.563 123.256H233.271L234.626 127.251H238.722L232.016 109.315H227.971L221.164 127.251ZM229.93 113.735H229.981L232.241 120.316H227.596L229.93 113.735Z" fill="black"/>
<path d="M139.825 152.643H148.624V151.621H141.027V146.636H148.057V145.613H141.027V141.053H148.535V140.03H139.825V152.643Z" fill="black"/>
<path d="M158.18 143.527H157.066V148.313C157.066 150.169 156.233 151.969 154.328 151.969C152.561 151.969 151.943 151.105 151.89 149.463V143.527H150.777V149.443C150.777 151.565 151.677 152.909 153.976 152.909C155.333 152.909 156.534 152.219 157.12 150.997H157.153V152.643H158.18V143.527Z" fill="black"/>
<path d="M160.985 152.643H162.097V147.786C162.097 145.894 163.478 144.412 165.492 144.514V143.405C163.846 143.333 162.611 144.197 162.046 145.664H162.01V143.527H160.985V152.643Z" fill="black"/>
<path fill-rule="evenodd" clip-rule="evenodd" d="M170.787 143.256C167.997 143.256 166.474 145.47 166.474 148.083C166.474 150.701 167.997 152.909 170.787 152.909C173.581 152.909 175.099 150.701 175.099 148.083C175.099 145.47 173.581 143.256 170.787 143.256ZM170.787 144.197C172.926 144.197 173.985 146.14 173.985 148.083C173.985 150.026 172.926 151.969 170.787 151.969C168.647 151.969 167.589 150.026 167.589 148.083C167.589 146.14 168.647 144.197 170.787 144.197Z" fill="black"/>
<path d="M184.031 146.191C183.96 144.212 182.513 143.261 180.692 143.261C179.082 143.261 177.262 143.967 177.262 145.823C177.262 147.377 178.361 147.873 179.808 148.262L181.24 148.579C182.245 148.829 183.234 149.182 183.234 150.24C183.234 151.514 181.787 151.969 180.744 151.969C179.261 151.969 178.146 151.191 178.059 149.688H176.945C177.122 151.917 178.571 152.909 180.692 152.909C182.385 152.909 184.348 152.148 184.348 150.169C184.348 148.579 183.022 147.837 181.751 147.643L180.266 147.306C179.506 147.111 178.376 146.759 178.376 145.767C178.376 144.586 179.542 144.197 180.534 144.197C181.805 144.197 182.865 144.816 182.917 146.191H184.031Z" fill="black"/>
<path fill-rule="evenodd" clip-rule="evenodd" d="M186.678 152.638H187.79V143.527H186.678V152.638ZM186.678 141.809H187.79V140.025H186.678V141.809Z" fill="black"/>
<path d="M197.2 146.191C197.131 144.212 195.684 143.261 193.858 143.261C192.253 143.261 190.433 143.967 190.433 145.823C190.433 147.377 191.53 147.873 192.979 148.262L194.411 148.579C195.416 148.829 196.405 149.182 196.405 150.24C196.405 151.514 194.958 151.969 193.913 151.969C192.432 151.969 191.315 151.191 191.23 149.688H190.114C190.293 151.917 191.74 152.909 193.858 152.909C195.556 152.909 197.517 152.148 197.517 150.169C197.517 148.579 196.193 147.837 194.922 147.643L193.434 147.306C192.678 147.111 191.548 146.759 191.548 145.767C191.548 144.586 192.711 144.197 193.703 144.197C194.976 144.197 196.037 144.816 196.088 146.191H197.2Z" fill="black"/>
<path d="M201.594 140.787H200.485V143.527H198.89V144.463H200.485V150.701C200.465 152.255 200.979 152.746 202.463 152.746C202.796 152.746 203.113 152.715 203.45 152.715V151.759C203.133 151.795 202.816 151.815 202.497 151.815C201.702 151.759 201.594 151.34 201.594 150.614V144.463H203.45V143.527H201.594V140.787Z" fill="black"/>
<path fill-rule="evenodd" clip-rule="evenodd" d="M213.431 148.384C213.518 145.823 212.352 143.261 209.417 143.261C206.518 143.261 205.301 145.68 205.301 148.083C205.301 150.68 206.518 152.909 209.417 152.909C211.718 152.909 212.919 151.708 213.395 149.637H212.28C211.928 151.018 211.043 151.969 209.417 151.969C207.28 151.969 206.434 150.01 206.416 148.384H213.431ZM206.416 147.449C206.59 145.787 207.597 144.197 209.417 144.197C211.222 144.197 212.265 145.767 212.316 147.449H206.416Z" fill="black"/>
<path d="M215.629 152.643H216.741V147.556C216.762 145.644 217.539 144.197 219.464 144.197C220.878 144.197 221.389 145.22 221.374 146.462V152.643H222.485V147.485C222.485 145.787 223.032 144.197 224.96 144.197C226.548 144.197 227.112 145.01 227.112 146.513V152.643H228.23V146.462C228.23 144.304 227.202 143.261 225.205 143.261C224.004 143.261 222.853 143.844 222.306 145.046C221.972 143.844 220.895 143.261 219.692 143.261C218.244 143.261 217.288 143.967 216.708 145.066H216.657V143.527H215.629V152.643Z" fill="black"/>
<path fill-rule="evenodd" clip-rule="evenodd" d="M236.881 149.105C236.896 150.89 235.395 151.969 233.701 151.969C232.658 151.969 231.668 151.283 231.668 150.169C231.668 148.384 234.018 148.4 235.906 148.067C236.208 148.011 236.702 147.924 236.845 147.658H236.881V149.105ZM232.056 146.314C232.09 144.831 233.115 144.197 234.495 144.197C235.802 144.197 236.881 144.565 236.881 146.068C236.881 147.076 236.367 147.198 235.449 147.306C233.046 147.587 230.553 147.679 230.553 150.235C230.553 152.076 231.934 152.909 233.611 152.909C235.359 152.909 236.155 152.234 236.932 151.053H236.968C236.968 152.004 237.144 152.638 238.277 152.638C238.578 152.638 238.752 152.623 239 152.572V151.631C238.913 151.672 238.77 151.708 238.647 151.708C238.205 151.708 237.992 151.457 237.992 151.033V146.191C237.992 143.752 236.244 143.256 234.633 143.256C232.55 143.256 231.052 144.177 230.945 146.314H232.056Z" fill="black"/>
<path d="M139.787 127.251H153.4V123.932H143.73V119.538H152.418V116.474H143.73V112.632H153.201V109.315H139.787V127.251Z" fill="black"/>
<path d="M154.929 121.296C154.881 125.718 158.6 127.676 162.568 127.676C167.44 127.676 170.025 125.214 170.025 121.924C170.025 117.853 166.007 117.026 164.7 116.7C160.206 115.544 159.35 115.37 159.35 113.988C159.35 112.478 160.809 111.951 162.065 111.951C163.948 111.951 165.482 112.505 165.605 114.663H169.424C169.424 110.519 165.983 108.887 162.241 108.887C158.999 108.887 155.532 110.646 155.532 114.312C155.532 117.678 158.222 118.709 160.886 119.411C163.519 120.116 166.208 120.442 166.208 122.375C166.208 124.211 164.1 124.61 162.716 124.61C160.61 124.61 158.748 123.682 158.748 121.296H154.929Z" fill="black"/>
</g>
<defs>
<linearGradient id="paint0_linear_24_723" x1="-3.5" y1="-2.86195e-06" x2="256" y2="256" gradientUnits="userSpaceOnUse">
<stop stop-color="white"/>
<stop offset="1" stop-color="#E0E0E0"/>
</linearGradient>
<linearGradient id="paint1_linear_24_723" x1="0" y1="0" x2="256" y2="256" gradientUnits="userSpaceOnUse">
<stop stop-color="white" stop-opacity="0.15"/>
<stop offset="1" stop-opacity="0"/>
</linearGradient>
<clipPath id="clip0_24_723">
<rect width="256" height="256" fill="white"/>
</clipPath>
</defs>
</svg>
