<svg width="256" height="256" viewBox="0 0 256 256" fill="none" xmlns="http://www.w3.org/2000/svg">
<g clip-path="url(#clip0_24_722)">
<rect width="256" height="256" fill="url(#paint0_linear_24_722)"/>
<rect width="256" height="256" fill="white"/>
<rect width="256" height="256" fill="url(#paint1_linear_24_722)"/>
<path d="M127.693 243.945C191.375 243.945 243 192.32 243 128.637C243 64.955 191.375 13.3301 127.693 13.3301C64.0101 13.3301 12.3853 64.955 12.3853 128.637C12.3853 192.32 64.0101 243.945 127.693 243.945Z" fill="#12273F"/>
<path d="M99.5577 84.2442C99.5577 84.1289 99.4423 84.1289 99.5577 84.2442C98.2893 85.8585 94.7147 87.3575 93.677 90.932C93.5617 91.1626 93.331 91.2779 93.1004 91.2779C92.178 91.0473 90.5637 90.932 89.18 91.7391C89.0647 91.7391 89.0647 91.8544 88.9494 91.7391C86.7585 91.5085 82.8381 92.0851 80.6472 94.7371C80.6472 94.8524 80.6472 94.9678 80.6472 94.9678H80.7625C86.6432 92.2004 90.5637 94.7371 91.7167 95.5443C97.3668 99.6954 103.824 110.534 112.933 113.071C112.933 113.071 113.049 113.071 113.049 113.186L113.164 113.302C113.395 114.916 114.663 115.954 116.047 115.723C117.2 115.492 117.892 114.455 117.892 113.071C117.892 112.956 117.892 112.956 118.007 112.956H118.122C123.542 111.226 126.54 99.5801 131.037 98.1964C131.152 98.1964 131.267 98.081 131.152 97.9657C130.691 96.582 128.846 95.1984 126.424 95.083C126.309 95.083 126.194 95.0831 126.194 94.9678C125.271 94.0453 122.273 93.0075 121.12 93.4688C121.005 93.4688 121.005 93.5841 121.005 93.5841C123.772 100.041 121.812 106.96 117.315 109.612C117.315 109.612 117.2 109.612 117.084 109.612C117.084 109.496 117.084 109.496 117.084 109.381C120.659 105.115 120.544 97.5045 118.814 93.8147C118.814 93.8147 118.814 93.8147 118.699 93.8147C118.699 93.8147 118.699 93.8147 118.699 93.93C118.699 95.3137 117.546 96.6974 116.854 98.1964C116.738 98.3117 116.623 98.427 116.508 98.3117C116.393 98.3117 116.393 98.1964 116.393 98.081C115.931 96.2361 116.508 95.0831 116.738 93.2381C116.969 91.2779 117.2 89.3177 117.2 87.3575C118.468 87.2422 119.275 86.8962 119.736 85.6278C120.198 84.5901 120.889 83.3217 121.581 81.4768C122.158 80.2084 122.504 78.7094 122.734 77.3257C122.85 76.1726 122.734 75.4808 122.619 74.3277C122.504 73.1746 122.965 72.4828 122.965 71.3297C122.965 71.3297 122.965 71.2144 122.85 71.2144C122.619 70.9838 122.273 70.8685 122.043 70.8685C121.351 70.7532 120.89 71.5604 121.466 71.9063C122.273 72.3675 122.158 73.29 122.158 73.6359C122.158 73.7512 122.043 73.7512 122.043 73.7512C121.697 73.7512 121.697 73.5206 121.466 73.5206C121.12 73.4053 120.774 73.4053 120.428 73.4053C120.313 73.4053 120.313 73.4053 120.313 73.5206C120.313 73.8665 120.544 74.789 119.736 75.2502C119.621 75.2502 119.621 75.2502 119.506 75.2502C119.16 74.5583 118.929 73.29 118.699 72.5981C118.237 71.2144 119.16 70.292 119.621 70.1767C120.313 69.8307 121.466 69.8307 122.158 69.9461C122.388 69.9461 122.619 70.0613 122.85 70.292H122.965C122.388 67.7552 122.734 65.795 121.351 64.296C120.544 63.4888 117.43 62.2205 113.395 62.6817C110.858 62.9123 109.589 64.0654 106.707 63.4888C106.591 63.4888 106.591 63.3735 106.591 63.2582C106.591 63.1429 106.707 63.1429 106.707 63.1429C110.973 61.9898 111.896 58.6459 118.583 59.2225C121.235 59.4531 121.235 61.298 121.12 61.9898C121.12 62.1051 121.12 62.2204 121.235 62.2204C122.504 62.9123 123.542 64.6419 123.772 66.0256C123.772 66.1409 123.887 66.1409 124.003 66.1409C124.003 66.1409 124.118 66.1409 124.118 66.0256C124.464 65.2184 124.695 64.296 124.349 63.2582C124.003 62.3358 123.196 62.2204 122.85 61.0674C121.581 55.5326 113.395 57.9541 110.051 56.6857C108.206 55.9939 103.709 56.801 98.8658 60.6061C96.7903 62.2205 95.4066 65.3337 95.6372 70.0614C95.6372 71.445 95.176 75.8267 97.5974 79.7472C98.2893 80.9003 99.2117 81.7074 100.365 82.8605C100.365 82.8605 100.365 82.8605 100.48 82.8605C100.48 82.8605 100.48 82.8605 100.48 82.7452C100.019 79.9778 97.3668 77.2104 97.4821 72.3675C97.7127 69.8307 99.0964 67.6399 100.365 67.0634C100.48 67.0634 100.48 67.0634 100.595 67.1787V67.294C100.249 68.3317 100.019 69.8307 100.365 70.8685C100.365 70.9838 100.48 70.9838 100.595 70.9838C101.748 70.1767 101.979 68.1011 103.709 66.3715C104.862 65.2184 107.053 65.4491 109.82 64.4113C109.935 64.4113 110.051 64.4113 110.051 64.5266C110.051 64.5266 110.051 64.5266 110.051 64.6419C109.474 67.6399 106.707 68.4471 105.784 72.7134C105.208 75.5961 101.403 76.5186 101.287 77.441V77.5563C102.556 79.2859 104.516 78.7094 104.746 79.2859C104.17 79.7472 103.247 79.7472 103.363 80.439C104.401 85.5125 103.709 88.6258 102.786 90.4708C102.094 91.8544 99.7883 92.431 97.828 92.6616C97.7127 92.6616 97.4821 92.5463 97.4821 92.431V92.3157C97.7127 91.5085 98.2893 90.3555 99.2117 89.2024C99.5576 88.7412 98.8658 88.8565 98.0586 88.8565C97.9433 88.8565 97.828 88.7412 97.7127 88.6258C97.7127 88.5105 97.7127 88.5105 97.828 88.3952C98.174 87.5881 99.4423 86.0891 99.5577 84.2442ZM119.967 81.5921C120.198 81.7074 120.198 81.8227 120.082 81.938C120.082 81.938 119.736 82.0533 119.621 82.1686C119.16 82.7452 118.468 83.0911 117.315 82.8605C115.931 82.6299 115.124 81.5921 113.625 81.7074C113.395 81.7074 113.51 81.1309 114.086 81.1309C114.778 81.1309 115.355 80.439 116.854 80.3237C117.43 80.3237 117.661 80.7849 118.237 80.5543C119.045 80.3237 119.506 81.3615 119.967 81.5921ZM118.583 76.7492C119.045 76.8645 119.391 77.2104 119.506 77.6716C119.621 78.0176 118.699 78.94 118.237 78.8247C117.776 78.7094 117.084 78.3635 116.277 78.2482C115.931 78.2482 116.047 77.7869 116.277 77.5563C116.508 77.3257 116.738 77.2104 117.084 77.0951C117.661 76.9798 117.892 76.7492 118.583 76.7492ZM110.397 72.4828C110.858 72.0216 111.088 71.791 111.896 71.445C112.587 71.2144 112.472 70.4073 110.742 70.6379C110.281 70.7532 110.397 70.4073 111.088 69.9461C112.241 69.1389 112.472 69.0236 114.894 69.4848C115.585 69.6001 116.162 69.7154 116.738 70.0614C116.854 70.1767 117.084 70.6379 116.854 71.2144C116.277 72.4828 116.047 73.29 115.009 73.0593C113.856 72.8287 113.279 73.29 112.011 72.8287C111.204 72.5981 110.973 72.944 110.742 72.944C110.051 73.1746 109.935 72.8287 110.397 72.4828ZM107.975 84.4748C109.935 85.8585 112.818 87.4728 116.277 87.7034C116.738 87.8187 115.47 90.0095 113.856 90.2401C111.088 90.5861 108.436 86.7809 107.629 84.7054C107.629 84.5901 107.629 84.4748 107.744 84.4748C107.86 84.3595 107.975 84.3595 107.975 84.4748ZM99.2117 94.1606C108.206 97.5045 109.82 105.576 113.049 109.496C113.164 109.612 113.164 109.727 113.049 109.727C112.933 109.842 112.818 109.842 112.818 109.727C107.053 107.306 105.323 99.6954 98.9811 94.3912C98.8658 94.2759 98.8658 94.1606 98.9811 94.1606C98.9811 94.1606 99.0964 94.1606 99.2117 94.1606Z" fill="white"/>
<path d="M193.072 189.059C193.187 189.289 193.418 189.289 193.648 189.174C193.879 189.059 193.879 188.828 193.764 188.597C177.621 153.89 147.064 155.85 132.42 129.906C132.305 129.675 131.844 129.906 131.959 130.136C144.758 162.423 175.891 161.846 193.072 189.059Z" fill="white"/>
<path d="M46.055 154.005C46.055 154.12 46.1703 154.12 46.1703 154.12C46.2856 154.12 46.2856 154.12 46.2856 154.005C49.3989 141.091 57.2398 136.709 64.1583 122.526C68.3093 113.878 68.8859 106.96 75.4584 99.2341C75.5737 99.1188 75.5737 99.1188 75.4584 99.0035C75.4584 99.0035 75.3431 98.8882 75.2278 99.0035C66.4644 104.769 64.9654 114.339 60.6991 121.488C54.7031 131.751 45.3632 133.365 46.055 154.005Z" fill="white"/>
<path d="M102.556 162.768C105.9 160.462 110.858 158.848 115.701 158.963C124.579 159.079 129.192 157.003 131.844 157.003C133.919 157.003 135.879 157.58 137.609 158.617C137.955 158.848 138.301 158.617 138.186 158.156C137.955 156.888 137.378 155.389 136.11 154.466C134.496 153.313 130.229 151.699 127.001 149.277C123.657 146.741 119.275 148.24 113.971 148.47C108.321 148.701 107.168 148.009 104.17 148.124C100.25 148.24 98.174 148.816 96.9056 149.969C95.2913 151.468 95.9831 153.313 96.4444 154.12C96.5597 154.351 96.9056 154.466 97.1362 154.236C98.5199 153.313 103.247 151.122 111.319 153.198C111.434 153.198 111.55 153.429 111.55 153.544C111.55 153.659 111.434 153.774 111.319 153.774C103.363 154.236 100.48 155.735 98.9811 157.464C98.8658 157.58 98.8658 157.926 98.9811 158.041C99.7883 159.309 100.365 161.269 101.287 162.423C101.403 162.999 102.094 163.114 102.556 162.768Z" fill="white"/>
<path d="M136.341 164.729C135.072 165.19 133.919 165.766 132.882 166.458C132.766 166.574 132.651 166.804 132.766 166.92C132.766 166.92 132.766 166.92 132.882 167.035C135.995 169.456 141.53 173.377 143.144 177.067C147.295 186.637 154.213 198.398 162.631 208.776C162.746 209.007 163.092 209.007 163.207 208.891C163.323 208.776 163.438 208.661 163.323 208.43C161.017 197.476 160.325 182.371 157.442 176.49C155.712 173.146 147.18 166.228 140.607 162.307C134.496 159.425 128.385 161.615 123.772 162.307C123.657 162.307 123.542 162.423 123.542 162.653C123.542 162.768 123.657 162.884 123.772 162.884C128.385 164.383 132.882 163.345 136.225 164.037C136.456 164.037 136.571 164.267 136.456 164.383C136.571 164.498 136.571 164.613 136.341 164.729Z" fill="white"/>
<path d="M100.019 134.057C101.864 139.246 103.593 141.552 106.476 144.089C109.359 146.625 119.16 145.818 120.659 145.011C121.697 144.435 122.043 143.166 122.158 142.359C122.965 139.592 123.426 132.212 124.233 131.059C126.77 127.369 128.039 124.486 128.154 121.373C128.269 118.606 127.116 115.954 126.194 110.304C126.194 110.073 125.963 109.958 125.848 110.073C125.732 110.073 125.617 110.188 125.617 110.188C124.464 112.033 122.389 114.455 119.391 115.608C119.391 115.608 119.275 115.608 119.275 115.723C117.315 117.683 116.738 121.604 115.931 123.564C115.816 123.91 115.47 124.025 115.239 123.91C115.124 123.795 114.894 123.679 114.894 123.564C114.317 121.258 113.279 118.375 111.434 115.954C111.434 115.838 111.319 115.838 111.204 115.838C104.17 114.224 100.134 109.727 96.7903 105.461C96.675 105.23 96.3291 105.23 96.0985 105.461C95.9832 105.576 95.9832 105.691 95.9832 105.807C95.6373 113.532 94.4842 119.759 91.9474 123.679C91.8321 123.91 91.7168 124.14 91.7168 124.371C91.7168 127.715 92.524 133.942 94.1383 137.631C95.7526 141.437 97.9434 143.627 98.9812 143.858C101.172 144.435 98.7505 139.246 98.6352 134.403C98.6352 134.057 98.8659 133.826 99.2118 133.826C99.673 133.596 99.9036 133.826 100.019 134.057Z" fill="white"/>
<path d="M206.678 87.1268L206.563 87.2421C204.257 87.7034 201.95 88.3952 199.644 89.2024C199.529 89.2024 199.414 89.2023 199.414 89.087V88.9717C201.72 86.2044 200.682 82.8604 202.066 81.0155C202.066 80.9002 202.066 80.7849 202.066 80.7849H201.95C195.147 82.9758 195.147 88.1646 196.07 90.7014C196.07 90.8167 196.07 90.8167 195.955 90.932C194.225 91.7391 192.611 92.6616 191.112 93.6993C190.996 93.6993 190.881 93.6993 190.881 93.6993V93.584C192.265 90.3554 190.42 87.4727 191.227 85.2819C191.227 85.1666 191.227 85.0513 191.112 85.0513H190.996C185.231 88.8564 186.384 93.6993 187.883 95.8902C187.883 96.0055 187.883 96.1208 187.883 96.1208C186.269 97.3892 184.77 98.7729 183.386 100.272C183.271 100.157 183.04 100.157 182.925 100.041C182.233 99.6953 181.541 99.58 180.734 99.4647C179.581 99.4647 178.658 99.4647 176.929 99.58C176.122 99.3494 175.776 99.1188 174.738 99.4647C173.124 100.041 172.432 100.272 171.971 100.618C170.472 101.771 169.434 102.693 168.973 103.5C168.281 104.538 167.82 105.576 167.474 106.498C166.551 107.882 164.476 110.419 160.786 113.302C159.748 114.109 155.943 116.646 153.521 118.49C151.676 117.914 149.255 115.838 147.179 114.224C145.104 112.61 143.605 111.111 142.221 109.266C140.722 107.075 140.146 105.691 137.724 103.039C136.687 101.886 134.957 100.733 133.227 99.9259H133.112C132.074 99.9259 129.653 101.425 129.076 103.27C128.384 105.115 127.923 111.457 129.768 114.916C129.883 115.147 130.229 115.377 130.575 115.147C131.152 114.916 131.844 114.916 132.305 115.262C133.919 116.53 134.496 117.107 137.724 120.451C141.875 124.832 145.335 126.677 149.601 128.176C150.639 128.522 153.752 129.906 154.674 129.906C155.712 129.791 157.442 128.637 160.786 125.755C164.245 122.757 165.859 120.22 167.358 118.029C168.05 116.876 172.662 110.995 173.008 110.765C173.354 110.534 174.277 110.534 175.314 110.419C175.43 110.419 175.545 110.534 175.545 110.65V110.765C173.47 114.455 172.201 117.683 171.509 119.759C170.818 121.95 173.124 121.258 173.47 120.105C174.161 117.453 175.545 114.109 177.505 110.534C177.621 110.419 177.736 110.304 177.967 110.304C179.466 110.188 179.927 110.073 180.273 109.958C180.849 109.727 181.195 109.266 181.31 108.689C181.31 108.343 181.426 108.343 182.002 108.113C182.348 107.997 182.809 107.306 182.809 106.844C182.809 106.614 182.694 106.498 182.579 106.383C182.464 106.268 182.464 106.153 182.579 106.037C182.809 105.807 183.271 105.691 183.501 105.461C183.732 105.115 183.963 104.769 183.963 104.308C183.963 104.192 184.078 104.192 184.078 104.192C184.654 104.077 185.346 104.192 185.692 103.962C186.384 103.5 186.384 103.385 186.499 102.463C186.499 102.117 186.153 101.771 185.923 101.656C185.807 101.54 185.692 101.54 185.462 101.425H185.346L185.231 101.54C185.116 101.656 185 101.771 184.77 101.771C184.539 101.771 184.308 101.771 184.193 101.771C184.078 101.771 184.078 101.656 184.078 101.656V101.54C186.269 99.1188 188.805 96.9279 191.573 94.9677C191.688 94.9677 191.803 94.9677 191.803 94.9677C194.571 101.425 202.181 99.1188 204.949 97.9657C205.064 97.9657 205.064 97.8504 205.064 97.7351C205.064 97.6198 204.949 97.6198 204.949 97.6198C200.221 98.081 198.607 93.8146 193.533 93.9299C193.418 93.9299 193.302 93.8146 193.302 93.8146C193.302 93.6993 193.302 93.6993 193.418 93.6993C195.263 92.5463 197.223 91.5085 199.183 90.586C199.298 90.586 199.414 90.586 199.414 90.7014C202.527 97.2739 210.137 94.3912 212.905 93.0075C213.02 93.0075 213.02 92.8922 213.02 92.7769C213.02 92.6616 212.905 92.6616 212.905 92.6616C208.523 93.3534 206.563 89.7789 202.181 89.7789C202.066 89.7789 202.066 89.6636 202.066 89.6636C202.066 89.5483 202.066 89.5483 202.181 89.5483C203.795 88.9717 205.525 88.3952 207.139 88.0493C207.255 88.0493 207.37 88.0493 207.37 88.0493C212.443 90.2401 215.903 86.5503 221.207 86.5503C221.322 86.5503 221.437 86.435 221.437 86.435C221.437 86.435 221.437 86.3197 221.322 86.3197C216.825 83.0911 208.638 81.938 206.678 87.1268ZM179.466 103.731C178.889 103.731 177.275 103.385 176.237 103.27C176.006 103.731 176.006 104.308 176.468 104.654C176.583 104.654 176.583 104.769 176.468 104.884C176.468 104.999 176.352 104.999 176.237 104.884C175.199 104.654 174.738 104.538 174.277 104.884C174.046 105.115 174.046 105.461 174.161 105.691C174.277 105.807 174.161 106.037 174.046 106.037C173.931 106.037 173.816 106.153 173.816 106.153C173.585 106.383 173.585 106.614 173.7 106.844C173.815 107.19 174.046 107.536 174.277 107.767C174.392 107.882 174.623 108.113 174.853 108.228C174.969 108.343 174.969 108.459 174.853 108.459L174.738 108.574C173.124 108.574 171.509 107.767 171.048 106.153C171.048 106.037 171.048 105.807 171.163 105.807C173.124 104.654 174.277 102.693 174.853 102.232C175.43 101.771 176.698 102.117 177.736 102.347C178.658 102.578 180.273 103.039 181.656 102.001C181.772 102.001 181.772 102.001 181.887 102.001C181.887 102.001 181.887 102.001 181.887 102.117C182.002 103.385 180.388 103.846 179.466 103.731Z" fill="white"/>
<path d="M96.5596 169.226C96.5596 168.995 96.7902 168.995 96.9055 168.995C97.0209 168.995 97.1362 169.11 97.1362 169.226C97.4821 170.494 97.828 172.339 98.0586 172.8C98.2892 173.146 98.6352 173.492 98.9811 173.492C99.2117 173.492 99.4423 173.377 99.5576 173.031V172.915C99.4423 171.993 99.327 170.379 99.327 169.341C99.327 168.534 99.2117 165.19 98.9811 164.267C98.2893 161.615 97.7127 159.309 96.2137 157.118C95.6372 156.311 86.0667 145.934 85.0289 144.896C83.9911 143.858 80.7625 139.361 78.4564 136.248V136.132V136.017C78.687 134.288 80.4166 131.059 82.1462 127.254C82.1462 127.138 82.1462 127.023 82.1462 127.023C80.186 118.606 78.5717 111.687 77.4186 106.844C77.4186 106.729 77.3033 106.729 77.188 106.729C77.188 106.729 77.0727 106.729 77.0727 106.844C76.0349 110.304 74.9972 115.031 74.5359 116.646C73.7288 119.298 70.0389 127.715 69.1165 131.635C68.7706 133.019 68.5399 134.518 68.4246 136.017C68.3093 137.516 67.6175 139.822 68.6552 141.091C69.0012 141.552 69.3471 142.013 69.693 142.359C71.192 144.319 72.9216 146.164 74.6512 147.894C78.5717 151.584 85.1442 156.081 86.182 157.003C87.7963 158.617 87.7963 158.733 88.1422 161.615C88.2575 162.768 88.2575 167.727 88.4881 168.188C88.834 168.88 89.2953 169.11 90.333 170.263L90.4483 170.379C91.1402 172.224 91.3708 172.8 91.6014 173.723C91.832 174.414 92.178 174.645 92.6392 174.645C92.8698 174.645 92.9851 174.76 93.1004 174.991C93.1004 175.452 93.2157 175.683 93.2157 176.144C93.4463 178.104 93.9075 180.18 93.9075 180.526C93.9075 180.872 95.2912 181.448 95.6372 179.027C95.8678 177.182 95.7525 175.913 95.7525 174.53C95.6372 173.377 96.0984 171.071 96.5596 169.226Z" fill="white"/>
<path d="M78.5718 86.8962L79.9555 87.1268C80.1861 87.1268 80.3014 87.0115 80.4167 86.8962V86.7809C79.9555 84.4748 77.7647 74.9042 71.3074 66.1409C71.1921 66.0256 71.0768 66.0256 70.9615 66.0256L70.8462 66.1409C69.0013 76.4032 71.4228 86.3197 71.9993 88.6258C71.9993 88.8564 72.2299 88.9717 72.4605 88.8564C72.4605 88.8564 72.5758 88.8564 72.5758 88.7411L73.7289 87.8187C74.0748 87.5881 74.6514 87.5881 74.882 87.934C74.9973 88.0493 74.9973 88.1646 74.9973 88.2799C76.381 93.93 82.1463 118.375 88.4882 144.781C89.1801 147.663 90.2179 148.932 91.8322 149.623C92.0628 149.739 92.1781 149.623 92.2934 149.393C92.2934 149.278 92.2934 149.278 92.2934 149.162L85.3749 119.989C85.3749 119.874 85.3749 119.874 85.3749 119.759C86.7586 116.184 88.027 112.61 88.7188 109.612C88.7188 109.496 88.8342 109.381 89.0648 109.381C89.1801 109.381 89.1801 109.496 89.2954 109.612C89.526 110.765 89.8719 113.071 88.9495 116.53C88.4882 118.375 88.9495 119.413 89.4107 120.335C89.4107 120.451 89.6413 120.451 89.7566 120.451C89.7566 120.451 89.8719 120.451 89.8719 120.335C92.2934 116.415 95.2914 108.574 92.6393 100.041C91.7169 97.0433 86.0668 93.3534 82.7229 96.1208C82.031 96.8127 81.3392 97.5045 80.9933 98.427C80.878 98.5423 80.7626 98.6576 80.6473 98.5423C80.532 98.5423 80.532 98.427 80.532 98.427C79.379 93.584 78.4565 89.7789 77.9953 87.7034C77.88 87.2421 78.1106 86.7809 78.5718 86.6656C78.3412 86.8962 78.4565 86.8962 78.5718 86.8962Z" fill="white"/>
<path d="M221.783 97.0432C221.783 97.0432 221.553 96.3514 220.861 96.582C220.284 96.8126 220.515 97.5045 220.515 97.5045C223.974 107.882 225.588 118.721 225.473 129.675C224.781 170.725 198.376 205.317 161.939 218.577C161.362 218.808 160.67 218.577 160.325 218.116C149.14 203.703 144.643 188.713 139.108 178.796C136.341 173.838 127.808 169.802 120.774 163.691C120.428 163.345 119.967 163.114 118.929 163.114C116.162 162.999 107.744 161.5 101.979 170.955C100.48 173.377 106.361 182.371 108.897 183.639C114.086 186.406 121.581 181.794 125.617 178.911C125.963 178.681 126.424 178.796 126.539 179.142C126.655 179.373 126.655 179.603 126.539 179.834C123.887 184.216 113.049 202.319 107.629 195.977C107.514 195.862 107.283 195.862 107.168 195.977C107.053 196.092 107.053 196.208 107.053 196.323C107.86 202.204 111.665 209.237 116.623 206.701C122.504 203.703 124.695 198.168 128.5 188.367C128.615 188.021 128.961 187.905 129.192 188.021C129.422 188.136 129.537 188.367 129.537 188.597C128.269 200.705 124.579 215.579 115.931 222.844C115.585 223.19 115.124 223.305 114.663 223.189C113.048 222.959 111.55 222.613 109.935 222.382C109.82 222.382 109.705 222.267 109.705 222.152C109.128 219.73 104.285 199.321 98.5198 175.106C98.5198 174.991 98.2892 174.876 98.1739 174.876C98.0586 174.876 98.0585 174.991 97.9432 174.991C97.482 175.913 97.0208 177.528 96.7902 179.488V179.603C101.748 200.359 105.784 217.424 106.707 221.114C106.707 221.345 106.591 221.46 106.476 221.575H106.361C103.247 220.768 100.019 219.846 97.0208 218.808C96.9055 218.693 96.7902 218.577 96.7902 218.347C98.2892 213.158 99.2116 207.392 99.6728 201.396V201.281C98.5198 196.323 97.3667 191.249 96.0983 185.945C95.983 185.484 95.7524 185.253 95.5218 185.253C95.2912 185.253 95.0605 185.599 95.0605 186.061C95.1759 187.329 95.1759 188.713 95.1759 189.981C95.1759 190.096 95.0606 190.212 94.9453 190.212C89.6411 189.75 83.8757 188.943 78.4563 188.021C78.341 188.021 78.2257 187.905 78.2257 187.675V187.56C81.8002 182.717 85.4901 178.104 89.0646 173.492C89.0646 173.377 89.1799 173.377 89.0646 173.261C88.9493 172.57 88.7187 171.993 88.3727 171.416L88.2574 171.301C87.2197 170.609 86.2972 170.148 85.836 169.572C85.7206 169.456 85.6054 169.456 85.49 169.572C82.4921 173.377 79.1481 177.528 75.8042 181.909C75.6889 182.025 75.5736 182.025 75.4583 181.909C75.343 181.794 75.343 181.794 75.343 181.679C75.4583 180.18 75.6889 178.566 75.8042 176.951C75.8042 176.951 75.8042 176.836 75.9195 176.836C79.1482 172.685 82.3767 168.534 85.49 164.613C85.49 164.613 85.6054 164.498 85.6054 164.383C85.6054 163.576 85.49 162.768 85.49 161.961C85.49 161.846 85.3747 161.731 85.2594 161.731C85.1441 161.731 85.1441 161.731 85.0288 161.846C82.4921 165.075 79.7247 168.534 76.9573 172.108C76.842 172.224 76.7267 172.224 76.4961 172.108C76.3808 171.993 76.3808 171.993 76.3808 171.878C76.842 167.381 77.4185 162.884 77.9951 158.617C77.9951 158.502 78.1104 158.387 78.341 158.387C80.3012 158.617 82.2614 158.733 84.2217 158.963C84.337 158.963 84.4523 158.963 84.4523 158.733C84.4523 158.617 84.4523 158.502 84.337 158.502C84.1064 158.271 83.8757 158.156 83.6451 158.041C81.9155 156.772 79.7247 155.158 77.1879 153.083C77.1879 153.083 77.0726 152.967 76.9573 152.967C67.848 152.275 58.7387 151.353 54.4724 150.892C52.8581 150.776 51.3591 151.122 50.6672 153.198C47.8998 160.808 46.4008 167.727 45.4784 173.607C45.4784 173.838 45.2478 173.953 45.1325 173.953C45.0172 173.953 44.9019 173.838 44.9019 173.723C37.061 159.194 33.0252 142.82 33.3711 126.216C34.2936 72.944 78.8022 30.3956 132.074 31.7793C164.706 32.5864 193.187 49.6519 210.022 75.0195C210.022 75.0195 210.483 75.7114 211.06 75.3655C211.636 75.0195 211.175 74.3277 211.175 74.3277C193.994 48.0376 164.591 30.5109 130.921 29.5884C76.2654 27.9741 30.719 70.9838 29.1047 125.639C29.1047 126.101 29.1047 126.447 29.1047 126.908C28.067 182.255 72.4603 227.802 127.923 227.917C181.541 228.148 226.742 183.639 227.433 130.021C226.972 118.721 225.243 107.652 221.783 97.0432ZM73.0368 206.009C73.1522 205.086 73.1522 203.933 73.2675 202.549C73.2675 202.434 73.3828 202.319 73.6134 202.319L73.9593 202.434C74.0746 202.434 74.0746 202.549 74.1899 202.549C75.1124 204.51 76.1501 206.47 77.3032 208.545C77.4185 208.661 77.3032 208.891 77.1879 208.891C77.0726 208.891 76.9573 208.891 76.9573 208.891C75.6889 208.084 74.5358 207.277 73.2675 206.355C73.1522 206.239 73.0368 206.124 73.0368 206.009ZM80.8778 211.082C79.6094 208.776 78.1104 206.239 76.7267 203.357C76.6114 203.241 76.7267 203.011 76.842 203.011C76.9573 203.011 76.9573 203.011 77.0726 203.011C82.6074 204.279 88.1421 205.086 93.7922 205.778C93.9075 205.778 94.0228 205.893 94.0228 206.124C93.5616 209.583 92.8697 212.927 91.9473 216.271C91.9473 216.502 91.7167 216.617 91.486 216.502C88.0268 215.003 84.5676 213.273 81.339 211.428C81.2237 211.428 81.2237 211.313 81.1084 211.313C80.9931 211.198 80.8778 211.198 80.8778 211.082ZM66.1184 157.118C68.7705 157.464 71.7685 157.695 74.6512 158.041C74.7665 158.041 74.8818 158.156 74.8818 158.387C73.4981 167.727 72.345 178.45 71.5378 189.52C71.5378 189.635 71.6532 189.75 71.7685 189.866C78.6869 191.249 86.5278 192.518 94.5993 193.44C94.7146 193.44 94.83 193.556 94.83 193.786C94.83 197.13 94.5993 200.243 94.2534 203.126C94.2534 203.241 94.1381 203.357 93.9075 203.357C86.2972 202.549 78.341 201.166 71.0766 199.321C70.9613 199.321 70.7307 199.321 70.7307 199.551C70.6154 200.935 70.5001 202.319 70.5001 203.703C70.5001 203.933 70.2695 204.048 70.1542 204.048C70.0389 204.048 70.0389 204.048 69.9236 203.933C63.1204 198.629 57.0091 192.402 51.9356 185.484C51.8203 185.369 51.8203 185.138 52.0509 185.023C52.1662 184.907 52.2815 184.907 52.3968 185.023C55.0489 185.83 58.3928 186.752 62.198 187.675C62.3133 187.675 62.5439 187.675 62.5439 187.444C63.4663 176.721 64.5041 166.804 65.8878 157.464C65.7725 157.118 66.0031 157.003 66.1184 157.118ZM56.7785 155.965C58.5081 156.196 60.699 156.427 63.1204 156.772C63.2357 156.772 63.351 156.888 63.351 157.118C62.7745 161.269 62.1979 165.421 61.7367 169.572C61.7367 169.687 61.6214 169.802 61.3908 169.802C61.2755 169.802 61.1602 169.687 61.1602 169.572C59.3153 164.959 57.701 160.462 56.4326 156.311C56.4326 156.081 56.5479 155.965 56.7785 155.965ZM50.5519 160.347C50.6672 159.886 50.8978 159.309 51.0131 158.848C51.1285 158.271 51.3591 157.81 51.5897 157.349C51.705 157.234 51.8203 157.234 51.9356 157.234L52.0509 157.349C54.1264 163.576 57.5857 172.8 60.4683 179.949C60.4683 180.065 60.4683 180.065 60.4683 180.18C60.4683 180.295 60.4683 180.295 60.4683 180.41C60.353 181.448 60.2377 183.178 60.1224 184.216C60.1224 184.331 60.0071 184.446 59.8918 184.446L59.6612 184.331C59.5459 184.331 59.5459 184.216 59.5459 184.216C56.7785 177.758 52.9734 167.957 50.5519 160.578C50.5519 160.462 50.5519 160.347 50.5519 160.347ZM49.7448 163.345C49.7448 163.23 49.8601 163.114 49.9754 163.114C50.0907 163.114 50.206 163.23 50.206 163.345C51.9356 168.764 54.5877 175.913 57.5857 183.408C57.701 183.524 57.5857 183.754 57.4703 183.754C57.4703 183.754 57.355 183.754 57.2397 183.754C53.7805 182.832 51.0131 182.025 49.1682 181.333C49.0529 181.333 48.9376 181.218 48.9376 181.102C48.3611 180.295 47.7845 179.373 47.3233 178.566C47.208 178.45 47.208 178.22 47.208 178.104C47.6692 173.031 48.4764 168.188 49.7448 163.345Z" fill="white"/>
</g>
<defs>
<linearGradient id="paint0_linear_24_722" x1="-3.5" y1="-2.86195e-06" x2="256" y2="256" gradientUnits="userSpaceOnUse">
<stop stop-color="white"/>
<stop offset="1" stop-color="#E0E0E0"/>
</linearGradient>
<linearGradient id="paint1_linear_24_722" x1="0" y1="0" x2="256" y2="256" gradientUnits="userSpaceOnUse">
<stop stop-color="white" stop-opacity="0.15"/>
<stop offset="1" stop-opacity="0"/>
</linearGradient>
<clipPath id="clip0_24_722">
<rect width="256" height="256" fill="white"/>
</clipPath>
</defs>
</svg>
