<svg width="256" height="256" viewBox="0 0 256 256" fill="none" xmlns="http://www.w3.org/2000/svg">
<g clip-path="url(#clip0_24_720)">
<path d="M256 0H0V256H256V0Z" fill="#B90005"/>
<path d="M134.597 102.407C134.597 107.008 128.869 106.735 128.869 106.735H123.141V98.4207H128.869C134.762 98.3724 134.597 102.407 134.597 102.407ZM123.141 85.741H127.51C132.044 85.98 131.866 89.3536 131.866 89.3536C131.866 93.5454 126.863 93.6136 126.863 93.6136H123.141V85.741ZM133.543 95.2486C133.543 95.2486 137.454 93.5788 137.429 89.1491C137.429 89.1491 138.063 81.8897 128.399 81.0042H117.731V111.438H129.961C129.961 111.438 140.185 111.467 140.185 102.851C140.185 102.851 140.439 96.9862 133.543 95.2486ZM105.92 75.041H150.852V117.384H105.92V75.041ZM82.7814 102.407C82.7814 107.008 77.0537 106.735 77.0537 106.735H71.3261V98.4207H77.0537C82.9465 98.3724 82.7814 102.407 82.7814 102.407ZM71.3261 85.741H75.6949C80.2287 85.98 80.0509 89.3536 80.0509 89.3536C80.0509 93.5454 75.0472 93.6136 75.0472 93.6136H71.3261V85.741ZM81.7274 95.2486C81.7274 95.2486 85.6388 93.5788 85.6135 89.1491C85.6135 89.1491 86.2482 81.8897 76.5839 81.0042H65.916V111.438H78.146C78.146 111.438 88.3694 111.467 88.3694 102.851C88.3694 102.851 88.6238 96.9862 81.7274 95.2486ZM54.1052 75.041H99.0372V117.384H54.1052V75.041ZM193.499 83.186V88.8086C193.499 88.8086 188.012 85.4358 181.954 85.3679C181.954 85.3679 170.639 85.1463 170.131 96.2138C170.131 96.2138 169.75 106.392 181.815 106.973C181.815 106.973 186.895 107.584 193.778 103.193V109.016C193.778 109.016 184.533 114.504 173.839 110.277C173.839 110.277 164.848 106.992 164.505 96.214C164.505 96.214 164.124 85.1282 176.125 81.4483C176.125 81.4483 179.326 80.222 185.079 80.7672C185.079 80.767 188.52 81.1074 193.499 83.186ZM157.736 117.384H202.668V75.0412H157.736V117.384Z" fill="white"/>
<path d="M65.0985 180.659C62.5987 176.756 60.0332 172.809 57.4018 168.818C54.8143 164.827 52.2268 160.88 49.6393 156.977C47.0518 153.074 44.4862 149.28 41.9426 145.596V180.659H33.9169V133.624H42.3373C46.2843 139.325 50.1656 145.07 53.9811 150.859C57.8404 156.648 61.6778 162.525 65.4933 168.489V133.624H73.5189V180.659H65.0985Z" fill="white"/>
<path d="M84.4113 133.624H115.856V140.662H92.7658V152.832H113.356V159.871H92.7658V173.62H117.106V180.659H84.4113V133.624Z" fill="white"/>
<path d="M162.588 180.659C160.965 175.046 159.365 169.41 157.786 163.753C156.207 158.095 154.672 152.438 153.181 146.78C151.69 152.394 150.155 158.051 148.576 163.753C147.041 169.41 145.462 175.046 143.84 180.659H135.025C132.7 172.984 130.485 165.222 128.38 157.372C126.275 149.521 124.28 141.605 122.394 133.624H131.406C132.678 140.027 134.016 146.451 135.419 152.898C136.867 159.301 138.38 165.573 139.958 171.713C141.625 165.66 143.226 159.63 144.761 153.622C146.339 147.614 147.852 141.605 149.3 135.597H157.523C158.97 141.561 160.461 147.504 161.996 153.425C163.531 159.345 165.11 165.266 166.732 171.186C168.311 165.09 169.802 158.885 171.206 152.569C172.609 146.254 173.947 139.939 175.219 133.624H184.034C182.104 141.605 180.087 149.521 177.982 157.372C175.876 165.222 173.684 172.984 171.403 180.659H162.588Z" fill="white"/>
<path d="M203.391 181.646C200.848 181.646 198.326 181.361 195.826 180.791C193.327 180.221 190.98 179.344 188.787 178.159V170.528C193.305 173.335 198.216 174.739 203.523 174.739C206.812 174.739 209.334 174.125 211.088 172.897C212.886 171.669 213.785 169.98 213.785 167.831C213.785 166.603 213.522 165.595 212.996 164.805C212.47 163.972 211.746 163.292 210.825 162.766C209.948 162.196 208.917 161.735 207.733 161.384C206.593 161.034 205.387 160.705 204.115 160.398C201.791 159.828 199.664 159.192 197.734 158.49C195.848 157.744 194.204 156.867 192.8 155.859C191.441 154.85 190.388 153.6 189.643 152.109C188.897 150.618 188.524 148.798 188.524 146.649C188.524 143.754 189.248 141.277 190.695 139.215C192.142 137.11 194.204 135.488 196.879 134.347C199.554 133.207 202.734 132.637 206.418 132.637C208.83 132.637 211.22 132.922 213.588 133.492C215.956 134.062 218.061 134.83 219.903 135.795V143.228C218.149 142.132 216.088 141.255 213.72 140.597C211.395 139.895 208.917 139.544 206.286 139.544C203.304 139.544 200.979 140.114 199.313 141.255C197.646 142.351 196.813 143.93 196.813 145.991C196.813 147.482 197.208 148.666 197.997 149.543C198.787 150.377 199.905 151.056 201.352 151.583C202.799 152.065 204.488 152.548 206.418 153.03C208.523 153.556 210.518 154.148 212.404 154.806C214.334 155.464 216.022 156.319 217.469 157.372C218.96 158.38 220.123 159.674 220.956 161.253C221.789 162.832 222.206 164.805 222.206 167.174C222.206 170.2 221.46 172.787 219.969 174.936C218.478 177.085 216.307 178.752 213.456 179.936C210.65 181.076 207.295 181.646 203.391 181.646Z" fill="white"/>
<rect width="256" height="256" fill="url(#paint0_linear_24_720)"/>
</g>
<defs>
<linearGradient id="paint0_linear_24_720" x1="0" y1="0" x2="256" y2="256" gradientUnits="userSpaceOnUse">
<stop stop-color="white" stop-opacity="0.15"/>
<stop offset="1" stop-opacity="0"/>
</linearGradient>
<clipPath id="clip0_24_720">
<rect width="256" height="256" fill="white"/>
</clipPath>
</defs>
</svg>
