<svg width="256" height="256" viewBox="0 0 256 256" fill="none" xmlns="http://www.w3.org/2000/svg">
<rect width="256" height="256" fill="#02399E"/>
<path fill-rule="evenodd" clip-rule="evenodd" d="M247 85.3644V169.941H222.348V115.679H222.102L207.402 169.941H187.955L173.29 115.679H173.044V169.941H148.392V105.48H111.712V118.281H135.591V137.728H111.747V169.941H85.6886V152.956C81.574 164.104 69.793 169.941 57.6955 169.941H9.69238V85.3644H56.0427C78.3386 85.3644 83.0862 97.8839 83.0862 106.535C83.0862 115.081 78.9365 119.723 72.6415 123.134C78.0573 124.998 83.1565 128.655 85.6886 135.056V85.3644H185.493L197.59 135.126H197.801L209.899 85.3644H247ZM35.7161 118.281H49.5367C54.9876 118.281 58.434 116.734 58.434 111.283C58.434 107.027 54.847 105.48 49.5367 105.48H35.7161V118.281ZM61.2474 141.737C61.2474 136.779 58.2934 134.036 52.1391 134.036H35.7864V149.791H51.0489C56.535 149.791 61.2474 148.278 61.2474 141.737Z" fill="white"/>
</svg>
