<svg width="256" height="256" viewBox="0 0 256 256" fill="none" xmlns="http://www.w3.org/2000/svg">
<rect width="256" height="256" fill="white"/>
<path d="M170.515 189.839C166.6 189.885 162.812 192.33 162.671 197.4C162.671 200.555 164.624 203.334 167.704 204.385C169.569 204.998 171.563 205.112 173.486 204.717C175.41 204.322 177.196 203.431 178.669 202.132L176.942 199.954C174.013 202.733 167.102 203.109 166.051 198.602H179.196C179.555 192.816 174.953 189.786 170.515 189.839ZM170.661 192.687C172.736 192.668 174.801 193.757 175.214 196.048H166.051V195.973C166.501 193.833 168.586 192.706 170.661 192.687Z" fill="#1E1D20"/>
<path d="M82.3782 189.664C71.4872 189.439 71.4872 205.137 82.3782 204.987C93.194 205.212 93.3442 189.439 82.3782 189.664ZM82.0974 192.815C82.1895 192.814 82.2831 192.815 82.3782 192.819C88.5372 192.593 88.4621 202.057 82.3782 201.832C76.3893 202.054 76.2957 192.887 82.0974 192.815Z" fill="#1E1D20"/>
<path d="M193.165 201.456H187.832L186.63 200.254V197.175C189.71 193.72 192.264 191.016 195.118 193.194C191.813 192.518 192.113 197.776 195.268 197.325C203.305 194.771 193.766 183.805 186.706 193.57V190.039H180.246V193.044H182.424L183.626 194.246V200.179L182.424 201.381H180.246V204.386H193.24L193.165 201.456Z" fill="#1E1D20"/>
<path d="M155.536 187.786C159.366 187.936 159.291 181.853 155.536 182.003C151.855 181.928 151.78 187.936 155.536 187.786Z" fill="#1E1D20"/>
<path d="M163.272 201.456H158.915L157.714 200.254V190.115H148.1V193.119H153.432L154.634 194.321V200.254L153.432 201.456H148.1V204.461H163.272V201.456Z" fill="#1E1D20"/>
<path d="M142.392 201.456H137.059L135.857 200.254V197.175C138.937 193.72 141.49 191.016 144.344 193.194C141.04 192.518 141.34 197.776 144.495 197.325C152.531 194.771 142.992 183.805 135.932 193.57V190.039H129.473V193.044H131.651L132.853 194.246V200.179L131.651 201.381H129.473V204.386H142.467L142.392 201.456Z" fill="#1E1D20"/>
<path d="M123.613 201.456H118.28L117.079 200.254V197.175C120.158 193.72 122.712 191.016 125.566 193.194C122.261 192.518 122.562 197.776 125.716 197.325C133.753 194.771 124.214 183.805 117.154 193.57V190.039H110.694V193.044H112.873L114.074 194.246V200.179L112.873 201.381H110.694V204.386H123.688L123.613 201.456Z" fill="#1E1D20"/>
<path d="M92.9685 194.321V199.503C92.8183 205.362 100.555 206.714 103.709 202.508V204.536H109.568V201.531H107.991L106.789 200.33V190.115H100.93V193.119H102.507L103.709 194.321V198.752C102.132 202.658 95.4472 203.484 96.048 198.227V190.115H90.1895V193.119H91.7668L92.9685 194.321Z" fill="#1E1D20"/>
<path d="M62.3234 204.16C66.4544 205.963 71.1113 204.461 74.1908 200.855L72.0126 198.527C68.2571 203.785 59.9199 201.682 60.5959 194.696C60.2203 186.434 69.3837 185.908 71.3366 192.443H73.7401V185.157H70.7357V186.059L70.1348 186.284C58.8683 178.698 51.4324 199.578 62.3234 204.16Z" fill="#1E1D20"/>
<path d="M164.008 212.948C167.839 213.098 167.839 207.014 164.008 207.165C160.328 207.089 160.253 213.023 164.008 212.948Z" fill="#1E1D20"/>
<path d="M216.94 214.66C213.561 214.641 210.168 216.163 209.84 219.182C210.066 223.764 217.276 220.534 213.445 217.83C215.323 217.004 220.957 217.304 220.581 220.083L213.145 222.337C203.305 225.942 212.77 234.58 220.656 227.52C221.708 231.05 225.538 230.975 228.167 228.195L226.74 225.792C222.383 229.848 224.411 221.886 223.961 220.008C224.116 216.445 220.537 214.68 216.94 214.66ZM220.806 222.337V224.44C219.229 225.792 213.896 229.172 212.92 225.942C212.92 225.191 213.67 224.816 214.121 224.74L220.806 222.337Z" fill="#1E1D20"/>
<path d="M180.547 214.751C169.731 214.526 169.581 230.298 180.547 230.073C191.438 230.298 191.438 214.526 180.547 214.751ZM180.266 217.902C180.359 217.901 180.452 217.901 180.547 217.905C186.706 217.68 186.631 227.143 180.547 226.918C174.484 227.14 174.462 217.974 180.266 217.902Z" fill="#1E1D20"/>
<path d="M127.934 214.66C124.555 214.641 121.161 216.163 120.834 219.182C121.059 223.764 128.27 220.534 124.44 217.83C126.317 217.004 131.95 217.304 131.575 220.083L124.139 222.337C114.3 225.942 123.763 234.58 131.65 227.52C132.701 231.05 136.532 230.975 139.161 228.195L137.733 225.792C133.377 229.848 135.405 221.886 134.954 220.008C135.109 216.445 131.53 214.68 127.934 214.66ZM131.8 222.337V224.44C130.222 225.792 124.89 229.172 123.913 225.942C123.913 225.191 124.665 224.816 125.115 224.74L131.8 222.337Z" fill="#1E1D20"/>
<path d="M71.1207 214.747C71.0429 214.747 70.9648 214.749 70.8862 214.751C53.8363 217.305 66.3794 237.809 78.7726 227.294L77.045 225.116C74.1158 227.895 67.2054 228.271 66.1538 223.764H79.2987C79.3726 218.958 76.0254 214.734 71.1207 214.747ZM70.8862 217.755C72.9142 217.68 74.942 219.107 75.3175 221.135H66.0793C66.6802 219.032 68.5578 217.755 70.8862 217.755Z" fill="#1E1D20"/>
<path d="M239.659 226.618L238.457 225.416V208.817H228.843V211.821H234.176L235.377 213.023V225.416L234.176 226.618H228.843V229.622H244.015V226.618H239.659Z" fill="#1E1D20"/>
<path d="M206.009 225.416V220.234C206.234 214.45 198.422 213.023 195.343 217.229V215.201H189.484V218.206H191.062L192.263 219.408V225.341L191.062 226.543H189.484V229.547H198.122V226.543H196.545L195.343 225.341V220.91C196.545 218.131 200.751 216.403 202.554 218.957C203.305 220.384 202.929 223.764 203.004 225.341L201.802 226.543H200.225V229.547H208.863V226.543H207.21L206.009 225.416Z" fill="#1E1D20"/>
<path d="M166.201 225.416V215.201H156.587V218.206H161.92L163.121 219.408V225.416L161.92 226.618H156.587V229.622H171.759V226.618H167.403L166.201 225.416Z" fill="#1E1D20"/>
<path d="M153.282 224.064C151.179 226.618 147.949 228.12 145.621 225.867C144.494 224.665 144.945 221.06 144.869 219.408L146.071 218.206H152.305V215.201H144.869V210.019H141.64V215.201H137.434V218.206H140.438L141.64 219.408V223.388C141.039 231.575 151.704 231.876 155.235 226.092L153.282 224.064Z" fill="#1E1D20"/>
<path d="M116.328 225.416V220.234C116.553 214.45 108.742 213.023 105.662 217.229V215.201H99.8037V218.206H101.381L102.583 219.408V225.341L101.381 226.543H99.8037V229.547H108.441V226.543H106.864L105.662 225.341V220.91C106.864 218.131 110.995 216.403 112.873 218.957C113.624 220.384 113.248 223.764 113.324 225.341L112.122 226.543H110.544V229.547H119.182V226.543H117.605L116.328 225.416Z" fill="#1E1D20"/>
<path d="M93.9441 214.751C91.6908 214.751 89.4375 216.103 87.3345 218.732V215.201H80.875V218.206H83.0532L84.2549 219.408V225.341L83.0532 226.543H80.875V229.547H93.869V226.543H88.5362L87.3345 225.341V222.262C90.4891 218.807 92.8175 216.178 95.8219 218.206C92.517 217.53 92.8175 222.787 95.9721 222.337C101.23 221.511 98.6761 214 93.9441 214.751Z" fill="#1E1D20"/>
<path d="M60.2965 224.064C58.1934 226.618 54.9636 228.12 52.6352 225.867C51.5086 224.665 51.9592 221.06 51.8841 219.408L53.0859 218.206H59.32V215.201H51.8841V210.019H48.6544V215.201H44.4482V218.206H47.4526L48.6544 219.408V223.388C48.0535 231.575 58.7191 231.876 62.2493 226.092L60.2965 224.064Z" fill="#1E1D20"/>
<path d="M43.396 225.416V220.234C43.6213 214.45 35.8099 213.023 32.7304 217.229V215.201H26.8718V218.206H28.4491L29.6508 219.408V225.341L28.4491 226.543H22.9661L21.7643 225.341V215.201H12V218.206H17.3328L18.5346 219.408V225.341L17.3328 226.543H12V229.547H35.3592V226.543H33.7819L32.5801 225.341V220.91C33.7819 218.131 37.9881 216.403 39.7907 218.957C40.5418 220.384 40.1662 223.764 40.2414 225.341L39.0396 226.543H37.4623V229.547H46.0999V226.543H44.5226L43.396 225.416Z" fill="#1E1D20"/>
<path d="M17.4681 207.916C14.8392 210.62 18.8952 214.676 21.5991 212.047C24.3031 209.343 20.0969 205.287 17.4681 207.916Z" fill="#1E1D20"/>
<path d="M127.243 173.652C171.3 173.652 207.015 137.937 207.015 93.8805C207.015 49.824 171.3 14.1091 127.243 14.1091C83.1866 14.1091 47.4717 49.824 47.4717 93.8805C47.4717 137.937 83.1866 173.652 127.243 173.652Z" fill="#FFE939"/>
<path d="M127.241 12.1492C116.506 12.1457 105.875 14.2571 95.956 18.363C86.0368 22.4688 77.0237 28.4885 69.4314 36.0783C61.8391 43.6681 55.8164 52.6793 51.7074 62.5972C47.5983 72.515 45.4834 83.1452 45.4834 93.8806C45.4834 104.616 47.5983 115.246 51.7074 125.164C55.8164 135.082 61.8391 144.093 69.4314 151.683C77.0237 159.273 86.0368 165.292 95.956 169.398C105.875 173.504 116.506 175.615 127.241 175.612C137.977 175.615 148.608 173.504 158.527 169.398C168.446 165.292 177.459 159.273 185.052 151.683C192.644 144.093 198.667 135.082 202.776 125.164C206.885 115.246 209 104.616 209 93.8806C209 83.1452 206.885 72.515 202.776 62.5972C198.667 52.6793 192.644 43.6681 185.052 36.0783C177.459 28.4885 168.446 22.4688 158.527 18.363C148.608 14.2571 137.977 12.1457 127.241 12.1492ZM156.935 40.667L158.993 39.197H159.581V39.491L158.993 40.079C158.699 40.373 158.699 40.373 158.993 40.667L159.581 40.961C160.169 40.667 160.169 41.255 160.169 41.549L159.875 42.137L158.699 43.0189H158.405L158.111 42.725L156.935 41.255L156.641 40.961L156.935 40.667ZM146.939 58.0128C147.233 57.7188 147.233 57.7188 147.527 58.0128L147.821 58.3068L148.115 59.4828V59.7768L147.821 60.0708L147.527 60.3648L147.821 60.9528L148.997 63.0108L149.291 63.5988L148.703 64.1868L147.233 65.3628H146.645L146.351 65.0688L145.763 64.1868V63.5988L146.351 63.3048L145.175 60.6588L144.881 60.0708L145.175 59.4828L146.939 58.0128ZM141.941 50.3689H144.293C145.175 50.3689 144.881 51.5449 144.587 51.8389L143.705 52.1329L142.529 51.8389H141.647C141.059 51.8389 141.059 51.5449 141.059 51.2509C141.059 50.6629 141.353 50.3689 141.941 50.3689ZM144.881 62.7168L144.587 63.3048L142.823 64.7748H142.529L142.235 64.4808L141.941 63.5988V63.3048L142.235 63.0108L143.705 61.5408C143.999 61.5408 143.999 61.2468 144.293 61.5408L144.587 61.8348L144.881 62.7168ZM114.6 111.814C114.6 112.696 114.306 114.46 113.718 115.342L109.014 125.044L106.956 127.984L91.9617 146.212C91.3737 146.8 91.3737 147.388 92.5497 147.388H94.3137C95.1957 147.388 96.0777 147.976 96.0777 148.858C96.0777 149.74 95.1957 150.328 94.3137 150.328H86.9638C86.7321 150.328 86.5027 150.283 86.2887 150.194C86.0747 150.105 85.8802 149.975 85.7164 149.811C85.5526 149.648 85.4227 149.453 85.3341 149.239C85.2454 149.025 85.1998 148.796 85.1998 148.564V125.338C85.1998 124.456 86.0818 123.574 86.9638 123.574H89.0218C89.9037 123.574 90.7857 122.692 90.7857 121.81V119.752C90.7857 118.87 89.9037 117.988 89.0218 117.988H86.9638C86.4959 117.988 86.0473 117.803 85.7164 117.472C85.3856 117.141 85.1998 116.692 85.1998 116.224V105.052C85.1998 104.17 84.3178 103.289 83.4358 103.289H80.4958C79.6138 103.289 78.1438 102.701 77.2618 102.113L67.5599 95.3506L65.2079 92.7046L60.798 85.0606C60.21 84.1786 59.034 83.5907 58.152 83.5907H55.8C55.0245 83.5796 54.2848 83.2626 53.742 82.7087C56.9734 63.2994 67.6207 45.9055 83.4358 34.199V45.6649C83.4358 46.5469 84.0238 48.0169 84.9058 48.6049L88.1398 50.9569C89.0218 51.5449 90.4917 52.1329 91.3737 52.1329H94.0197C94.9017 52.1329 95.7837 52.7209 95.7837 53.6029C95.7837 54.4849 95.1957 55.6609 94.6077 56.2488L90.7857 60.3648C90.1977 60.9528 90.4917 61.5408 91.3737 61.5408H94.0197C94.9017 61.5408 95.7837 62.4228 95.7837 63.3048V69.7728C95.7837 70.6547 96.6657 71.5367 97.5477 71.5367H100.488C101.37 71.5367 102.252 72.1247 102.252 73.0067C102.252 73.8887 101.37 74.4767 100.488 74.4767H91.6677C90.7857 74.4767 89.3158 75.0647 88.4338 75.6527L84.9058 78.2987C84.0238 78.8867 83.4358 80.0627 83.4358 81.2387V91.8226C83.4358 92.7046 82.5538 93.5866 81.6718 93.5866H81.0838C80.616 93.5866 80.1673 93.4007 79.8365 93.0699C79.5057 92.7391 79.3198 92.2904 79.3198 91.8226V85.0606C79.3198 84.1786 78.4378 83.2967 77.5558 83.2967H72.5579C71.6759 83.2967 70.7939 84.1786 70.7939 85.0606V90.0586C70.7939 90.9406 71.3819 92.4106 72.2639 92.9986L79.3198 98.5845C80.2018 99.1725 81.3778 99.7605 82.5538 99.7605H94.3137C95.1957 99.7605 96.9597 100.055 97.5477 100.643L112.836 108.58C113.718 109.168 114.306 110.344 114.306 111.226L114.6 111.814ZM115.482 41.549C115.188 40.961 115.188 40.373 115.776 39.785L119.304 35.963L121.068 35.375L122.538 35.669H124.301L126.065 34.493L128.417 29.789C128.711 28.9071 128.123 28.6131 127.829 28.0251C127.241 27.4371 127.241 27.1431 126.065 27.1431H122.244L121.068 27.4371L120.186 28.3191L117.54 32.435L116.07 33.611C115.188 33.905 114.6 34.199 113.718 33.905H111.66L110.484 34.199C109.896 34.493 109.602 34.787 109.308 35.669L104.604 46.2529L103.428 47.4289L101.076 48.3109H99.0177C98.4297 48.3109 97.8417 48.3109 97.2537 47.7229L96.3717 46.5469L88.7278 30.377C99.8997 23.6151 113.13 19.7931 126.947 19.7931H129.593L129.005 22.4391C128.711 23.0271 129.005 23.3211 129.005 23.6151C129.005 23.9091 129.005 24.4971 129.593 24.4971L136.355 26.2611L137.825 27.4371V29.201L132.827 36.845L131.063 38.021L129.887 38.315H129.005C128.417 38.609 127.829 38.903 127.535 39.785L126.653 40.667L125.771 40.961L116.658 41.843C116.364 42.725 115.776 42.4309 115.482 41.549ZM193.685 89.7646L185.453 97.4086C184.91 97.9625 184.171 98.2795 183.395 98.2905C182.513 98.2905 182.219 97.7026 181.925 97.1146L173.987 86.2366C173.399 85.6486 172.811 85.0606 172.517 85.3546C171.341 86.2366 171.635 86.8246 171.929 87.4126L181.337 100.055C181.925 100.643 182.219 100.937 183.101 100.937L184.277 100.643L188.393 98.5845C188.687 98.2905 189.275 98.5845 189.569 98.5845C190.157 98.8785 190.451 99.4665 190.157 100.055C189.569 102.113 188.981 104.17 187.805 105.934C186.629 107.698 186.041 108.58 184.277 110.05L183.395 110.932C182.513 111.52 181.925 112.108 181.631 113.284L181.337 115.048L181.925 119.752L181.631 121.516C181.337 122.104 181.043 122.104 180.455 122.398L178.397 123.28C177.809 123.574 177.515 123.868 177.221 124.75L176.927 126.22L177.221 127.69C169.577 141.802 171.635 147.094 161.639 147.094C158.405 147.094 156.053 137.686 154.877 132.982L153.701 127.102C153.407 126.808 153.407 126.514 153.701 125.926L154.289 125.338C155.171 125.044 155.465 124.456 155.465 123.574C155.465 122.986 155.465 122.692 154.877 122.104L150.761 117.4L149.585 115.93L149.291 114.754V112.108C149.291 110.932 148.703 110.05 147.821 109.168C146.939 108.286 146.057 107.992 144.881 107.992L136.649 108.58C135.473 108.58 134.885 108.58 133.709 107.992L131.945 106.816L126.653 100.055L125.771 98.8785L125.477 97.4086L125.183 92.9986C125.183 92.1166 125.183 91.5286 125.771 90.6466L126.653 89.4706L134.885 81.8267L136.355 80.9447L138.413 80.6507H151.643L152.231 81.2387V81.8267L151.937 83.0027L152.231 83.8846H154.583L155.465 84.1786L158.699 86.2366H159.581L159.875 85.6486L160.169 85.0606L160.463 84.4726L161.639 83.5907L162.521 83.2967L163.109 83.5907L165.167 84.7666L167.225 85.3546H168.107L171.341 84.7666C171.929 84.7666 172.223 84.4726 172.517 83.8846L172.811 83.2967V79.4747L172.223 78.8867L171.341 79.4747C171.341 80.0627 170.459 79.7687 170.165 79.7687H167.519L166.931 79.4747L166.049 78.2987L165.755 77.7107L166.049 77.1227L169.871 74.4767L170.753 73.8887L171.635 73.5947H174.281C174.869 73.5947 175.457 73.0067 175.163 72.4187L174.575 71.8307L171.635 70.0667L171.047 69.7728L170.753 70.0667L171.341 70.3608L170.753 70.9487H168.401C167.813 71.2427 167.519 71.8307 167.519 72.4187V73.3007L167.225 74.4767C166.931 74.7707 166.931 75.0647 166.343 75.0647L164.579 76.5347L163.991 77.1227V78.8867C163.991 79.4747 163.697 79.4747 163.109 79.4747L162.227 78.5927L161.051 77.4167L160.463 76.5347C160.169 75.9467 160.757 75.3587 160.169 74.7707L157.229 71.8307C156.641 71.2427 156.053 71.8307 155.759 72.1247V72.7127L158.405 75.6527L158.699 76.2407L158.405 77.1227L158.699 77.7107L158.405 78.5927L156.935 79.7687C156.641 80.0627 156.347 80.0627 156.347 79.7687V79.4747C156.641 79.1807 156.935 79.1807 156.935 78.5927L156.641 78.2987L153.113 73.3007L152.525 73.0067L151.643 72.7127L149.585 73.0067L148.409 73.5947V74.1827L148.115 75.3587L146.939 75.6527L146.057 76.2407V76.8287C146.351 77.4167 146.057 77.7107 145.469 78.0047L144.881 78.2987L141.353 79.4747H140.471L139.883 79.1807L137.531 77.1227L137.237 76.8287V76.2407L138.707 71.8307L139.295 71.5367H140.177L144.587 72.1247H145.175L145.469 71.8307L145.763 70.6547V69.7728L145.469 69.4788L144.587 69.1848L144.293 68.3028L144.881 68.0088H146.645L147.233 67.7148L152.819 64.1868L153.407 63.5988V61.5408C153.407 61.2468 153.995 60.9528 154.289 61.2468L154.877 61.8348V63.8928L155.171 64.1868L157.229 64.7748H157.523L158.111 64.4808L158.699 63.5988L159.581 63.0108L160.463 62.4228V61.5408L160.757 60.6588L161.639 60.0708L162.227 59.7768V58.0128L162.815 57.7188L165.167 56.8368L165.461 56.2488L164.873 55.9549L162.815 56.5429C162.521 56.5429 162.521 56.8368 162.227 56.5429L161.933 56.2488L162.521 53.0149C162.521 52.7209 162.227 52.1329 161.639 52.1329L161.051 52.7209L160.169 55.6609L159.875 57.1308L158.993 58.0128L158.699 58.6008V61.2468L158.405 61.8348L157.817 62.4228L157.229 62.7168L156.641 62.1288L155.759 59.7768L155.465 59.4828H155.171L154.289 60.3648C153.995 60.6588 153.995 60.6588 153.701 60.3648C153.624 60.3648 153.548 60.3496 153.476 60.3201C153.405 60.2905 153.34 60.2472 153.286 60.1926C153.231 60.138 153.188 60.0732 153.158 60.0018C153.129 59.9305 153.113 59.854 153.113 59.7768V57.1308L153.407 56.2488L158.405 50.0749L159.287 49.4869H164.579L165.461 49.7809L166.637 50.9569L167.813 51.8389L168.989 51.5449L169.871 50.6629C170.459 50.3689 170.459 50.0749 170.753 49.4869L170.459 48.6049L166.049 43.6069C165.755 43.019 165.755 42.431 166.343 42.137H167.813L170.753 45.3709L171.635 46.2529C172.811 47.4289 174.281 47.7229 175.457 46.8409C176.633 45.9589 176.339 44.1949 175.163 43.0189L171.341 39.491C170.753 38.903 170.753 38.315 171.047 37.433L171.635 36.551L173.105 35.375C186.923 46.2529 196.625 61.5408 200.153 79.4747H185.453C184.865 79.4747 184.277 79.7687 183.983 80.3567C183.689 80.9447 183.395 81.5327 183.689 82.1207L184.865 84.4726L185.747 85.3546C186.335 85.6486 186.923 85.3546 187.217 85.0606L189.569 83.2967L190.745 83.0027L191.921 83.2967L193.685 85.0606C194.567 85.9426 194.861 86.5306 194.861 87.7066C194.567 88.2946 194.567 88.8826 193.685 89.7646Z" fill="#1E1D20"/>
</svg>
