<svg width="256" height="256" viewBox="0 0 256 256" fill="none" xmlns="http://www.w3.org/2000/svg">
<g clip-path="url(#clip0_24_1332)">
<rect width="256" height="254" fill="#EA3D05"/>
<path d="M74.2493 120.299V112.84H77.8359V81.5804H74.2493L74.2666 74.0531L100.492 73.989C100.492 73.989 101.648 74.0034 102.741 74.6114C103.69 75.1397 104.142 75.657 104.725 76.6742C105.309 77.6915 105.356 78.7471 105.356 78.7471L105.361 115.183C105.351 117.955 103.005 120.287 100.373 120.304L74.2493 120.299ZM96.828 112.84C96.8088 102.822 96.828 92.3739 96.828 81.5804L86.4549 81.6471C86.444 92.3739 86.444 104.195 86.444 112.84H96.828ZM110.407 112.84H113.752V81.5804H110.407V73.9806L141.619 74.0531L141.656 80.9793L141.692 87.9055H133.235C133.235 85.8389 133.232 83.63 133.232 81.5804L122.456 81.5831V92.3809L136.335 92.3717V99.8398C130.143 99.8398 131.87 99.8543 122.417 99.8543L122.456 112.84C125.646 112.84 130.079 112.84 133.232 112.84L133.235 104.244H141.69V120.299H110.409L110.407 112.84ZM145.947 120.299V112.84H150.078V81.5804C145.951 81.5777 145.947 81.5804 145.947 81.5804V73.9806C145.947 73.9806 164.829 73.9958 172.976 73.9976C176.272 73.9983 178.086 76.6052 178.138 79.0942L178.015 84.7474C178.052 90.7733 178.11 90.326 178.11 91.2113C178.11 93.6446 176.385 95.4121 175.009 95.955C173.801 96.4314 172.334 96.3524 173.574 96.3524C175.108 96.3524 178.087 98.1007 178.087 101.415L178.114 112.84L181.644 112.84L181.636 120.228L165.785 120.299V112.84H169.05V99.8279C165.785 99.8279 162.017 99.8499 158.554 99.8279V112.84H161.911V120.299H145.947ZM169.061 92.3589L169.166 81.5175C161.911 81.5804 161.911 81.5804 158.554 81.5804C158.554 81.5804 158.399 92.139 158.554 92.3738C161.911 92.3738 166.434 92.5161 169.061 92.3589Z" fill="black"/>
<path d="M68.7954 120.299V112.84H72.3821V81.5804H68.7954L68.8128 74.0531L95.0383 73.989C95.0383 73.989 96.1944 74.0034 97.287 74.6114C98.2364 75.1397 98.6878 75.657 99.2714 76.6742C99.855 77.6915 99.9019 78.7471 99.9019 78.7471L99.9076 115.183C99.8973 117.955 97.5509 120.287 94.9192 120.304L68.7954 120.299ZM91.3742 112.84C91.355 102.822 91.3742 92.3739 91.3742 81.5804L81.0011 81.6471C80.9901 92.3739 80.9901 104.195 80.9901 112.84H91.3742ZM104.953 112.84H108.298V81.5804H104.953V73.9806L136.165 74.0531L136.202 80.9793L136.239 87.9055H127.782C127.782 85.8389 127.778 83.63 127.778 81.5804L117.002 81.5831V92.3809L130.882 92.3717V99.8398C124.689 99.8398 126.416 99.8543 116.963 99.8543L117.002 112.84C120.193 112.84 124.626 112.84 127.778 112.84L127.782 104.244H136.236V120.299H104.955L104.953 112.84ZM140.493 120.299V112.84H144.624V81.5804C140.497 81.5777 140.493 81.5804 140.493 81.5804V73.9806C140.493 73.9806 159.375 73.9958 167.523 73.9976C170.819 73.9983 172.632 76.6052 172.684 79.0942L172.562 84.7474C172.598 90.7733 172.656 90.326 172.656 91.2113C172.656 93.6446 170.932 95.4121 169.555 95.955C168.347 96.4314 166.881 96.3524 168.12 96.3524C169.654 96.3524 172.633 98.1007 172.633 101.415L172.66 112.84L176.19 112.84L176.183 120.228L160.331 120.299V112.84H163.596V99.8279C160.331 99.8279 156.563 99.8499 153.1 99.8279V112.84H156.458V120.299H140.493ZM163.607 92.3589L163.712 81.5175C156.458 81.5804 156.458 81.5804 153.1 81.5804C153.1 81.5804 152.945 92.139 153.1 92.3738C156.458 92.3738 160.98 92.5161 163.607 92.3589Z" fill="white"/>
<path d="M25.1016 179.307C21.8634 179.307 20 176.362 20 174.222C20 170.309 20.0142 163.212 20.0142 163.212L28.4717 163.198C28.4599 163.148 28.5563 171.849 28.5563 171.849L38.7837 171.849C38.7227 171.849 38.7227 163.204 38.7227 158.837H20.0126L20.0158 138.069C20.007 134.992 22.8692 133.023 25.0949 133.007C31.2296 132.964 42.5542 133.007 42.5542 133.007C45.6232 133 47.6884 135.474 47.6954 138.125L47.6683 146.842H38.7227L38.7837 140.593C35.375 140.586 28.5563 140.59 28.5563 140.59C28.5563 140.59 28.4757 151.065 28.7575 151.301L47.6683 151.383C47.6911 159.05 47.6795 166.576 47.6618 174.214C47.6618 177.303 44.9075 179.342 42.4406 179.342C40.9482 179.342 37.5665 179.303 33.8618 179.303C30.4714 179.303 26.8303 179.307 25.1016 179.307ZM52.3577 171.849H55.8671L55.8691 156.256L55.8332 140.593L52.3577 140.59L52.3811 132.985L78.9276 132.993C81.6101 132.993 84.0143 135.136 84.0143 138.125V145.849V153.713C84.0143 156.637 81.6316 158.813 78.8291 158.813L76.4179 158.778C63.875 158.837 68.0897 158.837 64.8525 158.837V171.849H68.0897V179.308H52.3577L52.3577 171.849ZM75.3204 151.383V140.59H64.8526C64.9244 140.625 64.8526 146.842 64.8526 151.383C64.8526 151.383 75.1649 151.48 75.3204 151.383ZM86.1816 171.849H89.5095L89.5096 140.593L86.1816 140.59L86.1984 132.992L101.551 132.99V140.59H98.2227V171.849H101.551L101.557 179.308L86.1817 179.308L86.1816 171.849ZM105.635 171.849L108.814 171.849L108.781 140.59H105.635V132.99H136.857V146.842H128.446V140.59L117.691 140.593C117.676 140.59 117.676 146.842 117.676 151.383H131.593V158.837H117.676V171.849H128.446L128.47 163.249L136.854 163.325V171.281V179.237L105.639 179.309L105.635 171.849ZM146.611 179.335C142.629 179.335 141.257 175.892 141.257 174.203C141.257 172.523 141.284 177.114 141.326 155.858L141.363 137.809C141.363 135.84 143.275 133.063 146.373 133.063C152.545 133.063 158.521 133.007 164.097 133.007C166.903 133.007 169.066 135.453 169.066 138.184L169.064 146.919L160.009 146.842V140.59L149.817 140.593L149.792 171.849H160.009C160.042 167.512 160.024 163.175 160.009 158.837H152.98V151.383H169.05L169.051 179.308L157.18 179.298C152.824 179.298 150.598 179.335 146.611 179.335ZM173.716 179.308V171.849H176.931V140.59H173.716V132.99L204.981 132.992L204.942 146.842H196.517V140.59H185.948V151.383L199.627 151.461L199.584 158.837H185.948V171.849H196.517L196.527 163.254H204.981V179.308L173.716 179.308ZM209.913 171.929L213.442 171.849V140.59H209.894L209.913 132.991L225.969 132.99V140.59H222.237V171.849H232.805V163.204H241.231V179.308H209.894L209.913 171.929Z" fill="black"/>
<path d="M19.6478 179.307C16.4095 179.307 14.5461 176.362 14.5461 174.222C14.5461 170.309 14.5604 163.212 14.5604 163.212L23.0179 163.198C23.006 163.148 23.1024 171.849 23.1024 171.849L33.3299 171.849C33.2688 171.849 33.2688 163.204 33.2688 158.837H14.5588L14.562 138.069C14.5531 134.992 17.4154 133.023 19.641 133.007C25.7758 132.964 37.1003 133.007 37.1003 133.007C40.1694 133 42.2345 135.474 42.2416 138.125L42.2145 146.842H33.2688L33.3299 140.593C29.9211 140.586 23.1024 140.59 23.1024 140.59C23.1024 140.59 23.0219 151.065 23.3036 151.301L42.2145 151.383C42.2372 159.05 42.2256 166.576 42.208 174.214C42.208 177.303 39.4537 179.342 36.9867 179.342C35.4944 179.342 32.1127 179.303 28.4079 179.303C25.0176 179.303 21.3765 179.307 19.6478 179.307ZM46.9038 171.849H50.4133L50.4153 156.256L50.3794 140.593L46.9038 140.59L46.9272 132.985L73.4738 132.993C76.1563 132.993 78.5604 135.136 78.5604 138.125V145.849V153.713C78.5604 156.637 76.1777 158.813 73.3752 158.813L70.964 158.778C58.4211 158.837 62.6359 158.837 59.3987 158.837V171.849H62.6358V179.308H46.9038L46.9038 171.849ZM69.8666 151.383V140.59H59.3987C59.4705 140.625 59.3987 146.842 59.3987 151.383C59.3987 151.383 69.711 151.48 69.8666 151.383ZM80.7277 171.849H84.0557L84.0558 140.593L80.7277 140.59L80.7445 132.992L96.0968 132.99V140.59H92.7688V171.849H96.0968L96.1032 179.308L80.7278 179.308L80.7277 171.849ZM100.181 171.849L103.36 171.849L103.327 140.59H100.181V132.99H131.403V146.842H122.993V140.59L112.237 140.593C112.222 140.59 112.222 146.842 112.222 151.383H126.139V158.837H112.222V171.849H122.993L123.016 163.249L131.4 163.325V171.281V179.237L100.185 179.309L100.181 171.849ZM141.157 179.335C137.175 179.335 135.804 175.892 135.804 174.203C135.804 172.523 135.831 177.114 135.872 155.858L135.909 137.809C135.909 135.84 137.821 133.063 140.919 133.063C147.091 133.063 153.067 133.007 158.643 133.007C161.449 133.007 163.613 135.453 163.613 138.184L163.61 146.919L154.555 146.842V140.59L144.363 140.593L144.338 171.849H154.555C154.589 167.512 154.571 163.175 154.555 158.837H147.526V151.383H163.596L163.597 179.308L151.726 179.298C147.37 179.298 145.144 179.335 141.157 179.335ZM168.262 179.308V171.849H171.477V140.59H168.262V132.99L199.528 132.992L199.488 146.842H191.063V140.59H180.494V151.383L194.173 151.461L194.13 158.837H180.494V171.849H191.063L191.073 163.254H199.528V179.308L168.262 179.308ZM204.459 171.929L207.988 171.849V140.59H204.44L204.459 132.991L220.515 132.99V140.59H216.783V171.849H227.351V163.204H235.777V179.308H204.44L204.459 171.929Z" fill="white"/>
<rect width="256" height="256" fill="url(#paint0_linear_24_1332)"/>
</g>
<defs>
<linearGradient id="paint0_linear_24_1332" x1="0" y1="0" x2="256" y2="256" gradientUnits="userSpaceOnUse">
<stop stop-color="white" stop-opacity="0.15"/>
<stop offset="1" stop-opacity="0"/>
</linearGradient>
<clipPath id="clip0_24_1332">
<rect width="256" height="256" fill="white"/>
</clipPath>
</defs>
</svg>
