<svg width="256" height="256" viewBox="0 0 256 256" fill="none" xmlns="http://www.w3.org/2000/svg">
<g clip-path="url(#clip0_24_2039)">
<rect width="256" height="256" fill="url(#paint0_linear_24_2039)"/>
<rect width="256" height="256" fill="white"/>
<rect width="256" height="256" fill="url(#paint1_linear_24_2039)"/>
<path d="M40.3937 169.482C40.9753 169.554 41.5695 169.623 42.1731 169.698C42.6981 169.768 43.2263 169.834 43.7607 169.897C44.8988 170.025 46.0714 170.154 47.2723 170.289C49.1177 170.5 51.0417 170.695 53.0192 170.896C53.3587 170.931 53.7045 170.965 54.0472 171.003C55.7165 171.16 57.4331 171.311 59.1841 171.462C59.8601 171.522 60.5454 171.582 61.2276 171.641C61.6237 171.676 62.0167 171.71 62.4128 171.745C63.2554 171.814 64.0979 171.877 64.9499 171.943C65.2076 171.962 65.4623 171.981 65.7201 172C66.7198 172.069 67.7321 172.135 68.7476 172.207C70.0051 172.289 71.2689 172.364 72.5421 172.443C73.8625 172.525 75.1955 172.616 76.5442 172.691C79.1849 172.827 81.8823 172.93 84.5954 173.04C85.3625 173.069 86.1296 173.103 86.8998 173.128C87.4908 173.153 88.0882 173.175 88.6886 173.194C89.3237 173.207 89.9556 173.226 90.5906 173.245C91.3168 173.257 92.0462 173.267 92.7787 173.279C93.2754 173.292 93.7753 173.304 94.2688 173.311C94.7436 173.323 93.6024 173.326 94.797 173.333V165.898C92.0399 165.891 92.5775 165.888 92.2002 165.882C91.7758 165.879 88.8993 165.872 88.4717 165.869C88.0504 165.854 85.2179 165.838 84.7966 165.822C83.9541 165.797 78.1852 165.766 77.3584 165.734C76.5316 165.687 70.9922 165.646 70.1906 165.599C69.7882 165.571 67.2668 165.558 66.8739 165.527C66.4809 165.492 64.0507 165.461 63.6672 165.429C62.8938 165.369 57.7097 165.31 56.9772 165.25C56.2416 165.171 51.4001 165.099 50.7116 165.024C50.369 164.989 48.228 164.954 47.8979 164.923C47.5678 164.888 45.5401 164.838 45.2194 164.8C43.9556 164.624 36.0647 164.495 35.0524 164.326C34.5431 164.244 31.3742 164.172 30.9309 164.103C30.7108 164.068 29.5822 164.043 29.3747 164.005C29.1735 163.97 28.1769 163.933 27.9915 163.895C27.9663 163.889 27.9286 163.886 27.8971 163.882C28.2178 165.234 28.5636 166.564 28.9283 167.869C29.2993 167.925 29.6734 167.988 30.0726 168.051C32.2104 168.378 34.716 168.73 37.5329 169.101C38.454 169.23 39.4097 169.356 40.3937 169.482ZM32.8989 134.428C34.8041 134.629 36.8098 134.818 38.9036 135.016C40.9973 135.22 43.1854 135.409 45.4458 135.591C47.7062 135.783 50.0451 135.969 52.4501 136.145C53.6542 136.239 54.874 136.327 56.1064 136.425C57.345 136.503 58.5931 136.582 59.8601 136.663C62.3908 136.818 64.9782 136.984 67.6095 137.122C72.8565 137.446 78.3613 137.613 83.9195 137.839C85.3122 137.877 86.708 137.918 88.1102 137.962C89.4966 137.99 90.8893 138.015 92.282 138.044C93.3603 138.066 92.6121 138.081 94.797 138.097V128.628H25.8568C25.6556 130.417 25.5047 131.876 25.3978 133.617C26.0769 133.693 26.7685 133.771 27.4853 133.853C29.1861 134.051 30.9938 134.233 32.8989 134.428ZM173.046 118.313C172.948 117.826 172.857 117.345 172.75 116.854C172.439 115.415 172.144 114.321 171.848 112.953C170.503 112.808 169.094 112.664 167.623 112.513C165.718 112.315 163.712 112.126 161.612 111.928C159.525 111.721 157.343 111.532 155.079 111.35C152.816 111.155 150.48 110.976 148.075 110.8C146.871 110.705 145.651 110.614 144.415 110.52C143.183 110.441 141.932 110.359 140.665 110.281C138.134 110.127 135.544 109.957 132.915 109.822C127.672 109.495 122.167 109.331 116.605 109.108C115.21 109.064 113.814 109.02 112.415 108.979C111.025 108.951 109.636 108.926 108.243 108.898C105.59 108.838 102.927 108.828 100.264 108.791C97.6013 108.828 94.9353 108.838 92.282 108.898C90.8893 108.926 89.4966 108.951 88.1102 108.979C86.708 109.02 85.3122 109.064 83.9195 109.108C78.3613 109.331 72.8565 109.495 67.6095 109.822C64.9782 109.957 62.3908 110.127 59.8601 110.281C58.5931 110.359 57.345 110.441 56.1064 110.52C54.874 110.614 53.6542 110.705 52.4501 110.8C50.0451 110.976 47.7062 111.155 45.4458 111.35C43.1854 111.532 40.9973 111.721 38.9036 111.928C36.8098 112.126 34.8041 112.315 32.8989 112.513C31.4308 112.664 30.0223 112.808 28.6768 112.953C28.3844 114.321 28.0858 115.415 27.7745 116.854C27.6708 117.345 27.5796 117.826 27.479 118.313H100.264H173.046ZM45.2729 184.883C45.8042 184.955 46.3449 185.034 46.8888 185.109C47.3666 185.178 47.8476 185.241 48.3349 185.304C49.3787 185.433 50.4381 185.562 51.5322 185.691C53.255 185.902 55.0406 186.109 56.8829 186.317C57.2004 186.354 57.5211 186.392 57.8449 186.43C59.4042 186.584 60.995 186.732 62.6266 186.892C63.2585 186.948 63.8998 187.011 64.5443 187.068C64.9058 187.106 65.2768 187.143 65.6446 187.172C66.4243 187.247 67.2165 187.31 68.0119 187.382C68.2508 187.401 68.4898 187.42 68.7256 187.439C69.6624 187.505 70.6087 187.571 71.5581 187.637C72.7213 187.719 73.9034 187.797 75.0886 187.879C76.3209 187.961 77.5659 188.042 78.8234 188.121C81.2881 188.259 83.8 188.357 86.3276 188.461C87.0413 188.492 87.7486 188.523 88.4654 188.549C89.0219 188.567 89.5783 188.589 90.1348 188.608C90.7258 188.621 91.3168 188.64 91.9079 188.652C92.5869 188.668 93.266 188.678 93.9482 188.693C94.228 188.693 94.5141 188.703 94.797 188.703V182.447C92.961 182.443 94.0016 182.437 93.6087 182.434C92.9642 182.428 90.6912 182.421 90.053 182.412C89.418 182.39 87.1765 182.368 86.5477 182.34C85.2776 182.299 80.7348 182.258 79.493 182.211C78.2575 182.142 73.8782 182.076 72.6773 182.003C72.0737 181.969 70.0585 181.94 69.4706 181.896C68.8796 181.846 66.9367 181.799 66.3614 181.752C65.2045 181.661 61.1176 181.573 60.0173 181.485C58.9232 181.365 55.1004 181.258 54.0661 181.145C53.5505 181.095 51.8434 181.044 51.3435 180.994C50.8468 180.937 49.2278 180.868 48.753 180.805C46.8511 180.551 40.6106 180.359 39.089 180.095C38.322 179.976 35.8101 179.865 35.1467 179.762C34.8135 179.715 33.8798 179.667 33.578 179.614C33.4491 179.589 33.2259 179.57 32.9932 179.545C33.5182 180.802 34.0621 182.032 34.6186 183.226C35.0084 183.298 35.4139 183.365 35.8384 183.44C37.8252 183.779 40.1045 184.128 42.6321 184.499C43.4872 184.625 44.3675 184.754 45.2729 184.883ZM94.797 212.253C93.0585 212.24 94.0048 212.234 93.2157 212.225C92.1499 212.184 91.0905 212.146 90.0404 212.108C87.9278 212.036 85.8309 211.964 83.7623 211.891C81.6968 211.772 79.6565 211.655 77.6476 211.542C76.6479 211.483 75.6482 211.442 74.6673 211.357C73.6802 211.278 72.7087 211.203 71.7499 211.124C69.8196 210.973 67.9333 210.819 66.1005 210.675C64.2708 210.483 62.4914 210.294 60.7749 210.109C59.9135 210.027 59.0678 209.939 58.2316 209.857C57.4048 209.763 56.5968 209.647 55.8046 209.549C54.3584 209.351 52.9657 209.178 51.639 209.008C52.796 210.294 53.868 211.42 54.8174 212.369C54.8929 212.382 54.962 212.401 55.0406 212.41C55.8392 212.555 56.6534 212.712 57.4896 212.844C58.329 212.973 59.1779 213.102 60.0455 213.227C61.7872 213.476 63.5886 213.734 65.434 213.998C67.2983 214.215 69.2066 214.431 71.1588 214.655C72.1397 214.762 73.1269 214.872 74.1266 214.982C75.1263 215.085 76.1418 215.142 77.1603 215.23C79.2038 215.39 81.2787 215.551 83.3819 215.711C85.4914 215.843 87.626 215.934 89.7827 216.025C90.8578 216.073 91.9393 216.117 93.0208 216.167C93.8727 216.179 92.961 216.277 94.797 216.315V212.253ZM55.8203 200.014C57.4173 200.228 59.071 200.442 60.7686 200.655C61.0704 200.693 61.3659 200.731 61.6709 200.769C63.1139 200.923 64.5946 201.08 66.1005 201.234C66.6884 201.297 67.2826 201.36 67.8799 201.419C68.2194 201.457 68.5558 201.488 68.9016 201.52C69.6278 201.595 70.3603 201.661 71.0991 201.74C71.3192 201.756 71.5424 201.778 71.7656 201.797C72.6301 201.863 73.5073 201.922 74.3875 201.988C75.4721 202.07 76.563 202.149 77.6602 202.224C78.8077 202.306 79.9677 202.391 81.1341 202.472C83.4196 202.608 85.7397 202.699 88.085 202.799C88.7389 202.828 89.396 202.853 90.0562 202.884C90.5749 202.9 91.0905 202.922 91.6061 202.947C92.1531 202.953 92.7064 202.969 93.2534 202.979C93.769 202.988 94.2846 202.997 94.797 203.01V197.908C94.5801 197.911 94.3757 197.908 94.797 197.908V197.901C93.8979 197.889 92.4392 197.883 91.6658 197.876C90.8138 197.842 89.1633 197.81 88.3177 197.785C86.6326 197.722 83.3127 197.666 81.656 197.606C80.0055 197.515 76.7988 197.424 75.1892 197.329C74.3907 197.279 72.8816 197.247 72.0988 197.181C71.3129 197.119 69.8542 197.059 69.0839 196.996C67.5403 196.87 64.5537 196.751 63.0887 196.634C61.6269 196.48 58.8258 196.329 57.4519 196.185C56.7634 196.116 55.4839 196.047 54.8174 195.981C54.1541 195.908 52.9469 195.814 52.3087 195.732C49.7748 195.386 45.1848 195.135 43.154 194.786C42.5221 194.688 41.5695 194.591 40.727 194.5C41.4846 195.72 42.2454 196.892 43.0093 198.008C44.4775 198.272 46.0683 198.536 47.7565 198.81C48.5456 198.942 49.3567 199.068 50.1866 199.203C50.6613 199.278 51.1455 199.351 51.6328 199.432C52.0635 199.495 52.5004 199.564 52.9406 199.63C53.8837 199.756 54.8394 199.885 55.8203 200.014ZM35.5051 152.452C36.1433 152.527 36.7941 152.596 37.4606 152.675C38.0233 152.738 38.5986 152.804 39.1834 152.867C40.4189 152.999 41.7015 153.131 43.0156 153.26C44.9836 153.47 47.0365 153.659 49.1555 153.854C49.517 153.885 49.8817 153.923 50.2495 153.957C52.032 154.112 53.868 154.262 55.7386 154.41C56.4616 154.47 57.1847 154.53 57.9172 154.589C58.3385 154.624 58.7597 154.659 59.1841 154.693C60.077 154.759 60.9824 154.819 61.8909 154.885C62.1645 154.904 62.4348 154.916 62.7115 154.938C63.7804 155.008 64.8555 155.077 65.9433 155.146C67.2825 155.234 68.6375 155.309 69.9988 155.391C71.4041 155.476 72.8251 155.564 74.2586 155.636C77.0849 155.775 79.9646 155.881 82.8695 155.992C83.6868 156.026 84.5105 156.061 85.3342 156.092C85.9724 156.114 86.6043 156.136 87.2425 156.155C87.9184 156.174 88.5943 156.193 89.2765 156.212C90.0467 156.23 90.8233 156.24 91.6029 156.256C92.1342 156.265 92.6687 156.274 93.2 156.284C93.9953 156.3 93.0522 156.312 94.797 156.322V147.717C91.2917 147.714 91.0276 147.714 90.795 147.708C90.5812 147.708 87.101 147.704 86.8904 147.704C86.6797 147.695 83.2593 147.686 83.0487 147.679C82.6242 147.664 75.6387 147.648 75.2238 147.638C74.8119 147.61 68.0999 147.591 67.7007 147.566C67.4963 147.554 64.472 147.547 64.2739 147.525C64.079 147.513 61.1616 147.497 60.9698 147.481C60.5831 147.453 54.3018 147.422 53.9309 147.393C53.5693 147.352 47.7062 147.318 47.3604 147.28C47.1843 147.264 44.6127 147.245 44.4492 147.23C44.2826 147.211 41.8556 147.189 41.6952 147.167C41.0602 147.082 31.5219 147.016 31.0126 146.931C30.758 146.893 26.9383 146.853 26.7182 146.821C26.6302 146.805 25.7877 146.796 25.3853 146.783C25.4764 148.286 25.6022 149.77 25.7562 151.232C27.7211 151.496 29.9563 151.779 32.4336 152.084C33.4208 152.21 34.4457 152.332 35.5051 152.452ZM52.3087 48.3073C52.9469 48.2255 54.1541 48.1312 54.8174 48.0589C55.4839 47.996 56.7634 47.9237 57.4519 47.8546C58.8258 47.71 61.6269 47.559 63.0887 47.405C64.5537 47.2887 67.5403 47.1692 69.0839 47.0466C69.8542 46.9837 71.3129 46.9209 72.0988 46.858C72.8816 46.792 74.3907 46.7605 75.1892 46.7102C76.7988 46.6191 80.0055 46.5247 81.656 46.4304C83.3127 46.3738 86.6326 46.3173 88.3177 46.2575C89.1633 46.2292 90.8138 46.1978 91.6658 46.1664C92.5146 46.1569 94.1871 46.1475 95.0422 46.1381C96.3029 46.1255 98.5035 46.1129 100.264 46.1003C102.021 46.1129 104.222 46.1255 105.483 46.1381C106.338 46.1475 108.01 46.1569 108.859 46.1664C109.714 46.1978 111.358 46.2292 112.204 46.2575C113.892 46.3173 117.209 46.3738 118.869 46.4304C120.519 46.5247 123.729 46.6191 125.333 46.7102C126.134 46.7605 127.64 46.792 128.429 46.858C129.212 46.9209 130.671 46.9837 131.441 47.0466C132.981 47.1692 135.968 47.2887 137.436 47.405C138.898 47.559 141.696 47.71 143.073 47.8546C143.765 47.9237 145.041 47.996 145.704 48.0589C146.371 48.1312 147.581 48.2255 148.216 48.3073C150.753 48.6499 155.343 48.9046 157.371 49.2567C158.192 49.3824 159.537 49.5019 160.496 49.6151C160.351 48.6028 160.207 47.5685 160.056 46.5185C159.685 46.443 159.298 46.3644 158.899 46.289C157.06 45.9368 155.004 45.5879 152.768 45.2295C151.976 45.1006 151.165 44.9686 150.335 44.8365C149.861 44.7642 149.38 44.6825 148.892 44.607C148.462 44.5379 148.025 44.4718 147.581 44.409C146.644 44.2832 145.682 44.1575 144.705 44.0254C143.104 43.8148 141.454 43.601 139.753 43.3841C139.455 43.3464 139.159 43.3086 138.854 43.2741C137.411 43.1169 135.933 42.9628 134.424 42.8088C133.837 42.7459 133.239 42.683 132.642 42.6202C132.306 42.5887 131.966 42.551 131.623 42.5196C130.897 42.4441 130.165 42.3749 129.423 42.3026C129.209 42.2838 128.986 42.2649 128.763 42.246C127.898 42.1737 127.021 42.1203 126.137 42.048C125.056 41.9725 123.965 41.8908 122.862 41.8122C121.717 41.7273 120.557 41.6456 119.394 41.5638C117.102 41.4349 114.782 41.3375 112.44 41.24L110.469 41.1551C109.95 41.1363 109.434 41.1174 108.919 41.0954C108.372 41.0828 107.819 41.0703 107.272 41.0608C106.64 41.0451 106.011 41.0388 105.379 41.0231C104.948 41.02 104.518 41.0105 104.087 41.0042C102.817 40.9791 101.537 40.9602 100.264 40.9445C98.9877 40.9602 97.7113 40.9791 96.4444 41.0042C96.0074 41.0105 95.5735 41.02 95.146 41.0231C94.5141 41.0388 93.8822 41.0451 93.2534 41.0608C92.7064 41.0703 92.1531 41.0828 91.6061 41.0954C91.0905 41.1174 90.5749 41.1363 90.0562 41.1551C89.396 41.1834 88.7389 41.2117 88.085 41.24C85.7397 41.3375 83.4196 41.4349 81.1341 41.5638C79.9677 41.6456 78.8077 41.7273 77.6602 41.8122C76.563 41.8908 75.4721 41.9725 74.3875 42.048C73.5073 42.1203 72.6301 42.1737 71.7656 42.246C71.5424 42.2649 71.3192 42.2838 71.0991 42.3026C70.3603 42.3749 69.6278 42.4441 68.9016 42.5196C68.5558 42.551 68.2194 42.5887 67.8799 42.6202C67.2826 42.683 66.6884 42.7459 66.1005 42.8088C64.5946 42.9628 63.1139 43.1169 61.6709 43.2741C61.3659 43.3086 61.0704 43.3464 60.7686 43.3841C59.071 43.601 57.4173 43.8148 55.8203 44.0254C54.8394 44.1575 53.8837 44.2832 52.9406 44.409C52.5004 44.4718 52.0635 44.5379 51.6328 44.607C51.1455 44.6825 50.6613 44.7642 50.1866 44.8365C49.3567 44.9686 48.5456 45.1006 47.7565 45.2295C45.5212 45.5879 43.4683 45.9368 41.6292 46.289C41.2268 46.3644 40.8401 46.443 40.4692 46.5185C40.3183 47.5685 40.1705 48.6028 40.029 49.6151C40.9879 49.5019 42.3334 49.3824 43.154 49.2567C45.1848 48.9046 49.7748 48.6499 52.3087 48.3073ZM94.797 203.026V203.019C94.621 203.019 94.5046 203.023 94.797 203.026ZM94.797 188.725V188.718C94.6838 188.718 94.643 188.725 94.797 188.725ZM48.753 63.2088C49.2278 63.146 50.8468 63.0768 51.3435 63.0202C51.8434 62.9731 53.5505 62.9196 54.0661 62.8693C55.1004 62.7624 58.9232 62.6461 60.0173 62.5298C61.1176 62.4449 65.2045 62.3506 66.3614 62.2626C66.9367 62.2154 68.8796 62.1682 69.4706 62.1179C70.0585 62.0739 72.0737 62.0488 72.6773 62.011C73.8782 61.9387 78.2575 61.8696 79.493 61.8004C80.7348 61.7564 85.2776 61.7155 86.5477 61.6715C87.1765 61.6495 89.418 61.6244 90.053 61.5992C90.6912 61.5898 92.9642 61.5898 93.6087 61.5772C94.7247 61.5709 98.4595 61.5583 100.264 61.5458C102.065 61.5583 105.8 61.5709 106.916 61.5772C107.561 61.5898 109.834 61.5898 110.472 61.5992C111.107 61.6244 113.349 61.6495 113.984 61.6715C115.247 61.7155 119.79 61.7564 121.032 61.8004C122.271 61.8696 126.647 61.9387 127.851 62.011C128.454 62.0488 130.466 62.0739 131.054 62.1179C131.642 62.1682 133.588 62.2154 134.164 62.2626C135.32 62.3506 139.407 62.4449 140.508 62.5298C141.602 62.6461 145.425 62.7624 146.459 62.8693C146.974 62.9196 148.685 62.9731 149.181 63.0202C149.681 63.0768 151.297 63.146 151.775 63.2088C153.674 63.4635 159.917 63.6584 161.439 63.9193C161.706 63.9571 162.197 64.0011 162.75 64.0419C162.527 62.7215 162.31 61.4294 162.106 60.1531C160.788 59.9456 159.389 59.7381 157.896 59.5149C157.038 59.3923 156.158 59.2602 155.252 59.1313C154.721 59.0559 154.183 58.9804 153.636 58.9081C153.161 58.839 152.677 58.7729 152.187 58.7101C151.149 58.5843 150.084 58.4554 148.996 58.3234C147.267 58.1127 145.484 57.9021 143.645 57.6978C143.325 57.6632 143.007 57.6223 142.68 57.5877C141.124 57.4337 139.527 57.2797 137.898 57.1256C137.263 57.0659 136.625 57.003 135.984 56.9433C135.619 56.9087 135.251 56.8741 134.883 56.8395C134.101 56.7703 133.312 56.7012 132.513 56.632C132.274 56.6132 132.038 56.5912 131.803 56.5754C130.863 56.5063 129.919 56.4434 128.97 56.3774C127.804 56.2956 126.625 56.217 125.436 56.1384C124.204 56.0536 122.956 55.9655 121.698 55.8901C119.234 55.7581 116.728 55.6543 114.197 55.5537C113.487 55.5223 112.776 55.4971 112.06 55.4657C111.506 55.4437 110.947 55.4248 110.39 55.406C109.799 55.3902 109.208 55.3745 108.617 55.3651C107.938 55.3494 107.259 55.3368 106.58 55.3242C106.115 55.3179 105.649 55.3085 105.181 55.2991C103.546 55.2645 101.905 55.2456 100.264 55.2236C98.6199 55.2456 96.9788 55.2645 95.3409 55.2991C94.8756 55.3085 94.4072 55.3179 93.9482 55.3242C93.266 55.3368 92.5869 55.3494 91.9079 55.3651C91.3168 55.3745 90.7258 55.3902 90.1348 55.406C89.5783 55.4248 89.0219 55.4437 88.4654 55.4657C87.7486 55.4971 87.0413 55.5223 86.3276 55.5537C83.8 55.6543 81.2881 55.7581 78.8234 55.8901C77.5659 55.9655 76.3209 56.0536 75.0886 56.1384C73.9034 56.217 72.7213 56.2956 71.5581 56.3774C70.6087 56.4434 69.6624 56.5063 68.7256 56.5754C68.4898 56.5912 68.2508 56.6132 68.0119 56.632C67.2165 56.7012 66.4243 56.7703 65.6446 56.8395C65.2768 56.8741 64.9058 56.9087 64.5443 56.9433C63.8998 57.003 63.2585 57.0659 62.6266 57.1256C60.995 57.2797 59.4042 57.4337 57.8449 57.5877C57.5211 57.6223 57.2004 57.6632 56.8829 57.6978C55.0406 57.9021 53.255 58.1127 51.5322 58.3234C50.4381 58.4554 49.3787 58.5843 48.3349 58.7101C47.8476 58.7729 47.3666 58.839 46.8888 58.9081C46.3449 58.9804 45.8042 59.0559 45.2729 59.1313C44.3675 59.2602 43.4872 59.3923 42.6321 59.5149C41.1356 59.7381 39.7335 59.9456 38.4194 60.1531C38.2119 61.4294 38.0013 62.7215 37.7749 64.0419C38.3251 64.0011 38.8155 63.9571 39.089 63.9193C40.6106 63.6584 46.8511 63.4635 48.753 63.2088ZM44.4492 99.0449C44.6127 99.026 47.1843 99.0103 47.3604 98.9977C47.7062 98.9569 53.5693 98.916 53.9309 98.8814C54.3018 98.8531 60.5831 98.8217 60.9698 98.7965C61.1616 98.7777 64.079 98.762 64.2739 98.7431C64.472 98.7305 67.4963 98.7179 67.7007 98.7085C68.0999 98.6834 74.8119 98.6614 75.2238 98.6394C75.6387 98.6236 82.6242 98.6079 83.0487 98.5922C83.2593 98.5859 86.6797 98.5796 86.8904 98.5702C87.101 98.5702 90.5812 98.567 90.795 98.5639C91.2257 98.5608 98.5727 98.5545 99.0034 98.5513C99.1071 98.5545 99.585 98.5545 100.264 98.5545C100.937 98.5545 101.421 98.5545 101.525 98.5513C101.952 98.5545 109.302 98.5608 109.73 98.5639C109.944 98.567 113.424 98.5702 113.635 98.5702C113.845 98.5796 117.266 98.5859 117.476 98.5922C117.898 98.6079 124.889 98.6236 125.298 98.6394C125.713 98.6614 132.425 98.6834 132.827 98.7085C133.026 98.7179 136.053 98.7305 136.251 98.7431C136.446 98.762 139.363 98.7777 139.555 98.7965C139.942 98.8217 146.22 98.8531 146.591 98.8814C146.956 98.916 152.822 98.9569 153.165 98.9977C153.338 99.0103 155.909 99.026 156.076 99.0449C156.242 99.0606 158.669 99.0858 158.827 99.1046C159.405 99.1832 167.362 99.243 169.167 99.3184C168.796 97.5359 168.44 95.8319 168.101 94.1877H168.094C167.104 94.0651 166.076 93.9394 165.017 93.8199C164.379 93.7476 163.728 93.6753 163.064 93.5999C162.502 93.537 161.926 93.4741 161.342 93.4081C160.103 93.2792 158.827 93.1471 157.516 93.012C155.544 92.8045 153.492 92.6158 151.37 92.4241C151.008 92.3864 150.643 92.3518 150.275 92.3203C148.49 92.1663 146.66 92.0154 144.783 91.8613C144.063 91.8016 143.337 91.745 142.605 91.6853C142.187 91.6507 141.765 91.613 141.341 91.5815C140.445 91.5155 139.546 91.4589 138.634 91.3929C138.357 91.3741 138.087 91.3552 137.813 91.3332C136.748 91.2672 135.669 91.198 134.582 91.1257C133.239 91.0408 131.887 90.9654 130.523 90.8805C129.121 90.7956 127.7 90.7107 126.266 90.6384C123.443 90.4969 120.56 90.3932 117.656 90.28C116.835 90.2486 116.014 90.2108 115.191 90.1794C114.556 90.1574 113.921 90.1417 113.282 90.1197C112.61 90.0977 111.928 90.0788 111.252 90.0631C110.475 90.0474 109.699 90.0317 108.919 90.0191C108.391 90.0065 107.856 89.9971 107.325 89.9908C104.98 89.9405 102.619 89.9216 100.264 89.8902C97.9062 89.9216 95.5484 89.9405 93.2 89.9908C92.6687 89.9971 92.1342 90.0065 91.6029 90.0191C90.8233 90.0317 90.0467 90.0474 89.2765 90.0631C88.5943 90.0788 87.9184 90.0977 87.2425 90.1197C86.6043 90.1417 85.9724 90.1574 85.3342 90.1794C84.5105 90.2108 83.6868 90.2486 82.8695 90.28C79.9646 90.3932 77.0849 90.4969 74.2586 90.6384C72.8251 90.7107 71.4041 90.7956 69.9988 90.8805C68.6375 90.9654 67.2825 91.0408 65.9433 91.1257C64.8555 91.198 63.7804 91.2672 62.7115 91.3332C62.4348 91.3552 62.1645 91.3741 61.8909 91.3929C60.9824 91.4589 60.077 91.5155 59.1841 91.5815C58.7597 91.613 58.3385 91.6507 57.9172 91.6853C57.1847 91.745 56.4616 91.8016 55.7386 91.8613C53.868 92.0154 52.032 92.1663 50.2495 92.3203C49.8817 92.3518 49.517 92.3864 49.1555 92.4241C47.0365 92.6158 44.9836 92.8045 43.0156 93.012C41.7015 93.1471 40.4189 93.2792 39.1834 93.4081C38.5986 93.4741 38.0233 93.537 37.4606 93.5999C36.7941 93.6753 36.1433 93.7476 35.5051 93.8199C34.4457 93.9394 33.4208 94.0651 32.4336 94.1877H32.4273C32.0847 95.8319 31.7326 97.5359 31.3585 99.3184C33.163 99.243 41.1199 99.1832 41.6952 99.1046C41.8556 99.0858 44.2826 99.0606 44.4492 99.0449ZM35.6529 80.6789C35.6151 80.6883 35.5554 80.6946 35.4894 80.7009C35.8006 79.1164 36.093 77.598 36.3665 76.1424C36.945 76.0638 37.5266 75.9852 38.1302 75.9035C39.0513 75.7808 40.007 75.652 40.991 75.5262C41.5758 75.4539 42.17 75.3816 42.7767 75.3061C43.2986 75.237 43.8236 75.171 44.358 75.1112C45.4992 74.9792 46.6719 74.8534 47.8728 74.7182C49.7182 74.5076 51.639 74.3127 53.6165 74.1084C53.9592 74.0738 54.3018 74.0392 54.6477 74.0015C56.317 73.8474 58.0335 73.6965 59.7846 73.5456C60.4605 73.4827 61.1427 73.4262 61.8312 73.3664C62.2242 73.3318 62.614 73.2941 63.0133 73.2627C63.8527 73.1904 64.6984 73.1306 65.5535 73.0615C65.8081 73.0426 66.0628 73.0269 66.3174 73.008C67.3203 72.9357 68.3294 72.8728 69.3512 72.8037C70.6055 72.7188 71.8662 72.6402 73.1457 72.5585C74.4661 72.4767 75.7928 72.3887 77.1446 72.3133C79.7886 72.1781 82.4796 72.0743 85.1959 71.9674C85.963 71.936 86.73 71.9046 87.5003 71.8763C88.0913 71.8543 88.6886 71.8322 89.2891 71.8134C89.9241 71.7977 90.556 71.7788 91.1911 71.7631C91.9173 71.7474 92.6435 71.7348 93.376 71.7222C93.8727 71.7128 94.3694 71.7002 94.8662 71.6971C96.8625 71.6531 98.8619 71.6311 100.858 71.6059C102.861 71.6311 104.86 71.6531 106.853 71.6971C107.353 71.7002 107.853 71.7128 108.347 71.7222C109.076 71.7348 109.805 71.7474 110.532 71.7631C111.17 71.7788 111.805 71.7977 112.437 71.8134C113.034 71.8322 113.631 71.8543 114.226 71.8763C114.996 71.9046 115.76 71.936 116.527 71.9674C119.243 72.0743 121.937 72.1781 124.581 72.3133C125.927 72.3887 127.263 72.4767 128.58 72.5585C129.857 72.6402 131.12 72.7188 132.375 72.8037C133.393 72.8728 134.402 72.9357 135.405 73.008C135.663 73.0269 135.915 73.0426 136.176 73.0615C137.024 73.1306 137.87 73.1904 138.709 73.2627C139.106 73.2941 139.502 73.3318 139.892 73.3664C140.58 73.4262 141.262 73.4827 141.941 73.5456C143.692 73.6965 145.406 73.8474 147.078 74.0015C147.421 74.0392 147.767 74.0738 148.109 74.1084C150.084 74.3127 152.008 74.5076 153.85 74.7182C155.054 74.8534 156.23 74.9792 157.365 75.1112C157.899 75.171 158.427 75.237 158.946 75.3061C159.556 75.3816 160.15 75.4539 160.732 75.5262C161.716 75.652 162.671 75.7808 163.593 75.9035C164.193 75.9852 164.781 76.0638 165.356 76.1424C165.633 77.598 165.925 79.1164 166.237 80.7009C166.167 80.6946 166.114 80.6883 166.073 80.6789C165.058 80.506 157.17 80.3802 155.903 80.2042C155.585 80.1664 153.558 80.1224 153.227 80.0816C152.897 80.0533 150.753 80.0187 150.411 79.981C149.725 79.9086 144.881 79.8332 144.151 79.7577C143.416 79.7012 138.228 79.6383 137.458 79.5786C137.075 79.5471 134.645 79.5157 134.252 79.4811C133.859 79.4528 131.337 79.4339 130.941 79.4088C130.133 79.3648 124.591 79.3176 123.764 79.2673C122.937 79.239 117.171 79.2139 116.329 79.1824C115.908 79.1667 113.075 79.1541 112.651 79.1384C112.226 79.129 109.353 79.129 108.919 79.1227C108.07 79.1133 102.018 79.1101 101.16 79.0976C101.091 79.0976 100.987 79.0976 100.858 79.1007C100.739 79.0976 100.632 79.0976 100.566 79.0976C99.7045 79.1101 93.6558 79.1133 92.8038 79.1227C92.3731 79.129 89.4966 79.129 89.0722 79.1384C88.6477 79.1541 85.8215 79.1667 85.3971 79.1824C84.5514 79.2139 78.7857 79.239 77.9557 79.2673C77.132 79.3176 71.5927 79.3648 70.7879 79.4088C70.3855 79.4339 67.8673 79.4528 67.4712 79.4811C67.0813 79.5157 64.6512 79.5471 64.2645 79.5786C63.4911 79.6383 58.307 79.7012 57.5745 79.7577C56.8452 79.8332 52.0006 79.9086 51.3121 79.981C50.9694 80.0187 48.8316 80.0533 48.4953 80.0816C48.1652 80.1224 46.1406 80.1664 45.8199 80.2042C44.5561 80.3802 36.662 80.506 35.6529 80.6789Z" fill="#B2B2B2"/>
<path d="M98.449 128.63H230V216.33H98.449V128.63Z" fill="#164194"/>
<path d="M161.429 147.735L164.202 145.707L166.978 147.735L165.921 144.462L168.738 142.438H165.264L164.202 139.121L163.142 142.438H159.662L162.479 144.462L161.429 147.735Z" fill="#FFED00"/>
<path d="M147.061 151.594L149.84 149.569L152.609 151.594L151.556 148.318L154.37 146.29H150.896L149.837 142.973L148.774 146.3L145.297 146.29L148.114 148.318L147.061 151.594Z" fill="#FFED00"/>
<path d="M139.325 153.508L138.259 156.828L134.789 156.825L137.605 158.852L136.546 162.128L139.325 160.104L142.101 162.128L141.045 158.852L143.858 156.825H140.388L139.325 153.508Z" fill="#FFED00"/>
<path d="M135.472 174.449L138.245 176.476L137.189 173.197L140.009 171.173H136.538L135.472 167.853L134.41 171.182L130.933 171.173L133.756 173.197L132.697 176.476L135.472 174.449Z" fill="#FFED00"/>
<path d="M140.391 185.564L139.328 182.244L138.263 185.564H134.792L137.609 187.586L136.549 190.862L139.328 188.834L142.104 190.862L141.048 187.586L143.862 185.564H140.391Z" fill="#FFED00"/>
<path d="M150.919 196.098L149.857 192.782L148.794 196.101L145.323 196.098L148.137 198.123L147.084 201.399L149.857 199.371L152.633 201.399L151.573 198.123L154.393 196.098H150.919Z" fill="#FFED00"/>
<path d="M165.263 199.908L164.204 196.592L163.138 199.912L159.664 199.908L162.484 201.939L161.428 205.209L164.204 203.187L166.977 205.209L165.92 201.939L168.744 199.908H165.263Z" fill="#FFED00"/>
<path d="M179.614 196.098L178.551 192.782L177.485 196.101L174.018 196.098L176.828 198.123L175.772 201.399L178.551 199.371L181.327 201.399L180.267 198.123L183.091 196.098H179.614Z" fill="#FFED00"/>
<path d="M190.148 185.564L189.079 182.244L188.013 185.564H184.545L187.362 187.586L186.306 190.862L189.079 188.834L191.858 190.862L190.798 187.586L193.618 185.564H190.148Z" fill="#FFED00"/>
<path d="M197.435 171.135H193.961L192.895 167.815L191.833 171.135H188.359L191.175 173.157L190.122 176.439L192.895 174.405L195.671 176.439L194.615 173.157L197.435 171.135Z" fill="#FFED00"/>
<path d="M186.307 162.085L189.08 160.058L191.856 162.085L190.8 158.809L193.62 156.794H190.149L189.08 153.471L188.017 156.794H184.547L187.363 158.809L186.307 162.085Z" fill="#FFED00"/>
<path d="M178.59 142.974L177.53 146.3L174.053 146.287L176.867 148.321L175.817 151.597L178.593 149.566L181.369 151.597L180.31 148.321L183.126 146.287H179.653L178.59 142.974Z" fill="#FFED00"/>
</g>
<defs>
<linearGradient id="paint0_linear_24_2039" x1="-3.5" y1="-2.86195e-06" x2="256" y2="256" gradientUnits="userSpaceOnUse">
<stop stop-color="white"/>
<stop offset="1" stop-color="#E0E0E0"/>
</linearGradient>
<linearGradient id="paint1_linear_24_2039" x1="0" y1="0" x2="256" y2="256" gradientUnits="userSpaceOnUse">
<stop stop-color="white" stop-opacity="0.15"/>
<stop offset="1" stop-opacity="0"/>
</linearGradient>
<clipPath id="clip0_24_2039">
<rect width="256" height="256" fill="white"/>
</clipPath>
</defs>
</svg>
