<svg width="256" height="256" viewBox="0 0 256 256" fill="none" xmlns="http://www.w3.org/2000/svg">
<g clip-path="url(#clip0_24_2042)">
<rect width="256" height="256" fill="url(#paint0_linear_24_2042)"/>
<path d="M-1 256H256V0H-1V256Z" fill="#003399"/>
<path d="M141.934 30.7902L134.186 37.0925L137.181 47.0526L129.457 40.8986L121.71 47.0526L124.776 37.0925L116.934 30.7902H126.534L129.457 21.0526L132.309 30.7902H141.934Z" fill="#FFCC00"/>
<path d="M142.934 163.026L134.877 168.842L137.991 178.053L129.958 172.379L121.926 178.053L125.09 168.842L116.934 163.026H126.918L129.958 154.053L132.899 163.026H142.934Z" fill="#FFCC00"/>
<path d="M175.934 154.39L167.877 160.443L171.015 170.053L162.958 164.148L154.926 170.053L158.09 160.443L149.934 154.39H159.943L162.958 145.053L165.924 154.39H175.934Z" fill="#FFCC00"/>
<path d="M175.934 39.406L167.877 45.4523L171.015 55.0526L162.958 49.1295L154.926 55.0526L158.09 45.4523L149.934 39.406H159.943L162.958 30.0526L165.924 39.406H175.934Z" fill="#FFCC00"/>
<path d="M199.934 63.4152L191.852 69.4429L195.015 79.0526L186.958 73.1484L178.951 79.0526L182.09 69.4429L173.934 63.4152H183.943L186.958 54.0526L189.924 63.4152H199.934Z" fill="#FFCC00"/>
<path d="M199.934 130.421L191.852 136.462L195.015 146.053L186.958 140.135L178.926 146.053L182.09 136.462L173.934 130.421H183.943L186.958 121.053L189.924 130.421H199.934Z" fill="#FFCC00"/>
<path d="M208.934 96.3905L200.877 102.468L203.991 112.053L195.958 106.124L187.926 112.053L191.09 102.468L182.934 96.3905H192.918L195.958 87.0526L198.9 96.3905H208.934Z" fill="#FFCC00"/>
<path d="M108.934 39.406L100.852 45.4524L103.991 55.0526L95.9336 49.1296L87.9013 55.0526L91.0649 45.4524L82.9336 39.406H92.9185L95.9336 30.0526L98.924 39.406H108.934Z" fill="#FFCC00"/>
<path d="M84.9336 63.4152L77.17 69.4676L80.1615 79.0526L72.4455 73.1484L64.7294 79.0526L67.7684 69.4676L59.9336 63.4152H69.5491L72.4455 54.0526L75.2944 63.4152H84.9336Z" fill="#FFCC00"/>
<path d="M76.9336 96.4152L68.8518 102.468L71.9906 112.053L63.9583 106.173L55.9013 112.053L59.0646 102.468L50.9336 96.4152H60.9182L63.9583 87.0526L66.8992 96.4152H76.9336Z" fill="#FFCC00"/>
<path d="M84.9336 130.39L77.17 136.468L80.1615 146.053L72.4455 140.148L64.7294 146.053L67.7684 136.468L59.9336 130.39H69.5491L72.4455 121.053L75.2944 130.39H84.9336Z" fill="#FFCC00"/>
<path d="M108.934 154.415L101.163 160.468L104.157 170.053L96.4336 164.148L88.7102 170.053L91.7759 160.468L83.9336 154.415H93.5344L96.4336 145.053L99.309 154.415H108.934Z" fill="#FFCC00"/>
<path d="M214.682 204.286V209.411H210.557V220.167C210.557 221.228 210.602 221.935 210.956 222.275C211.311 222.616 211.968 222.813 213.039 222.813C213.408 222.813 213.574 222.784 213.914 222.762C214.254 222.74 214.682 222.689 214.682 222.619V227.47C214.682 227.565 213.685 227.609 213.031 227.627C212.378 227.646 211.802 227.679 211.185 227.679C210.266 227.684 209.347 227.618 208.438 227.481C207.634 227.368 206.859 227.105 206.152 226.708C205.537 226.313 205.052 225.748 204.756 225.083C204.387 224.391 204.387 223.469 204.387 222.323V209.396H200.248V204.271H204.376V198.15H210.561V204.286H214.682ZM190.119 216.883C189.72 217.018 189.311 217.126 188.897 217.205C188.443 217.3 187.992 217.366 187.49 217.425C186.988 217.483 186.497 217.556 186.013 217.655C185.547 217.727 185.088 217.843 184.643 217.999C184.21 218.125 183.803 218.324 183.439 218.589C183.104 218.844 182.826 219.166 182.623 219.533C182.402 219.989 182.298 220.492 182.321 220.998C182.305 221.486 182.41 221.971 182.627 222.411C182.827 222.773 183.115 223.08 183.465 223.304C183.848 223.532 184.268 223.692 184.706 223.776C185.186 223.857 185.673 223.896 186.161 223.893C187.401 223.893 188.376 223.707 189.041 223.289C189.661 222.937 190.18 222.433 190.548 221.825C190.813 221.282 190.97 220.692 191.009 220.09C191.042 219.621 191.033 219.151 190.983 218.684V216.356C190.983 216.586 190.522 216.766 190.134 216.905M177.838 207.928C178.476 206.993 179.326 206.219 180.319 205.666C181.369 205.07 182.514 204.659 183.705 204.45C184.95 204.204 186.217 204.082 187.486 204.084C188.659 204.086 189.829 204.167 190.991 204.326C192.114 204.479 193.206 204.807 194.225 205.3C195.116 205.757 195.877 206.428 196.441 207.251C197.05 208.082 197.179 209.206 197.179 210.564V222.392C197.235 223.376 197.359 224.354 197.549 225.321C197.628 226.068 197.873 226.788 198.265 227.43L191.929 227.452C191.818 227.092 191.731 226.725 191.67 226.353C191.594 225.981 191.544 225.605 191.519 225.226C190.547 226.232 189.33 226.974 187.985 227.378C186.629 227.785 185.221 227.993 183.805 227.997C182.769 228 181.736 227.865 180.736 227.594C179.833 227.352 178.988 226.932 178.251 226.361C177.539 225.801 176.97 225.082 176.59 224.263C176.18 223.304 175.978 222.27 175.999 221.228C175.955 220.129 176.193 219.037 176.689 218.054C177.109 217.256 177.716 216.569 178.458 216.052C179.214 215.544 180.054 215.172 180.94 214.953C181.866 214.703 182.805 214.503 183.753 214.353C184.691 214.21 185.629 214.1 186.545 213.987C187.369 213.916 188.188 213.785 188.993 213.595C189.599 213.464 190.168 213.2 190.658 212.823C190.868 212.644 191.03 212.417 191.13 212.162C191.23 211.906 191.266 211.631 191.234 211.359C191.263 210.801 191.149 210.246 190.902 209.744C190.693 209.37 190.39 209.056 190.023 208.833C189.628 208.605 189.191 208.456 188.738 208.393C188.223 208.314 187.702 208.277 187.18 208.283C185.947 208.283 184.964 208.408 184.263 208.939C183.903 209.251 183.609 209.632 183.398 210.058C183.187 210.484 183.063 210.947 183.033 211.421H176.73C176.831 210.183 177.209 208.984 177.838 207.91M173.44 204.249V209.374H168.27V220.13C168.22 220.897 168.473 221.653 168.976 222.239C169.326 222.586 170.131 222.777 171.191 222.777C171.56 222.777 172.037 222.747 172.351 222.725C172.665 222.703 173.429 222.652 173.429 222.583V227.433C172.399 227.528 172.21 227.572 171.557 227.591C170.903 227.609 170.231 227.642 169.6 227.642C168.667 227.647 167.735 227.581 166.812 227.444C165.993 227.333 165.203 227.071 164.482 226.672C163.778 226.295 163.193 225.732 162.791 225.046C162.317 224.203 162.074 223.251 162.085 222.286V209.396H158.991V204.271H162.085V198.15H168.274V204.286L173.44 204.249ZM142.053 221.55C142.327 222.054 142.705 222.496 143.161 222.846C143.618 223.186 144.138 223.434 144.69 223.578C145.268 223.742 145.865 223.824 146.466 223.824C146.935 223.826 147.402 223.781 147.862 223.692C148.326 223.604 148.772 223.442 149.184 223.212C149.579 223.001 149.92 222.703 150.181 222.341C150.461 221.932 150.604 221.445 150.587 220.95C150.587 220.02 149.959 219.314 148.7 218.841C146.989 218.246 145.235 217.783 143.453 217.454C142.537 217.231 141.632 216.985 140.772 216.722C139.948 216.465 139.163 216.095 138.442 215.623C137.779 215.173 137.223 214.586 136.81 213.903C136.369 213.128 136.152 212.248 136.182 211.359C136.127 210.12 136.417 208.89 137.021 207.804C137.58 206.892 138.364 206.136 139.299 205.607C140.294 205.047 141.378 204.659 142.504 204.458C143.7 204.243 144.914 204.137 146.13 204.143C147.34 204.14 148.547 204.255 149.734 204.487C150.852 204.686 151.925 205.085 152.898 205.666C153.817 206.241 154.597 207.008 155.184 207.914C155.786 208.847 156.137 210.425 156.259 211.446H150.262C150.155 210.425 149.712 209.4 148.885 208.983C147.977 208.537 146.976 208.314 145.964 208.331C145.578 208.326 145.191 208.347 144.808 208.393C144.42 208.419 144.039 208.511 143.682 208.664C143.352 208.809 143.057 209.022 142.818 209.29C142.559 209.61 142.428 210.012 142.449 210.421C142.442 210.679 142.497 210.935 142.608 211.168C142.719 211.401 142.883 211.606 143.087 211.765C143.559 212.156 144.103 212.451 144.69 212.632C145.443 212.873 146.208 213.072 146.983 213.229C147.825 213.398 148.707 213.595 149.597 213.789C150.502 213.987 151.396 214.231 152.274 214.521C153.1 214.795 153.882 215.188 154.593 215.686C155.267 216.157 155.827 216.771 156.233 217.483C156.667 218.301 156.88 219.217 156.849 220.141C156.893 221.448 156.585 222.744 155.956 223.893C155.361 224.875 154.548 225.709 153.578 226.331C152.553 226.962 151.421 227.4 150.236 227.624C148.972 227.874 147.685 227.997 146.396 227.99C145.09 227.989 143.789 227.854 142.511 227.587C141.307 227.351 140.155 226.906 139.107 226.273C138.117 225.57 137.288 224.667 136.677 223.622C136.042 222.608 135.706 221.638 135.643 219.595H141.625C141.625 220.62 141.758 221.06 142.042 221.569M110.767 211.157C111.272 209.748 112.079 208.465 113.133 207.395C114.187 206.325 115.462 205.494 116.87 204.959C118.429 204.381 120.084 204.095 121.748 204.117C123.417 204.099 125.076 204.385 126.641 204.959C128.053 205.491 129.332 206.321 130.389 207.391C131.446 208.461 132.256 209.746 132.763 211.157C133.345 212.749 133.631 214.432 133.605 216.125C133.631 217.801 133.346 219.468 132.763 221.041C132.239 222.449 131.425 223.733 130.374 224.812C129.317 225.866 128.044 226.681 126.641 227.203C125.076 227.778 123.417 228.062 121.748 228.041C120.084 228.066 118.429 227.782 116.87 227.203C115.472 226.68 114.204 225.865 113.152 224.812C112.1 223.734 111.288 222.45 110.767 221.041C110.185 219.47 109.898 217.806 109.921 216.132C109.897 214.437 110.184 212.751 110.767 211.157ZM116.494 218.764C116.653 219.587 116.954 220.376 117.384 221.096C117.803 221.783 118.393 222.351 119.097 222.747C119.908 223.187 120.824 223.4 121.748 223.366C122.676 223.393 123.595 223.179 124.414 222.747C125.119 222.352 125.709 221.783 126.128 221.096C126.572 220.382 126.885 219.595 127.051 218.772C127.225 217.898 127.31 217.009 127.305 216.118C127.31 215.216 127.225 214.316 127.051 213.431C126.893 212.607 126.584 211.819 126.139 211.106C125.684 210.369 125.037 209.767 124.267 209.364C123.496 208.962 122.629 208.773 121.759 208.818C120.833 208.779 119.915 208.998 119.108 209.451C118.414 209.862 117.827 210.429 117.395 211.106C116.961 211.822 116.66 212.609 116.505 213.431C116.324 214.315 116.235 215.215 116.239 216.118C116.234 217.009 116.324 217.899 116.505 218.772M101.266 204.286V209.411H101.081C101.299 208.602 101.709 207.856 102.277 207.236C102.771 206.609 103.352 206.053 104.002 205.585C104.651 205.146 105.356 204.795 106.099 204.542C106.796 204.305 107.527 204.182 108.263 204.176C108.68 204.176 109.515 204.205 109.515 204.359V210.139C109.212 210.046 108.898 209.991 108.581 209.975C108.171 209.942 107.842 209.92 107.447 209.92C106.441 209.887 105.442 210.085 104.526 210.498C103.772 210.851 103.12 211.386 102.628 212.054C102.124 212.744 101.766 213.529 101.576 214.36C101.354 215.296 101.245 216.255 101.251 217.216V227.799H95.0807V204.286H101.266ZM83.7372 227.796V224.728C82.9245 225.839 81.861 226.747 80.6318 227.378C79.4071 227.919 78.0762 228.181 76.7362 228.147C75.3214 228.174 73.915 227.925 72.5969 227.415C71.5903 227.027 70.7094 226.373 70.049 225.526C69.3756 224.654 68.9087 223.643 68.6828 222.568C68.4092 221.298 68.2657 220.004 68.2544 218.706V204.286H74.4394V217.586C74.4394 219.453 74.8456 220.88 75.4401 221.777C76.0346 222.674 77.135 223.161 78.6452 223.161C80.3475 223.161 81.6953 222.66 82.4596 221.649C83.224 220.639 83.7225 218.969 83.7225 216.659V204.286H89.9075V227.796H83.7372ZM49.5702 221.982C50.5044 222.912 51.867 223.362 53.632 223.362C54.7844 223.419 55.9273 223.129 56.911 222.531C57.8193 221.898 58.388 221.664 58.5948 220.642H64.1336C63.2437 222.685 61.8774 225.222 60.0496 226.39C58.2218 227.558 55.9878 228.089 53.4031 228.089C51.7344 228.105 50.0778 227.807 48.5215 227.21C47.1257 226.67 45.8655 225.834 44.829 224.761C43.8046 223.666 43.0123 222.379 42.499 220.976C41.9391 219.425 41.6628 217.787 41.683 216.14C41.6621 214.515 41.9463 212.902 42.5212 211.38C43.0446 209.967 43.8556 208.676 44.9037 207.586C45.9518 206.497 47.2147 205.632 48.6139 205.047C50.123 204.418 51.7476 204.106 53.3846 204.132C55.1504 204.081 56.9021 204.458 58.4877 205.23C59.897 205.939 61.1169 206.969 62.0473 208.236C62.9961 209.524 63.6834 210.982 64.0708 212.53C64.4959 214.171 64.6407 215.871 64.4991 217.56H48.0304C48.1227 219.606 48.6323 221.067 49.5813 221.953M56.6931 209.934C55.9546 209.118 54.7988 208.745 53.2627 208.745C52.3942 208.72 51.5323 208.901 50.7481 209.272C50.1268 209.586 49.5785 210.024 49.1382 210.56C48.758 211.008 48.4707 211.526 48.2926 212.083C48.1338 212.625 48.0378 213.485 48.012 213.485H58.2588C57.9523 212.464 57.4242 210.784 56.682 209.964" fill="white"/>
<rect width="256" height="256" fill="url(#paint1_linear_24_2042)"/>
</g>
<defs>
<linearGradient id="paint0_linear_24_2042" x1="-3.5" y1="-2.86195e-06" x2="256" y2="256" gradientUnits="userSpaceOnUse">
<stop stop-color="white"/>
<stop offset="1" stop-color="#E0E0E0"/>
</linearGradient>
<linearGradient id="paint1_linear_24_2042" x1="0" y1="0" x2="256" y2="256" gradientUnits="userSpaceOnUse">
<stop stop-color="white" stop-opacity="0.15"/>
<stop offset="1" stop-opacity="0"/>
</linearGradient>
<clipPath id="clip0_24_2042">
<rect width="256" height="256" fill="white"/>
</clipPath>
</defs>
</svg>
