<svg width="256" height="256" viewBox="0 0 256 256" fill="none" xmlns="http://www.w3.org/2000/svg">
<rect width="256" height="256" fill="#0172F1"/>
<path d="M61.6931 86.8081C65.7635 84.8721 70.5699 84.4017 74.8739 85.8321C79.1203 87.0257 82.7587 89.8897 85.2771 93.4673C88.1219 97.6369 89.2675 102.837 88.6755 107.832C77.5075 107.909 66.3363 107.819 55.1651 107.88C56.0771 112.456 59.0691 116.629 63.3283 118.632C68.5315 121.346 75.2835 120.175 79.4627 116.117C80.4451 115.243 81.1043 114.082 82.0163 113.144C83.6739 112.831 85.4083 113.077 87.0979 113.035C84.9699 118.111 80.5955 122.261 75.3091 123.883C71.2067 125.282 66.6115 125.103 62.6147 123.448C58.0771 121.647 54.3715 118.002 52.2723 113.621C50.1891 109.115 49.7795 103.855 51.1939 99.0929C52.7459 93.7649 56.6211 89.1121 61.6931 86.8081ZM65.0371 90.4913C59.6611 92.2961 55.5203 97.4481 55.0691 103.122C64.7491 103.16 74.4291 103.173 84.1091 103.115C83.5331 96.6961 78.3203 90.9617 71.9267 89.9473C69.6323 89.7777 67.2291 89.6529 65.0371 90.4913Z" fill="#FEFEFE"/>
<path d="M143.568 89.0225C147.559 85.8385 152.9 84.9393 157.882 85.0321C157.904 86.6321 157.908 88.2353 157.869 89.8353C154.192 89.7937 150.295 90.1681 147.181 92.3121C144.231 94.2449 142.874 97.8705 142.836 101.285C142.81 108.786 142.832 116.283 142.826 123.784C141.242 123.826 139.658 123.848 138.08 123.739C138.013 116.357 138.068 108.978 138.052 101.599C137.994 96.8881 139.86 92.0369 143.568 89.0225Z" fill="#FEFEFE"/>
<path d="M176.134 85.5793C181.068 84.2961 186.412 85.5313 190.652 88.2449C194.636 90.9585 197.715 95.0737 198.883 99.7809C199.862 103.314 199.817 107.115 198.764 110.629C197.299 115.976 193.395 120.562 188.435 123.007C184.54 124.895 180 125.397 175.798 124.347C169.952 122.971 164.921 118.648 162.579 113.128C161.123 109.723 160.473 105.906 161.068 102.226C161.801 96.9585 164.636 91.9441 168.979 88.8273C171.11 87.2817 173.542 86.0977 176.134 85.5793ZM178.374 90.6833C171.676 91.6145 166.608 98.1585 166.79 104.811C166.585 109.077 168.473 113.371 171.686 116.175C175.948 120.12 182.947 120.53 187.625 117.071C192.131 113.899 194.496 108.015 193.526 102.603C192.972 98.8209 190.86 95.2785 187.76 93.0353C185.091 91.0833 181.651 90.1777 178.374 90.6833Z" fill="#FEFEFE"/>
<path d="M124.227 85.8417C125.603 85.7265 126.985 85.8289 128.367 85.7969C128.559 91.4929 128.393 97.1953 128.451 102.895C128.374 106.011 128.684 109.157 128.092 112.239C127.241 116.735 124.428 120.962 120.271 123.016C113.884 126.405 105.036 124.984 100.604 119.093C98.4057 116.347 97.3817 112.792 97.4041 109.307C97.3977 101.49 97.4169 93.6721 97.3945 85.8513C98.8825 85.7585 100.374 85.7777 101.865 85.8385C101.913 92.6961 101.871 99.5569 101.884 106.415C101.907 108.133 101.766 109.877 102.111 111.573C102.745 115.215 105.35 118.475 108.828 119.775C110.71 120.575 112.809 120.507 114.803 120.325C117.654 119.832 120.323 118.136 121.875 115.675C123.417 113.336 124.031 110.488 123.983 107.714C123.98 100.872 124.003 94.0305 123.971 87.1921C124.06 86.7601 123.785 86.1201 124.227 85.8417Z" fill="#FEFEFE"/>
<path d="M53.7184 139.656C59.1104 132.651 70.1152 131.317 77.2672 136.338C81.3664 139.119 84.0736 143.826 84.432 148.763C84.6816 150.744 84.5536 152.744 84.5792 154.735C84.5472 160.101 84.6144 165.467 84.5536 170.834C81.7056 170.891 78.8576 170.872 76.0096 170.853C75.9232 164.091 76.016 157.327 75.9648 150.568C75.9456 147.371 74.1664 144.133 71.248 142.719C68.0096 140.978 63.7536 141.631 61.1488 144.2C60.064 145.355 59.264 146.767 58.8064 148.28C58.1376 150.255 58.4064 152.37 58.352 154.415C58.3072 159.874 58.4384 165.339 58.288 170.799C55.6032 170.917 52.912 170.885 50.2272 170.84C49.648 170.456 49.8336 169.733 49.792 169.147C49.8144 163.384 49.7952 157.621 49.8016 151.858C49.696 147.519 50.9376 143.045 53.7184 139.656Z" fill="#FEFEFE"/>
<path d="M97.3413 134.619C101.789 132.837 106.973 132.856 111.348 134.853C118.141 137.711 122.602 144.875 122.733 152.168C122.743 153.4 122.791 154.671 122.346 155.845C112.698 155.851 103.05 155.797 93.4054 155.871C94.2118 158.351 95.6837 160.671 97.8981 162.117C100.935 164.309 105.159 164.738 108.545 163.109C110.218 162.539 111.325 160.603 113.255 160.882C115.809 160.907 118.362 160.853 120.913 160.949C118.954 164.92 115.757 168.341 111.665 170.136C106.474 172.587 100.103 172.296 95.1301 169.439C91.5333 167.343 88.5989 164.075 87.0213 160.21C84.9541 155.285 85.0086 149.506 87.143 144.61C89.1302 140.165 92.8069 136.453 97.3413 134.619ZM99.6038 142.056C96.5862 143.365 94.3109 146.162 93.4565 149.317C94.5157 149.391 95.5781 149.397 96.6405 149.384C102.695 149.317 108.756 149.451 114.807 149.32C113.681 145.394 110.391 142.139 106.372 141.269C104.106 140.853 101.69 141.035 99.6038 142.056Z" fill="#FEFEFE"/>
<path d="M121.674 134.082C124.711 134.043 127.747 134.066 130.787 134.085C131.725 140.68 132.954 147.231 134.467 153.717C135.312 156.898 136.048 160.127 137.306 163.176C138.352 160.949 138.97 158.559 139.664 156.207C141.619 148.93 143.165 141.541 144.195 134.079C146.736 134.059 149.28 134.047 151.821 134.101C153.047 141.954 154.621 149.759 156.823 157.397C157.395 159.343 157.991 161.285 158.739 163.173C160.88 157.432 162.093 151.4 163.354 145.419C164.144 141.672 164.717 137.88 165.303 134.095C168.298 134.034 171.29 134.085 174.285 134.05C174.378 135.474 174.058 136.875 173.843 138.277C172.487 145.65 170.749 152.952 168.624 160.143C167.466 163.749 166.368 167.391 164.851 170.863C161.072 170.875 157.296 170.859 153.52 170.872C150.97 165.215 149.418 159.154 148.035 153.122C146.698 159.147 144.976 165.09 142.72 170.837C138.883 170.895 135.043 170.866 131.203 170.853C127.469 162.235 125.027 153.115 123.053 143.947C122.531 140.671 121.703 137.416 121.674 134.082Z" fill="#FEFEFE"/>
<path d="M180.524 134.962C183.667 133.784 187.084 133.679 190.399 133.851C192.918 134.072 195.475 134.303 197.887 135.122C197.958 135.231 198.102 135.448 198.172 135.554C198.252 137.755 198.195 139.96 198.179 142.162C193.971 141.407 189.686 140.747 185.404 141.208C184.211 141.403 182.854 142.232 182.815 143.573C182.767 144.501 182.681 145.634 183.459 146.312C184.591 147.429 186.252 147.599 187.699 148.072C191.123 149.064 195.02 149.618 197.561 152.37C199.468 154.367 199.999 157.195 200.102 159.858C199.967 162.05 199.631 164.331 198.303 166.152C196.159 169.381 192.121 170.488 188.473 170.843C183.644 171.189 178.771 170.68 174.127 169.291C173.891 166.933 174.041 164.559 174.044 162.194C177.225 162.818 180.396 163.688 183.667 163.608C185.603 163.515 187.689 163.935 189.503 163.071C191.871 161.931 191.964 158.008 189.545 156.853C186.431 155.416 182.934 155.093 179.743 153.864C177.353 152.879 175.43 150.856 174.649 148.379C173.715 145.435 173.683 142.024 175.238 139.275C176.339 137.208 178.342 135.73 180.524 134.962Z" fill="#FEFEFE"/>
<path d="M210.689 155.602C212.404 155.362 214.263 155.349 215.834 156.175C218.378 157.435 220.266 160.159 220.097 163.055C220.445 167.215 216.599 171.029 212.487 170.933C208.41 171.08 204.753 167.426 204.717 163.381C204.551 159.803 207.185 156.36 210.689 155.602Z" fill="#FEFEFE"/>
</svg>
