<svg width="256" height="256" viewBox="0 0 256 256" fill="none" xmlns="http://www.w3.org/2000/svg">
<g clip-path="url(#clip0_24_2040)">
<rect width="256" height="256" fill="url(#paint0_linear_24_2040)"/>
<rect width="256" height="256" fill="white"/>
<rect width="256" height="256" fill="url(#paint1_linear_24_2040)"/>
<path d="M245 192.659V121.064H137.683V192.659H245Z" fill="#254AA5"/>
<path d="M191.285 128.845L192.309 132.021L195.639 132.005L192.936 133.955L193.979 137.126L191.285 135.152L188.602 137.126L189.645 133.955L186.936 132.005L190.266 132.021L191.285 128.845Z" fill="#FFF200"/>
<path d="M191.285 176.607L192.309 179.774L195.639 179.759L192.936 181.715L193.979 184.885L191.285 182.915L188.602 184.885L189.645 181.715L186.936 179.759L190.266 179.774L191.285 176.607Z" fill="#FFF200"/>
<path d="M179.406 132.022L180.426 135.196L183.758 135.187L181.06 137.128L182.101 140.294L179.406 138.324L176.721 140.294L177.762 137.128L175.065 135.187L178.397 135.196L179.406 132.022Z" fill="#FFF200"/>
<path d="M170.667 140.788L171.68 143.962L175.017 143.941L172.305 145.894L173.346 149.06L170.667 147.087L167.977 149.06L169.022 145.894L166.307 143.941L169.648 143.962L170.667 140.788Z" fill="#FFF200"/>
<path d="M167.439 152.702L168.448 155.87L171.789 155.855L169.084 157.807L170.116 160.968L167.439 158.995L164.751 160.968L165.802 157.807L163.085 155.855L166.423 155.87L167.439 152.702Z" fill="#FFF200"/>
<path d="M170.625 164.608L171.647 167.795L174.972 167.77L172.27 169.722L173.319 172.887L170.625 170.907L167.937 172.887L168.986 169.722L166.277 167.775L169.607 167.795L170.625 164.608Z" fill="#FFF200"/>
<path d="M179.406 173.371L180.426 176.548L183.758 176.531L181.06 178.477L182.101 181.646L179.406 179.678L176.721 181.646L177.762 178.477L175.065 176.531L178.397 176.548L179.406 173.371Z" fill="#FFF200"/>
<path d="M203.181 132.022L202.165 135.196L198.823 135.187L201.534 137.128L200.489 140.294L203.181 138.324L205.866 140.294L204.826 137.128L207.528 135.187L204.203 135.196L203.181 132.022Z" fill="#FFF200"/>
<path d="M211.925 140.788L210.907 143.962L207.571 143.941L210.278 145.894L209.233 149.06L211.925 147.087L214.619 149.06L213.569 145.894L216.272 143.941L212.938 143.962L211.925 140.788Z" fill="#FFF200"/>
<path d="M215.151 152.702L214.135 155.87L210.792 155.855L213.504 157.807L212.459 160.968L215.151 158.995L217.841 160.968L216.8 157.807L219.498 155.855L216.166 155.87L215.151 152.702Z" fill="#FFF200"/>
<path d="M211.948 164.608L210.943 167.795L207.607 167.77L210.316 169.722L209.269 172.887L211.948 170.907L214.648 172.887L213.605 169.722L216.31 167.775L212.976 167.795L211.948 164.608Z" fill="#FFF200"/>
<path d="M203.181 173.371L202.165 176.548L198.823 176.531L201.534 178.477L200.489 181.646L203.181 179.678L205.866 181.646L204.826 178.477L207.528 176.531L204.203 176.548L203.181 173.371Z" fill="#FFF200"/>
<path d="M154.801 106.782V100.861C152.641 99.0162 144.037 95.3223 138.787 94.162V98.3299C144.788 99.8045 152.268 104.143 154.801 106.782Z" fill="#787F84"/>
<path d="M159.164 115.618H164.262C164.414 108.147 158.35 103.522 157.485 102.852V109.97C159.429 113.127 159.164 115.618 159.164 115.618Z" fill="#787F84"/>
<path d="M171.85 100.581V107.007C174.411 109.689 175.951 111.79 177.17 115.648H182.569C181.126 109.749 177.696 104.927 171.85 100.581Z" fill="#787F84"/>
<path d="M168.564 104.105V98.3145C163.611 95.1117 153.816 90.7214 144.037 88.6802V92.8326C153.436 95.1117 163.428 99.9821 168.564 104.105Z" fill="#787F84"/>
<path d="M182.444 100.59V94.861C176.498 91.1132 164.263 85.8761 149.824 82.8271V86.972C163.689 90.3219 174.213 95.1013 182.444 100.59Z" fill="#787F84"/>
<path d="M186.281 97.2992C186.278 97.2954 186.27 103.459 186.27 103.459C190.06 106.469 193.729 110.432 196.173 115.648H201.903C199.94 109.157 192.604 101.289 186.281 97.2992Z" fill="#787F84"/>
<path d="M197.92 97.024V91.2928C186.554 84.5687 169.52 78.6593 155.988 76.2751V80.4074C171.269 83.4735 189.471 91.0259 197.92 97.024Z" fill="#787F84"/>
<path d="M216.304 115.648H222.305C217.991 105.311 207.176 97.0241 202.125 93.8702V99.9503C209.775 105.617 212.603 109.667 216.304 115.648Z" fill="#787F84"/>
<path d="M213.158 93.4043V87.4675C203.951 81.834 185.323 73.4015 162.64 69.0318V73.3454C179.899 76.9304 201.903 85.4932 213.158 93.4043Z" fill="#787F84"/>
<path d="M235.786 115.648H242.353C235.072 103.26 226.743 96.1773 217.743 90.3219V96.5434C224.414 101.228 231.561 108.213 235.786 115.648Z" fill="#787F84"/>
<path d="M134.487 97.1682V93.2534C128.582 92.1427 118.198 91.4341 113.635 92.0287V95.0954C120.486 94.7389 130.575 96.0124 134.487 97.1682Z" fill="#787F84"/>
<path d="M109.04 95.3758V92.4465C98.0772 93.5928 90.5581 97.3597 86.2075 100.573V103.092C92.4186 98.0786 101.023 96.0035 109.04 95.3758Z" fill="#787F84"/>
<path d="M83.6743 105.72L83.675 102.87C73.5906 114.2 86.2078 123.636 87.55 124.576V120.702C80.4967 115.371 81.3249 108.874 83.6743 105.72Z" fill="#787F84"/>
<path d="M91.3679 123.103V127.256C98.2157 131.046 105.107 133.442 114.91 135.198L114.84 129.567C108.178 129.164 99.0218 127.265 91.3679 123.103Z" fill="#787F84"/>
<path d="M118.183 129.745L118.153 135.601C123.886 136.078 129.299 136.223 132.25 136.219V129.63C127.898 129.922 119.832 129.979 118.183 129.745Z" fill="#787F84"/>
<path d="M139.737 91.8231V87.8298C132.678 86.4003 118.996 85.3354 110.891 86.0921V89.1979C121.588 88.8038 132.168 90.1704 139.737 91.8231Z" fill="#787F84"/>
<path d="M111.212 146.492V140.222C100.715 139.291 84.5772 135.627 74.5547 128.271V132.453C85.5452 140.741 102.927 145.338 111.212 146.492Z" fill="#787F84"/>
<path d="M70.7508 129.314V125.173C61.8575 116.717 63.5938 108.114 69.336 102.572V99.9821C58.299 110.004 62.3427 122.134 70.7508 129.314Z" fill="#787F84"/>
<path d="M114.899 140.558V147.05C121.289 147.949 126.829 148.237 132.249 148.237V141.072C126.404 141.103 117.495 140.8 114.899 140.558Z" fill="#787F84"/>
<path d="M72.311 97.5416V99.9821C81.8749 92.8658 96.2167 89.998 106.298 89.4516V86.4692C93.8134 87.2848 79.4716 92.0694 72.311 97.5416Z" fill="#787F84"/>
<path d="M56.7498 133.112V137.598C70.4688 149.972 93.0413 156.709 106.677 159.06V152.068C94.1128 150.66 71.4095 145.789 56.7498 133.112Z" fill="#787F84"/>
<path d="M145.524 85.9441V82.0026C136.657 80.3891 121.337 78.6291 106.989 79.9416V83.0637C119.048 82.2238 136.069 83.7922 145.524 85.9441Z" fill="#787F84"/>
<path d="M110.715 152.523V159.759C116.796 160.976 126.799 161.541 132.25 161.741V153.677C129.003 153.792 114.77 152.975 110.715 152.523Z" fill="#787F84"/>
<path d="M102.386 83.3545V80.3202C91.7207 81.2387 72.6498 85.0367 59.9985 93.6002V96.0567C72.3112 87.6723 91.368 83.9512 102.386 83.3545Z" fill="#787F84"/>
<path d="M56.5264 98.5562V96.0567C50.7384 100.422 36.5459 115.139 52.9745 133.768V129.249C49.3229 125.167 40.5089 111.945 56.5264 98.5562Z" fill="#787F84"/>
<path d="M151.686 79.4825V75.436C140.95 73.3283 120.028 71.5047 103.578 73.1197V76.2456C118.12 75.1207 138.805 76.7611 151.686 79.4825Z" fill="#787F84"/>
<path d="M106.239 164.917V172.571C114.337 174.146 124.422 175.122 132.25 175.389V166.703C122.887 166.544 114.811 166.1 106.239 164.917Z" fill="#787F84"/>
<path d="M101.816 171.846V164.44C79.3024 161.257 54.4944 153.056 39.1216 137.983V142.76C57.3341 160.902 87.5455 169.265 101.816 171.846Z" fill="#787F84"/>
<path d="M47.5601 89.2644V91.6738C62.6111 82.0935 83.2311 77.9754 98.9825 76.5784V73.5317C83.8389 74.8444 61.6622 80.0016 47.5601 89.2644Z" fill="#787F84"/>
<path d="M35.323 138.133V133.209C29.4299 125.175 23.6478 109.326 44.012 94.1511V91.6738C21.1417 108.026 26.8416 128.041 35.323 138.133Z" fill="#787F84"/>
<path d="M19.5308 141.222V146.559C36.8077 168.97 72.4802 182.162 94.6615 186.836V178.653C71.357 174.708 35.9477 163.29 19.5308 141.222Z" fill="#787F84"/>
<path d="M158.292 72.4187V68.2185C147.671 65.9999 121.86 63.1381 99.1267 65.5045V68.7322C118.135 67.0595 142.122 69.1006 158.292 72.4187Z" fill="#787F84"/>
<path d="M94.5343 69.1243V65.9689C74.8075 67.9818 50.3153 74.805 36.0032 84.1568V86.6578C53.9832 75.6332 77.8446 70.7032 94.5343 69.1243Z" fill="#787F84"/>
<path d="M99.4802 179.434V187.823C104.545 189.114 123.771 191.865 132.25 191.931V182.314C119.311 181.904 106.095 180.499 99.4802 179.434Z" fill="#787F84"/>
<path d="M32.1467 89.198V86.6578C26.3571 90.3916 -1.05685 110.974 15.783 140.674V134.684C5.25025 112.79 21.3056 96.9012 32.1467 89.198Z" fill="#787F84"/>
</g>
<defs>
<linearGradient id="paint0_linear_24_2040" x1="-3.5" y1="-2.86195e-06" x2="256" y2="256" gradientUnits="userSpaceOnUse">
<stop stop-color="white"/>
<stop offset="1" stop-color="#E0E0E0"/>
</linearGradient>
<linearGradient id="paint1_linear_24_2040" x1="0" y1="0" x2="256" y2="256" gradientUnits="userSpaceOnUse">
<stop stop-color="white" stop-opacity="0.15"/>
<stop offset="1" stop-opacity="0"/>
</linearGradient>
<clipPath id="clip0_24_2040">
<rect width="256" height="256" fill="white"/>
</clipPath>
</defs>
</svg>
