<svg width="256" height="256" viewBox="0 0 256 256" fill="none" xmlns="http://www.w3.org/2000/svg">
<g clip-path="url(#clip0_24_2041)">
<rect width="256" height="256" fill="url(#paint0_linear_24_2041)"/>
<rect width="256" height="256" fill="url(#paint1_linear_24_2041)"/>
<path d="M350 325L133.5 177L-83 325" stroke="#FBC213" stroke-width="50"/>
<path d="M350 178L133.5 30L-83 178" stroke="#FBC213" stroke-width="50"/>
<path fill-rule="evenodd" clip-rule="evenodd" d="M113.168 120.455C113.72 120.259 113.838 120.455 113.838 121.435C113.838 122.414 113.68 122.649 113.01 122.649C112.577 122.649 111.867 122.454 111.394 122.219C110.33 121.631 110.015 122.101 110.882 123.041C111.946 124.217 112.064 126.92 111.079 128.448C109.778 130.525 107.294 131.426 103.51 131.152C100.672 130.956 100.435 130.995 100.435 131.7C100.435 132.367 100.751 132.445 103.746 132.445C109.975 132.445 112.695 133.464 113.247 136.011C113.838 138.597 111.236 142.084 108.043 143.024C105.915 143.651 101.263 143.847 99.6468 143.377C96.7691 142.515 95.5866 140.164 97.3605 138.949C98.425 138.205 101.263 138.048 100.514 138.793C99.7257 139.576 100.001 140.948 101.066 141.81C102.446 142.868 106.309 142.946 108.319 141.927C109.423 141.379 109.699 141.026 109.699 140.086C109.699 138.479 108.438 137.931 104.772 137.931C99.568 137.931 97.5179 136.833 97.5179 134.13C97.518 133.033 97.7941 132.484 98.8584 131.544L100.159 130.368L99.1344 129.624C97.873 128.723 97.1237 126.568 97.439 124.804C98.0303 121.748 102.564 119.789 107.019 120.69C109.147 121.16 111.67 121.043 113.168 120.455ZM105.442 121.709C104.811 120.886 103.746 121.239 103.431 122.375C103.037 123.825 103.155 128.918 103.589 129.741C104.062 130.603 104.771 130.721 105.481 130.016C106.151 129.349 106.112 122.61 105.442 121.709Z" fill="#1C1D1A"/>
<path fill-rule="evenodd" clip-rule="evenodd" d="M150.5 120.533C153.653 120.533 155.664 121.239 156.413 122.61C156.61 123.042 156.807 125.745 156.807 128.684C156.807 131.583 156.925 134.208 157.043 134.561C157.162 134.914 157.753 135.188 158.344 135.188C159.33 135.227 159.29 135.266 157.793 136.167C155.703 137.46 153.18 137.5 151.958 136.246L151.051 135.384L149.751 136.246C146.597 138.362 142.655 136.559 142.616 132.954C142.616 130.956 144.192 129.467 147.346 128.527C150.342 127.626 150.855 127.234 151.17 125.314C151.446 123.472 150.105 121.944 147.937 121.591L146.361 121.356L147.503 122.336C150.421 124.844 147.188 129.036 144.153 126.646C143.128 125.823 142.97 123.864 143.798 122.845C145.02 121.396 147.464 120.573 150.5 120.533ZM149.711 128.919C148.292 130.564 147.977 132.68 148.962 133.895C149.199 134.169 149.751 134.404 150.145 134.404C150.815 134.404 150.894 134.091 150.894 130.995L150.854 127.547L149.711 128.919Z" fill="#1C1D1A"/>
<path d="M137.767 118.378C138.949 117.242 139.068 117.321 139.068 119.123V120.69H140.644C141.788 120.69 142.221 120.847 142.221 121.278C142.221 121.709 141.788 121.866 140.644 121.866H139.068V127.704C139.068 134.052 139.265 134.678 141.236 134.326C141.788 134.208 142.221 134.247 142.221 134.404C142.221 134.992 140.289 136.403 139.028 136.755C138.279 136.99 137.412 137.147 137.097 137.147C136.072 137.108 134.061 136.089 133.825 135.462C133.707 135.149 133.549 132.014 133.509 128.488C133.43 122.375 133.391 122.062 132.602 121.866C131.932 121.67 132.327 121.395 134.337 120.416C135.756 119.75 137.294 118.849 137.767 118.378Z" fill="#1C1D1A"/>
<path fill-rule="evenodd" clip-rule="evenodd" d="M193.074 125.196C193.074 134.992 193.153 135.972 193.784 136.324C194.257 136.638 193.468 136.716 190.827 136.755H187.161V134.639L186.333 135.541C185.899 136.011 185.072 136.559 184.52 136.794C184.007 136.99 182.904 137.147 182.115 137.147C178.804 137.108 176.872 134.757 176.596 130.329C176.36 126.45 176.991 124.374 179.08 122.414C181.09 120.495 183.14 119.985 185.584 120.847L187.2 121.396L187.082 118.222C186.964 115.205 186.924 115.009 185.978 114.774C185.427 114.617 186.767 114.499 189.053 114.46L193.074 114.421V125.196ZM186.491 122.179C185.702 121.317 184.283 121.278 183.455 122.101C182.509 123.002 182.549 133.033 183.495 134.091C184.283 134.953 185.702 134.992 186.53 134.169C187.476 133.268 187.437 123.237 186.491 122.179Z" fill="#1C1D1A"/>
<path fill-rule="evenodd" clip-rule="evenodd" d="M45.1279 120.533C47.1382 120.533 47.7688 120.73 48.9514 121.631C50.7253 122.963 51.5534 124.53 51.5534 126.568V128.135H47.2171C43.1173 128.135 42.8808 128.174 42.8808 128.919C42.8808 130.29 43.945 132.366 45.0093 133.072C46.4284 133.973 49.3062 133.621 50.6071 132.406C51.2772 131.779 51.5533 131.701 51.5534 132.092C51.5534 133.229 49.5824 135.501 47.8873 136.324C45.5615 137.421 42.7229 137.421 40.4759 136.246C39.1357 135.58 38.505 134.874 37.6772 133.229C36.4552 130.878 36.2973 129.115 37.1251 126.45C38.3078 122.493 40.9493 120.573 45.1279 120.533ZM44.8519 121.474C43.8663 121.474 43.2749 122.571 42.999 125L42.7626 126.96H46.4287V124.961C46.4287 122.65 45.9161 121.474 44.8519 121.474Z" fill="#1C1D1A"/>
<path fill-rule="evenodd" clip-rule="evenodd" d="M195.873 122.884C198.12 120.063 205.334 119.593 207.699 122.101C208.606 123.041 208.645 123.472 208.843 129.036L209.04 134.953L211.011 135.423L209.907 136.167C209.276 136.559 207.857 136.951 206.714 137.069C204.782 137.225 204.546 137.147 203.718 136.128C203.127 135.384 202.772 135.149 202.653 135.501C202.535 135.776 201.944 136.246 201.353 136.559C200.091 137.186 198.08 137.304 196.78 136.755C195.479 136.246 194.651 134.796 194.651 132.994C194.651 130.839 195.912 129.624 199.184 128.527C202.023 127.586 202.969 126.724 203.008 125.118C203.087 122.924 201.589 121.474 199.303 121.474C198.514 121.474 198.554 121.513 199.539 122.454C200.919 123.707 200.919 125.432 199.539 126.529C198.159 127.586 196.977 127.586 195.913 126.45C194.809 125.314 194.809 124.217 195.873 122.884ZM202.101 128.37C201.076 129.271 200.17 130.995 200.17 131.936C200.17 132.328 200.446 133.072 200.801 133.542C201.116 134.012 201.747 134.404 202.18 134.404C202.85 134.404 202.929 134.091 202.929 130.995V127.626L202.101 128.37Z" fill="#1C1D1A"/>
<path fill-rule="evenodd" clip-rule="evenodd" d="M240.773 125.196C240.773 134.992 240.852 135.972 241.483 136.324C241.956 136.638 241.167 136.716 238.526 136.755C235.136 136.755 234.86 136.716 234.86 135.972C234.86 134.953 234.545 134.992 233.402 136.05C232.771 136.638 231.864 136.951 230.445 137.03C226.345 137.343 224.217 134.678 224.217 129.31C224.217 124.765 226.109 121.592 229.302 120.69C231.115 120.181 231.588 120.22 233.402 120.847L234.9 121.396L234.781 118.222C234.663 115.205 234.624 115.009 233.678 114.774C233.126 114.617 234.466 114.499 236.752 114.46L240.773 114.421V125.196ZM234.229 122.336C233.559 121.356 232.219 121.199 231.076 122.022C230.445 122.492 230.327 123.159 230.209 126.764C230.051 131.465 230.287 133.307 231.155 134.208C232.022 135.07 233.52 134.953 234.229 133.934C234.742 133.268 234.86 131.936 234.86 128.135C234.86 124.334 234.742 123.002 234.229 122.336Z" fill="#1C1D1A"/>
<path d="M122.668 114.382C124.442 113.912 128.779 114.108 130.513 114.774C131.538 115.166 131.578 115.322 131.578 117.752C131.578 119.162 131.42 120.298 131.223 120.298C131.026 120.298 130.316 119.319 129.646 118.143C128.266 115.753 127.517 115.205 125.507 115.205C123.733 115.205 122.511 116.341 122.511 117.987C122.511 119.789 122.984 120.377 126.847 123.237C131.262 126.489 132.051 127.547 132.051 130.094C132.051 132.563 130.907 134.404 128.503 135.815C127.005 136.677 126.098 136.912 123.694 136.99C120.776 137.108 118.45 136.755 116.952 135.972C116.322 135.619 116.204 135.109 116.204 132.641C116.204 129.506 116.598 128.958 117.386 130.878C118.805 134.287 121.722 136.677 123.851 136.128C125.861 135.619 126.768 133.307 125.704 131.348C125.428 130.839 123.575 129.271 121.565 127.782C117.347 124.687 116.401 123.198 116.716 120.377C117.031 117.556 119.278 115.283 122.668 114.382Z" fill="#1C1D1A"/>
<path d="M22.7762 117.125C22.7762 118.653 22.658 119.946 22.4609 120.064C22.3032 120.142 21.5934 119.28 20.8444 118.143C19.3465 115.793 18.361 115.205 15.8775 115.205H14.1036V125H15.6408C17.257 125 18.4793 123.982 19.0312 122.219C19.6225 120.416 20.0167 121.787 20.0167 125.588C20.0167 127.861 19.8589 129.702 19.6618 129.702C19.4647 129.702 19.11 129.154 18.8341 128.527C18.164 126.96 17.0207 126.176 15.2862 126.176H13.9065L14.0247 130.76C14.1035 133.777 14.3006 135.462 14.616 135.658C15.365 136.128 17.5727 136.011 19.0312 135.423C19.9773 134.992 20.8447 134.13 21.8696 132.484C22.6974 131.191 23.5251 130.133 23.6828 130.094C23.9982 130.094 23.7221 134.639 23.3279 136.089C23.1307 136.716 22.3425 136.755 13.7883 136.755C5.58881 136.716 4.60305 136.677 5.6674 136.206C6.3769 135.893 7.0077 135.266 7.12604 134.757C7.55967 133.19 7.44147 117.164 7.00786 116.38C6.77134 115.949 6.10124 115.361 5.50994 115.048C4.56384 114.499 5.31269 114.46 13.6305 114.421H22.7762V117.125Z" fill="#1C1D1A"/>
<path d="M26.6001 120.69C31.2909 120.729 31.5669 120.769 30.5814 121.317C29.9507 121.631 29.4777 122.179 29.4777 122.532C29.4779 123.394 32.3555 132.837 32.6314 132.837C32.9471 132.835 35.3908 123.708 35.3909 122.532C35.3909 121.944 35.2331 121.474 34.9967 121.474C34.7995 121.474 34.6024 121.317 34.6024 121.082C34.6024 120.886 35.5878 120.69 36.8099 120.69H39.0569L38.0321 121.631C37.2831 122.336 36.4551 124.334 34.7206 129.663L32.4736 136.755H27.6641L25.3778 129.82C24.1164 125.98 22.776 122.375 22.3423 121.787L21.5539 120.69H26.6001Z" fill="#1C1D1A"/>
<path d="M60.0681 122.493C62.394 120.024 65.7055 119.789 67.5188 121.944C68.4649 123.08 68.5044 123.277 68.5044 129.31C68.5044 134.443 68.6225 135.619 69.1349 136.128C69.6868 136.716 69.3715 136.755 65.4689 136.755C62.3942 136.716 61.4087 136.638 61.921 136.324C62.5123 135.972 62.5912 135.266 62.5912 130.329C62.5912 124.178 62.4335 123.668 60.3442 123.903L59.2405 124.021L59.1223 129.31C59.004 135.227 59.1221 136.246 60.1471 136.481C60.5018 136.598 58.8068 136.677 56.3628 136.716C52.3028 136.755 51.9476 136.716 52.4993 136.128C53.4454 135.188 53.4061 122.453 52.46 121.396C51.8687 120.729 51.9476 120.69 55.4166 120.69H59.0434V123.629L60.0681 122.493Z" fill="#1C1D1A"/>
<path d="M77.2559 128.174C77.3741 135.03 77.4528 135.697 78.1228 136.206C78.8324 136.677 78.3989 136.755 74.4964 136.755H70.0812L70.8696 135.972C71.5792 135.266 71.658 134.678 71.658 128.801C71.658 123.668 71.5395 122.258 71.0271 121.552L70.4358 120.69H77.1373L77.2559 128.174Z" fill="#1C1D1A"/>
<path d="M87.5838 122.062C89.7914 120.024 92.8271 119.868 94.601 121.748C95.4682 122.649 95.5076 123.042 95.6258 129.232C95.7047 134.757 95.8625 135.854 96.375 136.285C96.9267 136.677 96.2563 136.755 92.7085 136.755C89.5946 136.716 88.6091 136.638 89.1214 136.324C89.7127 135.972 89.7916 135.266 89.7916 130.329C89.7916 124.178 89.6338 123.668 87.5445 123.903L86.4408 124.021L86.3227 129.898C86.2438 135.07 86.2832 135.815 86.914 136.246C87.4656 136.677 86.8346 136.755 83.3264 136.755C79.4636 136.755 79.148 136.716 79.6996 136.128C80.6457 135.188 80.6065 122.453 79.6604 121.396C79.0691 120.729 79.148 120.69 82.6169 120.69H86.2437V123.316L87.5838 122.062Z" fill="#1C1D1A"/>
<path d="M167.214 122.062C169.619 119.828 172.851 119.907 174.467 122.258C175.256 123.472 175.335 123.982 175.335 129.741C175.335 135.227 175.414 135.972 176.044 136.324C176.517 136.638 175.532 136.716 172.457 136.755C168.555 136.755 168.239 136.716 168.791 136.128C169.303 135.658 169.422 134.522 169.422 130.133C169.422 124.178 169.224 123.668 167.175 123.903L166.071 124.021L165.953 129.898C165.874 135.07 165.913 135.815 166.544 136.246C167.096 136.677 166.465 136.755 162.917 136.755C158.818 136.755 158.699 136.716 159.29 136.05C159.842 135.423 159.961 134.287 159.961 128.605C159.961 122.14 159.921 121.905 159.093 121.317C158.266 120.729 158.463 120.69 162.05 120.69H165.874V123.316L167.214 122.062Z" fill="#1C1D1A"/>
<path d="M217.594 127.39C217.436 134.326 217.712 136.167 219.013 136.481C219.407 136.598 217.594 136.677 215.071 136.716L210.419 136.755L211.247 135.932C211.996 135.188 212.036 134.757 211.917 128.527C211.799 122.454 211.72 121.866 211.011 121.317C210.301 120.769 210.538 120.729 213.967 120.69H217.712L217.594 127.39Z" fill="#1C1D1A"/>
<path d="M218.304 123.316C218.304 120.612 221.851 119.476 223.665 121.631C224.926 123.041 224.847 124.021 223.467 125.431C221.339 127.547 218.304 126.293 218.304 123.316Z" fill="#1C1D1A"/>
<path d="M74.4175 113.637C75.9154 113.638 77.5711 115.166 77.5712 116.498C77.5712 117.007 77.2161 117.909 76.7431 118.496C76.1124 119.28 75.6 119.515 74.4175 119.515C72.683 119.515 71.2638 118.143 71.2638 116.498C71.2639 115.166 72.9195 113.637 74.4175 113.637Z" fill="#1C1D1A"/>
<path d="M249.643 131.701C250.471 133.268 250.392 134.169 249.21 135.54C248.421 136.52 247.869 136.755 246.687 136.755C245.504 136.755 244.952 136.52 244.164 135.54C243.06 134.247 242.902 133.229 243.612 131.936C244.282 130.682 245.149 130.133 246.568 130.094C248.342 130.094 249.012 130.447 249.643 131.701Z" fill="#DD052C"/>
</g>
<defs>
<linearGradient id="paint0_linear_24_2041" x1="-3.5" y1="-2.86195e-06" x2="256" y2="256" gradientUnits="userSpaceOnUse">
<stop stop-color="white"/>
<stop offset="1" stop-color="#E0E0E0"/>
</linearGradient>
<linearGradient id="paint1_linear_24_2041" x1="0" y1="0" x2="256" y2="256" gradientUnits="userSpaceOnUse">
<stop stop-color="white" stop-opacity="0.15"/>
<stop offset="1" stop-opacity="0"/>
</linearGradient>
<clipPath id="clip0_24_2041">
<rect width="256" height="256" fill="white"/>
</clipPath>
</defs>
</svg>
