<svg width="256" height="256" viewBox="0 0 256 256" fill="none" xmlns="http://www.w3.org/2000/svg">
<g clip-path="url(#clip0_24_2530)">
<rect width="256" height="256" fill="url(#paint0_linear_24_2530)"/>
<rect width="256" height="256" fill="url(#paint1_linear_24_2530)"/>
<path d="M93.1279 65.6375L44.3667 191.637H145.146L193.907 65.6375H93.1279ZM195.312 91.9726L164.362 172.138H176.608L184.977 149.786H216.852L225.221 172.138H238.192L206.502 91.9726H195.312ZM71.115 91.9757L17.1924 91.9883V172.16H28.8332V137.058H53.6707L57.6282 126.838H28.8332V102.311H67.1267L71.115 91.9757ZM118.157 92.5081C122.173 92.5081 125.779 92.9993 128.961 93.9768C132.147 94.9523 134.936 96.173 137.324 97.6393C139.711 99.1056 141.762 100.701 143.467 102.431C145.174 104.16 146.556 105.812 147.619 107.391L139.883 113.932C138.972 112.656 137.892 111.318 136.644 109.927C135.393 108.538 133.893 107.279 132.15 106.152C130.405 105.024 128.394 104.085 126.118 103.333C123.846 102.582 121.228 102.204 118.271 102.204C114.101 102.204 110.366 102.996 107.065 104.573C103.767 106.152 100.961 108.291 98.6474 110.998C96.3377 113.705 94.5712 116.861 93.3595 120.468C92.1477 124.077 91.5413 127.913 91.5413 131.97C91.5413 136.03 92.1663 139.845 93.4181 143.413C94.6699 146.985 96.4343 150.087 98.706 152.715C100.982 155.346 103.748 157.412 107.01 158.914C110.27 160.42 113.91 161.169 117.928 161.169C121.342 161.169 124.281 160.738 126.745 159.871C129.21 159.009 131.295 157.977 133.002 156.772C134.707 155.571 136.109 154.35 137.209 153.109C138.307 151.871 139.237 150.837 139.994 150.01L147.619 156.322C146.784 157.673 145.493 159.218 143.751 160.945C142.006 162.673 139.884 164.309 137.382 165.85C134.879 167.389 131.996 168.686 128.736 169.739C125.476 170.792 121.871 171.318 117.928 171.318C112.317 171.318 107.198 170.338 102.574 168.387C97.9483 166.431 93.9687 163.709 90.6306 160.214C87.2947 156.717 84.6979 152.585 82.8392 147.81C80.9784 143.037 80.0517 137.83 80.0517 132.193C80.0517 126.708 80.9784 121.561 82.8392 116.75C84.6979 111.94 87.2947 107.73 90.6306 104.123C93.9687 100.516 97.9681 97.6755 102.63 95.6076C107.293 93.5418 112.469 92.5081 118.157 92.5081ZM200.89 104.833L213.336 140.05H188.372L200.89 104.833Z" fill="#701B45"/>
</g>
<defs>
<linearGradient id="paint0_linear_24_2530" x1="-3.5" y1="-2.86195e-06" x2="256" y2="256" gradientUnits="userSpaceOnUse">
<stop stop-color="white"/>
<stop offset="1" stop-color="#E0E0E0"/>
</linearGradient>
<linearGradient id="paint1_linear_24_2530" x1="0" y1="0" x2="256" y2="256" gradientUnits="userSpaceOnUse">
<stop stop-color="white" stop-opacity="0.15"/>
<stop offset="1" stop-opacity="0"/>
</linearGradient>
<clipPath id="clip0_24_2530">
<rect width="256" height="256" fill="white"/>
</clipPath>
</defs>
</svg>
