<svg width="256" height="256" viewBox="0 0 256 256" fill="none" xmlns="http://www.w3.org/2000/svg">
<g clip-path="url(#clip0_24_719)">
<g clip-path="url(#clip1_24_719)">
<rect width="256" height="256" fill="white"/>
<path d="M55.8933 225.524C58.6361 222.781 61.4095 219.825 64.1523 216.869H64.0914C69.2114 211.048 74.24 205.531 80.2133 200.442C82.0114 198.827 83.779 197.394 85.4552 196.236C85.9428 195.749 85.9428 194.773 86.4304 194.316C84.0228 195.291 82.5599 197.211 80.1523 198.187C79.6647 198.187 79.1771 197.699 79.6647 197.211C81.3714 195.931 83.1085 194.621 84.8152 193.341C84.7238 193.341 84.6019 193.341 84.48 193.341C83.9923 193.341 83.9923 192.853 83.9923 192.366C77.7142 191.39 72.8685 195.749 68.5409 199.619C67.5657 200.107 66.6209 199.131 66.1333 199.131C58.88 201.539 53.5771 207.817 46.3238 210.712C46.3238 210.225 46.3238 210.225 46.3238 209.737C43.4285 210.712 40.6247 212.45 37.6381 213.12C33.28 214.095 29.44 213.608 25.5695 213.608C19.7181 214.187 13.8666 215.497 8.01519 216.747C7.83234 216.777 7.67996 216.838 7.49711 216.869C4.35806 217.722 1.40188 218.91 -1.49336 220.495C-1.61527 220.556 -1.7067 220.617 -1.8286 220.678C-2.07241 220.983 -2.31623 221.257 -2.52956 221.501C-3.56575 222.629 -4.44955 223.695 -5.85146 224.396C-8.80765 225.92 -11.2458 228.541 -13.8667 230.674C-14.0496 230.827 -14.3543 230.888 -14.6286 230.918C-17.2191 233.417 -19.7791 235.916 -22.4 238.354C-22.5829 238.537 -23.3448 238.629 -23.8629 238.537C-23.8629 238.507 -23.8324 238.507 -23.8324 238.507C-23.741 238.354 -23.6496 238.202 -23.5581 238.05C-23.1619 237.379 -22.7353 236.678 -22.3086 236.008C-21.8515 235.246 -21.3638 234.514 -20.8762 233.752C-20.2057 232.747 -19.5353 231.771 -18.8343 230.827C-18.6515 230.583 -18.7124 230.37 -18.8648 230.187C-19.0172 230.034 -19.261 229.943 -19.5353 229.943C-17.1277 227.596 -14.2629 225.615 -11.4286 223.878C-11.4286 223.848 -11.4286 223.817 -11.4286 223.787C-11.7638 223.909 -12.221 223.634 -11.9772 223.299C-11.6724 222.872 -11.4286 222.415 -11.1543 221.989C-11.0934 221.836 -11.0629 221.714 -11.0019 221.562C-11.1238 221.44 -11.2458 221.318 -11.3677 221.166C-12.16 221.684 -12.9829 222.141 -13.6229 222.75C-14.781 223.787 -15.6953 225.92 -17.4324 225.89C-17.5543 225.89 -17.8896 225.859 -18.1638 225.798C-18.3772 225.768 -18.56 225.707 -18.6819 225.615C-18.6515 225.585 -18.6515 225.554 -18.621 225.493C-18.5905 225.463 -18.56 225.402 -18.56 225.371C-18.5296 225.341 -18.4991 225.28 -18.4991 225.25C-18.4381 225.097 -18.3467 224.975 -18.2553 224.823C-18.1638 224.67 -18.1029 224.549 -18.0115 224.396C-17.9505 224.274 -17.8896 224.183 -17.8286 224.061C-17.7067 223.848 -17.6153 223.665 -17.4934 223.451C-17.4019 223.299 -17.3105 223.147 -17.2496 223.025C-17.0362 222.659 -16.8229 222.324 -16.64 221.958C-16.5486 221.775 -16.4267 221.623 -16.3353 221.44C-16.1524 221.135 -16 220.861 -15.8172 220.556C-15.5734 220.16 -15.8172 219.825 -16.1829 219.703C-15.2991 218.545 -14.2019 217.57 -12.861 216.808H-13.0134C-11.1543 215.863 -9.32576 214.735 -7.46671 213.699C-7.19243 213.455 -6.94861 213.242 -6.67433 212.998C-9.41718 213.912 -11.9162 215.162 -14.3543 216.777C-14.3543 216.777 -14.9943 217.051 -15.1772 217.204C-15.1772 217.204 -15.7257 217.417 -16.3962 216.777C-16.4572 216.686 -16.5181 216.594 -16.5181 216.411C-16.0305 215.436 -14.5981 214.949 -13.6229 214.004C-13.1353 214.004 -12.6477 214.004 -12.6477 214.491C2.80377 202.423 24.0457 205.318 41.9352 199.04C43.3981 198.065 44.8304 197.12 46.2933 196.145C48.7009 195.17 50.6514 192.762 53.5466 191.33C57.4171 188.434 60.3123 185.051 61.7447 180.236C61.7447 179.749 61.2571 179.261 61.2571 179.261C54.979 186.027 47.7257 191.33 40.0152 195.2C29.8666 200.503 18.7733 199.558 8.1371 200.99C8.62472 200.015 9.59996 200.015 10.5447 200.015C10.5447 198.552 11.52 198.095 12.4647 197.12C12.9523 197.12 13.44 197.12 13.9276 197.12C14.4152 197.12 14.4152 196.145 14.9028 196.145C15.8781 196.145 17.3104 195.657 16.8228 195.657C15.36 193.737 12.4647 197.12 10.0571 195.657C11.0323 194.682 10.5447 193.25 11.52 192.762C12.0076 192.762 12.9828 192.762 13.44 192.762C13.44 191.787 14.4152 190.842 14.4152 190.842C21.6685 186.484 28.4343 183.101 35.1695 179.261C33.7066 179.261 32.7619 180.724 31.299 179.749C32.2742 179.749 31.299 178.286 32.2742 178.286C37.5771 176.823 41.9352 173.928 47.2381 172.008C45.3181 172.008 43.8552 173.47 41.9352 172.008C42.9104 171.52 43.3981 170.545 44.8304 170.545C44.8304 170.057 44.8304 169.57 44.8304 169.082C44.8304 168.594 45.3181 168.594 45.8057 168.594C45.3181 168.594 44.8304 168.107 44.8304 168.107C45.3181 167.131 46.7504 167.619 47.7257 166.644C47.238 166.644 46.2628 166.644 46.2628 166.156C47.7257 164.236 50.1333 163.749 52.5409 163.261C52.0533 162.286 50.6209 163.261 50.6209 162.286C50.6209 161.798 51.1085 161.798 51.5962 161.798C51.1085 161.798 51.1085 161.798 50.6209 161.798C49.6457 161.31 50.1333 160.335 50.1333 159.878C53.0285 156.495 53.0285 152.137 54.4914 148.297C54.0038 148.297 53.5161 148.297 53.5161 147.81C48.7009 153.112 40.96 155.063 33.7066 156.983C33.219 156.983 31.7866 156.983 31.299 156.983C28.8914 157.958 25.5085 157.958 23.1009 156.495C21.1809 155.52 20.2057 154.088 18.2857 152.625C14.4152 150.217 10.5447 148.267 6.21711 146.834C-5.85146 142.964 -18.4077 141.044 -30.9639 141.531C-25.661 138.636 -19.7791 138.392 -14.0496 136.716C-5.85146 134.309 1.88949 131.413 10.5752 131.901C9.11235 131.413 7.19234 131.901 5.75996 131.901C-1.00575 131.413 -7.77146 133.364 -14.9943 134.796C-19.8096 135.771 -24.1677 137.691 -29.0134 138.667C-31.9086 139.642 -33.3715 142.537 -36.7543 142.05C-36.7543 142.05 -36.7543 141.074 -36.7543 140.587C-31.9391 134.796 -26.1181 129.006 -18.4077 128.518C-9.72194 127.055 -1.49337 128.518 7.19235 129.493C13.4704 129.981 19.2609 131.413 25.539 132.876C27.9466 132.876 28.4343 136.747 30.3847 137.234C33.28 138.21 36.1752 137.234 39.0704 139.154C39.0704 138.179 38.5828 137.234 39.0704 136.259C40.9904 134.339 43.4285 136.747 45.3485 135.771C49.219 133.364 41.9657 129.006 40.0457 125.623C40.0457 125.135 40.5333 124.648 40.5333 124.648C44.4038 128.03 47.299 131.901 52.1142 134.309C54.5219 135.284 60.3123 136.716 59.3676 133.821C56.9599 128.518 52.1142 124.16 48.2742 119.345C48.2742 118.857 48.2742 117.882 48.2742 117.425C47.299 117.425 47.299 116.937 46.8114 116.45C46.8114 115.962 46.8114 114.987 46.8114 114.53C44.8914 113.554 45.3485 111.634 44.4038 110.171C42.9409 107.764 43.9161 104.381 42.9409 101.486C41.9657 98.5905 41.4781 96.1829 41.0209 93.2876C39.5581 85.0895 37.6381 77.8362 36.6628 70.0952C35.6876 60.9219 41.9657 53.6686 46.3238 45.4705C49.7066 39.68 53.5771 33.8895 59.8552 30.019C61.3181 24.2286 65.1581 19.3829 69.0285 14.5676C72.899 9.84381 79.299 6.97905 83.9314 4.90667C90.6666 1.88952 96.7619 0 96.7619 0H-234.667V255.573H0.0609078C9.26472 248.96 18.4381 245.821 31.2685 239.482C37.3333 236.587 51.2 230.248 55.8933 225.524ZM-18.3772 190.933C-19.3524 190.933 -21.2724 191.421 -20.7848 190.446C-20.2972 188.038 -16.9143 188.038 -14.9943 187.063C-14.0191 186.575 -12.5867 185.6 -11.6115 186.088C-10.6362 187.55 -9.20386 187.063 -8.22862 188.008C-11.1239 190.933 -14.9943 189.501 -18.3772 190.933ZM-92.2515 180.297C-92.2515 180.297 -92.7391 179.81 -92.7391 179.322C-86.461 171.124 -81.6457 163.383 -77.2877 154.697C-71.0096 151.314 -65.7981 146.408 -60.861 141.166C-52.6629 132.48 -43.9467 124.739 -33.8286 119.924C-29.9581 118.461 -25.1429 118.949 -21.2724 120.411C-22.7353 122.331 -25.1429 121.874 -27.0629 123.307C-27.5505 123.307 -28.0381 123.307 -28.5257 122.819C-28.0381 122.331 -28.0381 121.844 -28.0381 121.356C-32.8534 126.659 -39.6191 129.097 -43.4896 135.375C-46.3848 140.19 -48.3048 146.499 -54.5829 147.931C-56.5029 148.419 -54.0953 146.469 -55.0705 146.956C-70.0343 156.16 -80.6705 167.284 -92.2515 180.297ZM-52.1753 148.45C-52.6629 149.425 -53.181 149.516 -53.6381 150.37C-54.1258 151.345 -54.6134 151.832 -55.5581 152.29C-56.0457 152.29 -56.5334 152.29 -56.5334 151.802C-56.0457 149.882 -54.6134 147.931 -52.6629 147.444C-52.1753 147.474 -52.1753 147.962 -52.1753 148.45ZM-29.7448 220.8C-29.9581 221.318 -30.4458 221.775 -30.9334 222.202C-30.3238 222.324 -29.8972 222.598 -30.2934 222.964C-31.421 224 -32.4876 225.036 -33.9505 225.524C-34.0419 225.554 -34.3467 225.615 -34.6819 225.615C-35.261 226.194 -35.8705 226.743 -36.48 227.291C-37.0591 227.81 -39.7105 227.444 -38.8877 226.712C-37.6686 225.615 -36.541 224.457 -35.3219 223.33C-34.6515 222.72 -33.92 222.11 -33.3105 221.41C-32.9753 221.013 -32.701 220.648 -32.2743 220.343C-31.9086 220.069 -29.3486 219.855 -29.7448 220.8ZM-38.4 216.808C-38.4305 216.838 -38.4915 216.869 -38.5219 216.899C-40.32 218.179 -42.1181 219.459 -44.0381 220.587C-46.1105 221.775 -48.2743 222.69 -50.4077 223.726C-50.4381 223.695 -50.4381 223.634 -50.4686 223.604C-50.621 223.39 -50.9562 223.238 -51.2915 223.421C-53.12 224.396 -54.6743 225.707 -56.1677 227.109C-56.381 227.322 -56.6248 227.535 -56.8381 227.749L-56.8686 227.779L-56.8991 227.81C-57.1429 228.023 -57.3562 228.267 -57.6 228.48C-57.6305 228.51 -57.661 228.541 -57.6915 228.571L-57.7219 228.602C-58.0572 228.937 -58.3924 229.303 -58.7581 229.73C-59.0019 230.004 -59.0934 230.187 -59.3981 230.4C-59.7029 230.613 -60.5257 230.583 -60.4648 230.034C-60.4648 230.004 -60.4648 229.973 -60.4648 229.943C-60.7391 230.095 -61.0438 230.248 -61.3181 230.37C-61.5924 230.491 -61.8362 230.644 -62.08 230.796C-62.1715 230.766 -62.2934 230.735 -62.4153 230.735C-62.5372 230.735 -62.6591 230.766 -62.7505 230.857C-63.3296 231.314 -63.9391 231.802 -64.4876 232.32C-65.4934 233.234 -66.4381 234.24 -67.2915 235.307C-67.3219 235.307 -67.3219 235.337 -67.3219 235.337C-67.3524 235.368 -67.3829 235.429 -67.4134 235.459C-67.4743 235.52 -67.5048 235.581 -67.5658 235.642C-67.6267 235.703 -67.6572 235.764 -67.7181 235.855C-67.7181 235.886 -67.7486 235.886 -67.7791 235.916C-67.901 236.069 -67.9924 236.251 -68.1143 236.404C-68.1143 236.404 -68.1143 236.434 -68.1448 236.434C-68.2362 236.526 -68.3581 236.587 -68.541 236.617C-68.6019 236.526 -68.6629 236.434 -68.7238 236.343C-68.7848 236.282 -68.8153 236.19 -68.8457 236.099C-68.9981 235.855 -69.12 235.581 -69.2724 235.337V235.307C-69.3029 235.215 -69.3638 235.154 -69.3943 235.063C-68.8762 234.514 -68.3581 233.905 -67.8705 233.326C-67.84 233.295 -67.8096 233.234 -67.7791 233.204C-67.5962 232.99 -67.4438 232.777 -67.2915 232.594C-67.0172 232.259 -66.7429 231.893 -66.4686 231.558C-66.3772 231.436 -66.2857 231.314 -66.1638 231.162C-65.6457 230.461 -65.1276 229.79 -64.64 229.12C-64.64 229.09 -64.6096 229.09 -64.6096 229.059C-64.5486 228.968 -64.4572 228.846 -64.3962 228.754C-64.1524 228.419 -63.9391 228.053 -63.7257 227.718C-63.5429 227.413 -63.36 227.078 -63.2077 226.743C-63.2077 226.712 -63.1772 226.682 -63.1772 226.682C-63.1467 226.651 -63.1467 226.621 -63.1162 226.59C-63.0857 226.53 -63.0553 226.469 -63.0248 226.408C-62.8419 226.042 -62.6896 225.676 -62.5677 225.28C-62.5677 225.25 -62.5372 225.189 -62.5372 225.158C-62.5067 225.067 -62.4762 224.945 -62.4153 224.853C-62.3543 224.67 -62.3238 224.488 -62.2629 224.335C-62.2629 224.305 -62.2324 224.244 -62.2324 224.213C-62.1715 223.97 -62.1105 223.756 -62.0496 223.512C-62.0191 223.39 -62.0496 223.269 -62.1105 223.177C-61.5924 222.263 -60.9524 221.41 -60.1905 220.556C-60.2515 220.587 -60.3429 220.648 -60.4038 220.678C-61.1048 221.135 -61.5619 221.745 -62.2019 222.232C-62.72 222.629 -63.6953 221.989 -63.0857 221.501C-62.6591 221.196 -62.3543 220.83 -61.9886 220.495C-61.9581 220.465 -61.9581 220.434 -61.9276 220.404C-61.1353 219.611 -60.3734 218.606 -59.4591 217.966C-58.9105 217.57 -58.4229 217.234 -57.9657 216.838C-57.9048 216.777 -57.8134 216.716 -57.7524 216.655C-57.4172 216.198 -57.0515 215.802 -56.6858 215.436C-56.6553 215.406 -56.6553 215.406 -56.6248 215.375C-51.9924 210.926 -44.221 211.109 -38.1258 208.274C-35.7181 207.299 -32.8229 208.762 -30.3848 208.274C-28.9219 208.274 -27.4896 208.274 -26.0267 209.25C-30.4457 211.657 -34.4381 214.339 -38.4 216.808ZM-28.5257 183.223C-29.0134 182.735 -27.0629 183.223 -26.6058 182.248C-28.0686 182.248 -29.0134 182.248 -30.4762 182.248C-30.9638 182.248 -30.9639 181.76 -30.9639 181.272C-33.3715 181.76 -36.2667 182.735 -38.7048 183.192C-42.0877 184.168 -44.9829 186.575 -48.8534 187.55C-54.1562 189.47 -58.5143 193.829 -64.3048 195.749C-64.7924 195.749 -64.7924 195.261 -64.7924 194.773C-64.3048 193.31 -62.3848 192.853 -61.4096 191.39C-61.4096 190.903 -61.4096 190.415 -61.8972 190.415C-58.0267 185.112 -52.7238 182.217 -47.8781 177.859C-47.8781 177.371 -47.8781 176.884 -47.8781 176.396C-46.4153 174.476 -44.0077 173.501 -43.0629 171.093C-42.5753 169.63 -40.6553 167.71 -38.2477 166.735C-38.7353 166.248 -39.7105 166.248 -39.7105 165.272C-41.6305 165.272 -43.581 166.248 -45.501 164.785C-44.5867 163.87 -43.581 163.383 -42.4838 163.078C-42.9105 162.987 -43.2762 162.773 -43.581 162.377C-44.0686 161.402 -42.6362 160.335 -41.1734 159.97C-39.2534 159.482 -36.8153 159.482 -35.3829 158.05C-38.7657 157.562 -42.6362 159.025 -46.0191 157.074C-43.6115 150.796 -39.741 145.493 -33.9505 142.598C-33.4629 142.598 -32.4877 142.598 -32.4877 143.086C-32.4877 145.493 -33.9505 147.444 -36.3581 147.901C-32.4877 148.876 -28.6172 148.876 -24.7772 150.796C-25.2648 151.771 -26.24 151.284 -26.6972 151.284C-24.2896 152.747 -21.3943 151.771 -18.9562 153.691C-20.4191 155.154 -21.8515 153.691 -23.3143 153.691C-8.35052 158.05 7.58854 161.432 20.1447 171.063C9.50854 176.366 -1.5848 178.804 -13.1657 181.211C-14.6286 181.211 -15.5734 181.211 -17.0362 180.724C-17.0362 181.211 -17.0362 182.187 -17.5238 182.187C-19.4438 182.187 -20.9067 182.187 -22.3391 183.162C-24.1677 184.168 -27.0629 184.655 -28.5257 183.223Z" fill="#000091"/>
<path d="M468.206 0.0915222H193.25C193.25 0.0915222 193.768 0.182951 195.871 1.31057C198.095 2.49914 200.991 4.05343 202.819 4.99819C206.354 6.85724 209.798 9.17343 212.023 12.7391C212.998 14.202 214.431 17.0972 213.486 19.0172C212.511 21.4249 212.023 25.2953 209.615 26.2706C206.72 27.7334 202.85 27.7334 199.467 27.2458C197.547 27.2458 195.596 26.7582 193.676 26.2706C200.93 29.1658 207.695 32.5487 212.511 39.3144C212.998 40.2896 214.918 40.7772 216.869 40.7772C217.356 40.7772 217.356 41.7525 217.356 42.2401C216.381 43.2153 215.436 43.703 215.893 45.1353C216.381 45.1353 216.869 45.1353 217.356 45.1353C219.764 44.1601 219.276 39.3449 222.659 40.7772C225.067 42.2401 226.042 45.5925 224.579 48.0306C222.659 49.9506 220.709 51.4134 218.789 52.8458C218.301 53.821 218.301 55.2534 218.789 56.2287C220.252 58.1487 220.709 60.0991 221.196 62.0191C222.659 65.402 223.116 69.2725 224.579 72.6553C226.499 79.9087 228.45 87.1315 227.962 94.3849C227.962 98.2553 226.042 101.638 227.474 105.478C228.45 109.349 230.857 112.244 232.777 115.627C234.697 118.522 236.648 120.442 238.08 123.368C240.975 128.183 246.278 133.029 243.871 138.819C242.408 142.202 237.105 141.714 233.722 143.634C230.827 146.042 233.234 149.912 234.697 152.32C237.105 156.678 231.802 159.573 228.419 161.006C229.394 162.469 231.314 161.981 231.802 162.926C232.29 165.333 234.697 166.796 233.265 169.204C231.345 172.099 225.524 173.562 228.45 177.89C230.37 181.272 229.12 185.021 227.962 188.526C226.499 192.884 222.659 194.804 219.276 195.779C216.381 196.754 212.998 196.754 210.103 196.267C209.128 195.779 208.183 195.292 207.208 195.292C199.01 194.316 190.781 191.909 182.583 191.909C180.175 192.396 177.768 192.884 175.817 193.829C173.623 195.444 171.703 197.181 169.966 199.01C169.935 199.04 169.935 199.04 169.905 199.071C169.539 199.467 169.204 199.832 168.838 200.229C168.625 200.472 168.412 200.716 168.229 200.96C168.076 201.112 167.954 201.295 167.832 201.448C166.431 203.215 165.151 205.074 164.023 207.025C163.962 207.147 163.871 207.269 163.81 207.391C163.688 207.604 163.566 207.848 163.444 208.061C161.859 210.987 160.671 214.004 159.787 216.93C156.495 227.992 157.928 237.471 160.244 239.787C160.884 240.427 176.183 245.151 186.85 249.905C191.848 252.13 195.352 253.836 198.248 255.665H468.236V0.0915222H468.206Z" fill="#E1000F"/>
<path d="M209.616 93.3182C211.536 93.8058 214.431 93.8058 214.431 94.781C213.455 98.6515 207.665 99.5963 204.77 103.467H203.307C201.844 104.442 202.332 106.85 200.899 106.85C199.436 106.362 198.004 106.85 196.541 107.337C198.461 109.257 200.899 110.72 203.795 110.232C204.282 110.232 205.257 111.208 205.257 112.152C205.257 112.152 205.745 112.152 206.233 111.665C206.72 111.665 207.208 111.665 207.208 112.152V114.072C205.745 115.992 203.337 115.048 201.417 115.535C205.288 116.511 209.158 116.511 212.511 115.535C215.406 114.56 212.511 109.745 214.431 107.337C213.455 107.337 214.431 105.874 213.455 105.874C214.431 104.899 215.375 103.467 216.351 102.979C217.326 102.979 218.758 102.491 219.246 101.516C219.246 100.541 217.326 100.084 217.783 99.1086C220.678 97.1886 223.086 94.2934 222.141 91.3677C221.654 89.9048 217.783 89.9048 215.376 88.9601C212.968 87.9848 210.073 88.9601 207.177 89.4477C204.77 89.4477 202.332 90.9105 199.924 91.3677C196.541 92.3429 193.646 94.2629 190.751 96.1829C194.134 94.7201 197.516 94.2629 201.387 93.2877C204.282 93.3182 206.751 92.6172 209.616 93.3182Z" fill="#9D9D9C"/>
</g>
</g>
<defs>
<clipPath id="clip0_24_719">
<rect width="256" height="256" fill="white"/>
</clipPath>
<clipPath id="clip1_24_719">
<rect width="256" height="256" fill="white"/>
</clipPath>
</defs>
</svg>
