<svg width="256" height="256" viewBox="0 0 256 256" fill="none" xmlns="http://www.w3.org/2000/svg">
<rect width="256" height="256" fill="#414141"/>
<path d="M235.106 129.896C237.257 129.896 239 128.153 239 126.003C239 123.853 237.257 122.109 235.106 122.109C232.956 122.109 231.213 123.853 231.213 126.003C231.213 128.153 232.956 129.896 235.106 129.896Z" fill="#FFCC00"/>
<path d="M235.106 144.76C237.257 144.76 239 143.017 239 140.867C239 138.716 237.257 136.973 235.106 136.973C232.956 136.973 231.213 138.716 231.213 140.867C231.213 143.017 232.956 144.76 235.106 144.76Z" fill="#FFCC00"/>
<path d="M155.051 111.345C154.662 111.206 154.258 111.114 153.86 111C153.754 111 153.649 111 153.543 111C153.346 111.056 153.151 111.132 152.95 111.166C151.075 111.486 149.794 113.073 149.878 114.981C149.964 116.934 151.355 118.318 153.443 118.53C155.245 118.711 156.979 117.416 157.389 115.582C157.791 113.776 156.802 111.972 155.051 111.345Z" fill="white"/>
<path d="M69.3841 124.29C67.7574 123.115 66.1577 122.423 64.3715 122.199C62.5541 121.971 60.7953 122.179 59.0921 122.857C57.4111 123.525 56.0122 124.58 54.8736 125.975C51.5116 130.094 51.3999 136.298 54.5967 140.539C56.083 142.51 58.0439 143.795 60.415 144.406C63.5923 145.223 66.5779 144.795 69.3137 142.663C69.3515 143.291 69.3806 143.773 69.4106 144.266C71.2641 144.266 73.0455 144.266 74.8634 144.266C74.8634 137.025 74.8634 129.838 74.8634 122.628C73.0155 122.628 71.2324 122.628 69.3845 122.628C69.3841 123.138 69.3841 123.604 69.3841 124.29ZM68.4623 137.535C66.0447 139.956 62.0295 140.057 59.7557 137.739C57.422 135.358 57.5502 131.204 60.0369 128.895C62.7018 126.42 67.009 127.402 69.0021 130.045C69.1424 130.231 69.1563 130.541 69.1616 130.795C69.1798 131.693 69.1689 132.591 69.1689 133.489C69.1689 134.255 69.1216 135.025 69.1829 135.786C69.242 136.519 68.9551 137.041 68.4623 137.535Z" fill="white"/>
<path d="M214.987 122.109C208.468 122.091 203.319 127.127 203.354 133.488C203.389 139.852 208.413 144.759 214.894 144.761C221.499 144.763 226.569 139.857 226.57 133.462C226.572 127.115 221.483 122.128 214.987 122.109ZM214.965 139.407C211.658 139.408 209.187 136.876 209.183 133.481C209.178 130.061 211.682 127.476 214.995 127.479C218.247 127.483 220.747 130.09 220.741 133.47C220.733 136.872 218.267 139.407 214.965 139.407Z" fill="white"/>
<path d="M132.822 123.09C129.08 124.865 127.231 128.057 126.794 132.06C126.416 135.533 127.144 138.769 129.652 141.36C132.714 144.522 136.534 145.278 140.724 144.495C143.202 144.031 145.327 142.863 146.9 141.054C145.782 139.926 144.699 138.832 143.616 137.739C141.242 139.9 138.533 140.897 135.359 139.388C133.554 138.53 132.322 136.529 132.484 134.914C137.439 134.914 142.398 134.914 147.462 134.914C147.507 134.295 147.594 133.771 147.569 133.252C147.529 132.411 147.477 131.562 147.322 130.736C146.037 123.872 139.026 120.147 132.822 123.09ZM132.715 130.619C132.783 128.585 134.985 126.81 137.392 126.828C139.555 126.844 141.49 128.592 141.533 130.619C138.593 130.619 135.655 130.619 132.715 130.619Z" fill="white"/>
<path d="M181.533 126.516C178.572 121.991 172.423 120.737 167.926 123.739C167.704 123.887 167.477 124.029 167.13 124.253C167.13 123.602 167.13 123.134 167.13 122.627C165.258 122.627 163.449 122.627 161.59 122.627C161.59 129.853 161.59 137.047 161.59 144.247C163.533 144.247 165.416 144.247 167.361 144.247C167.361 143.859 167.361 143.546 167.361 143.231C167.361 139.454 167.465 135.672 167.314 131.9C167.246 130.189 167.991 129.231 169.302 128.489C169.871 128.167 170.48 127.882 171.106 127.703C174.005 126.879 176.507 128.199 177.104 130.86C177.241 131.472 177.287 132.115 177.29 132.745C177.308 136.258 177.299 139.772 177.299 143.285C177.299 143.594 177.299 143.904 177.299 144.319C179.172 144.319 180.887 144.311 182.603 144.324C183.033 144.327 183.137 144.124 183.132 143.739C183.085 139.515 183.094 135.289 182.98 131.066C182.937 129.449 182.438 127.898 181.533 126.516Z" fill="white"/>
<path d="M101.334 131.088C100.913 123.64 92.5593 119.605 86.3312 123.731C86.1026 123.883 85.867 124.025 85.5533 124.222C85.5215 123.604 85.4972 123.118 85.4711 122.612C83.628 122.612 81.8645 122.612 80.0205 122.612C80.0205 129.874 80.0205 137.062 80.0205 144.269C81.9544 144.269 83.8171 144.269 85.7797 144.269C85.7797 143.908 85.7797 143.598 85.7797 143.288C85.7797 139.459 85.8862 135.625 85.7306 131.802C85.6628 130.143 86.3746 129.231 87.6349 128.516C88.2038 128.192 88.8101 127.902 89.435 127.717C92.3103 126.866 94.8839 128.184 95.4736 130.804C95.6171 131.442 95.6696 132.111 95.6731 132.767C95.6918 136.306 95.6822 139.845 95.6822 143.384C95.6822 143.665 95.6822 143.948 95.6822 144.266C97.667 144.266 99.5505 144.266 101.438 144.266C101.469 144.14 101.505 144.066 101.504 143.992C101.461 139.69 101.577 135.379 101.334 131.088Z" fill="white"/>
<path d="M28.721 120.442C28.9426 118.398 30.2273 117.209 32.2859 117.16C32.9908 117.143 33.6962 117.158 34.5158 117.158C34.7835 115.681 35.0729 114.086 35.3698 112.451C32.6979 111.586 29.2312 111.947 26.904 113.236C23.2021 115.287 22.7871 118.816 22.7867 122.594C20.8836 122.594 19.0766 122.594 17.25 122.594C17.25 124.261 17.25 125.831 17.25 127.496C19.1048 127.496 20.9118 127.496 22.8014 127.496C22.8014 127.902 22.8014 128.213 22.8014 128.524C22.8014 132.248 22.8014 135.972 22.8014 139.696C22.8014 141.016 22.7849 142.337 22.8184 143.657C22.8236 143.878 23.0405 144.28 23.1669 144.282C24.9531 144.324 26.741 144.31 28.6458 144.31C28.6458 138.662 28.6458 133.108 28.6458 127.449C30.9635 127.449 33.1638 127.449 35.3359 127.449C35.3359 125.77 35.3359 124.2 35.3359 122.584C33.7192 122.584 32.1634 122.584 30.6071 122.584C30.4663 122.584 30.3359 122.584 30.2134 122.583V122.584H28.6245V121.778C28.6115 121.468 28.6558 121.041 28.721 120.442Z" fill="white"/>
<path d="M111.988 137.971C109.621 135.913 109.365 131.946 111.452 129.53C113.937 126.65 117.396 126.814 121.04 130.027C122.375 128.853 123.715 127.673 125.049 126.5C122.748 122.927 117.045 121.205 112.35 122.618C107.5 124.078 104.001 128.509 104.226 134.116C104.415 138.835 107.802 143.084 112.601 144.371C117.681 145.733 123.393 143.779 125.713 139.857C124.25 138.761 122.784 137.663 121.32 136.567C118.394 140.381 114.163 139.862 111.988 137.971Z" fill="white"/>
<path d="M43.7402 124.624C43.7045 123.867 43.6758 123.254 43.6467 122.632C41.7789 122.632 39.9957 122.632 38.1709 122.632C38.1709 129.852 38.1709 137.025 38.1709 144.321C39.8362 144.321 41.4195 144.29 43.0001 144.335C43.705 144.356 43.9492 144.18 43.9418 143.422C43.9023 139.407 43.9166 135.391 43.934 131.376C43.9357 131 43.9853 130.545 44.1947 130.261C45.4677 128.534 47.1434 127.49 49.3507 127.485C50.0013 127.484 50.6523 127.557 51.3603 127.6C51.5788 125.824 51.7935 124.086 52.0147 122.291C48.8874 121.794 46.1365 122.35 43.7402 124.624Z" fill="white"/>
<path d="M150.752 123.469C150.75 130.122 150.75 136.775 150.75 143.428C150.75 143.56 150.703 143.722 150.762 143.818C150.877 144.003 151.049 144.291 151.203 144.294C152.941 144.328 154.681 144.316 156.479 144.316C156.479 137.008 156.479 129.82 156.479 122.64C154.552 122.64 152.692 122.64 150.787 122.64C150.773 122.95 150.752 123.21 150.752 123.469Z" fill="white"/>
<path d="M196.17 122.584C196.173 120.967 195.981 119.428 197.134 118.251C198.493 116.863 200.244 117.081 202.005 117.299C202.3 115.66 202.588 114.062 202.887 112.396C201.033 111.953 199.302 111.814 197.572 112.148C194.222 112.793 191.66 114.46 190.771 117.947C190.493 119.037 190.444 120.191 190.384 121.331V122.577H189.913C189.833 122.591 189.744 122.599 189.632 122.595C189.371 122.585 189.109 122.58 188.847 122.577H188.598V122.576C187.939 122.574 187.28 122.584 186.621 122.584C185.998 122.584 185.376 122.584 184.736 122.584C184.736 124.272 184.736 125.843 184.736 127.48C186.347 127.48 187.902 127.513 189.456 127.464C189.614 127.46 189.746 127.467 189.857 127.488H190.347V128.193C190.349 128.241 190.353 128.285 190.353 128.339C190.321 133.331 190.336 138.324 190.336 143.316C190.336 143.624 190.336 143.931 190.336 144.261C192.329 144.261 194.213 144.261 196.196 144.261C196.196 138.647 196.196 133.092 196.196 127.441C198.472 127.441 200.648 127.441 202.804 127.441C202.804 125.774 202.804 124.205 202.804 122.584C201.653 122.584 200.573 122.584 199.493 122.584C198.397 122.584 197.301 122.584 196.17 122.584Z" fill="white"/>
<path d="M188.847 122.577C188.764 122.576 188.681 122.577 188.598 122.576V122.577H188.847Z" fill="white"/>
</svg>
