<svg width="256" height="256" viewBox="0 0 256 256" fill="none" xmlns="http://www.w3.org/2000/svg">
<rect width="256" height="256" fill="#0077D7"/>
<path d="M212.834 69.0486C211.381 69.5631 209.808 69.8461 208.165 69.8461C200.794 69.8461 194.819 64.1771 194.819 57.1833C194.819 55.2336 195.284 53.3857 196.115 51.7362H179.731C179.358 53.4972 179.161 55.3183 179.161 57.1833C179.161 72.381 192.147 84.7019 208.165 84.7019C209.755 84.7019 211.314 84.5786 212.834 84.345V69.0486ZM208.165 44.5206C215.537 44.5206 221.512 50.1896 221.512 57.1834C221.512 59.3314 220.947 61.354 219.953 63.1257H236.489C236.933 61.2114 237.17 59.2242 237.17 57.1834C237.17 45.4628 229.446 35.4549 218.565 31.4891V19.0535H204.204V45.0876C205.456 44.7189 206.786 44.5206 208.165 44.5206Z" fill="#BFDDF5"/>
<path d="M175.781 150.865C175.781 153.368 175.376 155.725 172.025 155.725C170.111 155.725 169.264 154.547 169.264 153.185C169.264 151.344 170.442 150.35 173.646 150.35H175.781V150.865ZM180.936 154.105V146.116C180.936 141.551 178.137 139.563 173.056 139.526C167.825 139.526 165.603 141.73 165.021 144.638L169.89 145.638C170.111 144.239 170.627 143.318 172.836 143.318C175.302 143.318 175.781 144.643 175.781 146.005V147.147H173.056C167.46 147.147 164 149.172 164 153.516C164 156.461 165.915 159.48 170.516 159.48C173.903 159.48 175.192 158.228 175.892 157.16C175.892 157.639 176.002 158.67 176.15 159.038H181.193C181.082 158.596 180.936 155.946 180.936 154.105ZM231.869 147.405C231.833 145.196 230.949 143.318 228.372 143.318C225.868 143.318 224.837 145.049 224.616 147.405H231.869ZM224.506 150.644C224.506 153.037 225.721 155.357 228.335 155.357C230.543 155.357 231.169 154.473 231.685 153.332H236.95C236.286 155.651 234.189 159.48 228.225 159.48C221.929 159.48 219.204 154.805 219.204 149.798C219.204 143.797 222.26 139.527 228.408 139.527C234.925 139.527 237.171 144.275 237.171 149.024C237.171 149.687 237.171 150.092 237.097 150.644H224.506ZM218.769 152.89C218.143 156.056 215.898 159.48 210.228 159.48C204.302 159.48 201.246 155.393 201.246 149.65C201.246 144.017 204.669 139.526 210.486 139.526C216.892 139.526 218.695 144.165 218.769 146.3H213.652C213.321 144.754 212.437 143.686 210.376 143.686C207.946 143.686 206.584 145.785 206.584 149.467C206.584 153.552 208.056 155.393 210.338 155.393C212.18 155.393 213.137 154.325 213.615 152.89H218.769ZM183.059 144.79C183.059 143.171 183.059 141.403 183.023 139.968H188.14C188.25 140.483 188.323 141.809 188.36 142.397C188.986 141.219 190.533 139.527 193.883 139.527C197.711 139.527 200.178 142.14 200.178 146.926V159.037H194.914V147.515C194.914 145.342 194.214 143.797 191.858 143.797C189.612 143.797 188.36 145.049 188.36 148.435V159.037H183.059V144.79ZM153.276 145.159C153.276 143.244 153.276 141.587 153.24 139.968H158.43C158.503 140.409 158.577 142.287 158.577 143.318C159.424 141.146 161.449 139.563 164.689 139.526V144.57C160.86 144.459 158.577 145.49 158.577 150.717V159.038H153.276L153.276 145.159ZM144.499 159.038V143.943H142.948V139.968H144.499V138.312C144.499 134.372 146.45 131.795 150.574 131.795C151.42 131.795 152.525 131.869 153.003 132.016V136.176C152.709 136.139 152.305 136.103 151.899 136.103C150.353 136.103 149.764 136.655 149.764 138.716V139.968H152.454V143.943H149.764V159.038H144.499ZM237.044 216.92C237.044 223.111 237.044 230.063 237.17 235.876H219.476C219.224 234.106 219.098 230.568 218.972 228.295C215.054 234.866 209.367 237.393 200.899 237.393C187.631 237.393 179.163 229.304 179.163 213.128V170.412H197.234V209.463C197.234 216.667 199.51 222.607 207.344 222.607C215.559 222.607 218.972 218.184 218.972 205.293V170.412H237.044V216.92ZM155.586 195.942C155.46 188.357 152.427 181.913 143.581 181.913C134.987 181.913 131.448 187.854 130.691 195.942H155.586ZM130.311 207.062C130.311 215.276 134.482 223.239 143.454 223.239C151.038 223.239 153.185 220.206 154.955 216.289H173.026C170.751 224.249 163.548 237.392 143.075 237.392C121.464 237.392 112.113 221.341 112.113 204.155C112.113 183.556 122.602 168.896 143.707 168.896C166.076 168.896 173.784 185.2 173.784 201.501C173.784 203.777 173.784 205.166 173.532 207.062H130.311ZM106.735 235.876H87.9043V148.802H106.735V235.876ZM50.2993 183.43C39.9367 183.43 36.272 190.127 36.272 203.524C36.272 214.519 39.5583 222.985 50.0474 222.985C59.2718 222.985 64.2012 214.772 64.2012 202.386C64.2012 191.391 60.0306 183.43 50.2993 183.43ZM18.9585 143.62H37.1574V177.364C39.8102 173.194 45.2456 168.896 55.8601 168.896C73.6785 168.896 82.5255 183.683 82.5255 202.007C82.5255 220.71 72.9207 237.392 54.0915 237.392C44.3602 237.392 40.0632 234.485 36.9034 229.683C36.9034 231.833 36.5239 234.234 36.1456 235.876H18.832C18.9585 228.798 18.9585 221.595 18.9585 214.519V143.62Z" fill="white"/>
</svg>
