<svg width="256" height="256" viewBox="0 0 256 256" fill="none" xmlns="http://www.w3.org/2000/svg">
<g clip-path="url(#clip0_31_1578)">
<rect width="256" height="256" fill="white"/>
<rect width="256" height="256" fill="url(#paint0_linear_31_1578)"/>
<path d="M90.7821 144.843C90.7821 156.933 80.9811 166.734 68.891 166.734C56.8009 166.734 47 156.933 47 144.843C47 132.753 56.8009 122.952 68.891 122.952C80.981 122.952 90.7821 132.753 90.7821 144.843Z" fill="#0082FC"/>
<path d="M102.278 168.225L118.158 154.98C120.552 158.33 123.595 161.084 127.292 163.236C130.989 165.389 135.017 166.468 139.38 166.468C142.093 166.468 144.74 165.949 147.318 164.912C149.9 163.874 152.188 162.452 154.181 160.643C156.175 158.833 157.772 156.651 158.969 154.098C160.166 151.545 160.762 148.751 160.762 145.719C160.762 142.794 160.19 140.041 159.046 137.463C157.902 134.885 156.334 132.634 154.34 130.722C152.347 128.811 149.953 127.332 147.159 126.294C144.364 125.257 141.399 124.738 138.261 124.738C133.473 124.738 128.898 125.828 124.539 128.01V115.003L145.921 89.6296H107.703V70H177.119V83.0849L156.375 108.617C164.194 111.649 170.563 116.412 175.485 122.899C180.404 129.391 182.867 136.997 182.867 145.719C182.867 151.835 181.748 157.37 179.518 162.313C177.283 167.261 174.264 171.477 170.461 174.961C166.657 178.446 162.135 181.158 156.897 183.099C151.66 185.039 146.088 186.012 140.181 186.012C132.999 186.012 126.165 184.496 119.673 181.465C113.182 178.438 107.381 174.026 102.278 168.225Z" fill="#131313"/>
</g>
<defs>
<linearGradient id="paint0_linear_31_1578" x1="0" y1="0" x2="256" y2="256" gradientUnits="userSpaceOnUse">
<stop stop-color="white" stop-opacity="0.15"/>
<stop offset="1" stop-opacity="0"/>
</linearGradient>
<clipPath id="clip0_31_1578">
<rect width="256" height="256" fill="white"/>
</clipPath>
</defs>
</svg>
