<svg width="256" height="256" viewBox="0 0 256 256" fill="none" xmlns="http://www.w3.org/2000/svg">
<g clip-path="url(#clip0_35_1508)">
<rect width="256" height="256" fill="white"/>
<path d="M255.996 256.218V243.705C243.172 248.451 231.028 252.596 219.515 256.218H255.996Z" fill="#00A7E3"/>
<path d="M121.029 166.364C126.858 170.288 142.836 170.203 159.882 166.15C181.064 161.114 197.234 151.746 195.877 145.206C195.653 144.141 194.924 143.175 193.741 142.377C187.864 138.435 171.909 138.527 154.899 142.578C137.852 146.632 123.372 153.755 119.681 159.929C118.908 161.196 118.632 162.441 118.868 163.481C119.089 164.571 119.821 165.539 121.029 166.364Z" fill="#00A7E3"/>
<path d="M173.234 229.568C121.572 241.823 73.6924 241.195 54.051 228.006C49.2636 224.775 46.3617 220.903 45.4162 216.433C43.9263 209.368 47.6321 201.181 56.1271 192.721C56.2451 192.634 56.4265 192.634 56.5282 192.721C56.6389 192.81 56.6643 193.06 56.5772 193.167C52.3814 198.697 50.7553 203.892 51.7498 208.564C52.5374 212.351 55.0545 215.696 59.2032 218.458C77.2313 230.593 122.204 230.947 171.096 219.378C205.51 211.173 236.35 198.41 255.993 184.278V0.227783H0.00292969V256.218H23.5534C21.7441 253.696 20.4865 250.997 19.8712 248.11C19.5718 246.656 19.423 245.173 19.423 243.698C19.423 237.377 22.1325 230.61 27.4952 223.518C27.5587 223.429 27.7565 223.385 27.8745 223.499L27.9852 223.882C24.9654 229.439 23.9636 234.684 24.9654 239.495C26.4281 246.4 31.9341 252.001 40.6088 256.218H173.495C175.234 255.826 176.958 255.465 178.707 255.051C206.869 248.348 233.485 239.081 255.995 228.171V196.956C234.871 210.306 205.613 221.893 173.234 229.568ZM154.461 140.591C180.299 134.46 202.822 136.553 204.684 145.286C205.018 146.939 204.631 148.777 203.479 150.645C198.67 158.675 181.687 167.315 161.133 172.226C135.288 178.328 112.779 176.248 110.926 167.542C109.106 158.822 128.583 146.728 154.461 140.591ZM91.5246 166.617C91.657 166.544 91.8331 166.544 91.902 166.684C92.02 166.815 91.9728 167.005 91.8766 167.094C85.2055 172.791 82.2183 178.173 83.1693 182.708C83.6665 185.111 85.2781 187.242 87.9258 189.026C99.8272 197.029 131.415 197.118 164.748 189.204C206.824 179.184 238.771 160.051 235.902 146.454C234.907 141.937 230.018 138.389 221.743 136.295C221.587 136.223 221.483 136.096 221.523 135.894C221.561 135.76 221.721 135.655 221.865 135.667C235.445 137.88 243.419 142.578 244.822 149.295C245.477 152.28 244.729 155.563 242.662 159.002C234 173.489 203.406 189.115 166.537 197.873C129.671 206.604 95.733 206.335 82.0586 197.141C78.8011 194.929 76.8465 192.336 76.215 189.294C74.8176 182.565 80.0968 174.731 91.5246 166.617Z" fill="#00A7E3"/>
<path d="M256 243.704V228.165L255.994 228.169V243.707L256 243.704Z" fill="white"/>
<path d="M173.492 256.218H219.513C231.026 252.598 243.169 248.453 255.994 243.705V228.169C233.484 239.081 206.868 248.346 178.706 255.048C176.957 255.465 175.231 255.826 173.492 256.218Z" fill="white"/>
<path d="M24.9661 239.495C23.9643 234.686 24.9661 229.441 27.9859 223.882L27.8752 223.501C27.7572 223.383 27.5594 223.429 27.4959 223.516C22.1332 230.61 19.4219 237.377 19.4219 243.698C19.4219 245.172 19.5707 246.654 19.8701 248.11C20.4872 250.997 21.7448 253.696 23.5542 256.218H40.6095C31.9348 252.001 26.4288 246.4 24.9661 239.495Z" fill="white"/>
<path d="M82.0582 197.14C95.7363 206.333 129.671 206.604 166.538 197.871C203.408 189.113 234.001 173.487 242.663 159C244.73 155.561 245.476 152.278 244.823 149.293C243.418 142.578 235.446 137.878 221.864 135.665C221.723 135.653 221.563 135.758 221.523 135.892C221.485 136.092 221.586 136.221 221.743 136.293C230.016 138.386 234.907 141.934 235.902 146.453C238.771 160.049 206.823 179.179 164.747 189.202C131.417 197.116 99.8268 197.027 87.9255 189.024C85.2777 187.24 83.6661 185.109 83.1707 182.707C82.2179 178.173 85.2051 172.789 91.8781 167.092C91.9724 167.003 92.0196 166.815 91.9017 166.682C91.8327 166.542 91.6585 166.542 91.5242 166.615C80.0965 174.729 74.819 182.563 76.2146 189.291C76.8462 192.334 78.8025 194.929 82.0582 197.14Z" fill="white"/>
<path d="M256 196.949V184.275L255.994 184.28V196.955L256 196.949Z" fill="white"/>
<path d="M59.2027 218.46C55.054 215.699 52.5369 212.353 51.7493 208.566C50.7548 203.894 52.3809 198.697 56.5767 193.169C56.6638 193.062 56.6384 192.811 56.5277 192.722C56.426 192.637 56.2446 192.637 56.1266 192.722C47.6334 201.183 43.9276 209.37 45.4157 216.434C46.3612 220.904 49.2631 224.777 54.0505 228.007C73.6919 241.199 121.572 241.825 173.233 229.57C205.613 221.895 234.871 210.308 255.993 196.955V184.282C236.35 198.412 205.509 211.175 171.095 219.382C122.203 230.949 77.2308 230.597 59.2027 218.46Z" fill="white"/>
<path d="M161.131 172.226C181.686 167.315 198.667 158.675 203.478 150.645C204.63 148.775 205.017 146.939 204.683 145.286C202.823 136.553 180.296 134.46 154.46 140.591C128.581 146.728 109.103 158.822 110.924 167.542C112.778 176.248 135.287 178.328 161.131 172.226ZM119.68 159.929C123.371 153.755 137.851 146.632 154.898 142.578C171.908 138.527 187.863 138.435 193.74 142.377C194.921 143.173 195.652 144.141 195.876 145.206C197.233 151.746 181.063 161.114 159.881 166.15C142.835 170.203 126.857 170.288 121.028 166.364C119.82 165.539 119.088 164.571 118.867 163.481C118.631 162.441 118.907 161.198 119.68 159.929Z" fill="white"/>
<path d="M105.49 54.7186L108.749 42.5069L112.143 54.7186H105.49ZM103.492 32.257L91.9714 66.326H102.305L103.492 61.8072H113.952L115.215 66.326H125.701L114.197 32.257H103.492ZM31.9854 66.326H42.5511V54.7985H54.0895V46.8225H42.5511V40.1622H57.0458V32.2116H31.9854V66.326ZM223.99 40.1622V32.2116H197.447V66.326H223.99V58.3899H208.013V53.2251H221.252V45.3053H208.013V40.1622H223.99ZM76.9903 46.9187H70.9289V40.086H76.9903C79.0882 40.086 80.1281 41.2311 80.1281 43.5087C80.1281 45.7572 79.09 46.9187 76.9903 46.9187ZM89.4942 43.7519C89.4942 36.3312 85.2676 32.257 77.6019 32.257H61.178V66.326H70.9289V54.7368H74.2972C74.7436 55.6387 79.9575 66.326 79.9575 66.326H90.4669C90.4669 66.326 84.5344 54.5644 83.627 52.9184C87.2185 51.3504 89.4942 47.9041 89.4942 43.7519ZM178.087 58.6368C173.49 58.6368 171.969 53.8875 171.969 49.2833C171.969 44.7046 173.49 39.9136 178.087 39.9136C182.177 39.9136 183.094 43.7029 183.29 44.9424H192.919C192.066 36.3874 187.215 31.4657 178.366 31.4494C168.463 31.4494 162.04 38.5489 162.04 49.2833C162.04 59.3699 167.946 67.1282 178.366 67.1282C187.769 67.1282 193.053 59.8273 193.053 52.9674H183.31C182.714 56.1614 181.433 58.6368 178.087 58.6368ZM147.941 50.4521H147.849L138.481 32.257H128.318V66.326H137.715V47.6972H137.786L147.673 66.326H157.316V32.257H147.941V50.4521Z" fill="white"/>
<path d="M105.911 109.752H91.7376L105.911 92.5062V109.752ZM123.279 109.752V75.4217H106.67L80.1212 108.182V121.984H54.8756V121.897C65.8224 114.81 80.3281 109.848 80.3281 94.0742C80.3281 80.9877 70.7442 74.7267 56.6124 74.7267C40.9961 74.7267 31.0656 84.4285 31.9857 101.353H47.6891C47.4931 93.8292 49.7652 88.6897 56.4636 88.6897C60.3418 88.6897 63.465 90.6424 63.465 96.2029C63.465 100.736 58.5978 103.177 55.627 105.124C48.1736 109.935 39.8601 114.627 34.9765 121.799C32.1291 125.955 30.474 131.118 30.8133 137.034H81.1647V124.777H105.913V137.034H123.279V124.777H131.137V109.752H123.279Z" fill="white"/>
</g>
<defs>
<clipPath id="clip0_35_1508">
<rect width="256" height="256" fill="white"/>
</clipPath>
</defs>
</svg>
