<svg width="256" height="256" viewBox="0 0 256 256" fill="none" xmlns="http://www.w3.org/2000/svg">
<g clip-path="url(#clip0_6_928)">
<rect width="256" height="256" fill="url(#paint0_linear_6_928)"/>
<rect width="256" height="256" fill="black"/>
<rect width="256" height="256" fill="url(#paint1_linear_6_928)"/>
<path d="M154.469 65.1888L171.122 48.5361C171.512 48.1456 171.512 47.5124 171.122 47.1219L139.314 15.3137C133.065 9.06532 122.935 9.06531 116.686 15.3137L49.3137 82.6863C43.0653 88.9347 43.0653 99.0653 49.3137 105.314L55.3598 111.36C55.7503 111.75 56.3835 111.75 56.774 111.36L91.159 76.9748C91.5496 76.5842 92.1827 76.5842 92.5733 76.9748L108.891 93.2929C109.282 93.6834 109.915 93.6834 110.306 93.2929L126.958 76.6402C127.349 76.2497 127.349 75.6165 126.958 75.226L110.64 58.9078C110.25 58.5173 110.25 57.8842 110.64 57.4936L127.293 40.8409C127.683 40.4504 128.317 40.4504 128.707 40.8409L153.055 65.1888C153.446 65.5793 154.079 65.5793 154.469 65.1888Z" fill="url(#paint2_radial_6_928)"/>
<path d="M159.153 69.8728L175.806 53.2201C176.196 52.8296 176.83 52.8296 177.22 53.2201L206.686 82.6863C212.935 88.9347 212.935 99.0653 206.686 105.314L139.314 172.686C133.065 178.935 122.935 178.935 116.686 172.686L61.1233 117.123C60.7328 116.733 60.7328 116.1 61.1233 115.709L77.4415 99.3911C77.832 99.0006 78.4652 99.0006 78.8557 99.3911L126.958 147.494C127.349 147.884 127.982 147.884 128.372 147.494L145.025 130.841C145.416 130.45 145.416 129.817 145.025 129.427L114.99 99.3911C114.599 99.0006 114.599 98.3674 114.99 97.9769L131.642 81.3242C132.033 80.9337 132.666 80.9337 133.056 81.3242L163.092 111.36C163.483 111.75 164.116 111.75 164.506 111.36L181.159 94.7071C181.55 94.3166 181.55 93.6834 181.159 93.2929L159.153 71.287C158.763 70.8965 158.763 70.2633 159.153 69.8728Z" fill="url(#paint3_radial_6_928)"/>
<path d="M11.3645 200.583H28.0295V204.246H16.5125V209.493H26.9405V213.156H16.5125V222H11.3645V200.583ZM29.8561 200.583H39.4921C42.3521 200.583 44.4201 200.935 45.6961 201.639C46.9721 202.321 47.6101 203.476 47.6101 205.104V208.866C47.6101 210.12 47.1591 211.11 46.2571 211.836C45.3771 212.54 44.2001 212.991 42.7261 213.189L48.9301 222H42.9901L37.3801 213.585H35.0041V222H29.8561V200.583ZM39.4261 210.186C40.6361 210.186 41.4611 210.032 41.9011 209.724C42.3411 209.394 42.5611 208.767 42.5611 207.843V206.325C42.5611 205.533 42.3191 204.994 41.8351 204.708C41.3731 204.4 40.5701 204.246 39.4261 204.246H35.0041V210.186H39.4261ZM50.2491 200.583H66.5841V204.246H55.3971V209.163H65.4951V212.826H55.3971V218.337H66.9141V222H50.2491V200.583ZM68.7407 200.583H73.9547L84.3167 215.202V200.583H88.9037V222H83.6897L73.3277 207.15V222H68.7407V200.583ZM101.344 222.33C100.376 222.33 99.5069 222.286 98.7369 222.198C97.9889 222.11 97.1639 221.945 96.2619 221.703C95.2499 221.439 94.4139 221.098 93.7539 220.68C93.0939 220.24 92.5439 219.635 92.1039 218.865C91.6419 218.095 91.4109 217.182 91.4109 216.126V206.721C91.4109 202.409 94.7219 200.253 101.344 200.253C103.038 200.253 105.304 200.495 108.142 200.979V204.84C105.59 204.224 103.346 203.916 101.41 203.916C100.596 203.916 99.9579 203.938 99.4959 203.982C99.0559 204.026 98.5939 204.136 98.1099 204.312C97.0759 204.664 96.5589 205.445 96.5589 206.655V215.763C96.5589 217.699 98.3299 218.667 101.872 218.667C103.39 218.667 105.524 218.348 108.274 217.71V221.604C105.92 222.088 103.61 222.33 101.344 222.33ZM109.913 200.583H115.061V209.163H124.169V200.583H129.317V222H124.169V212.826H115.061V222H109.913V200.583ZM130.226 200.583H135.572L139.73 216.225L143.888 200.583H148.673L153.161 216.225L156.989 200.583H162.203L155.339 222H150.257L146.165 206.457L141.941 222H136.859L130.226 200.583ZM163.139 200.583H179.474V204.246H168.287V209.163H178.385V212.826H168.287V218.337H179.804V222H163.139V200.583ZM181.63 200.583H190.309C192.355 200.583 193.928 200.737 195.028 201.045C196.15 201.331 196.942 201.804 197.404 202.464C197.866 203.102 198.097 204.004 198.097 205.17V207.81C198.097 208.404 197.855 208.965 197.371 209.493C196.909 210.021 196.359 210.384 195.721 210.582V210.747C196.557 210.835 197.316 211.198 197.998 211.836C198.702 212.452 199.054 213.145 199.054 213.915V217.215C199.054 218.953 198.361 220.185 196.975 220.911C195.589 221.637 193.444 222 190.54 222H181.63V200.583ZM190.309 209.295C191.123 209.295 191.728 209.229 192.124 209.097C192.52 208.965 192.784 208.756 192.916 208.47C193.07 208.162 193.147 207.722 193.147 207.15V206.094C193.147 205.588 193.081 205.214 192.949 204.972C192.817 204.708 192.542 204.521 192.124 204.411C191.728 204.301 191.09 204.246 190.21 204.246H186.778V209.295H190.309ZM190.441 218.337C191.695 218.337 192.586 218.194 193.114 217.908C193.642 217.622 193.906 217.16 193.906 216.522V214.806C193.906 214.014 193.697 213.453 193.279 213.123C192.883 212.793 192.168 212.628 191.134 212.628H186.778V218.337H190.441ZM200.268 217.446H205.416V222H200.268V217.446ZM207.721 200.583H224.386V204.246H212.869V209.493H223.297V213.156H212.869V222H207.721V200.583ZM226.213 200.583H235.849C238.709 200.583 240.777 200.935 242.053 201.639C243.329 202.321 243.967 203.476 243.967 205.104V208.866C243.967 210.12 243.516 211.11 242.614 211.836C241.734 212.54 240.557 212.991 239.083 213.189L245.287 222H239.347L233.737 213.585H231.361V222H226.213V200.583ZM235.783 210.186C236.993 210.186 237.818 210.032 238.258 209.724C238.698 209.394 238.918 208.767 238.918 207.843V206.325C238.918 205.533 238.676 204.994 238.192 204.708C237.73 204.4 236.927 204.246 235.783 204.246H231.361V210.186H235.783Z" fill="url(#paint4_linear_6_928)"/>
</g>
<defs>
<linearGradient id="paint0_linear_6_928" x1="-3.5" y1="-2.86195e-06" x2="256" y2="256" gradientUnits="userSpaceOnUse">
<stop stop-color="white"/>
<stop offset="1" stop-color="#999999"/>
</linearGradient>
<linearGradient id="paint1_linear_6_928" x1="0" y1="0" x2="256" y2="256" gradientUnits="userSpaceOnUse">
<stop stop-color="white" stop-opacity="0.15"/>
<stop offset="1" stop-opacity="0"/>
</linearGradient>
<radialGradient id="paint2_radial_6_928" cx="0" cy="0" r="1" gradientUnits="userSpaceOnUse" gradientTransform="translate(158.446 -26.4461) rotate(126.182) scale(172.853 84.1773)">
<stop stop-color="white"/>
<stop offset="0.506856" stop-color="#99D5F1"/>
<stop offset="1" stop-color="#34B8E9"/>
</radialGradient>
<radialGradient id="paint3_radial_6_928" cx="0" cy="0" r="1" gradientUnits="userSpaceOnUse" gradientTransform="translate(159.784 2.99627) rotate(99.9237) scale(184.432 138.496)">
<stop stop-color="#D9D9D9"/>
<stop offset="1" stop-color="#CCCCCC"/>
</radialGradient>
<linearGradient id="paint4_linear_6_928" x1="91" y1="88.5" x2="212" y2="225.5" gradientUnits="userSpaceOnUse">
<stop stop-color="white"/>
<stop offset="1" stop-color="#EAEAEA"/>
</linearGradient>
<clipPath id="clip0_6_928">
<rect width="256" height="256" fill="white"/>
</clipPath>
</defs>
</svg>
