<svg width="256" height="256" viewBox="0 0 256 256" fill="none" xmlns="http://www.w3.org/2000/svg">
<g clip-path="url(#clip0_24_2584)">
<rect width="256" height="256" fill="url(#paint0_linear_24_2584)"/>
<rect width="257" height="257" transform="translate(-1)" fill="#1D70B8"/>
<path d="M106.783 151.55C110.43 151.55 113.386 148.453 113.386 144.633C113.386 140.812 110.43 137.715 106.783 137.715C103.136 137.715 100.18 140.812 100.18 144.633C100.18 148.453 103.136 151.55 106.783 151.55Z" fill="white"/>
<path d="M89.1751 161.611C92.8218 161.611 95.778 158.796 95.778 155.323C95.778 151.85 92.8218 149.035 89.1751 149.035C85.5285 149.035 82.5723 151.85 82.5723 155.323C82.5723 158.796 85.5285 161.611 89.1751 161.611Z" fill="white"/>
<path d="M77.2274 179.219C80.874 179.219 83.8302 176.404 83.8302 172.931C83.8302 169.458 80.874 166.642 77.2274 166.642C73.5807 166.642 70.6245 169.458 70.6245 172.931C70.6245 176.404 73.5807 179.219 77.2274 179.219Z" fill="white"/>
<path d="M128.163 174.817C131.81 174.817 134.766 171.861 134.766 168.214C134.766 164.568 131.81 161.611 128.163 161.611C124.517 161.611 121.561 164.568 121.561 168.214C121.561 171.861 124.517 174.817 128.163 174.817Z" fill="white"/>
<path d="M148.915 151.55C152.562 151.55 155.518 148.453 155.518 144.633C155.518 140.812 152.562 137.715 148.915 137.715C145.269 137.715 142.312 140.812 142.312 144.633C142.312 148.453 145.269 151.55 148.915 151.55Z" fill="white"/>
<path d="M166.837 161.611C170.31 161.611 173.126 158.796 173.126 155.323C173.126 151.85 170.31 149.035 166.837 149.035C163.364 149.035 160.549 151.85 160.549 155.323C160.549 158.796 163.364 161.611 166.837 161.611Z" fill="white"/>
<path d="M178.157 179.219C181.977 179.219 185.074 176.404 185.074 172.931C185.074 169.458 181.977 166.642 178.157 166.642C174.336 166.642 171.239 169.458 171.239 172.931C171.239 176.404 174.336 179.219 178.157 179.219Z" fill="white"/>
<path d="M128.163 174.817C131.81 174.817 134.766 171.861 134.766 168.214C134.766 164.568 131.81 161.611 128.163 161.611C124.517 161.611 121.561 164.568 121.561 168.214C121.561 171.861 124.517 174.817 128.163 174.817Z" fill="white"/>
<path d="M130.36 130.561C130.731 130.375 130.917 130.002 131.289 129.629L139.84 134.106V121.42L131.289 124.218C131.103 123.845 130.731 123.659 130.36 123.286L133.892 112.279H121.437L124.969 123.286C124.597 123.472 124.411 123.845 124.04 124.218L115.489 121.42V134.106L124.04 129.629C124.226 130.002 124.597 130.188 124.969 130.561L120.136 145.486C118.463 150.709 122.367 156.12 127.757 156.12C133.334 156.12 137.237 150.709 135.379 145.486L130.546 130.561H130.36ZM137.609 180.468C137.609 180.468 131.289 187.557 129.988 191.848C134.077 191.848 137.795 190.916 141.885 186.625L140.583 202.482C136.866 197.258 132.404 194.833 129.988 195.393C130.174 201.176 130.917 207.892 140.769 208.825C147.647 209.385 153.223 206.027 153.781 201.736C154.525 196.885 150.063 193.714 146.903 198.751C144.301 190.356 151.365 187.371 156.012 192.781C152.48 184.386 152.666 178.416 160.473 172.446C166.049 179.909 165.306 186.065 158.242 193.154C162.704 190.729 169.767 193.154 165.678 201.736C163.447 196.512 158.8 197.632 157.871 202.109C157.313 205.28 159.172 209.011 163.447 209.944C166.979 210.504 172.184 208.265 176.459 198.937C174.043 198.937 171.998 200.243 169.21 202.109L173.671 187.184C174.786 191.475 176.273 194.087 177.76 195.579C178.876 192.595 178.69 190.356 177.76 185.692L187.054 189.05C182.221 195.766 177.388 205.28 173.485 221.697C159.729 219.645 144.301 218.526 127.943 218.526C111.585 218.526 96.157 219.645 82.4016 221.697C78.498 205.094 73.665 195.766 68.832 189.05L78.1262 185.692C77.1968 190.356 77.0109 192.595 78.1262 195.579C79.6133 194.087 81.1004 191.289 82.2157 187.184L86.6769 202.109C83.8887 200.243 81.8439 198.937 79.4274 198.937C83.7028 208.265 89.0934 210.504 92.4393 209.944C96.7147 209.198 98.5735 205.467 98.0159 202.109C97.0864 197.632 92.4393 196.326 90.2087 201.736C86.1193 193.154 93.1829 190.542 97.6441 193.154C90.7664 186.252 89.837 179.909 95.4135 172.446C103.221 178.416 103.407 184.386 99.8747 192.781C104.522 187.557 111.585 190.356 108.983 198.751C105.637 193.714 101.362 196.885 102.105 201.736C102.663 206.027 108.239 209.385 115.117 208.825C125.155 207.892 125.713 200.99 125.898 195.393C123.482 195.02 119.021 197.258 115.303 202.482L114.002 186.625C118.091 190.916 121.809 191.662 125.898 191.848C124.597 187.557 118.277 180.468 118.277 180.468H137.981H137.609Z" fill="white"/>
<path d="M148.278 73.4108C152.347 73.4108 155.645 70.4793 155.645 66.863C155.645 63.2468 152.347 60.3152 148.278 60.3152C144.21 60.3152 140.912 63.2468 140.912 66.863C140.912 70.4793 144.21 73.4108 148.278 73.4108Z" fill="#06E4D8"/>
<path d="M28.5609 71.5967C28.9186 73.1781 29.6341 74.4013 30.5374 75.6332C31.4318 76.8564 32.5139 77.7388 33.766 78.4378C35.0181 79.1367 36.6369 79.4862 38.4346 79.4862C40.2322 79.4862 41.6632 79.1367 42.7454 78.6125C43.9975 78.0883 44.9007 77.3893 45.6162 76.5069C46.3317 75.6332 46.8683 74.7507 47.0561 73.877C47.244 73.0033 47.4139 72.1209 47.4139 71.2472V71.3695H37.7012V65.2361H55.6509V86.2749H48.4692V81.4171C47.9326 82.1161 47.235 82.8238 46.5106 83.5227C45.7951 84.2217 44.8918 84.5712 43.9974 85.1041C43.1031 85.4536 42.0209 85.8031 40.9477 86.1526C39.8745 86.502 38.7923 86.502 37.5402 86.502C35.0514 86.5581 32.5816 86.0666 30.3135 85.0639C28.0455 84.0612 26.0374 82.573 24.4379 80.7094C23.0069 78.9532 21.7459 76.8564 21.0304 74.576C20.3149 72.2956 19.7783 69.6658 19.7783 66.8612C19.7783 64.0566 20.1361 61.6015 21.0304 59.1464C22.2977 55.6348 24.6563 52.5977 27.7766 50.4594C30.897 48.3212 34.6232 47.1888 38.4346 47.2204C41.3054 47.2204 42.0209 47.3951 43.6397 47.9193C45.2585 48.2688 46.8683 48.9678 48.1294 49.6755C49.5693 50.3744 50.6425 51.4316 51.7157 52.4801C52.789 53.5285 53.6923 54.7604 54.2289 56.1583L47.4049 60.0114C47.0472 59.1377 46.5106 58.43 45.965 57.731C45.4284 57.032 44.7129 56.5078 43.9885 55.9749C43.273 55.4506 42.3697 55.1012 41.4754 54.7517C40.581 54.4022 39.4988 54.4022 38.2467 54.4022C36.4491 54.4022 34.8393 54.7517 33.5782 55.4506C32.3261 56.1496 31.2439 57.032 30.3496 58.2552C29.4552 59.4784 28.9097 60.7103 28.3731 62.2917C28.0153 63.8731 27.8365 65.5332 27.8365 67.0272C27.8365 68.5212 28.5519 71.5879 28.5519 71.5879L28.5609 71.5967ZM80.2546 47.2204C83.1255 47.2204 85.8175 47.7446 87.9729 48.8018C90.1283 49.8502 92.2837 51.2569 93.8935 53.013C95.5034 54.7692 96.7644 56.866 97.4799 59.1464C98.1954 61.4268 98.732 64.0566 98.732 66.8612C98.732 69.6658 98.3742 72.1209 97.4799 74.576C96.5855 77.0311 95.3245 78.962 93.8935 80.7094C92.4625 82.4568 90.3071 83.8635 87.9729 84.9206C85.6386 85.9778 83.1255 86.502 80.2546 86.502C77.3837 86.502 74.6917 85.9778 72.5363 84.9206C70.3809 83.8635 68.2255 82.4655 66.7946 80.7094C65.3636 78.9532 63.9237 76.8564 63.2082 74.576C62.4927 72.2956 61.9561 69.6658 61.9561 66.8612C61.9561 64.0566 62.3138 61.6015 63.2082 59.1464C64.1025 56.6913 65.3636 54.7604 66.7946 53.013C68.2255 51.2656 70.3809 49.859 72.5363 48.8018C74.6917 47.7446 77.3837 47.2204 80.2546 47.2204ZM80.2546 79.3115C81.8734 79.3115 83.4832 78.962 84.7443 78.4378C86.0053 77.9135 87.0785 76.8564 87.9729 75.8079C88.8672 74.7595 89.5917 73.3528 89.9494 71.9549C90.3071 70.3735 90.6649 68.8008 90.6649 67.0447C90.6649 65.1138 90.486 63.3664 89.9494 61.785C89.4128 60.2036 88.8762 58.9804 87.9729 57.7485C87.0785 56.7 85.9963 55.8176 84.7443 55.1186C83.4922 54.4197 81.8734 54.2449 80.2546 54.2449C78.6358 54.2449 77.026 54.5944 75.7649 55.1186C74.5128 55.8176 73.4307 56.7 72.5363 57.7485C71.642 58.7969 70.9175 60.2036 70.5598 61.785C70.202 63.3664 69.8443 64.9391 69.8443 66.6952C69.8443 68.8008 70.0232 70.3735 70.5598 71.9549C70.9175 73.5363 71.633 74.7595 72.5363 75.8079C73.4396 76.8564 74.5128 77.7388 75.7649 78.4378C77.017 79.1367 78.6358 79.3115 80.2546 79.3115ZM112.738 86.2661L101.791 47.6922H110.582L118.122 76.3234H118.479L125.84 47.6922H134.631L123.684 86.2661H112.738ZM179.045 79.3115C180.995 79.3115 182.184 78.7872 182.184 78.7872C183.257 78.263 183.982 77.9135 184.697 77.2058C185.413 76.4981 185.949 75.6244 186.316 74.7507C186.742 73.6271 186.984 72.4446 187.032 71.2472V47.7009H194.75V72.2956C194.75 74.4013 194.392 76.3321 193.498 78.0795C192.782 79.8357 191.521 81.2336 190.269 82.4655C189.017 83.6975 187.219 84.5712 185.243 85.2701C183.266 85.9691 181.111 86.3186 178.965 86.3186C176.818 86.3186 174.475 85.9691 172.686 85.2701C170.71 84.5712 169.1 83.6887 167.66 82.4655C166.22 81.2423 165.147 79.8357 164.431 78.0795C163.716 76.3234 163.179 74.4013 163.179 72.2956V47.7009H170.897V71.2472C170.897 72.6539 171.076 73.877 171.613 74.7507C171.971 75.7992 172.686 76.6816 173.411 77.2058C174.126 77.9048 175.029 78.429 175.924 78.7872C175.924 78.7872 177.122 79.3115 179.063 79.3115H179.045ZM209.65 47.7009V64.2314L223.647 47.7009H233.323L219.881 62.8334L234.218 86.2749H225.086L214.855 68.6173L209.829 74.0518V86.2749H201.932V47.7009" fill="white"/>
<rect width="256" height="256" fill="url(#paint1_linear_24_2584)"/>
</g>
<defs>
<linearGradient id="paint0_linear_24_2584" x1="-3.5" y1="-2.86195e-06" x2="256" y2="256" gradientUnits="userSpaceOnUse">
<stop stop-color="white"/>
<stop offset="1" stop-color="#E0E0E0"/>
</linearGradient>
<linearGradient id="paint1_linear_24_2584" x1="0" y1="0" x2="256" y2="256" gradientUnits="userSpaceOnUse">
<stop stop-color="white" stop-opacity="0.15"/>
<stop offset="1" stop-opacity="0"/>
</linearGradient>
<clipPath id="clip0_24_2584">
<rect width="256" height="256" fill="white"/>
</clipPath>
</defs>
</svg>
