<svg width="256" height="256" viewBox="0 0 256 256" fill="none" xmlns="http://www.w3.org/2000/svg">
<rect width="256" height="256" fill="black"/>
<path d="M50.2555 238.508H57.8698L61.9521 215.143H54.3377L52.8322 223.51H46.2311L47.7366 215.143H40.1223L36.04 238.508H43.6544L45.1889 229.764H51.7899L50.2555 238.508Z" fill="white"/>
<path d="M66.2649 215.114L63.9487 228.114C63.746 229.127 63.6592 230.112 63.6592 231.038C63.6592 237.929 69.6812 238.971 73.3002 238.971C80.8856 238.971 84.1572 236.452 85.3442 229.648L87.892 215.085H80.2776L78.1062 227.303C77.4114 231.125 76.9192 233.123 74.0819 233.123C72.229 233.123 71.3315 232.138 71.3315 230.112C71.3315 229.33 71.4473 228.374 71.6789 227.187L73.8792 215.085H66.2649V215.114Z" fill="white"/>
<path d="M128.135 238.508H135.749L136.82 232.486H140.41C147.04 232.486 150.717 228.896 150.717 222.352C150.717 217.749 147.533 215.114 141.945 215.114H132.217L128.135 238.508ZM140.005 226.724H137.805L138.818 221.223H140.874C142.553 221.223 143.45 222.063 143.45 223.597C143.45 225.537 142.148 226.724 140.005 226.724Z" fill="white"/>
<path d="M165.512 214.622C157.232 214.622 152.281 219.978 152.281 228.982C152.281 235.236 156.219 239 162.82 239C171.1 239 176.051 233.644 176.051 224.64C176.08 218.357 172.142 214.622 165.512 214.622ZM163.283 232.949C161.314 232.949 160.156 231.53 160.156 229.156C160.156 228.259 160.243 227.477 160.417 226.579C160.996 223.511 161.98 220.702 165.078 220.702C167.047 220.702 168.205 222.121 168.205 224.495C168.205 225.392 168.118 226.174 167.944 227.072C167.365 230.112 166.381 232.949 163.283 232.949Z" fill="white"/>
<path d="M202.542 238.508H210.156L213.167 221.397H218.9L220 215.143H200.515L199.415 221.397H205.495L202.542 238.508Z" fill="white"/>
<path d="M189.92 223.771C187.517 223.018 186.533 222.7 186.533 221.571C186.533 220.818 187.025 219.92 188.472 219.92C189.544 219.92 190.441 220.528 190.789 221.426L197.505 219.602C196.724 216.301 193.886 214.622 188.994 214.622C179.787 214.622 179.063 220.789 179.063 222.671C179.063 226.493 181.09 228.838 185.49 230.054C186.648 230.372 187.98 230.72 187.98 231.993C187.98 233.007 187.227 233.644 185.925 233.644C184.738 233.644 183.464 232.949 183.029 231.733L176.399 233.528C177.123 237.002 180.395 238.971 185.519 238.971C189.428 238.971 195.971 237.929 195.971 230.864C196 227.332 194.002 225.016 189.92 223.771Z" fill="white"/>
<path d="M96.9847 231.617H103.383L104.425 225.74H98.0269L98.7507 221.397H107.697L108.797 215.114H92.2365L88.1543 238.508H95.7687L96.9847 231.617Z" fill="white"/>
<path d="M116.932 231.617H123.36L124.402 225.74H118.003L118.727 221.397H127.673L128.774 215.114H112.213L108.131 238.508H115.745L116.932 231.617Z" fill="white"/>
<path d="M102.817 201.002L135.18 17.0799H36.04V201.002H102.817Z" fill="#0DBE98"/>
<path d="M152.59 17.0799L120.455 201.002H219.595V17.0799H152.59Z" fill="#0DBE98"/>
</svg>
