<svg width="256" height="256" viewBox="0 0 256 256" fill="none" xmlns="http://www.w3.org/2000/svg">
<g clip-path="url(#clip0_13_689)">
<rect width="256" height="256" fill="url(#paint0_linear_13_689)"/>
<rect width="256" height="256" fill="white"/>
<rect width="256" height="256" fill="url(#paint1_linear_13_689)"/>
<path d="M12 200.32H18.0824V219.444H27.2061V224.626H12V200.32ZM30.194 216.079V200.32H36.2764V215.919C36.2764 219.07 37.3435 219.498 39.7444 219.498C42.1454 219.498 43.1591 219.177 43.1591 215.972V200.32H48.9215V216.026C48.9215 223.13 46.7339 224.947 39.6911 224.947C32.6483 224.947 30.194 223.344 30.194 216.079Z" fill="#1D1D1B"/>
<path d="M21.0169 208.707L22.4575 200.321H28.54L23.5246 209.936L21.0169 208.707ZM50.7889 224.306L51.5892 219.177C53.8834 219.551 56.1777 219.765 58.5253 219.872C61.1397 219.872 61.6732 219.605 61.6732 217.682C61.6732 215.972 61.4065 215.759 58.2052 215.011C52.2294 213.675 50.7355 212.553 50.7355 207.051C50.7355 201.549 53.4033 200 59.1656 200C61.7266 200 64.2343 200.214 66.7419 200.748L65.8349 205.876C63.6474 205.502 61.4065 205.288 59.1656 205.235C57.2981 205.235 56.818 205.609 56.818 207.158C56.818 208.868 57.1914 209.028 60.1259 209.722C66.2084 211.165 67.7557 212.179 67.7557 217.682C67.7557 223.184 65.4614 225 58.4719 225C55.9109 224.947 53.2965 224.733 50.7889 224.306ZM69.5697 200.321H75.6522V224.626H69.5697V200.321ZM78.3733 200.321H84.0289L91.3918 212.393V200.321H97.1008V224.626H92.1388L84.0289 211.378V224.626H78.3733V200.321ZM99.8219 200.321H115.028V205.662H105.904V209.829H112.947V215.011H105.904V219.444H115.028V224.626H99.8219V200.321Z" fill="#1D1D1B"/>
<path d="M117.109 200.374L125.752 200.321C133.275 200.321 135.623 201.709 135.623 212.447C135.623 223.184 133.222 224.626 125.752 224.626C119.51 224.626 117.055 224.679 117.055 224.679L117.109 200.374ZM125.806 219.818C128.9 219.818 129.434 218.376 129.434 213.301V211.645C129.434 206.571 128.9 205.288 125.806 205.288H123.191V219.818H125.806ZM137.864 200.321H143.946V224.626H137.864V200.321ZM146.08 212.5C146.08 202.137 148.962 200.053 156.058 200.053C158.299 200 160.593 200.214 162.834 200.588L162.087 205.823C160.059 205.502 158.032 205.342 156.004 205.342C153.016 205.342 152.376 206.357 152.376 211.432V213.622C152.376 218.643 152.91 219.979 156.271 219.979C156.965 219.979 157.658 219.925 158.405 219.818V212.126H163.741V224.145C161.233 224.679 158.672 224.947 156.111 224.893C148.801 224.947 146.08 222.863 146.08 212.5ZM166.088 200.321H172.171V224.626H166.088V200.321ZM180.227 205.662H173.825V200.321H192.712V205.662H186.31V224.626H180.227V205.662ZM196.661 224.626H190.632L198.528 200.214H204.024L211.493 224.626H205.144L204.344 221.581H197.568L196.661 224.626ZM200.982 209.295L198.902 216.72H203.01L200.982 209.295ZM212.987 200.321H219.07V219.444H228.193V224.626H212.987V200.321ZM229.794 200.321H245V205.662H235.876V209.829H242.919V215.011H235.876V219.444H245V224.626H229.794V200.321Z" fill="#0093D3"/>
<path d="M172.846 42C209.455 42 220.88 48.7117 220.88 100.597C220.88 152.482 209.196 159.451 172.846 159.451C142.468 159.451 130.523 159.709 130.523 159.709L130.783 42.2578L172.846 42ZM160.383 66.0068V136.219H173.105C188.165 136.219 190.761 129.249 190.761 104.727V96.7246C190.761 72.2019 188.165 66.0069 173.105 66.0068H160.383Z" fill="#0093D3"/>
<path d="M33 42V118.15C33 153.256 44.9436 161 79.2164 161C113.489 161 124.135 152.223 124.135 117.892V42H96.0931V117.633C96.0931 133.121 91.1599 134.67 79.476 134.67C67.7921 134.67 62.5992 132.605 62.5992 117.375V42H33Z" fill="#1D1D1B"/>
</g>
<defs>
<linearGradient id="paint0_linear_13_689" x1="-3.5" y1="-2.86195e-06" x2="256" y2="256" gradientUnits="userSpaceOnUse">
<stop stop-color="white"/>
<stop offset="1" stop-color="#E0E0E0"/>
</linearGradient>
<linearGradient id="paint1_linear_13_689" x1="0" y1="0" x2="256" y2="256" gradientUnits="userSpaceOnUse">
<stop stop-color="white" stop-opacity="0.15"/>
<stop offset="1" stop-opacity="0"/>
</linearGradient>
<clipPath id="clip0_13_689">
<rect width="256" height="256" fill="white"/>
</clipPath>
</defs>
</svg>
