<svg width="256" height="256" viewBox="0 0 256 256" fill="none" xmlns="http://www.w3.org/2000/svg">
<rect width="256" height="256" fill="white"/>
<path d="M25.1676 110.874H40.3381L27.5323 140.54H38.8004L36.539 145.803H14.0029L26.6536 116.471H22.7512L25.1676 110.874Z" fill="#EC1924"/>
<path d="M42.5996 116.471L45.016 110.874H56.0644C56.0644 110.874 54.475 117.138 51.3995 119.603C48.5825 121.862 43.8272 123.968 43.8272 123.968L47.0706 116.471H42.5996Z" fill="#EC1924"/>
<path d="M61.5563 110.874H70.563L71.7259 108.178H78.6393L77.4763 110.874H87.969L85.5526 116.471H74.2974L70.4854 125.315H81.7276L79.8539 129.68H68.6117L63.921 140.54H75.1891L72.9148 145.803H50.3916L63.0423 116.471H59.1398L61.5563 110.874Z" fill="#EC1924"/>
<path d="M97.0406 140.039L96.0327 138.345L100.594 135.932L102.132 138.692C102.894 137.754 103.114 136.792 103.566 135.726L109.937 120.951C111.009 118.473 110.053 116.06 106.215 116.06C103.372 116.06 102.248 117.883 100.904 120.951L94.5338 135.726C93.5258 138.063 94.4821 139.988 96.7564 140.193L97.0406 140.039ZM101.835 148.268L100.413 146.342C99.7155 146.419 97.971 146.573 97.2732 146.573C88.2795 146.573 81.6504 139.629 85.204 128.576C88.189 119.282 95.0248 110.527 106.564 110.527C120.003 110.527 122.303 119.475 119.59 128.704C117.522 135.675 112.78 143.274 105.621 145.046L107.688 148.268H101.499H101.835Z" fill="#EC1924"/>
<path d="M163.395 110.874H177.338L162.271 145.803H150.964L163.615 116.471H160.009L162.503 110.874H163.395Z" fill="#EC1924"/>
<path d="M125.029 116.471L127.446 110.874H142.965L133.119 133.711C133.119 133.711 129.513 140.091 135.096 140.091C139.114 140.091 140.898 136.753 140.898 136.753L152.166 110.874H158.42L146.816 138.05C146.816 138.05 142.965 146.214 132.576 146.214C122.316 146.214 119.176 139.089 122.122 132.26C125.947 123.416 128.932 116.471 128.932 116.471H125.029Z" fill="#EC1924"/>
<path d="M215.588 110.874H242L239.584 116.471H228.342L224.53 125.315H235.772L233.885 129.68H222.643L217.952 140.54H229.22L226.959 145.803H204.423L217.074 116.471H213.171L215.588 110.874Z" fill="#EC1924"/>
<path fill-rule="evenodd" clip-rule="evenodd" d="M194.525 116.471L189.589 127.896H194.408C196.308 127.896 197.923 125.649 199.125 122.851C200.34 120.052 201.128 116.471 197.6 116.471H194.525ZM203.183 110.874C208.61 110.874 211.75 115.945 211.091 119.757C208.61 134.391 198.957 133.595 198.957 133.595H187.133L181.874 145.803H170.632L183.283 116.471H179.38L181.784 110.874H203.183Z" fill="#EC1924"/>
</svg>
