<svg width="256" height="256" viewBox="0 0 256 256" fill="none" xmlns="http://www.w3.org/2000/svg">
<g clip-path="url(#clip0_31_1763)">
<rect width="256" height="256" fill="#F13C47"/>
<rect width="256" height="256" fill="url(#paint0_linear_31_1763)"/>
<path d="M116.259 27V32.6074H102.875V90.1043H152.394V32.6505H139.011V27.0431H195.135V32.6505H181.751V157.263H195.135V163H139.011V157.263H152.394V96.8763H102.875V157.263H116.259V163H60.1348V157.263H73.5182V32.6505H60.1348V27.0431H116.259V27Z" fill="#FFF4F5"/>
<path d="M38.2091 190.438V218.377H40.7817V219.406H30.3284V218.377H32.8324V191.442H30.2598V190.438H38.2091Z" fill="#FFF4F5"/>
<path d="M43.8007 201.055C45.8416 199.785 47.2308 198.233 47.2308 196.621C47.2473 196.352 47.1736 196.086 47.0213 195.864C46.8691 195.641 46.6471 195.476 46.3904 195.395L45.0012 196.664C44.4974 196.466 44.0646 196.122 43.7588 195.676C43.453 195.229 43.2883 194.701 43.2862 194.16C43.2845 193.819 43.3526 193.48 43.4864 193.166C43.6203 192.852 43.8169 192.569 44.0643 192.333C44.3116 192.098 44.6045 191.916 44.9249 191.798C45.2453 191.68 45.5864 191.629 45.9274 191.647C47.8568 191.647 49.0145 193.037 49.0145 195.078C49.0145 198.01 46.9307 200.171 44.3066 201.792L43.8007 201.055Z" fill="#FFF4F5"/>
<path d="M63.2407 192.368V193.483H60.5823V204.913H70.4182V193.491H67.7599V192.376H78.9078V193.491H76.2494V218.265H78.9078V219.406H67.7599V218.265H70.4182V206.26H60.5823V218.265H63.2407V219.406H52.0928V218.265H54.7511V193.491H52.0928V192.376H63.2407V192.368Z" fill="#FFF4F5"/>
<path d="M94.5748 219.406L94.2661 216.276C93.4601 218.051 91.8393 219.792 88.2634 219.792C84.6875 219.792 82.3636 218.017 82.3636 213.343V202.015H79.791V201.012H87.7746V213.875C87.7746 216.919 88.272 218.042 90.09 218.042C92.2509 218.042 94.1032 215.684 94.1032 212.751V202.015H91.7964V201.012H99.5914V218.377H102.164V219.406H94.5748Z" fill="#FFF4F5"/>
<path d="M111.322 201.012V204.485C111.728 203.288 112.52 202.26 113.574 201.561C114.628 200.863 115.883 200.534 117.144 200.626C119.966 200.626 121.895 201.826 122.547 204.793C122.986 203.54 123.815 202.459 124.912 201.71C126.008 200.96 127.316 200.58 128.644 200.626C131.919 200.626 134.235 202.341 134.235 207.066V218.377H136.807V219.406H126.671V218.377H128.798V206.26C128.798 203.173 128.258 202.367 126.791 202.367C124.63 202.367 122.778 204.725 122.778 208.112V218.402H124.939V219.406H115.223V218.377H117.341V206.371C117.341 203.207 116.801 202.401 115.378 202.401C113.182 202.401 111.33 204.974 111.33 208.301V218.377H113.491V219.406H103.381V218.377H105.885V202.015H103.381V201.012H111.322Z" fill="#FFF4F5"/>
<path d="M148.6 210.162V207.34C148.6 203.138 147.94 201.552 145.59 201.552C144.235 201.552 143.163 202.015 143.163 203.053C143.164 203.315 143.204 203.575 143.283 203.824H144.321C144.529 204.339 144.634 204.89 144.629 205.445C144.631 205.801 144.558 206.153 144.416 206.48C144.274 206.806 144.066 207.099 143.805 207.341C143.544 207.583 143.235 207.768 142.899 207.884C142.563 208.001 142.206 208.046 141.851 208.018C139.999 208.018 139.15 206.903 139.15 205.205C139.15 202.195 142.117 200.617 146.516 200.617C151.876 200.617 154.002 202.332 154.002 207.906V215.504C154.002 217.125 154.465 217.665 155.203 217.665C155.94 217.665 156.472 217.048 156.746 213.96L157.604 214.038C157.407 218.325 156.138 219.749 153.128 219.749C150.555 219.749 149.114 218.823 148.728 217.005C147.871 218.823 146.259 219.749 143.789 219.749C140.968 219.749 138.267 218.78 138.267 215.161C138.267 211.191 141.628 210.144 146.842 210.144H148.557L148.6 210.162ZM148.6 214.329V211.131H147.742C144.964 211.131 143.961 212.477 143.961 215.067C143.961 217.339 144.544 218.111 145.813 218.111C147.176 218.111 148.6 216.722 148.6 214.329Z" fill="#FFF4F5"/>
<path d="M166.394 201.012V204.485C167.251 202.555 168.863 200.626 172.679 200.626C176.23 200.626 178.502 202.401 178.502 207.066V218.377H181.075V219.406H170.827V218.377H173.065V206.491C173.065 203.438 172.491 202.435 170.827 202.435C168.512 202.435 166.394 205.008 166.394 208.335V218.368H168.666V219.406H158.444V218.377H160.948V202.015H158.444V201.012H166.394Z" fill="#FFF4F5"/>
<path d="M190.163 201.012V218.377H192.736V219.406H182.214V218.377H184.718V202.015H182.146V201.012H190.163ZM187.188 191.793C189.04 191.793 190.232 192.719 190.232 194.726C190.232 196.441 189.272 197.693 187.145 197.693C184.675 197.693 184.015 196.115 184.015 194.726C183.989 193.182 184.993 191.793 187.188 191.793Z" fill="#FFF4F5"/>
<path d="M196.064 202.015H193.56V201.012H196.064V196.029L201.543 194.64V201.003H206.688V202.006H201.543V214.664C201.543 216.859 201.972 217.982 203.67 217.982C205.522 217.982 206.568 216.482 206.911 213.858L207.769 213.969C207.417 216.979 206.225 219.757 201.826 219.757C198.465 219.757 196.038 218.634 196.038 214.509V202.015H196.064Z" fill="#FFF4F5"/>
<path d="M208.798 210.316C208.798 203.601 212.965 200.634 218.325 200.634C223.685 200.634 226.197 203.644 225.966 209.433H214.543V210.47C214.543 215.487 215.581 218.377 219.517 218.377C222.45 218.377 224.182 216.662 224.962 213.746L226 213.9C225.228 217.142 223.256 219.766 218.051 219.766C211.696 219.766 208.798 215.907 208.798 210.316ZM220.649 208.386C220.726 203.49 220.22 201.526 217.913 201.526C215.752 201.526 214.672 203.301 214.552 208.386H220.649ZM215.667 198.276L216.241 198.619L220.64 193.911C221.184 193.455 221.531 192.807 221.609 192.102C221.618 191.915 221.586 191.729 221.516 191.555C221.445 191.382 221.339 191.226 221.203 191.097C221.067 190.969 220.905 190.871 220.728 190.81C220.551 190.75 220.363 190.728 220.177 190.747C219.986 190.73 219.794 190.73 219.603 190.747L218.402 191.013L215.667 198.276Z" fill="#FFF4F5"/>
</g>
<defs>
<linearGradient id="paint0_linear_31_1763" x1="0" y1="0" x2="256" y2="256" gradientUnits="userSpaceOnUse">
<stop stop-color="white" stop-opacity="0.15"/>
<stop offset="1" stop-opacity="0"/>
</linearGradient>
<clipPath id="clip0_31_1763">
<rect width="256" height="256" fill="white"/>
</clipPath>
</defs>
</svg>
