<svg width="256" height="256" viewBox="0 0 256 256" fill="none" xmlns="http://www.w3.org/2000/svg">
<rect width="256" height="256" fill="white"/>
<path d="M115.307 211.591L116.158 211.733L115.591 220.528C112.328 222.514 108.498 223.507 103.107 223.507C91.4743 223.223 85.2324 216.556 85.2324 206.909C85.2324 195.844 92.7511 188.893 103.391 188.893C108.64 188.893 112.753 190.028 115.733 191.872V200.809H114.881C113.321 195.844 109.491 191.021 105.66 191.021C99.2767 191.021 97.8581 200.242 97.8581 206.2C97.8581 214.002 100.412 220.954 106.37 220.954C110.058 220.954 113.747 217.549 115.307 211.591Z" fill="#EF7D00"/>
<path d="M187.514 222.514L187.372 209.888V200.951C187.372 198.54 187.656 198.114 189.358 196.979V196.412H178.151L178.293 209.605L178.151 218.116C178.151 220.528 177.584 221.096 176.165 222.089V222.656L187.514 222.514Z" fill="#EF7D00"/>
<path d="M146.658 219.535C145.807 218.258 144.672 216.414 143.963 215.137C142.402 212.158 140.558 210.456 136.444 210.314C141.267 210.172 145.097 207.761 145.097 203.505C145.097 198.681 141.125 196.412 135.309 196.412H120.13V209.605L119.988 218.258C119.988 220.67 119.421 221.237 118.002 222.23V222.798H129.351V211.165H130.202C132.614 211.165 133.465 211.733 133.89 213.577L135.451 218.826C135.876 220.386 136.586 221.663 137.437 222.798H149.07V222.089C148.218 221.379 147.367 220.528 146.658 219.535ZM130.769 209.179H129.351V197.972H130.769C134.032 197.972 135.735 199.958 135.735 203.363C135.735 206.909 134.032 209.179 130.769 209.179Z" fill="#EF7D00"/>
<path d="M174.605 208.895C174.605 217.691 168.647 223.365 160.703 223.365C152.191 223.365 147.51 217.123 147.51 210.03C147.51 201.235 153.468 195.56 161.27 195.56C169.924 195.56 174.605 201.802 174.605 208.895ZM165.526 210.03C165.526 202.795 164.108 197.546 160.987 197.546C158.291 197.546 157.156 202.653 157.156 209.037C157.156 216.272 158.575 221.521 161.696 221.521C164.391 221.379 165.526 216.414 165.526 210.03Z" fill="#EF7D00"/>
<path d="M80.1258 218.542C77.9979 214.854 68.7769 195.986 68.7769 195.986H68.0676C68.0676 195.986 58.421 216.272 57.7117 217.691C57.428 218.116 57.0024 218.826 56.5768 219.393C55.5838 220.244 54.0233 220.954 51.6117 220.954H48.3489V209.888L48.4908 201.093C48.4908 198.681 49.0582 198.114 50.4768 197.121V196.412H38.9861C38.9861 196.412 38.9861 217.123 38.9861 218.4C38.9861 220.812 37.993 221.379 37 222.088V222.656H57.7117L61.1164 215.563H68.7769L72.3234 222.656H83.3886V222.088C82.2537 221.095 81.2607 220.386 80.1258 218.542ZM67.9257 213.861H61.542L64.6629 207.051L67.9257 213.861Z" fill="#EF7D00"/>
<path d="M215.602 217.833C212.623 213.293 210.353 209.605 208.793 207.051C210.353 204.923 212.623 201.944 213.9 200.525C215.744 198.539 218.156 197.405 219.291 196.979V196.412H213.191C212.907 197.263 212.481 198.539 211.205 200.384C210.779 201.093 208.935 203.646 207.658 205.207L202.409 196.27H191.06V196.837C192.337 197.405 193.756 198.681 194.89 200.384C196.309 202.653 198.295 205.774 201.274 210.881C200.281 212.158 197.728 215.705 195.883 217.974C193.897 220.528 191.06 221.379 189.642 221.805V222.514H197.16C197.302 221.521 197.87 219.677 198.721 218.4C199.146 217.833 200.99 214.995 202.409 212.726C203.26 214.002 203.544 214.57 203.97 215.279C205.956 218.542 208.225 222.372 208.225 222.372H220V221.805C218.581 221.237 217.021 220.102 215.602 217.833Z" fill="#EF7D00"/>
<path d="M127.585 97.3661L130.149 97.7934L128.44 124.285C118.612 130.267 107.075 133.258 90.8383 133.258C55.8007 132.404 37 112.321 37 83.2656C37 49.9371 59.6463 29 91.6929 29C107.503 29 119.894 32.4183 128.867 37.9731V64.8922H126.303C121.603 49.9371 110.066 35.4093 98.5295 35.4093C79.3015 35.4093 75.0286 63.1831 75.0286 81.1292C75.0286 104.63 82.7198 125.567 100.666 125.567C111.775 125.567 122.885 115.312 127.585 97.3661Z" fill="#EF7D00"/>
<path d="M205.749 145.167C196.776 131.493 189.94 120.384 185.24 112.693C189.94 106.283 196.776 97.3103 200.622 93.0375C206.177 87.0554 213.441 83.6371 216.859 82.3553V80.6461H198.486C197.631 83.2098 196.349 87.0554 192.503 92.6102C191.222 94.7466 185.667 102.438 181.821 107.138L166.012 80.2188H131.829V81.928C135.674 83.6371 139.947 87.4827 143.365 92.6102C147.638 99.4468 153.62 108.847 162.593 124.23C159.602 128.075 151.911 138.757 146.356 145.594C140.374 153.285 131.829 155.849 127.556 157.131V159.267H150.202C150.629 156.276 152.338 150.721 154.902 146.876C156.184 145.167 161.739 136.621 166.012 129.784C168.575 133.63 169.43 135.339 170.712 137.475C176.694 147.303 183.53 158.84 183.53 158.84H218.995V157.131C214.722 155.422 210.022 152.003 205.749 145.167Z" fill="#EF7D00"/>
</svg>
