<svg width="256" height="256" viewBox="0 0 256 256" fill="none" xmlns="http://www.w3.org/2000/svg">
<g clip-path="url(#clip0_31_1492)">
<rect width="256" height="256" fill="#163860"/>
<rect width="256" height="256" fill="url(#paint0_linear_31_1492)"/>
<path d="M80.9403 78.9288L84.3049 81.6154C112.229 102.433 112.565 116.873 112.565 116.873V147.428C103.818 144.742 96.7522 141.72 90.697 138.698V162.874C90.697 164.553 89.3516 165.896 87.6694 165.896H76.2305V188.393H147.556V165.896H136.79C135.117 165.896 133.762 164.543 133.762 162.874V143.734H165.051V123.251H134.099V101.761H162.359C164.041 101.761 165.387 103.104 165.387 104.783V109.148H193.647V79.5991H80.9403V78.9288Z" fill="#EDF0F4"/>
<path d="M133.763 152.8C137.127 153.472 146.884 158.509 150.921 161.867C159.213 169.016 166.972 176.759 174.136 185.036L179.518 188.394C179.518 188.394 165.052 170.933 155.631 161.868L138.136 144.407L137.463 143.735H133.763V152.8ZM84.6425 81.6153L81.278 78.9287C55.7094 60.1249 47.2981 49.7159 45.279 43C45.279 43 37.5404 70.8701 58.0633 92.6957C58.0633 92.6957 53.0165 91.6881 48.3066 89.674C48.3066 89.674 56.7179 110.828 80.2684 122.245C80.2684 122.245 74.212 122.581 68.8295 121.908C68.8295 121.908 74.212 130.303 90.6977 138.697C97.7023 142.272 105.023 145.195 112.566 147.427V116.872C112.903 116.872 112.567 102.434 84.6425 81.6153Z" fill="#0D6FEF"/>
</g>
<defs>
<linearGradient id="paint0_linear_31_1492" x1="0" y1="0" x2="256" y2="256" gradientUnits="userSpaceOnUse">
<stop stop-color="white" stop-opacity="0.15"/>
<stop offset="1" stop-opacity="0"/>
</linearGradient>
<clipPath id="clip0_31_1492">
<rect width="256" height="256" fill="white"/>
</clipPath>
</defs>
</svg>
