<svg width="256" height="256" viewBox="0 0 256 256" fill="none" xmlns="http://www.w3.org/2000/svg">
<g clip-path="url(#clip0_1_109)">
<rect width="256" height="256" fill="url(#paint0_linear_1_109)"/>
<rect width="256" height="256" fill="black"/>
<rect width="256" height="256" fill="url(#paint1_linear_1_109)"/>
<path fill-rule="evenodd" clip-rule="evenodd" d="M78.0974 198.973C77.983 198.415 77.0593 197.135 76.0243 197.135C75.7924 197.135 75.6397 197.175 75.487 197.217C76.4846 197.617 77.2521 198.652 77.484 199.374L78.0587 199.014V198.973H78.0974ZM84.6234 223.237L80.8944 220.639C80.4459 220.326 79.9242 219.736 79.9242 218.634V209.224L79.5509 209.461L79.4026 209.54V218.908C79.4026 219.696 79.8116 220.522 80.3697 220.915L84.1387 223.552L84.6234 223.237ZM68.5155 213.798C68.5886 212.202 68.2606 210.255 67.9299 208.385C67.5993 206.478 67.3039 204.53 67.3413 202.819C67.3787 201.769 67.5623 200.756 67.9656 199.821C67.2686 200.95 66.8292 202.234 66.7914 203.597C66.6817 206.907 68.1862 211.227 68.0383 214.578C68.008 215.033 67.9719 215.487 67.9299 215.94L68.0022 215.862C68.2967 215.433 68.4799 214.772 68.5155 213.798ZM73.7467 223.181C73.1873 222.021 71.8464 221.313 70.2793 221.313C70.1287 221.349 69.9795 221.349 69.8312 221.349C71.3609 221.612 72.6652 222.47 73.1511 223.552L73.7467 223.181ZM87.2338 209.336L85.9286 207.881L85.9682 208.85L86.6569 209.672L87.2338 209.336ZM122.993 201.165L119.864 199.249L120.334 198.926L123.344 200.758C123.227 200.88 123.109 201.001 122.993 201.165ZM123.737 223.552L122.452 222.62C121.608 222 121.169 220.952 121.169 219.789V206.834C121.169 205.049 121.536 203.808 122.122 202.956C121.792 203.808 121.645 204.855 121.645 206.058L121.681 219.322C121.681 220.758 122.086 221.689 123.04 222.387L124.214 223.242L123.737 223.552H123.737ZM113.338 223.434C113.338 223.434 113.217 223.512 113.137 223.552H112.815V201.896C112.815 200.849 112.734 200.849 112.09 200.382L111.162 199.683L111.768 199.374C112.251 199.76 112.977 200.305 112.977 200.344C113.259 200.615 113.338 200.77 113.338 201.391V223.472V223.434ZM97.9568 196.687C97.6357 197.551 97.6758 198.377 98.0778 199.053C98.4415 199.653 99.0841 200.067 99.8506 200.256C97.4748 200.442 96.4297 198.678 97.9568 196.687ZM103.55 215.493C103.704 214.875 103.767 214.181 103.767 213.449V202.23C103.767 200.882 103.704 200.729 103.331 200.305H103.394C103.922 200.188 104.201 200.305 104.201 201.46V212.717C104.201 214.028 104.016 214.875 103.55 215.493ZM104.484 223.553C104.173 222.493 103.233 221.597 101.591 221.352C101.827 221.313 102.061 221.313 102.297 221.313C104.327 221.352 104.915 222.655 105.033 223.063L105.071 223.184L104.484 223.553ZM160.325 223.277L159.204 222.573C158.194 221.944 157.67 220.967 157.67 219.479V208.865C157.67 208.239 157.634 208.279 157.408 208.082C157.408 208.082 156.623 207.416 156.099 206.985L155.539 207.301L156.622 208.161C157.222 208.629 157.147 208.669 157.147 209.61V219.908C157.147 221.318 157.708 222.297 158.493 222.77L159.839 223.552L160.325 223.277ZM149.883 223.472V207.57L149.298 206.985L148.578 207.338L149.252 208.001V223.552H149.616C149.704 223.512 149.839 223.472 149.839 223.472H149.883ZM137.701 223.277L133.352 220.551C132.481 219.999 132.142 219.329 132.142 218.144V209.224L131.764 209.422L131.61 209.5V218.579C131.61 219.645 132.064 220.432 132.859 220.908L137.208 223.552L137.701 223.277ZM139.877 218.179V209.334C139.877 208.868 139.733 208.711 139.405 208.519L137.701 207.433V208.015L138.68 208.596C139.405 209.022 139.405 209.101 139.405 209.917L139.37 217.869L139.877 218.179ZM174.247 202.204V202.09C174.247 201.023 173.647 199.918 172.728 199.345C172.375 199.116 172.059 198.926 172.059 198.926L171.636 199.232L171.882 199.382C173.081 200.109 173.755 201.023 173.755 202.508L174.247 202.204ZM188.169 223.237L184.43 220.639C183.987 220.326 183.468 219.736 183.468 218.634V209.224L183.097 209.461L182.948 209.54V218.788C182.948 219.813 183.32 220.522 183.948 220.955L187.649 223.552L188.169 223.237ZM172.071 223.683L168.078 220.994C167.12 220.363 166.933 219.769 166.933 218.62V210.12L166.637 210.279L166.416 210.396V218.819C166.416 220.165 166.823 220.759 167.451 221.193L171.589 224L172.071 223.683ZM190.344 209.336L189.039 207.881L189.078 208.85L189.767 209.672L190.344 209.336ZM175.117 218.627V206.09L174.247 206.447V218.27L175.117 218.627Z" fill="#8F98A9" fill-opacity="0.55"/>
<path fill-rule="evenodd" clip-rule="evenodd" d="M79.0511 219.832L78.5977 218.896L77.4248 219.674C76.5542 218.581 75.1507 217.295 71.8168 217.295C68.2919 217.256 63.9704 220.14 62 222.637L62.3415 223.104C65.0307 221.271 67.799 220.455 70.2245 220.455C72.1953 220.455 73.8242 221.429 74.5055 222.871L79.0511 219.832ZM82.6917 198.462C82.0086 197.37 80.1901 195.344 76.5895 195.344C72.2706 195.306 68.4825 198.775 68.3302 202.986C68.2153 206.34 69.7698 210.667 69.6171 214.02C69.5427 215.152 69.3134 215.97 68.8605 216.593L69.3134 217.14L71.9673 215.152C73.2569 214.174 73.976 212.967 73.9377 210.863C73.8999 208.25 72.7244 204.234 72.7244 201.155C72.7244 198.502 73.7106 196.514 75.9464 196.514C77.4626 196.514 78.6752 198.112 78.8636 199.009C78.941 199.437 78.8636 199.632 78.485 199.905L77.4248 200.648V201.855L82.6921 198.461L82.6917 198.462ZM92.4545 208.835L87.3765 203.064L79.4548 207.819V208.911L81.085 207.977V218.778C81.085 219.4 81.313 219.791 81.691 220.065L85.8981 222.871L91.8489 219.321L91.356 218.23L88.2479 219.946L85.4443 217.956C85.1028 217.724 85.065 217.49 85.065 216.982V213.473L92.4545 208.835ZM88.475 209.692L85.065 211.875V206.182L85.3682 205.988L88.475 209.692ZM105.689 222.986C105.308 221.887 104.205 220.753 102.224 220.675C100.357 220.636 97.6919 221.381 95.4852 223.104L95.0649 222.555C96.6651 220.753 100.397 217.856 104.317 217.815C106.375 217.815 107.821 218.521 108.849 219.657L110.564 218.677L111.059 219.697L105.689 222.986ZM129.181 198.975C127.694 199.875 127.199 201.092 127.199 202.972V217.971C127.199 218.914 127.315 219.342 127.809 219.618L128.304 219.893L129.675 219.068L130.132 220.011L125.372 222.949L123.736 221.811C123.01 221.302 122.705 220.675 122.705 219.46V206.065C122.705 203.56 123.469 202.226 124.534 201.405L125.144 200.935L120.651 198.231L118.633 199.483V218.99C118.633 220.635 118.404 220.871 116.994 221.614C116.994 221.614 115.892 222.163 114.372 222.986H114.066V201.366C114.066 200.309 113.95 200.072 113.379 199.603L111.781 198.272L109.839 199.407V210.61C109.839 212.567 109.534 213.977 108.012 214.956L104.205 217.424L103.822 216.759C105.004 215.817 105.269 214.484 105.269 212.919V201.482C105.269 199.798 105.043 199.133 103.328 199.446C102.681 199.562 101.691 199.72 101.082 199.798C98.5681 200.151 97.5013 198.31 99.2155 195.999C99.2155 195.999 99.6349 195.411 100.7 194L101.54 194.589L100.929 195.49C100.13 196.667 100.777 197.293 102.073 196.821C102.681 196.586 103.861 196.117 104.699 195.763C108.314 194.315 109.648 196.704 109.839 198.114L114.333 195.334L118.213 198.388L123.01 195.334L126.705 197.489C127.96 198.231 128.57 197.918 129.446 197.447L130.17 197.056L130.74 198.037L129.181 198.975ZM146.35 217.886L146.009 217.033L144.685 217.73V207.221C144.685 206.681 144.497 206.253 143.967 205.941L139.085 202.956L131.175 207.686V208.812L132.804 207.842V218.119C132.804 219.048 133.029 219.399 133.599 219.747L138.404 222.657L146.35 217.886ZM165.11 220.097L164.732 219.205L163.331 220.021L162.842 219.709C162.312 219.399 162.197 219.009 162.197 218.079V206.95C162.197 206.058 162.008 205.672 161.477 205.283L158.563 203.033L154.06 205.672L151.677 203.033L146.909 206.02L147.553 206.794L149.179 205.788L150.352 207.145V222.581H150.655C152.547 221.724 153.153 221.454 153.153 221.454C154.061 221.065 154.326 220.756 154.326 219.671V206.794L155.879 205.864L157.695 207.339C158.185 207.764 158.261 208.113 158.261 208.771L158.299 219.321C158.299 220.483 158.64 221.143 159.395 221.609L160.986 222.581L165.11 220.097ZM140.711 219.516L140.485 219.555L137.381 217.692C136.853 217.382 136.737 217.033 136.737 216.334L136.777 206.135L137.002 206.057L139.993 207.842C140.597 208.192 140.711 208.502 140.711 209.16V219.516ZM175.606 219.929L175.378 219.968L172.681 218.162C172.151 217.811 171.961 217.535 171.961 216.832V206.833L175.34 204.713L175.606 204.871V219.929ZM181.227 218.321L180.886 217.419L179.518 218.162V201.539C179.518 199.108 178.455 197.541 176.708 196.443L175 195.344L169.643 198.558L170.707 199.069L172.456 198.089L173.592 198.755C174.808 199.461 175.606 200.874 175.606 202.324V202.95L166.416 208.439V209.499L167.972 208.636V218.596C167.972 219.456 168.2 219.811 168.731 220.163L173.289 223.104L181.227 218.321ZM196 208.989L190.872 203.186L182.935 207.968V209.066L184.568 208.127V218.988C184.568 219.614 184.796 220.007 185.175 220.282L189.392 223.104L195.353 219.535L194.899 218.438L191.784 220.163L188.973 218.162C188.593 217.889 188.556 217.693 188.556 217.183V213.654L196 208.989ZM191.974 209.852L188.556 212.047V206.322L188.898 206.127L191.974 209.852Z" fill="white"/>
<path fill-rule="evenodd" clip-rule="evenodd" d="M171.894 65.9148L156.11 56.5825L158.489 55.0063L173.669 64.0008C173.025 64.6113 172.431 65.2723 171.894 65.9773" fill="white" fill-opacity="0.5"/>
<path fill-rule="evenodd" clip-rule="evenodd" d="M175.657 174.987L169.175 170.446C164.921 167.432 162.693 162.328 162.693 156.686V93.5364C162.693 84.7795 164.556 78.7873 167.514 74.6341C165.76 79.4802 164.941 84.6109 165.097 89.7584L165.286 154.384C165.286 161.377 167.325 165.918 172.133 169.321L178.061 173.486L175.657 174.987Z" fill="white" fill-opacity="0.5"/>
<path fill-rule="evenodd" clip-rule="evenodd" d="M123.184 174.412C122.858 174.621 122.522 174.813 122.177 174.987H120.553V69.4801C120.553 64.3761 120.15 64.3761 116.89 62.0993L112.208 58.6966L115.267 57.183C117.709 59.0719 121.371 61.724 121.371 61.9117C122.794 63.2377 123.184 63.9883 123.184 67.0156V174.412Z" fill="white" fill-opacity="0.5"/>
<path fill-rule="evenodd" clip-rule="evenodd" d="M45.5878 44.0977C44.7755 45.9352 44.4103 47.937 44.5218 49.941C44.6334 51.9449 45.2185 53.8945 46.2297 55.6317C48.3158 58.6685 51.5139 60.7741 55.1409 61.4988C43.1586 62.412 37.8848 53.8178 45.5878 44.1102" fill="white" fill-opacity="0.5"/>
<path fill-rule="evenodd" clip-rule="evenodd" d="M73.8068 135.719C74.5913 132.442 74.9592 129.08 74.9019 125.711V71.1063C74.9019 64.5387 74.5872 63.7881 72.6992 61.724H73.0265C75.6822 61.1611 77.0919 61.724 77.0919 67.3534V122.196C77.0919 128.589 76.1605 132.717 73.8068 135.732" fill="white" fill-opacity="0.5"/>
<path fill-rule="evenodd" clip-rule="evenodd" d="M78.5269 175C76.9536 169.833 72.2336 165.468 63.9265 164.279C65.106 164.113 66.2976 164.046 67.4885 164.079C77.7339 164.267 80.6918 170.622 81.3337 172.611L81.5351 173.199L78.5269 175Z" fill="white" fill-opacity="0.5"/>
<path fill-rule="evenodd" clip-rule="evenodd" d="M84.606 172.235C82.6803 166.881 77.0541 161.352 67.1233 160.977C57.696 160.776 44.2536 164.417 33.1397 172.811L31 170.134C39.068 161.377 57.8974 147.241 77.6834 147.041C88.0547 147.041 95.3046 150.481 100.541 156.01L109.162 151.244L111.68 156.248L84.606 172.235Z" fill="url(#paint2_linear_1_109)"/>
<path fill-rule="evenodd" clip-rule="evenodd" d="M203.121 55.2439C195.569 59.6349 193.052 65.552 193.052 74.7217V147.816C193.052 152.407 193.643 154.496 196.135 155.835L198.653 157.174L205.563 153.158L207.866 157.749L183.851 172.06L175.594 166.518C171.931 164.016 170.396 160.989 170.396 155.072V89.7959C170.396 77.5864 174.247 71.0313 179.622 67.0907L182.706 64.7889L160.05 51.6161L149.905 57.7459V152.82C149.905 160.826 148.747 161.977 141.636 165.593C141.636 165.593 136.072 168.27 128.407 172.285H126.859V66.8905C126.859 61.749 126.28 60.6357 123.398 58.3088L115.342 51.8163L105.538 57.3456V111.938C105.538 121.471 104.002 128.339 96.3117 133.105L77.1172 145.139L75.1789 141.899C81.1449 137.308 82.4791 130.815 82.4791 123.134V67.466C82.4791 59.2596 81.3463 56.0195 72.6867 57.5457C69.4268 58.1087 64.43 58.8718 61.3589 59.2596C48.6717 60.9734 43.2972 52.0039 51.9442 40.7451C51.9442 40.7451 54.0587 37.8804 59.4331 31L63.6622 33.8772L60.5785 38.2682C56.5508 43.9977 59.8233 47.025 66.3557 44.7482C69.4268 43.6099 75.3803 41.3206 79.6093 39.5942C97.8472 32.5387 104.581 44.1853 105.538 51.0532L128.193 37.5051L147.791 52.3792L171.982 37.5051L190.622 48.0008C196.916 51.6161 200.037 50.0899 204.468 47.8006L208.118 45.8991L211 50.6779L203.121 55.2439Z" fill="url(#paint3_linear_1_109)"/>
</g>
<defs>
<linearGradient id="paint0_linear_1_109" x1="-3.5" y1="-2.86195e-06" x2="256" y2="256" gradientUnits="userSpaceOnUse">
<stop stop-color="white"/>
<stop offset="1" stop-color="#999999"/>
</linearGradient>
<linearGradient id="paint1_linear_1_109" x1="0" y1="0" x2="256" y2="256" gradientUnits="userSpaceOnUse">
<stop stop-color="white" stop-opacity="0.15"/>
<stop offset="1" stop-opacity="0"/>
</linearGradient>
<linearGradient id="paint2_linear_1_109" x1="71.3398" y1="147.041" x2="71.3398" y2="172.811" gradientUnits="userSpaceOnUse">
<stop stop-color="white"/>
<stop offset="1" stop-color="#EAEAEA"/>
</linearGradient>
<linearGradient id="paint3_linear_1_109" x1="129.361" y1="31" x2="129.361" y2="172.285" gradientUnits="userSpaceOnUse">
<stop stop-color="white"/>
<stop offset="1" stop-color="#EAEAEA"/>
</linearGradient>
<clipPath id="clip0_1_109">
<rect width="256" height="256" fill="white"/>
</clipPath>
</defs>
</svg>
