<svg width="256" height="256" viewBox="0 0 256 256" fill="none" xmlns="http://www.w3.org/2000/svg">
<rect width="256" height="256" fill="#BE2E0D"/>
<path d="M86.6655 102.83H86.6214V115.618C86.6214 118.131 86.6214 118.881 89.4436 118.881V119.454H82.5205V118.881C85.3426 118.881 85.3426 118.131 85.3426 115.618V103.403C85.3426 101.022 85.034 100.184 82.5205 100.184V99.6551H88.1207L95.3083 115.089L102.364 99.6551H108.008V100.184C105.186 100.184 105.186 100.934 105.186 103.447V115.618C105.186 118.131 105.186 118.881 108.008 118.881V119.454H99.5415V118.881C102.364 118.881 102.364 118.131 102.364 115.618V102.83H102.32L94.7351 119.454H94.2941L86.6655 102.83ZM109.507 111.561C109.507 107.151 112.55 103.271 117.224 103.271C121.942 103.271 124.985 107.151 124.985 111.561C124.985 115.971 121.942 119.851 117.224 119.851C112.55 119.851 109.507 115.971 109.507 111.561ZM122.295 111.561C122.295 108.033 121.148 104.153 117.224 104.153C113.299 104.153 112.153 107.945 112.153 111.517C112.153 115.089 113.299 118.925 117.224 118.925C121.193 118.925 122.295 115.089 122.295 111.517V111.561ZM129.791 116.412C129.791 118.44 129.791 119.057 131.996 119.057V119.498H126.484V119.057C128.689 119.057 128.689 118.44 128.689 116.412V105.74C127.851 104.638 127.19 104.065 125.602 104.065V103.624H129.879L139.492 115.441H139.536V106.622C139.536 104.638 139.536 104.021 137.288 104.021V103.58H142.8V104.021C140.595 104.021 140.595 104.638 140.595 106.666V119.675H140.154L129.747 106.975V116.412H129.791ZM145.842 106.71C145.842 104.682 145.842 104.065 143.637 104.065V103.624H149.634C151.839 103.624 154.397 103.712 156.249 104.947C158.454 106.402 159.424 108.915 159.424 111.473C159.424 115.838 156.602 119.498 150.869 119.498H143.505V119.057C145.754 119.057 145.86 118.44 145.842 116.412C145.873 113.999 145.847 116.05 145.842 106.71ZM148.091 118.308C148.929 118.484 149.767 118.616 150.604 118.616C154.661 118.616 156.866 115.397 156.866 111.561C156.866 107.636 154.661 104.506 150.472 104.506C149.666 104.514 148.865 104.633 148.091 104.858V118.264V118.308ZM165.377 110.811H168.551C170.448 110.811 171.197 110.591 171.33 108.43H171.77V113.986H171.33C171.109 111.87 170.448 111.649 168.551 111.649H165.377V117.382C165.377 118.396 165.641 118.616 166.655 118.616H169.918C172.035 118.616 172.785 117.646 174.019 115.53H174.46L173.137 119.498H160.879V119.057C163.084 119.057 163.084 118.44 163.084 116.412V106.71C163.084 104.682 163.084 104.065 160.879 104.065V103.624H173.005L173.226 107.151H172.785C172.344 104.682 171.638 104.506 169.389 104.506H165.377V110.767V110.811Z" fill="white"/>
<path d="M92.8832 101.772C92.8832 102.124 92.8832 102.389 93.1919 102.389H94.162C94.7352 102.389 95.0439 102.168 95.3525 101.375H95.4407L95.0439 102.698H91.6044V102.565C92.2217 102.565 92.2217 102.389 92.2217 101.772V98.7731C92.2217 98.1558 92.2217 97.9794 91.6044 97.9794V97.8471H93.6328V97.9794C92.8832 97.9794 92.8832 98.1999 92.8832 98.8613V101.772ZM96.9841 100.008H97.866C98.4393 100.008 98.6156 100.008 98.6597 99.3023H98.792V101.066H98.6597C98.6597 100.405 98.4393 100.361 97.9101 100.361H97.0282V102.124C97.0282 102.433 97.0723 102.477 97.381 102.477H98.2629C98.8802 102.477 99.1007 102.168 99.4535 101.551H99.5857L99.1889 102.742H95.7494V102.609C96.3668 102.609 96.3668 102.433 96.3668 101.816V98.7731C96.3668 98.1558 96.3668 97.9794 95.7494 97.9794V97.8471H99.1448L99.233 98.9054H99.1007C98.9684 98.1558 98.792 98.1117 98.1306 98.1117H96.9841V100.052V100.008ZM27.93 143.178C27.8859 143.53 27.4891 144.853 27.4891 145.25C27.4891 145.559 27.6654 146 28.0623 146C28.9883 146 30.7081 143.751 31.2813 143.089L31.9868 143.53C30.664 145.294 28.1946 148.469 25.8134 148.469C24.5787 148.469 24.0496 147.499 24.0496 146.397C24.0496 145.03 24.711 143.001 25.5929 140.4L25.5047 140.311C23.6527 143.31 20.1691 148.469 16.2446 148.469C13.3343 148.469 12.0996 145.25 12.0996 142.781C12.0996 136.343 19.1549 127.965 24.8433 127.965C26.4749 127.965 27.6654 128.802 28.5033 130.081L30.3994 123.423C31.0608 121.174 31.3695 120.336 31.3695 119.719C31.3695 118.66 30.2671 118.484 29.4734 118.484C29.0324 118.484 28.5915 118.572 28.1064 118.66V117.778L35.294 116.588H35.735L28.0182 143.178H27.93ZM24.6669 129.067C20.3896 129.067 15.7596 137.666 15.7596 142.384C15.7596 143.883 16.421 145.867 18.1848 145.867C21.8448 145.867 27.5332 136.475 27.5332 132.286C27.5332 130.522 26.4749 129.067 24.6669 129.067ZM39.2185 143.971C39.0863 144.412 38.9099 144.986 38.9099 145.427C38.9099 145.823 39.1304 146 39.5272 146C40.5855 146 42.3053 143.795 42.9226 142.913L43.6722 143.442C42.4816 145.294 39.7036 148.469 37.3665 148.469C36.0877 148.469 35.2499 147.72 35.2499 146.397C35.2499 145.691 35.7791 144.015 35.9555 143.31L38.3366 134.799C38.9981 132.551 39.3067 131.713 39.3067 131.095C39.3067 130.081 38.2043 129.861 37.4106 129.861C36.9697 129.861 36.5287 129.949 36.0877 130.081V129.199L43.1872 127.965H43.6281L39.1745 143.971H39.2185ZM43.3195 119.234C43.9042 119.234 44.465 119.466 44.8785 119.879C45.292 120.293 45.5243 120.854 45.5243 121.438C45.5243 122.023 45.292 122.584 44.8785 122.997C44.465 123.411 43.9042 123.643 43.3195 123.643C42.7347 123.643 42.1739 123.411 41.7604 122.997C41.347 122.584 41.1147 122.023 41.1147 121.438C41.1147 120.854 41.347 120.293 41.7604 119.879C42.1739 119.466 42.7347 119.234 43.3195 119.234ZM53.9025 132.991L54.0348 133.08C56.0191 130.522 58.6207 127.965 62.1484 127.965C65.0146 127.965 66.7344 130.699 66.7344 133.565C66.7344 139.385 61.2224 148.469 53.5938 148.469C52.2619 148.487 50.9555 148.103 49.8456 147.367L48.3905 152.526C48.17 153.276 47.729 154.51 47.729 155.26C47.729 156.759 49.7575 156.759 51.0803 156.759L50.8599 157.509H40.4973L40.7178 156.715C43.2313 156.715 43.9368 156.186 44.8628 153.099L50.1543 134.755C50.7717 132.506 51.0803 131.669 51.0803 131.051C51.0803 130.037 50.022 129.817 49.1842 129.817C48.7433 129.817 48.3023 129.905 47.8613 130.037V129.155L55.0049 127.965H55.4458L53.9466 132.991H53.9025ZM50.3307 145.647C50.8039 146.181 51.3891 146.604 52.0446 146.886C52.7001 147.168 53.4097 147.302 54.1229 147.279C58.312 147.279 63.0744 139.738 63.0744 133.653C63.0744 131.889 62.3689 129.905 60.2523 129.905C57.9593 129.905 54.167 132.418 51.8741 140.179L50.3307 145.647ZM71.7613 143.971C71.629 144.412 71.4526 144.986 71.4526 145.427C71.4526 145.823 71.6731 146 72.114 146C73.1282 146 74.848 143.795 75.4653 142.913L76.2591 143.442C75.0244 145.294 72.2904 148.469 69.9092 148.469C68.6746 148.469 67.7927 147.72 67.7927 146.397C67.7927 145.691 68.3659 144.015 68.5423 143.31L74.1865 123.423C74.8039 121.174 75.1126 120.336 75.1126 119.719C75.1126 118.66 74.0543 118.484 73.2164 118.484C72.7755 118.484 72.3345 118.572 71.8936 118.66V117.778L79.0371 116.588H79.478L71.7613 143.971ZM79.3458 141.546C79.3458 134.932 85.6074 127.965 92.354 127.965C96.4549 127.965 98.9684 131.095 98.9684 135.02C98.9684 141.546 93.1037 148.469 86.357 148.469C82.212 148.469 79.3458 145.691 79.3458 141.546ZM95.3085 133.256C95.3085 131.051 94.1179 129.067 91.6926 129.067C86.7539 129.067 83.0057 138.018 83.0057 143.001C83.0057 145.471 84.3286 147.411 86.8861 147.411C91.1193 147.411 95.3085 139.562 95.3085 133.3V133.256ZM106.95 137.666L107.038 137.754C108.669 134.579 112.594 127.965 116.739 127.965C118.238 127.965 119.252 129.111 119.252 130.566C119.252 131.536 118.9 132.947 118.635 133.873L117.224 138.636L117.312 138.724C119.032 135.549 123.265 127.965 127.454 127.965C128.998 127.965 130.012 129.199 130.012 130.61C130.012 132.374 129.703 133.256 127.895 139.385C127.146 141.722 126.131 144.941 126.131 145.338C126.131 145.647 126.396 146 126.749 146C127.631 146 129.395 143.795 129.924 143.045L130.629 143.442C129.439 145.427 126.705 148.469 124.588 148.469C124.336 148.482 124.084 148.441 123.848 148.351C123.612 148.26 123.398 148.121 123.219 147.942C123.041 147.763 122.901 147.549 122.811 147.313C122.72 147.078 122.679 146.825 122.692 146.573C122.692 145.603 123.221 143.707 124.72 138.636C126.176 133.609 126.484 132.551 126.484 131.713C126.484 131.051 126.22 130.61 125.426 130.61C122.604 130.61 117.268 139.694 115.769 144.324L114.578 147.94H111.315L114.931 135.152C115.152 134.27 115.681 132.639 115.681 131.757C115.681 131.184 115.504 130.61 114.534 130.61C112.197 130.61 106.729 138.239 104.701 145.603L104.084 147.94H100.776L104.48 134.799C105.098 132.551 105.406 131.713 105.406 131.095C105.406 130.081 104.348 129.861 103.51 129.861C103.069 129.861 102.628 129.949 102.187 130.081V129.199L109.375 127.965H109.816L106.95 137.666ZM149.238 143.751C149.105 144.324 148.885 145.03 148.885 145.603C148.885 145.912 149.061 146.264 149.414 146.264C150.428 146.264 151.795 144.28 152.589 143.266L153.294 143.795C151.972 145.691 149.767 148.469 147.209 148.469C146.063 148.469 145.313 147.852 145.313 146.705C145.313 145.691 145.93 142.825 146.195 142.296L146.107 142.208C144.123 144.853 141.168 148.469 137.464 148.469C134.73 148.469 133.451 145.691 133.451 143.398C133.451 136.034 140.639 127.965 145.798 127.965C147.782 127.965 149.017 129.155 149.414 130.963H149.502L150.252 128.538L153.691 127.965L149.238 143.751ZM145.798 129.067C141.918 129.067 137.067 137.445 137.067 142.604C137.067 144.06 137.905 145.867 139.625 145.867C142.359 145.867 148.576 139.959 148.576 132.639C148.576 130.743 147.959 129.067 145.798 129.067ZM164.936 128.538H168.463L168.067 129.949H164.627L161.011 142.384C160.791 143.178 160.262 144.809 160.262 145.647C160.262 145.956 160.394 146.397 160.835 146.397C162.202 146.397 163.922 143.839 164.539 142.913L165.333 143.442C164.098 145.294 161.364 148.469 158.983 148.469C157.748 148.469 156.866 147.72 156.866 146.397C156.866 145.691 157.307 143.971 157.439 143.31L161.232 129.949H157.925L158.145 129.067C161.849 128.185 163.437 126.201 165.774 122.497H166.7L164.98 128.538H164.936ZM173.799 143.971C173.667 144.412 173.49 144.986 173.49 145.427C173.49 145.823 173.711 146 174.108 146C175.166 146 176.886 143.795 177.503 142.913L178.297 143.442C177.062 145.294 174.328 148.469 171.947 148.469C170.712 148.469 169.83 147.72 169.83 146.397C169.83 145.691 170.36 144.015 170.58 143.31L172.961 134.799C173.579 132.551 173.887 131.713 173.887 131.095C173.887 130.081 172.829 129.861 171.991 129.861C171.55 129.861 171.109 129.949 170.668 130.081V129.199L177.812 127.965H178.253L173.843 143.971H173.799ZM177.9 119.234C178.485 119.234 179.046 119.466 179.459 119.879C179.872 120.293 180.105 120.854 180.105 121.438C180.105 122.023 179.872 122.584 179.459 122.997C179.046 123.411 178.485 123.643 177.9 123.643C177.315 123.643 176.754 123.411 176.341 122.997C175.927 122.584 175.695 122.023 175.695 121.438C175.695 120.854 175.927 120.293 176.341 119.879C176.754 119.466 177.315 119.234 177.9 119.234ZM194.7 152.526C194.48 153.276 194.083 154.51 194.083 155.26C194.083 156.759 196.067 156.759 196.993 156.759L196.773 157.553H186.366L186.587 156.759C189.585 156.759 190.291 156.23 191.217 153.143L194.612 141.414L194.524 141.326C192.76 144.015 189.409 148.469 185.529 148.469C182.618 148.469 181.384 145.25 181.384 142.781C181.384 136.343 188.439 127.965 194.083 127.965C195.759 127.965 197.082 129.023 197.655 131.184H197.743L198.405 128.538L201.8 127.965L194.745 152.526H194.7ZM196.817 132.242C196.817 130.566 195.582 129.067 193.951 129.067C189.674 129.067 185.043 137.666 185.043 142.384C185.043 143.883 185.705 145.867 187.469 145.867C190.776 145.867 196.817 138.107 196.817 132.198V132.242ZM219.659 141.105C219.394 142.031 218.6 144.545 218.6 145.338C218.6 145.691 218.689 146 219.174 146C220.056 146 220.805 145.25 222.26 143.089L222.966 143.53C221.819 145.427 219.438 148.469 217.057 148.469C215.999 148.469 215.249 147.896 215.249 146.705C215.249 144.941 215.911 142.428 217.454 137.886L217.366 137.842C215.47 140.973 210.928 148.469 206.562 148.469C205.019 148.469 204.137 147.323 204.137 145.823C204.137 144.28 204.798 141.943 205.239 140.355C207.224 133.432 207.665 132.33 207.665 131.139C207.665 130.831 207.532 130.478 207.091 130.478C205.945 130.478 204.798 132.374 204.093 133.168L203.387 132.727C204.534 130.875 207.136 127.965 209.428 127.965C210.619 127.965 211.325 128.714 211.325 129.861C211.325 130.875 211.148 131.625 209.12 138.9C208.37 141.458 207.532 143.53 207.532 144.853C207.532 145.515 207.973 145.867 208.547 145.867C210.795 145.867 216.925 139.694 219.438 130.522L219.967 128.538L223.539 127.965L219.659 141.105ZM242.412 143.31C239.766 145.956 236.327 148.469 232.402 148.469C227.111 148.469 225.964 143.619 225.964 141.855C225.964 135.24 232.535 127.965 239.281 127.965C241.398 127.965 244 128.67 244 131.228C244 136.034 236.856 138.989 229.933 139.694C229.845 140.223 229.757 140.841 229.757 141.458C229.757 144.236 232.05 146.176 234.695 146.176C237.341 146.176 239.414 144.633 241.971 142.648L242.412 143.31ZM240.825 131.184C240.825 129.861 239.943 129.067 238.62 129.067C234.299 129.067 230.859 134.711 230.154 138.548C237.87 137.666 240.825 133.565 240.825 131.184Z" fill="white"/>
</svg>
