<svg width="256" height="256" viewBox="0 0 256 256" fill="none" xmlns="http://www.w3.org/2000/svg">
<g clip-path="url(#clip0_26_1423)">
<rect width="256" height="256" fill="url(#paint0_linear_26_1423)"/>
<rect width="256" height="256" fill="url(#paint1_linear_26_1423)"/>
<path d="M244.656 132.802C243.763 131.477 242.69 130.443 241.439 129.699C239.443 128.506 237.246 127.725 235.17 126.704C233.995 126.126 232.733 125.527 231.797 124.574C230.652 123.416 230.498 120.702 232.122 119.869C234.084 118.861 236.43 120.13 238.05 121.245C240.05 122.622 241.712 124.379 243.059 126.399H243.986V119.743C242.623 119.396 241.242 119.125 239.849 118.931C238.274 118.718 236.686 118.615 235.097 118.623C233.306 118.623 231.563 118.948 229.87 119.601C228.2 120.236 226.731 121.307 225.618 122.704C224.48 124.123 223.912 125.931 223.912 128.127C223.912 130.03 224.331 131.606 225.174 132.854C226.011 134.102 227.007 135.08 228.165 135.79C230.015 136.923 232.033 137.735 234.007 138.612C235.485 139.269 236.986 140.269 237.751 141.744C238.52 143.221 238.486 145.975 236.593 146.581C234.494 147.253 231.955 146.107 230.28 144.877C228.114 143.283 226.703 141.026 225.34 138.769C225.315 138.722 225.276 138.684 225.242 138.641H224.246V146.192C225.737 146.602 227.339 146.94 229.054 147.201C230.849 147.468 232.662 147.6 234.476 147.594C236.75 147.594 238.755 147.23 240.49 146.505C242.225 145.778 243.576 144.68 244.546 143.204C245.516 141.73 246 139.915 246 137.752C246 135.774 245.555 134.123 244.656 132.803V132.802ZM62.0593 120.75C60.1958 119.519 57.8451 118.904 55.0113 118.904C51.9551 118.904 49.297 119.503 47.0408 120.694C44.7847 121.887 43.049 123.623 41.8403 125.896C40.6264 128.17 40.0234 130.892 40.0234 134.058C40.0234 136.708 40.4507 139.063 41.3093 141.132C42.1691 143.2 43.5188 144.832 45.365 146.026C47.2112 147.217 49.5672 147.816 52.4383 147.816C55.384 147.816 57.9942 147.209 60.2676 145.999C62.5424 144.791 64.3114 143.047 65.5799 140.768C66.8445 138.495 67.4834 135.811 67.4834 132.717C67.4834 130.144 67.0415 127.816 66.1656 125.726C65.2938 123.64 63.9228 121.977 62.0593 120.75ZM57.3965 144.683C57.2634 145.354 57.0238 145.82 56.6698 146.08C56.3144 146.341 55.8405 146.474 55.2429 146.474C54.2339 146.474 53.4898 146.009 53.0067 145.077C52.5195 144.145 52.1149 142.44 51.7768 139.96C51.444 137.482 50.8184 131.401 50.1861 124.725C50.0757 123.571 50.0836 122.656 50.2128 121.985C50.3405 121.315 50.5841 120.849 50.9382 120.588C51.2936 120.327 51.7674 120.199 52.3664 120.199C53.374 120.199 54.1181 120.665 54.6013 121.597C55.0845 122.529 55.4931 124.232 55.8325 126.712C56.1653 129.191 56.7896 135.276 57.4218 141.949C57.5323 143.097 57.5256 144.012 57.3965 144.683ZM95.521 142.155C94.8501 142.155 94.1793 141.979 93.937 141.624C93.6921 141.27 93.7866 139.843 93.7866 138.65V119.632H81.7085V120.179L82.3248 120.346C82.9184 120.496 83.3031 120.709 83.4695 120.987C83.6359 121.265 83.7224 121.799 83.7224 122.58V141.663C83.4917 141.837 83.2488 141.994 82.9956 142.134C82.4366 142.432 81.7471 142.582 80.9271 142.582C80.1445 142.582 79.6094 142.321 79.3325 141.8C79.0543 141.278 78.9132 140.385 78.9132 139.116V119.632H66.8365V120.179L67.4514 120.346C68.0464 120.496 68.4298 120.709 68.5961 120.987C68.7639 121.265 68.849 121.799 68.849 122.58V139.257C68.849 142.351 69.4347 144.568 70.61 145.911C71.7854 147.253 73.2855 147.924 75.109 147.924C76.8235 147.924 78.5512 147.253 80.2816 145.911C81.3544 145.082 82.5045 144.052 83.7384 142.826C83.8249 144.086 84.2096 145.202 84.8964 146.163C85.6791 147.262 86.8544 147.813 88.4184 147.813C89.9092 147.813 91.2815 147.394 92.5301 146.557C93.7773 145.718 95.0724 144.496 96.4194 142.894V142.043C96.2518 142.077 96.0831 142.105 95.9136 142.128C95.7646 142.146 95.6328 142.155 95.521 142.155ZM186.968 111.857C184.395 110.237 181.396 109.425 177.963 109.425C174.421 109.425 171.241 110.276 168.429 111.973C165.612 113.669 163.403 116.101 161.8 119.273C157.565 127.645 158.831 140.248 167.331 145.607C169.904 147.226 172.904 148.038 176.335 148.038C179.951 148.038 183.165 147.2 185.982 145.521C194.515 140.437 196.935 128.554 193.328 119.743C192.033 116.567 189.891 113.704 186.968 111.857ZM182.788 143.714C182.34 144.961 181.746 145.773 180.998 146.146C180.25 146.518 179.374 146.705 178.369 146.705C176.989 146.705 175.908 145.995 175.125 144.582C174.344 143.167 173.681 140.594 173.138 136.863C172.6 133.136 171.856 127.35 171.186 119.447C171.036 117.435 171.1 115.785 171.383 114.498C171.659 113.212 172.173 112.259 172.921 111.648C173.664 111.032 174.656 110.725 175.883 110.725C177.335 110.725 178.472 111.473 179.293 112.961C180.113 114.452 180.793 117.071 181.336 120.819C181.874 124.568 182.579 130.323 183.177 138.154C183.366 140.607 183.233 142.461 182.788 143.714Z" fill="#171717"/>
<path d="M41.4289 111.666L42.0438 111.443V110.84H33.0658V111.443L33.903 111.666C34.9839 111.965 35.7572 112.191 36.2231 113.234C36.689 114.281 36.9805 115.486 37.0909 117.034C37.2028 118.581 37.2573 121.397 37.2573 124.419V127.115L37.0736 132.316L20.2569 110.838H9.77344V111.441L10.3325 111.663C11.1152 111.963 11.6835 112.633 12.0389 113.676C12.393 114.718 12.6073 116.026 12.6845 117.59C12.7564 119.158 12.795 119.056 12.795 122.073V132.613C12.795 135.557 12.7484 139.305 12.6539 140.835C12.5607 142.365 12.3211 143.643 11.9271 144.664C11.5344 145.689 10.9102 145.907 10.0556 146.203L9.38477 146.424V147.027H18.3641V146.424L17.5815 146.202C16.5007 145.902 15.718 145.676 15.2308 144.634C14.7476 143.59 14.4495 142.295 14.339 140.748C14.2272 139.201 14.1713 135.407 14.1713 132.385V121.722L32.9886 147.313H38.6376V124.247C38.6376 121.265 38.6856 118.478 38.7801 116.947C38.8732 115.418 39.1128 114.229 39.5055 113.204C39.8915 112.179 40.5357 111.961 41.4289 111.666ZM140.255 140.266C139.361 140.754 138.323 141.27 137.58 141.496C136.831 141.719 135.788 141.834 134.447 141.834C132.284 141.834 130.391 140.8 128.771 138.732C127.669 137.326 126.942 135.271 126.592 132.569L140.488 130.539C140.973 126.325 140.459 123.325 138.951 121.534C137.443 119.744 135.195 118.851 132.212 118.851C129.229 118.851 126.608 119.503 124.352 120.807C122.096 122.112 120.352 123.987 119.125 126.427C117.895 128.872 117.278 131.732 117.278 135.013C117.278 137.624 117.762 139.915 118.732 141.894C119.702 143.868 121.091 145.39 122.898 146.45C124.707 147.515 126.838 148.044 129.301 148.044C131.502 148.044 133.523 147.587 135.37 146.673C137.215 145.757 138.99 143.685 140.255 142.082V140.268V140.266ZM126.335 128.295C126.335 125.313 126.565 122.465 127.014 121.534C127.464 120.602 128.057 120.137 128.806 120.137C129.587 120.137 130.163 120.547 130.54 121.368C130.913 122.188 131.203 125.611 131.203 127.548C131.203 128.851 131.054 129.718 130.754 130.15C130.455 130.576 129.878 130.869 129.018 131.018L126.467 131.484C126.382 130.496 126.335 129.437 126.335 128.295Z" fill="#171717"/>
<path d="M120.074 121.324C120.614 120.748 121.219 120.401 121.891 120.29L122.562 120.179V119.632H113.164V120.179L113.89 120.29C114.673 120.401 115.271 120.765 115.682 121.381C116.092 121.996 116.446 122.965 116.37 124.287C116.293 125.611 115.271 129.06 114.566 131.262L112.395 138.718L107.69 122.47C107.65 122.397 107.625 122.329 107.604 122.273C107.582 122.21 107.572 122.144 107.574 122.077C107.352 121.444 107.267 121.034 107.321 120.846C107.377 120.658 107.664 120.491 108.189 120.342L108.806 120.175V119.632H94.7695V120.179L95.3299 120.346C95.9235 120.533 96.3734 120.756 96.6716 121.016C96.9711 121.277 97.2306 121.764 97.4543 122.47L104.779 147.035H111.211L115.912 131.266C116.695 128.915 117.818 125.409 118.4 124.124C118.976 122.833 119.537 121.906 120.074 121.324ZM218.207 120.244C216.827 119.353 215.356 118.903 213.788 118.903C212.408 118.903 211.057 119.322 209.732 120.159C208.468 120.958 207.311 121.916 206.292 123.01V109.231L194.269 113.091V113.637L195.108 113.859C195.518 113.971 195.808 114.12 195.976 114.308C196.142 114.492 196.231 114.731 196.227 114.979V147.925L203.821 145.143C204.095 145.493 204.399 145.822 204.728 146.135C206.069 147.4 207.766 148.037 209.818 148.037C211.942 148.037 214.015 147.411 216.027 146.164C218.041 144.917 219.69 143.04 220.976 140.545C222.263 138.049 222.903 135.027 222.903 131.484C222.903 128.689 222.464 126.339 221.592 124.437C220.716 122.535 219.588 121.138 218.207 120.244ZM212.779 145.422C212.574 146.054 212.258 146.493 211.83 146.737C211.377 146.986 210.865 147.111 210.347 147.1C209.454 147.1 208.77 146.707 208.304 145.925C207.84 145.143 207.438 143.605 207.104 141.314C206.767 139.019 205.911 133.13 205.391 127.762C205.279 126.608 205.343 125.711 205.586 125.078C205.83 124.445 206.156 124.014 206.566 123.792C206.996 123.563 207.477 123.447 207.963 123.454C208.857 123.454 209.518 123.84 209.951 124.598C210.378 125.365 210.753 126.817 211.07 128.964C211.386 131.107 212.288 137.092 212.924 142.793C213.027 143.912 212.98 144.789 212.779 145.422ZM152.26 145.673C152.093 145.395 152.008 144.861 152.008 144.078V109.231L139.982 113.091V113.637L140.819 113.859C141.229 113.971 141.519 114.12 141.687 114.308C141.852 114.492 141.942 114.731 141.939 114.979V144.08C141.939 144.861 141.853 145.395 141.686 145.673C141.519 145.951 141.135 146.168 140.541 146.319L139.926 146.485V147.032H154.017V146.486L153.4 146.319C152.807 146.168 152.426 145.951 152.26 145.673ZM48.9901 114.956H48.4217C48.2673 115.453 48.0929 115.93 47.8999 116.217C47.7083 116.508 47.498 116.709 47.2757 116.824C47.0534 116.939 46.8098 116.999 46.5449 116.999H46.0924L46.9336 111.986C46.9775 111.739 47.0241 111.567 47.076 111.478C47.1051 111.431 47.1438 111.391 47.1894 111.36C47.235 111.329 47.2866 111.308 47.3409 111.298L47.5579 111.234L47.6231 110.867H44.507L44.4432 111.234L44.6268 111.277C44.7719 111.316 44.8571 111.375 44.8797 111.465C44.8997 111.554 44.8917 111.731 44.8451 111.99L44.1091 116.342C44.086 116.517 44.0385 116.688 43.968 116.85C43.94 116.898 43.9017 116.939 43.8558 116.97C43.81 117 43.7578 117.021 43.7031 117.029L43.4861 117.098L43.4209 117.465H48.5974L48.9901 114.956ZM51.1571 117.65C51.5963 117.65 52.0156 117.548 52.4176 117.344C52.8196 117.138 53.1829 116.852 53.5037 116.488L53.5796 115.984C53.3666 116.125 53.1404 116.233 52.9008 116.314C52.6612 116.394 52.4482 116.434 52.2645 116.434C52.0164 116.44 51.7747 116.355 51.5857 116.194C51.4007 116.032 51.3115 115.676 51.3115 115.121C51.3115 114.949 51.3195 114.758 51.3368 114.543C51.8026 114.57 52.2512 114.557 52.6652 114.493C53.1443 114.42 53.537 114.267 53.8458 114.031C54.152 113.795 54.3064 113.472 54.3064 113.057C54.3047 112.906 54.2711 112.757 54.2078 112.62C54.1445 112.483 54.0529 112.361 53.939 112.262C53.6954 112.03 53.2814 111.916 52.7038 111.916C52.0249 111.916 51.4313 112.09 50.9268 112.446C50.4217 112.8 50.0201 113.282 49.7634 113.843C49.4929 114.424 49.3543 115.057 49.3575 115.697C49.3575 116.376 49.5238 116.873 49.8633 117.184C50.2 117.497 50.6313 117.65 51.1571 117.65ZM51.3873 114.018C51.4293 113.622 51.5187 113.234 51.6536 112.86C51.7773 112.518 51.9437 112.351 52.1567 112.351C52.2499 112.351 52.3324 112.394 52.3923 112.484C52.4562 112.569 52.4855 112.728 52.4855 112.954C52.4855 113.262 52.4349 113.509 52.3324 113.698C52.2395 113.881 52.0784 114.021 51.8838 114.087C51.7203 114.136 51.5483 114.149 51.3794 114.125C51.3833 114.091 51.3833 114.059 51.3873 114.018Z" fill="#171717"/>
</g>
<defs>
<linearGradient id="paint0_linear_26_1423" x1="-3.5" y1="-2.86195e-06" x2="256" y2="256" gradientUnits="userSpaceOnUse">
<stop stop-color="white"/>
<stop offset="1" stop-color="#E0E0E0"/>
</linearGradient>
<linearGradient id="paint1_linear_26_1423" x1="0" y1="0" x2="256" y2="256" gradientUnits="userSpaceOnUse">
<stop stop-color="white" stop-opacity="0.15"/>
<stop offset="1" stop-opacity="0"/>
</linearGradient>
<clipPath id="clip0_26_1423">
<rect width="256" height="256" fill="white"/>
</clipPath>
</defs>
</svg>
