<svg width="256" height="256" viewBox="0 0 256 256" fill="none" xmlns="http://www.w3.org/2000/svg">
<g clip-path="url(#clip0_31_1534)">
<rect width="256" height="256" fill="#E41B2F"/>
<rect width="256" height="256" fill="url(#paint0_linear_31_1534)"/>
<path fill-rule="evenodd" clip-rule="evenodd" d="M243 143.791C242.693 143.848 242.103 143.97 242.091 143.972C241.249 144.13 240.429 144.162 239.613 144.162C236.788 144.162 235.787 142.713 235.787 138.624V125.718H242.961V118.276H235.787V107.779L225.192 111.34V118.276H218.971V121.983H224.298V121.985C224.66 121.985 225.018 122.342 225.021 122.701V139.394C225.021 146.787 226.865 151.71 236.632 151.71C238.68 151.71 240.264 151.482 241.853 151.26C241.853 151.26 242.538 151.167 243.001 151.105V143.816L243 143.791Z" fill="white"/>
<path fill-rule="evenodd" clip-rule="evenodd" d="M142.326 117.523C131.936 117.523 124.938 124.403 124.938 134.641C124.938 144.843 131.938 151.697 142.326 151.697C152.724 151.697 159.725 144.843 159.725 134.641C159.725 124.403 152.724 117.523 142.326 117.523ZM142.326 143.581C136.382 143.581 135.789 136.676 135.789 134.641C135.789 132.591 136.382 125.639 142.326 125.639C148.271 125.639 148.864 132.591 148.864 134.641C148.864 136.676 148.271 143.581 142.326 143.581Z" fill="white"/>
<path fill-rule="evenodd" clip-rule="evenodd" d="M170.446 115.524C173.826 115.524 176.576 112.775 176.576 109.394C176.576 106.014 173.826 103.264 170.446 103.264C167.065 103.264 164.315 106.014 164.315 109.394C164.315 112.775 167.065 115.524 170.446 115.524Z" fill="white"/>
<path fill-rule="evenodd" clip-rule="evenodd" d="M176.883 147.27C176.52 147.27 176.158 146.909 176.158 146.546V118.276L161.341 118.28V121.982H164.565C164.925 121.982 165.285 122.34 165.288 122.702V146.545L165.286 146.546C165.286 146.909 164.926 147.27 164.563 147.27H161.341V150.971H180.105V147.27H176.883Z" fill="white"/>
<path fill-rule="evenodd" clip-rule="evenodd" d="M217.17 146.547V130.652C217.17 124.312 214.184 117.537 205.55 117.537C201.015 117.537 197.603 119.352 195.407 122.936L195.105 123.428V118.986C195.105 118.629 194.755 118.287 194.401 118.276L181.073 118.274V121.982H184.297C184.649 121.982 185.001 122.324 185.02 122.67V150.971H196.018L196.024 135.866C196.024 129.248 198.025 126.669 201.905 126.669C202.616 126.663 203.96 126.845 204.969 128.14C205.89 129.323 206.337 131.378 206.337 134.422V150.971L221.117 150.972V147.27H217.87C217.518 147.257 217.17 146.903 217.17 146.547Z" fill="white"/>
<path fill-rule="evenodd" clip-rule="evenodd" d="M61.0087 117.564C50.7572 117.564 44.7227 125.135 44.7227 134.619C44.7227 144.857 51.8129 151.736 62.3846 151.736C66.6627 151.736 70.6297 150.688 73.7145 149.352C73.7145 149.352 73.8166 149.31 73.9009 149.274V141.282C73.7017 141.397 73.4522 141.527 73.4522 141.527C69.6913 143.529 65.64 143.951 64.0878 143.951C59.3317 143.951 56.2194 141.679 55.5848 138.386L55.5475 138.192C55.5475 138.192 76.0706 138.192 76.3898 138.192C76.3898 137.909 76.3898 135.85 76.3898 135.85C76.3898 124.229 70.4328 117.564 61.0087 117.564ZM55.3824 131.252L55.402 131.072C55.6367 128.865 56.9237 124.939 61.0661 124.939C65.0256 124.939 66.1737 128.106 66.4286 130.33L66.428 130.329C66.5148 130.897 66.1267 131.259 65.7024 131.252H55.3824Z" fill="white"/>
<path fill-rule="evenodd" clip-rule="evenodd" d="M105.66 108.25L89.0225 108.252V111.953H92.2447C92.6079 111.953 92.9674 112.313 92.9685 112.676V146.55C92.9655 146.912 92.6073 147.27 92.2447 147.27H89.0225V150.971H107.945V147.27H104.722C104.359 147.27 103.999 146.909 103.999 146.546L103.998 146.545V136.25H107.683C117.611 136.25 123.672 130.343 123.672 122.345C123.672 113.919 117.962 108.25 105.66 108.25ZM106.332 128.066H103.997V116.369H106.332C110.309 116.369 112.628 118.537 112.628 122.165C112.628 125.922 110.366 128.066 106.332 128.066Z" fill="white"/>
<path fill-rule="evenodd" clip-rule="evenodd" d="M40.0277 141.665H40.027C40.027 142.024 39.6713 142.381 39.3106 142.381V142.382L27.2943 142.383V113.725C27.2943 113.365 27.6519 113.008 28.012 113.008H31.2019V109.343L12.2891 109.341V113.006H15.4797C15.8335 113.006 16.1833 113.351 16.1955 113.704V146.608C16.1833 146.961 15.8335 147.306 15.4797 147.306V147.307H12.2891V150.971L43.6926 150.97V138.474H40.0277V141.665Z" fill="white"/>
</g>
<defs>
<linearGradient id="paint0_linear_31_1534" x1="0" y1="0" x2="256" y2="256" gradientUnits="userSpaceOnUse">
<stop stop-color="white" stop-opacity="0.15"/>
<stop offset="1" stop-opacity="0"/>
</linearGradient>
<clipPath id="clip0_31_1534">
<rect width="256" height="256" fill="white"/>
</clipPath>
</defs>
</svg>
