<svg width="256" height="256" viewBox="0 0 256 256" fill="none" xmlns="http://www.w3.org/2000/svg">
<g clip-path="url(#clip0_17_774)">
<rect width="256" height="256" fill="#1EA0E6"/>
<rect width="256" height="256" fill="url(#paint0_linear_17_774)"/>
<path d="M256 152H0V159H256V152Z" fill="white"/>
<path d="M256 153.667H0V159H256V153.667Z" fill="#F03333"/>
<path d="M46.6667 148.333H28V104.333H36V143H46.6667V148.333Z" fill="white"/>
<path d="M64.4 123.267C64.4 131.933 56.2667 135.8 52.8 136.067C53.2 141.133 55.4667 143.133 57.8667 143.133C58.8 143.133 59.4667 143.133 60.1333 143V148.2C59.4667 148.333 58.4 148.467 57.3333 148.467C52.1333 148.467 45.2 145.533 45.2 130.733C45.2 115.4 51.6 113.133 55.7333 113.133C59.4667 113.267 64.4 115.933 64.4 123.267ZM57.6 122.867C57.6 119.667 56.8 118.467 55.6 118.467C53.8667 118.467 52.4 120.467 52.4 129C52.4 129.667 52.4 130.2 52.5333 130.733C54.5333 130.467 57.6 127.533 57.6 122.867Z" fill="white"/>
<path d="M98.4 106.6C98.4 122.6 85.3333 128.2 81.3333 129V148.333H72V88.3333H79.8667C89.4667 88.3333 98.4 93 98.4 106.6ZM88.9333 106.6C88.9333 97.5333 85.3333 95.1333 81.3333 95.1333V121.4C84 121.133 88.9333 117.4 88.9333 106.6Z" fill="white"/>
<path d="M117.333 148.333H109.333V145.667L106.933 148.333C106.4 148.467 106.133 148.467 105.867 148.467C100.533 148.467 95.7333 143 95.7333 135.4C95.7333 123 106.133 118.6 109.467 118.067V117.267C109.467 115 108.133 113.933 105.867 113.933C103.733 113.933 102.4 114.2 100.533 114.6L100.667 108.467C100.667 108.467 102.667 107.8 106.4 107.8C112.8 107.8 117.467 110.6 117.467 119.4V148.333H117.333ZM109.333 139.933V124.467C108 124.6 103.867 128.067 103.867 135.533C103.867 140.333 105.467 142.2 106.933 142.2C108.133 142.2 109.333 140.867 109.333 139.933Z" fill="white"/>
<path d="M136 115C131.867 115 129.333 118.333 129.333 123V148.333H121.333V108.733L128 108.333V111.533C129.333 110.467 131.333 108.467 135.333 108.467H136V115Z" fill="white"/>
<path d="M138.667 104.333V96.3333H146.667V104.333H138.667ZM146.667 148.333V108.333H138.667V148.333H146.667Z" fill="white"/>
<path d="M169.2 136.867C169.2 143.8 163.2 148.467 156.133 148.467C153.067 148.467 150.533 148.067 148.4 147.133L151.733 141.133C152.933 141.667 154 141.8 155.333 141.8C158 141.8 160.133 140.067 160.133 137.667C160.133 134.867 159.067 132.867 156 129.267C150.667 124.2 149.333 121.8 149.333 117.667C149.333 112.067 154.4 107.667 160.8 107.667C163.733 107.667 165.733 108.2 167.467 108.867L164.4 114.467C163.6 114.067 162.667 113.933 161.2 113.933C159.333 113.933 157.733 115.267 157.733 117C157.733 118.6 158.4 120.067 161.867 123.267C166.8 127.933 169.2 131.267 169.2 136.867Z" fill="white"/>
<path d="M170.667 104.333V96.3333H178.667V104.333H170.667ZM178.667 148.333V108.333H170.667V148.333H178.667Z" fill="white"/>
<path d="M203.333 119.4C203.333 129.4 193.867 133.8 189.867 134.2C190.267 140.067 192.4 142.333 195.2 142.333C196.267 142.333 197.2 142.333 197.2 142.2V148.2C197.2 148.333 195.733 148.467 194.4 148.467C188.4 148.467 180.667 145.133 180.667 128.067C180.667 110.333 188.133 107.8 192.933 107.8C197.6 107.933 203.333 111 203.333 119.4ZM195.467 118.867C195.467 115.267 194.667 113.8 193.067 113.8C191.067 113.8 189.467 116.067 189.467 125.933C189.467 126.733 189.467 127.267 189.6 127.8C192 127.8 195.467 124.333 195.467 118.867Z" fill="white"/>
<path d="M228 148.333H220V119.667C220 116.867 218.667 114.467 216.667 114.467C214.667 114.467 213.333 116.867 213.333 119.667V148.333H205.333V108.333H212V110.333L214.933 107.933C215.333 107.8 215.6 107.8 216.4 107.8C223.6 107.8 228.133 112.2 228.133 121.667V148.333H228Z" fill="white"/>
</g>
<defs>
<linearGradient id="paint0_linear_17_774" x1="0" y1="0" x2="256" y2="256" gradientUnits="userSpaceOnUse">
<stop stop-color="white" stop-opacity="0.15"/>
<stop offset="1" stop-opacity="0"/>
</linearGradient>
<clipPath id="clip0_17_774">
<rect width="256" height="256" fill="white"/>
</clipPath>
</defs>
</svg>
