<svg width="256" height="256" viewBox="0 0 256 256" fill="none" xmlns="http://www.w3.org/2000/svg">
<g clip-path="url(#clip0_9_704)">
<rect width="256" height="256" fill="url(#paint0_linear_9_704)"/>
<rect width="256" height="256" fill="white"/>
<rect width="256" height="256" fill="url(#paint1_linear_9_704)"/>
<path d="M44.4316 200.376V222.946C44.4316 224.974 45.0731 225.885 47.7561 225.885H50.9639C52.3494 226.041 53.7479 225.739 54.9476 225.023C56.1472 224.307 57.0829 223.217 57.6129 221.918L58.7794 219.42L60.6457 219.949L59.246 228.353H33V226.473C37.5785 225.503 37.8118 225.356 37.8118 223.534V200.376C37.8118 198.496 37.5785 198.407 33 197.438V195.733H49.36V197.614C44.6357 198.525 44.3732 198.642 44.3732 200.553L44.4316 200.376ZM81.0301 210.456C81.0301 213.395 79.3095 216.951 67.9946 217.48C68.3154 222.094 70.6484 225.15 74.5852 225.15C76.8521 225.113 79.0121 224.173 80.5927 222.535L81.6133 223.769C80.6032 225.334 79.2262 226.625 77.6037 227.527C75.9813 228.429 74.1634 228.915 72.3106 228.941C70.8057 228.972 69.3113 228.683 67.9248 228.092C66.5384 227.502 65.2912 226.623 64.2647 225.514C63.2382 224.404 62.4554 223.089 61.9674 221.654C61.4795 220.219 61.2975 218.697 61.4331 217.186C61.4098 213.93 62.6668 210.798 64.9294 208.474C67.1919 206.15 70.2757 204.823 73.5063 204.784C78.8721 204.784 81.0301 208.076 81.0301 210.398V210.456ZM73.2146 206.812C69.6568 206.812 68.1113 210.662 67.9654 215.629C75.7226 214.453 76.0142 211.456 76.0142 209.751C76.04 209.358 75.9822 208.965 75.8448 208.596C75.7073 208.228 75.4934 207.894 75.2173 207.615C74.9412 207.337 74.6093 207.121 74.2438 206.983C73.8783 206.844 73.4876 206.786 73.098 206.812H73.2146ZM90.7119 228.941C85.0545 228.941 82.984 226.62 82.984 224.269C83.0146 223.786 83.1516 223.315 83.3849 222.892C83.6182 222.469 83.942 222.104 84.3329 221.822C84.7238 221.541 85.1719 221.351 85.6447 221.266C86.1175 221.18 86.6033 221.202 87.0667 221.33L87.7082 222.123C86.2501 224.68 87.3 227.002 91.0036 227.002C93.3657 227.002 95.0279 225.709 95.0279 223.74C95.0279 221.771 93.1032 220.507 90.187 219.331C86.046 217.656 83.5964 215.746 83.5964 211.896C83.6728 210.878 83.951 209.886 84.4145 208.978C84.878 208.07 85.5174 207.265 86.2949 206.61C87.0724 205.955 87.9723 205.464 88.9413 205.166C89.9103 204.867 90.9289 204.768 91.9367 204.873C97.3026 204.873 99.6939 207.429 99.6939 209.633C99.6838 210.145 99.5524 210.647 99.3105 211.096C99.0687 211.546 98.7234 211.931 98.3037 212.219C97.884 212.506 97.402 212.689 96.898 212.75C96.3941 212.812 95.8828 212.751 95.407 212.572L94.8821 211.779C96.5152 209.516 95.6987 206.871 91.9659 206.871C91.5268 206.839 91.0858 206.895 90.6684 207.037C90.2511 207.178 89.8657 207.401 89.5348 207.694C89.2038 207.986 88.9337 208.342 88.7403 208.741C88.5469 209.139 88.434 209.573 88.4081 210.016C88.4081 212.161 90.7119 213.189 93.3365 214.13C97.4484 215.57 100.802 217.48 100.802 221.712C100.802 225.944 97.8858 228.941 90.7411 228.941H90.7119ZM105.905 195.733H131.831L132.064 204.549H130.577L129.673 201.816C129.334 200.646 128.586 199.638 127.568 198.979C126.549 198.32 125.329 198.055 124.132 198.231H117.162V210.251H123.869C125.269 210.251 125.386 210.016 126.348 205.754H128.214V217.686H126.319C125.357 213.601 125.24 213.013 123.84 213.013H117.133V222.858C117.133 225.033 117.774 226.091 120.457 226.091H123.665C125.087 226.232 126.514 225.889 127.72 225.117C128.925 224.344 129.838 223.187 130.314 221.829L131.481 219.184L133.347 219.713L131.889 228.53H105.905V227.002C110.484 226.002 110.717 225.856 110.717 224.063V200.553C110.717 198.672 110.484 198.584 105.905 197.614V195.733ZM153.469 222.535L154.49 223.769C153.481 225.336 152.105 226.628 150.482 227.531C148.859 228.433 147.04 228.918 145.187 228.941C143.682 228.972 142.188 228.683 140.801 228.092C139.415 227.502 138.167 226.623 137.141 225.514C136.114 224.404 135.332 223.089 134.844 221.654C134.356 220.219 134.174 218.697 134.309 217.186C134.251 215.596 134.508 214.01 135.066 212.521C135.623 211.032 136.47 209.67 137.556 208.515C138.642 207.36 139.947 206.436 141.392 205.795C142.838 205.154 144.395 204.811 145.974 204.784C151.194 204.784 153.527 207.723 153.527 209.898C153.527 212.073 152.361 213.689 149.007 213.101L148.453 212.249C149.357 210.045 149.736 206.695 146.062 206.695C142.387 206.695 140.813 211.044 140.813 216.275C140.813 221.506 143.262 225.091 147.432 225.091C148.555 225.076 149.664 224.837 150.695 224.388C151.726 223.94 152.659 223.29 153.44 222.476L153.469 222.535ZM170.616 225.767V213.013C170.616 210.368 169.654 209.163 167.7 209.163C164.784 209.163 162.276 213.807 162.276 220.771V228.353H155.919V197.761C155.919 195.939 155.773 195.851 153.002 194.822V193H162.218C161.984 194.969 161.984 210.368 161.984 211.397C162.553 209.548 163.678 207.924 165.204 206.75C166.73 205.576 168.581 204.909 170.5 204.843C174.087 204.843 176.624 207.253 176.624 211.926V223.475C176.624 225.65 176.974 225.856 180.298 226.649V228.442C177.382 228.736 175.311 228.941 173.941 228.941C171.695 228.941 170.529 227.942 170.529 225.767H170.616ZM191.351 226.972C195.462 226.972 196.571 222.153 196.571 217.245C196.571 211.867 195.812 206.812 191.351 206.812C186.889 206.812 186.131 211.632 186.131 216.54C186.131 221.888 187.035 226.972 191.351 226.972ZM190.884 228.941C189.383 229.035 187.879 228.807 186.471 228.273C185.064 227.738 183.785 226.909 182.718 225.84C181.652 224.771 180.822 223.486 180.285 222.07C179.747 220.655 179.513 219.14 179.598 217.627C179.449 215.948 179.661 214.257 180.217 212.668C180.774 211.079 181.663 209.629 182.825 208.416C183.987 207.204 185.394 206.257 186.95 205.641C188.507 205.024 190.176 204.752 191.846 204.843C193.345 204.754 194.846 204.985 196.25 205.521C197.654 206.058 198.929 206.888 199.993 207.956C201.056 209.025 201.882 210.308 202.419 211.722C202.955 213.135 203.188 214.647 203.103 216.158C203.251 217.834 203.041 219.522 202.486 221.109C201.931 222.696 201.044 224.145 199.886 225.357C198.727 226.569 197.324 227.516 195.771 228.134C194.218 228.753 192.552 229.028 190.884 228.941ZM212.027 228.941C206.369 228.941 204.299 226.62 204.299 224.269C204.329 223.786 204.466 223.315 204.699 222.892C204.933 222.469 205.257 222.104 205.648 221.822C206.038 221.541 206.486 221.351 206.959 221.266C207.432 221.18 207.918 221.202 208.381 221.33L209.023 222.123C207.565 224.68 208.615 227.002 212.318 227.002C214.68 227.002 216.343 225.709 216.343 223.74C216.343 221.771 214.418 220.507 211.502 219.331C207.361 217.656 204.911 215.746 204.911 211.896C204.987 210.878 205.266 209.886 205.729 208.978C206.193 208.07 206.832 207.265 207.61 206.61C208.387 205.955 209.287 205.464 210.256 205.166C211.225 204.867 212.243 204.768 213.251 204.873C218.617 204.873 221.009 207.429 221.009 209.633C220.998 210.145 220.867 210.647 220.625 211.096C220.383 211.546 220.038 211.931 219.618 212.219C219.199 212.506 218.717 212.689 218.213 212.75C217.709 212.812 217.197 212.751 216.722 212.572L216.197 211.779C217.83 209.516 217.013 206.871 213.281 206.871C212.827 206.822 212.369 206.868 211.935 207.005C211.5 207.142 211.098 207.368 210.753 207.669C210.409 207.969 210.129 208.338 209.932 208.751C209.734 209.165 209.624 209.616 209.606 210.074C209.606 212.22 211.91 213.248 214.534 214.189C218.646 215.629 222 217.539 222 221.771C222 226.002 219.084 229 211.939 229L212.027 228.941Z" fill="#1D1D1B"/>
<path d="M55.2172 78.6648C51.9149 93.1541 52.9714 108.299 58.2534 122.187C63.5354 136.075 72.806 148.084 84.8948 156.698C96.9836 165.311 111.349 170.143 126.176 170.583C141.004 171.024 155.629 167.052 168.206 159.171C180.782 151.29 190.747 139.852 196.84 126.301C202.933 112.751 204.883 97.6953 202.443 83.0355C200.003 68.3756 193.282 54.7688 183.129 43.9329C172.976 33.097 159.847 25.5179 145.398 22.1524C135.771 19.8987 125.795 19.5744 116.043 21.1982C106.291 22.822 96.9558 26.3619 88.5745 31.6141C80.1931 36.8664 72.9311 43.7273 67.2064 51.8021C61.4816 59.8769 57.4071 69.0063 55.2172 78.6648Z" fill="#AE1A18"/>
<path d="M128.51 179C117.559 179.022 106.71 176.881 96.5847 172.7C86.4593 168.519 77.2556 162.38 69.4999 154.633C61.7442 146.886 55.5885 137.684 51.3847 127.552C47.1809 117.42 45.0115 106.557 45.0004 95.5849C44.9669 84.5919 47.1047 73.7009 51.2906 63.5393C55.4765 53.3778 61.6279 44.1464 69.3903 36.3771C77.1527 28.6078 86.3727 22.4541 96.5192 18.2705C106.666 14.0868 117.538 11.956 128.51 12.0007C150.599 12.0455 171.767 20.8742 187.362 36.5468C202.957 52.2195 211.705 73.454 211.682 95.5849C211.66 117.686 202.893 138.878 187.302 154.514C171.712 170.15 150.57 178.955 128.51 179ZM59.355 95.5849C59.3997 113.924 66.7081 131.495 79.6748 144.439C92.6415 157.383 110.206 164.64 128.51 164.618C142.12 164.578 155.414 160.505 166.718 152.913C178.023 145.321 186.834 134.548 192.042 121.951C197.251 109.353 198.623 95.4936 195.988 82.1161C193.352 68.7387 186.826 56.4411 177.231 46.771C170.867 40.3037 163.281 35.1703 154.916 31.6699C146.552 28.1695 137.575 26.3721 128.51 26.3826C119.433 26.3715 110.442 28.1532 102.052 31.626C93.6622 35.0988 86.038 40.1944 79.6152 46.6215C73.1924 53.0487 68.0971 60.6812 64.6207 69.0827C61.1443 77.4843 59.355 86.49 59.355 95.5849Z" fill="#AF1917"/>
<path d="M136.954 76.8036C136.363 76.8036 135.772 76.8036 134.252 77.3112C132.732 77.8188 130.874 77.9034 132.225 76.8036C133.598 75.8022 135.256 75.2685 136.954 75.2808C137.461 75.2808 138.389 76.0422 136.954 76.8036Z" fill="#AE1A18"/>
<path d="M148.606 74.4348C148.606 74.4348 141.936 72.066 146.58 66.9901C152.491 60.5605 147.424 53.7926 140.078 50.0702C132.219 47.4193 123.967 46.1319 115.675 46.2632C112.044 46.2632 69.3185 46.2632 69.3185 46.2632C69.3185 46.2632 66.9542 47.5322 71.2606 49.2242C73.2453 49.8101 75.1057 50.7564 76.7491 52.016C76.7491 52.016 75.567 52.6082 83.5886 55.9921L88.4861 57.5995C88.4861 57.5995 86.7129 59.4607 90.4282 61.1527C93.1611 62.2717 95.9865 63.1493 98.872 63.7753C98.872 63.7753 97.7743 66.2287 101.405 67.3285C105.036 68.4282 110.609 70.6278 110.609 70.6278C110.609 70.6278 109.427 72.489 111.96 73.5888C114.493 74.6886 120.404 76.5498 120.404 76.5498L148.606 74.4348Z" fill="white"/>
<path d="M179.511 81.0336L189.137 81.9642L191.755 84.7559L175.036 82.9794L179.511 81.0336Z" fill="white"/>
<path d="M86.2908 53.2849C86.2908 53.4195 86.3441 53.5487 86.4392 53.6439C86.5342 53.739 86.663 53.7925 86.7974 53.7925L123.275 56.0767C124.972 56.4137 126.547 57.2028 127.835 58.3609H95.1568C95.0508 58.3775 94.9528 58.4274 94.8769 58.5035C94.8011 58.5795 94.7512 58.6777 94.7346 58.7839C94.6902 58.861 94.6668 58.9486 94.6668 59.0377C94.6668 59.1268 94.6902 59.2143 94.7346 59.2915L130.368 61.7449L132.394 63.8598H103.179C103.044 63.8598 102.915 63.9133 102.82 64.0085C102.725 64.1037 102.672 64.2328 102.672 64.3674C102.672 64.5021 102.725 64.6312 102.82 64.7264C102.915 64.8216 103.044 64.875 103.179 64.875L135.012 67.0746H136.954C137.312 67.1804 137.693 67.1804 138.052 67.0746C138.643 66.6516 138.052 66.144 137.207 65.5518C135.168 63.2506 133.278 60.8204 131.55 58.2763C130.601 56.9246 129.384 55.7836 127.974 54.9248C126.565 54.0659 124.994 53.5077 123.359 53.2849H86.7974C86.7182 53.2473 86.6317 53.2278 86.5441 53.2278C86.4565 53.2278 86.3699 53.2473 86.2908 53.2849Z" fill="#AE1A18"/>
<path d="M124.626 84.9252C120.922 86.3009 117.513 88.3678 114.578 91.0163C109.427 95.8385 103.854 98.9687 103.854 99.4763C103.854 99.9839 107.991 99.4763 110.693 97.1075C114.168 93.5356 118.117 90.4611 122.43 87.9707C124.164 86.8382 126.002 85.875 127.919 85.0944C128.932 84.2484 127.919 83.91 124.626 85.0944" fill="#AE1A18"/>
<path d="M118.546 80.0184H116.858C116.267 80.0184 115.591 80.0184 115.084 82.5563C114.578 85.0943 114.578 78.0726 114.578 78.0726H117.28L118.546 80.0184Z" fill="#AE1A18"/>
<path d="M186.013 83.3177C184.915 82.1333 184.493 81.5411 183.817 81.4565L174.614 80.4413C174.614 80.4413 174.614 79.0877 175.289 79.0877H179.764C182.72 79.0877 182.804 79.0877 182.298 79.0877C181.79 78.3927 181.225 77.7418 180.609 77.1419H178.16C172.143 76.7633 166.108 76.7633 160.09 77.1419L117.871 80.7797C117.449 80.7797 108.245 76.5497 108.245 76.5497C108.245 76.5497 87.0507 86.3633 81.9844 87.8015C76.918 89.2396 78.1846 89.0705 78.7757 89.7472C81.3717 91.0967 84.3329 91.5714 87.2196 91.1008C95.6634 87.8015 91.5259 90.424 89.9216 91.1008C88.3173 91.7776 92.2015 92.116 93.3836 91.9468C94.5657 91.7776 104.445 87.0401 97.3522 91.9468C96.0856 92.7928 98.5344 92.7082 99.8009 92.8774C101.905 92.2319 103.941 91.3818 105.881 90.3394C109.089 89.2396 108.836 89.9164 107.569 90.3394C106.303 90.7624 103.938 92.4544 104.361 92.7928C104.783 93.1312 111.031 93.808 112.804 94.0618C114.578 94.3156 115.591 92.3698 115.591 92.3698C119.564 87.8431 124.311 84.0616 129.608 81.2027C130.283 81.2027 131.719 81.2027 131.55 81.2027L130.537 81.9641C124.463 85.2295 119.561 90.3177 116.52 96.5152C116.321 96.9993 116.287 97.5358 116.425 98.0409C116.562 98.546 116.863 98.9912 117.28 99.307C117.28 99.307 118.124 97.9534 118.124 97.9534C121.863 92.5558 126.77 88.0735 132.479 84.8405C135.772 83.1485 136.532 83.9945 137.123 84.2483C137.714 84.5021 137.123 84.2483 133.83 85.8557C133.127 86.1872 132.474 86.6142 131.888 87.1247C130.622 87.9806 129.409 88.913 128.257 89.9164C125.639 91.9468 119.391 98.3764 121.839 97.615C127.336 96.0892 133.025 95.3767 138.727 95.5C145.492 95.9723 152.194 97.1057 158.739 98.884C159.668 98.884 160.006 97.3612 160.006 97.3612C160.888 92.1707 163.403 87.3985 167.183 83.7407C168.787 82.2179 167.605 82.1333 167.605 82.1333C159.179 81.3677 150.7 81.3677 142.274 82.1333C138.558 82.1333 142.274 81.2027 142.274 81.2027C151.166 79.6127 160.248 79.3845 169.21 80.5259C171.405 80.5259 171.743 81.3719 170.307 82.8947C168.872 84.4175 167.436 85.7711 167.436 85.7711C164.426 89.5823 162.422 94.0921 161.61 98.884C160.766 101.591 160.597 101.253 159.837 101.084L155.024 99.8146C150.26 98.398 145.366 97.4627 140.416 97.0228C135.084 96.4625 129.694 97.007 124.58 98.6225C119.467 100.238 114.74 102.89 110.694 106.413C109.658 107.538 109.003 108.96 108.821 110.479C108.64 111.998 108.94 113.535 109.68 114.873C109.747 115.164 109.894 115.429 110.103 115.641C110.312 115.853 110.576 116.002 110.865 116.073C111.154 116.143 111.457 116.131 111.74 116.039C112.023 115.947 112.274 115.777 112.467 115.55C112.606 114.823 112.606 114.077 112.467 113.35C112.467 108.951 118.124 106.413 118.124 106.413C124.952 102.682 132.621 100.769 140.398 100.858C148.174 100.947 155.798 103.034 162.539 106.921C163.13 107.344 163.468 105.06 163.468 105.06C166.423 88.1399 173.009 83.7407 174.698 82.8101L183.142 83.6561C186.351 84.1637 186.942 84.5021 186.013 83.3177Z" fill="white"/>
<path d="M203.745 90.847C203.745 90.847 199.692 87.1247 196.568 84.0791C195.048 82.5563 193.697 81.0335 192.768 79.9337C190.639 76.8067 188.694 73.5582 186.942 70.2048C182.545 63.9891 176.825 58.8294 170.196 55.0986C163.566 51.3678 156.192 49.1591 148.606 48.632C145.779 48.3535 142.924 48.5537 140.163 49.2242C143.238 49.4358 146.29 49.917 149.282 50.6624C159.583 52.6927 170.223 57.4303 153.419 66.6516C149.113 69.0204 152.828 74.181 155.868 74.0964C158.908 74.0118 172.249 73.335 176.556 73.4196C180.862 73.5042 180.355 74.0964 182.213 76.0422L186.942 80.7797C188.957 82.608 191.133 84.2503 193.443 85.6865C196.821 87.9707 198.51 89.0705 199.185 89.4089C199.861 89.7473 200.79 90.847 199.945 90.847C197.757 90.1975 195.613 89.4063 193.528 88.4783C191.392 87.5763 189.19 86.8409 186.942 86.2787C182.742 85.3519 178.391 85.3519 174.191 86.2787C172.165 86.8709 170.983 89.5781 170.983 89.5781C169.486 91.9005 168.777 94.6442 168.96 97.4023C169.142 100.161 170.207 102.786 171.996 104.891C170.562 105.478 168.955 105.478 167.521 104.891C164.143 113.943 159.752 113.35 153.504 113.35C148.976 113.325 144.521 114.492 140.585 116.734C136.616 118.934 135.518 118.68 135.772 118.342C136.025 118.003 137.038 113.773 136.278 113.52C135.518 113.266 133.154 115.804 130.874 116.819C127.821 117.853 124.637 118.451 121.417 118.596C116.52 119.019 114.409 118.596 114.071 118.596C109.089 127.056 96.3389 129.594 89.4149 131.624C84.1797 133.147 76.3269 131.624 71.8516 134.754C50.4887 142.706 85.5307 163.179 100.73 168.594C102.925 169.186 113.48 170.201 115.591 170.709C138.98 176.208 169.716 164.448 186.351 149.474C176.153 147.881 166.249 144.773 156.966 140.253C150.633 136.531 151.9 136.869 154.095 133.231C156.29 129.594 158.232 128.578 160.512 128.494C163.383 128.774 166.215 129.37 168.956 130.27C171.49 130.941 174.104 131.254 176.724 131.201C178.242 131.312 179.766 131.312 181.284 131.201C184.831 130.186 184.071 128.832 184.24 127.817C184.408 126.802 184.24 125.448 184.662 124.01C185.235 122.212 185.941 120.458 186.773 118.765C186.752 118.323 186.568 117.904 186.255 117.591C185.943 117.278 185.525 117.093 185.084 117.073L181.706 116.565C180.524 116.565 175.627 114.366 177.569 114.45L182.804 114.958C184.112 115.242 185.465 115.242 186.773 114.958C186.773 114.958 187.955 114.366 188.208 113.773C188.461 113.181 188.208 111.997 188.208 111.151C188.208 110.305 188.208 109.459 188.884 109.121C189.559 108.782 188.884 109.121 192.261 108.528C195.639 107.936 196.568 106.244 196.399 105.567C196.23 104.891 194.625 102.268 194.625 102.268C192.916 99.7355 191.817 96.8392 191.417 93.808C191.417 92.7928 191.417 93.2158 191.417 93.2158C192.586 93.8491 193.888 94.197 195.217 94.231C197.791 94.4958 200.384 93.9644 202.647 92.7082C204.505 91.6084 204.505 91.27 203.745 90.847Z" fill="white"/>
<path d="M170.729 91.2701C171.45 90.5152 172.338 89.9401 173.321 89.5911C174.304 89.242 175.355 89.1288 176.39 89.2604C177.424 89.392 178.414 89.7649 179.278 90.349C180.143 90.9331 180.859 91.7122 181.369 92.6237C184.24 96.2615 185.422 99.1379 184.409 101.591C183.903 102.891 183.221 104.115 182.382 105.229C182.382 105.229 181.538 106.16 182.382 106.16C183.535 106.047 184.64 105.639 185.591 104.975C186.013 104.975 186.097 103.96 186.604 104.298C187.111 104.637 187.702 105.144 187.955 104.721C188.208 104.298 187.955 103.029 186.097 98.0381C184.24 93.0467 186.857 92.7929 188.124 92.3699C188.446 92.1854 188.804 92.0716 189.173 92.0362C189.543 92.0008 189.916 92.0446 190.267 92.1646C190.619 92.2846 190.94 92.4781 191.211 92.7323C191.482 92.9865 191.696 93.2955 191.839 93.6389L196.483 94.3157L189.981 87.1248L186.773 85.6866L175.036 84.9252L168.45 91.3547L170.729 91.2701Z" fill="#AE1A18"/>
<path d="M187.617 108.105C188.201 107.974 188.806 107.974 189.39 108.105C190.319 108.105 190.572 108.105 190.572 107.598C190.572 107.09 190.572 106.752 189.137 106.836C187.702 106.921 187.702 107.259 187.364 107.682C187.026 108.105 186.688 108.698 187.364 108.444" fill="#AE1A18"/>
<path d="M150.717 136.531C149.627 137.681 148.409 138.703 147.087 139.576C144.722 141.099 142.78 143.045 139.234 145.244C135.687 147.444 134.59 147.021 133.407 149.644C132.225 152.266 132.394 154.297 131.212 155.143C130.03 155.989 128.594 155.819 129.692 153.366C130.519 150.71 132.069 148.337 134.167 146.513C136.194 145.498 144.976 140.253 146.833 138.815C148.691 137.377 150.633 135.769 150.717 136.531Z" fill="#AE1A18"/>
</g>
<defs>
<linearGradient id="paint0_linear_9_704" x1="-3.5" y1="-2.86195e-06" x2="256" y2="256" gradientUnits="userSpaceOnUse">
<stop stop-color="white"/>
<stop offset="1" stop-color="#E0E0E0"/>
</linearGradient>
<linearGradient id="paint1_linear_9_704" x1="0" y1="0" x2="256" y2="256" gradientUnits="userSpaceOnUse">
<stop stop-color="white" stop-opacity="0.15"/>
<stop offset="1" stop-opacity="0"/>
</linearGradient>
<clipPath id="clip0_9_704">
<rect width="256" height="256" fill="white"/>
</clipPath>
</defs>
</svg>
