<svg width="256" height="256" viewBox="0 0 256 256" fill="none" xmlns="http://www.w3.org/2000/svg">
<rect width="256" height="256" fill="white"/>
<path d="M10.0039 127.962L128.002 85.2039L246 127.962L128.002 171.242L10.0039 127.962Z" fill="#E91845"/>
<path d="M198.626 151.213H206.202V155.219H198.626V151.213Z" stroke="#434242" stroke-width="0.11" stroke-miterlimit="3.864"/>
<path d="M199.585 107.846L196.885 105.581L192.009 104.014V112.113H189.222V110.719C189.222 105.146 185.477 103.404 180.862 104.014H180.514C176.769 104.014 172.328 105.93 172.328 111.416V112.113H169.019V95.5667H161.617V98.5276H158.394V96.5247L151.428 99.1372V104.101H149.512V107.41H146.116C144.635 104.623 141.5 103.84 138.714 103.84H138.452C137.059 103.84 135.492 104.101 134.185 104.798C130.179 102.272 127.741 104.71 126.522 107.236L126.435 107.149V104.362H116.681V134.928H108.844V147.991C108.844 150.255 105.622 150.342 105.622 147.991V129.529H115.549V111.59C115.549 106.017 111.108 104.188 107.276 104.188H106.319V102.359H106.231L111.892 94.9572H105.796L102.226 102.359V105.32C100.31 106.452 98.8294 108.368 98.8294 111.59V113.767H95.259V112.113C95.7815 102.62 87.5956 102.446 84.9831 107.933V94.9572H66.2602V148.601H58.5968V95.0442H49.9756V155.219H84.9831V152.781C86.6377 157.222 95.259 156.786 95.259 147.556V147.381H98.8294V147.904C97.2619 153.738 103.096 155.567 106.841 155.567C106.841 155.567 115.985 156.264 115.549 148.949V143.201H116.681V155.306H126.522V110.632H126.609C127.306 109.674 128.786 109.674 130.441 110.893V119.428H137.146V112.113C137.146 109.848 140.368 109.761 140.368 112.113V121.169C133.663 125.349 130.354 126.656 130.441 131.793V150.691C130.441 155.567 136.449 157.744 140.368 152.868V155.306H147.161V144.508H151.689V150.952C151.689 156.786 157.175 156.177 161.965 154.087V155.306H169.367V145.814H172.676V147.817C172.676 153.39 177.204 155.567 181.907 155.741C183.562 155.828 187.916 155.828 189.483 152.693V145.814H192.27V155.219H210.47V112.026C210.209 102.708 201.588 102.533 199.585 107.846Z" fill="#1B1B1F" stroke="#1B1B1F" stroke-width="0.11" stroke-miterlimit="3.864"/>
<path d="M46.9277 93.4768H54.5911V146.249H63.2994V152.868H46.9277V93.4768Z" fill="white" stroke="#1B1B1F" stroke-width="1.093" stroke-miterlimit="3.864"/>
<path d="M81.7608 105.32C83.7638 99.921 91.6883 100.182 91.6883 109.5V144.856C91.4271 154.696 82.98 155.219 81.7608 149.733V152.694H74.1846V93.4768H81.7608V105.32Z" fill="white" stroke="#1B1B1F" stroke-width="1.093" stroke-miterlimit="3.864" stroke-linecap="round" stroke-linejoin="round"/>
<path d="M84.6347 145.814C84.6347 148.078 81.6738 148.165 81.6738 145.814V109.239C81.6738 106.888 84.6347 106.975 84.6347 109.239V145.814Z" fill="#1B1B1F" stroke="#1B1B1F" stroke-width="0.11" stroke-miterlimit="3.864"/>
<path d="M105.1 132.664H111.805V145.465C111.805 151.039 107.364 153.129 103.532 153.129H103.271C99.5262 153.129 95.085 150.952 95.085 145.465V109.152C95.085 103.578 99.5262 101.662 103.271 101.662H103.532C107.364 101.662 111.805 103.578 111.805 109.152V127.178H101.877V145.814C101.877 148.165 105.1 148.078 105.1 145.814V132.664Z" fill="white" stroke="#1B1B1F" stroke-width="1.093" stroke-miterlimit="3.864"/>
<path d="M101.965 122.563V109.239C101.965 106.887 105.187 106.975 105.187 109.239V122.563H101.965Z" fill="#1B1B1F" stroke="#1B1B1F" stroke-width="0.11" stroke-miterlimit="3.864"/>
<path d="M101.354 99.2242H105.273L109.715 93.9991H103.88L101.354 99.2242Z" fill="white" stroke="#1B1B1F" stroke-width="1.093" stroke-miterlimit="3.864"/>
<path d="M122.516 108.194C123.909 105.755 125.477 107.149 127.741 109.413C129.918 111.677 134.794 105.668 130.614 102.62C126.434 99.6596 123.822 102.272 122.516 104.885L122.429 104.71V102.098H114.939V152.693H122.516V108.194Z" fill="white" stroke="#1B1B1F" stroke-width="1.093" stroke-miterlimit="3.864"/>
<path d="M126.347 145.117V129.181C126.26 123.956 129.569 122.65 136.275 118.47V108.978C136.362 106.452 133.053 106.713 133.053 108.978V116.815H126.347V108.803C126.347 103.23 130.789 101.401 134.533 101.401H134.794C138.626 101.401 143.067 103.317 143.067 108.803V152.693H136.275V150.255C132.356 155.132 126.434 153.564 126.347 148.078V145.117Z" fill="white" stroke="#1B1B1F" stroke-width="1.093" stroke-miterlimit="3.864"/>
<path d="M133.4 129.355C133.4 127.091 135.577 125.872 136.274 125.436V145.727C136.274 147.991 133.4 148.078 133.4 145.727V129.355Z" fill="#1B1B1F" stroke="#1B1B1F" stroke-width="0.11" stroke-miterlimit="3.864"/>
<path d="M154.04 107.758H155.955V102.098H154.04L154.127 94.3476L147.16 96.6988V102.098H145.244V107.758H147.16V148.862C147.16 154.261 153.082 153.39 156.217 151.91V147.294C154.91 147.294 154.214 145.988 154.214 143.985C154.04 142.679 154.04 122.301 154.04 107.758Z" fill="white" stroke="#1B1B1F" stroke-width="1.093" stroke-miterlimit="3.864"/>
<path d="M158.568 102.098H165.448V152.693H158.568V102.098ZM158.568 93.5637H165.883V99.8337H158.568V93.5637Z" fill="white" stroke="#1B1B1F" stroke-width="1.093" stroke-miterlimit="3.864"/>
<path d="M185.738 132.664V145.466C185.738 151.039 181.383 153.042 177.639 153.042H177.378C173.546 153.042 169.018 150.952 169.018 145.466V109.152C169.018 103.578 173.459 101.663 177.291 101.663H177.552C181.296 101.663 185.738 103.578 185.738 109.152V132.664Z" fill="white" stroke="#1B1B1F" stroke-width="1.093" stroke-miterlimit="3.864"/>
<path d="M178.946 145.64C178.946 147.904 175.724 147.991 175.724 145.64V109.065C175.724 106.713 178.946 106.8 178.946 109.065V145.64Z" fill="#1B1B1F" stroke="#1B1B1F" stroke-width="0.11" stroke-miterlimit="3.864"/>
<path d="M199.759 152.868V109.239C199.759 106.975 196.711 106.888 196.711 109.239V152.868H189.135V102.098H196.711V105.407C198.714 100.095 206.639 100.269 206.639 109.587V152.781L199.759 152.868Z" fill="white" stroke="#1B1B1F" stroke-width="1.093" stroke-miterlimit="3.864"/>
<path d="M63.2988 93.4768H70.4397V99.8339H63.2988V93.4768ZM63.2988 102.098H70.2655V152.868H63.2988V102.098Z" fill="white" stroke="#1B1B1F" stroke-width="1.093" stroke-miterlimit="3.864"/>
</svg>
