<svg width="256" height="256" viewBox="0 0 256 256" fill="none" xmlns="http://www.w3.org/2000/svg">
<g clip-path="url(#clip0_12_714)">
<rect width="256" height="256" fill="url(#paint0_linear_12_714)"/>
<rect width="256" height="256" fill="black"/>
<rect width="256" height="256" fill="url(#paint1_linear_12_714)"/>
<path fill-rule="evenodd" clip-rule="evenodd" d="M94.7344 187.241L96.0199 186.881C96.3864 186.741 96.7952 186.609 97.2462 186.486C97.6974 186.363 98.2047 186.201 98.7686 186V216.983L96.7303 217.595C96.0143 217.807 95.27 218.048 94.4976 218.316L91.8843 219.155L91.0385 219.415V215.917C90.1266 216.997 89.0195 217.899 87.774 218.576C86.7008 219.13 85.508 219.418 84.298 219.415C83.1926 219.423 82.1027 219.158 81.1266 218.643C80.1403 218.127 79.2756 217.41 78.5893 216.538C77.8286 215.581 77.255 214.492 76.8978 213.326C76.4862 212.023 76.2836 210.665 76.2973 209.3C76.2846 207.578 76.6061 205.869 77.2445 204.268C77.8262 202.761 78.6867 201.376 79.7818 200.183C80.8484 199.036 82.1332 198.11 83.5622 197.457C85.0448 196.783 86.6591 196.442 88.2899 196.459C88.7294 196.453 89.1683 196.49 89.6009 196.568C90.0995 196.667 90.589 196.807 91.064 196.987V188.239L91.4953 188.139C91.9633 188.027 92.5074 187.884 93.1275 187.711L94.7344 187.241ZM89.7023 216.362C90.21 216.033 90.666 215.632 91.0554 215.171L91.0809 199.361C91.0992 198.731 90.8789 198.118 90.4634 197.642C90.2545 197.422 90.0009 197.25 89.7194 197.136C89.4379 197.021 89.1351 196.968 88.8311 196.979C87.4272 196.979 86.3588 197.916 85.6259 199.789C84.8024 202.463 84.4421 205.256 84.5602 208.05C84.5602 211.103 84.8421 213.303 85.406 214.651C85.6198 215.254 86.0223 215.774 86.5547 216.134C87.0871 216.495 87.7217 216.677 88.366 216.656C88.8294 216.672 89.2893 216.571 89.7023 216.362ZM35.3566 208.109L28.1001 189.758H19V218.836H19.5751V191.645L31.1871 220.279L42.782 190.982V218.836H51.4339V189.758H42.6975L35.3566 208.109ZM75.055 202.02C75.0514 201.168 74.929 200.322 74.6914 199.504C74.4199 198.775 73.9518 198.133 73.3382 197.65C72.1856 196.811 70.7734 196.399 69.3462 196.484C68.6568 196.487 67.968 196.526 67.2827 196.602C66.1612 196.724 65.0485 196.915 63.9505 197.172C62.0087 197.626 60.1185 198.275 58.3095 199.109C54.9265 200.658 53.235 202.49 53.235 204.603C53.2147 205.009 53.2799 205.416 53.4268 205.795C53.5735 206.175 53.7985 206.521 54.0874 206.81C54.3762 207.098 54.7226 207.324 55.1045 207.473C55.4864 207.622 55.8952 207.69 56.3051 207.673C56.8771 207.688 57.4464 207.589 57.9785 207.38C58.5105 207.171 58.9943 206.857 59.4004 206.457C60.284 205.577 60.8235 204.415 60.9227 203.177L61.0919 201.852C61.1723 201.102 61.334 200.362 61.574 199.646C61.735 199.154 62.0272 198.713 62.4197 198.371C62.7299 198.131 63.0786 197.943 63.4516 197.818C63.8326 197.663 64.2405 197.583 64.6524 197.583C65.1693 197.569 65.6762 197.727 66.0927 198.03C66.5094 198.334 66.8121 198.767 66.9528 199.26C67.1627 200.31 67.262 201.378 67.2488 202.448V205.853C63.4066 206.874 59.6865 208.302 56.1528 210.114C54.1287 211.299 53.1166 212.814 53.1166 214.659C53.1011 215.333 53.2545 216 53.5629 216.6C53.8714 217.2 54.3254 217.715 54.8842 218.098C56.2049 219.027 57.7999 219.493 59.4174 219.424C61.2892 219.474 63.1315 218.953 64.6948 217.931C65.1722 217.637 65.6123 217.288 66.0056 216.891C66.4996 216.395 66.9467 215.856 67.3419 215.28C67.9057 218.076 69.366 219.474 71.7228 219.474C72.901 219.459 74.0594 219.172 75.1058 218.635L75.8246 218.249C75.8246 218.249 75.1058 217.41 75.1058 215.154L75.055 202.02ZM67.2827 213.309C67.3118 214.123 67.0646 214.924 66.5807 215.582C66.3476 215.861 66.0518 216.083 65.7169 216.228C65.3821 216.374 65.0176 216.44 64.6524 216.421C64.2714 216.433 63.8942 216.343 63.5608 216.16C63.2273 215.976 62.9499 215.707 62.758 215.381C62.264 214.459 62.0357 213.42 62.0984 212.378C62.0666 211.44 62.2337 210.506 62.5889 209.636C62.9117 208.895 63.4395 208.261 64.1112 207.807C64.4877 207.503 64.9101 207.26 65.3628 207.086C65.7745 206.929 66.4031 206.703 67.2488 206.406L67.2827 213.309ZM122.965 186C122.401 186.201 121.894 186.363 121.443 186.486C120.992 186.609 120.577 186.738 120.2 186.872L118.914 187.233L117.307 187.703C116.687 187.876 116.143 188.019 115.675 188.13L115.244 188.231V196.987C114.769 196.807 114.279 196.667 113.781 196.568C113.348 196.49 112.909 196.454 112.47 196.459C110.847 196.449 109.241 196.792 107.767 197.465C106.338 198.118 105.054 199.044 103.987 200.191C102.891 201.384 102.031 202.769 101.45 204.276C100.811 205.878 100.49 207.586 100.502 209.308C100.489 210.673 100.691 212.032 101.103 213.334C101.46 214.5 102.033 215.59 102.794 216.547C103.481 217.418 104.345 218.136 105.332 218.652C106.308 219.166 107.398 219.431 108.503 219.423C109.713 219.427 110.906 219.139 111.979 218.585C113.225 217.908 114.332 217.006 115.244 215.926V219.423L116.089 219.163C117.048 218.867 117.919 218.587 118.703 218.325C119.486 218.062 120.231 217.821 120.935 217.603L122.974 216.991L122.965 186ZM115.244 215.171C114.854 215.632 114.398 216.033 113.891 216.362C113.477 216.571 113.018 216.672 112.554 216.656C111.91 216.677 111.275 216.495 110.743 216.134C110.211 215.774 109.808 215.254 109.594 214.651C109.03 213.303 108.748 211.103 108.748 208.05C108.62 205.261 108.969 202.471 109.78 199.797C110.513 197.924 111.582 196.987 112.986 196.987C113.289 196.976 113.592 197.03 113.874 197.144C114.155 197.258 114.409 197.431 114.618 197.65C115.033 198.126 115.254 198.74 115.235 199.369L115.244 215.171ZM139.958 210.717C140.499 209.66 140.958 208.73 141.336 207.924L146.783 197.038H147.442L135.154 221.453C134.324 223.338 133.105 225.029 131.576 226.418C130.404 227.432 128.903 227.992 127.348 227.995C126.002 228.052 124.682 227.619 123.635 226.779C123.173 226.385 122.805 225.894 122.559 225.341C122.313 224.788 122.196 224.187 122.214 223.583C122.2 223.085 122.29 222.589 122.479 222.127C122.669 221.665 122.953 221.247 123.313 220.899C123.675 220.551 124.102 220.277 124.571 220.095C125.04 219.912 125.541 219.823 126.045 219.834C126.719 219.815 127.385 219.977 127.973 220.304C128.641 220.722 129.216 221.27 129.665 221.914C129.788 222.05 129.904 222.193 130.012 222.342C130.098 222.454 130.191 222.561 130.291 222.661C130.472 222.893 130.702 223.084 130.965 223.22C131.228 223.356 131.517 223.435 131.813 223.449C132.456 223.426 133.065 223.152 133.505 222.686C134.198 221.94 134.769 221.091 135.196 220.17L135.687 219.214L124.692 197.029H133.149L135.543 201.835C135.627 202.045 135.737 202.263 135.856 202.481L139.958 210.717ZM167.917 198.245C167.448 197.644 166.818 197.185 166.099 196.92C165.25 196.594 164.345 196.434 163.435 196.451C162.741 196.446 162.049 196.517 161.372 196.66L161.135 196.719C160.546 196.871 159.979 197.091 159.443 197.373C158.753 197.728 158.099 198.147 157.49 198.623C156.738 199.235 156.029 199.896 155.366 200.602V196.459L153.608 197.055L152.229 197.499C151.971 197.592 151.69 197.681 151.421 197.767C151.277 197.813 151.135 197.858 151.002 197.902L149.632 198.287L148.195 198.74L147.577 198.9V218.836H155.366V201.324C156.23 200.414 157.402 199.853 158.656 199.747C159.078 199.749 159.492 199.859 159.858 200.066C160.201 200.236 160.481 200.512 160.652 200.854C160.766 201.049 160.854 201.258 160.915 201.475C160.98 201.75 161.022 202.031 161.042 202.313C161.069 202.666 161.089 203.127 161.1 203.697V204.217V218.836H168.898V202.162C168.887 201.436 168.813 200.712 168.678 199.998C168.564 199.364 168.303 198.764 167.917 198.245ZM190.329 212.663C190.771 212.387 191.169 212.047 191.513 211.657C191.906 211.175 192.263 210.665 192.578 210.13L192.968 210.298C192.708 210.997 192.471 211.587 192.258 212.068C192.08 212.503 191.88 212.929 191.657 213.342C191.442 213.728 191.214 214.097 190.972 214.45L190.125 215.582C189.135 216.795 187.88 217.77 186.456 218.434C184.965 219.1 183.345 219.435 181.711 219.415C180.14 219.434 178.58 219.149 177.119 218.576C175.739 218.045 174.481 217.244 173.423 216.219C172.37 215.213 171.538 214.003 170.978 212.663C170.392 211.254 170.104 209.741 170.133 208.218C170.122 206.645 170.435 205.086 171.055 203.638C171.648 202.243 172.509 200.975 173.592 199.906C174.685 198.835 175.973 197.981 177.389 197.39C180.174 196.26 183.277 196.168 186.125 197.13C187.312 197.546 188.408 198.181 189.356 199C190.318 199.828 191.108 200.833 191.682 201.961C192.292 203.182 192.685 204.499 192.841 205.853H178.285C178.314 211.288 180.76 214.005 185.626 214.005C187.297 214.056 188.941 213.586 190.329 212.663ZM182.032 197.071C180.797 197.071 179.867 197.776 179.241 199.185C178.503 201.14 178.163 203.221 178.243 205.307H185.01V204.049V203.11C184.997 202.842 184.984 202.587 184.966 202.347C184.95 202.106 184.928 201.844 184.899 201.558C184.898 200.367 184.609 199.193 184.054 198.136C183.844 197.795 183.546 197.516 183.19 197.329C182.834 197.141 182.434 197.052 182.032 197.071ZM207.424 204.847L204.438 203.891C201.664 202.996 200.278 201.676 200.278 199.932C200.263 199.544 200.331 199.158 200.476 198.799C200.623 198.439 200.842 198.113 201.123 197.843C201.411 197.569 201.749 197.354 202.121 197.21C202.493 197.066 202.889 196.996 203.288 197.005C204.065 197.019 204.826 197.224 205.504 197.6C206.324 198.028 207.077 198.573 207.737 199.219C208.51 199.985 209.201 200.828 209.8 201.735C210.477 202.72 211.044 203.775 211.492 204.88H211.949L211.492 197.734C210.106 197.318 208.693 196.999 207.262 196.778C206.072 196.579 204.867 196.472 203.66 196.46C202.392 196.448 201.131 196.635 199.923 197.013C198.847 197.334 197.836 197.839 196.937 198.506C196.13 199.125 195.457 199.898 194.957 200.779C194.474 201.655 194.224 202.64 194.23 203.639C194.225 204.415 194.384 205.183 194.696 205.894C195.009 206.605 195.471 207.243 196.049 207.766C197.249 208.917 199.26 209.969 202.078 210.919L204.227 211.657C205.416 211.977 206.521 212.55 207.466 213.335C207.769 213.649 208.005 214.02 208.16 214.426C208.316 214.833 208.387 215.266 208.371 215.7C208.393 216.116 208.33 216.532 208.185 216.923C208.039 217.314 207.815 217.671 207.526 217.973C207.216 218.261 206.852 218.484 206.453 218.628C206.055 218.773 205.632 218.835 205.208 218.812C204.211 218.8 203.231 218.552 202.349 218.09C201.315 217.544 200.369 216.849 199.542 216.027C198.549 215.042 197.661 213.957 196.894 212.79C196.014 211.412 195.245 209.968 194.593 208.47H194.145L194.593 217.134L195.499 217.478C195.744 217.579 196.006 217.671 196.276 217.755C196.548 217.839 196.819 217.923 197.123 218.006L198.324 218.35C199.085 218.591 199.744 218.775 200.302 218.904C200.861 219.033 201.377 219.13 201.85 219.197C202.276 219.277 202.704 219.333 203.136 219.365C203.537 219.393 203.945 219.407 204.362 219.407C205.689 219.421 207.008 219.22 208.269 218.812C209.401 218.456 210.452 217.886 211.364 217.134C212.216 216.451 212.904 215.593 213.386 214.618C213.876 213.633 214.126 212.546 214.113 211.448C214.132 210.72 214.002 209.997 213.727 209.322C213.454 208.647 213.045 208.035 212.523 207.522C211.05 206.258 209.306 205.343 207.424 204.847ZM228.242 204.846C230.121 205.36 231.856 206.292 233.317 207.572C233.845 208.067 234.266 208.664 234.555 209.326C234.844 209.987 234.996 210.7 235 211.422C235.012 212.52 234.763 213.607 234.272 214.592C233.791 215.567 233.101 216.425 232.251 217.108C231.338 217.86 230.287 218.43 229.155 218.786C227.894 219.193 226.575 219.395 225.248 219.381C224.831 219.381 224.422 219.367 224.022 219.339C223.59 219.307 223.161 219.251 222.736 219.171C222.262 219.104 221.747 219.006 221.189 218.878C220.63 218.749 219.971 218.565 219.209 218.324L218.009 217.98C217.704 217.897 217.433 217.813 217.163 217.729C216.892 217.645 216.63 217.553 216.384 217.452L215.48 217.108L215.032 208.444H215.48C216.131 209.942 216.901 211.386 217.781 212.764C218.54 213.954 219.425 215.061 220.419 216.068C221.247 216.89 222.193 217.585 223.227 218.131C224.109 218.593 225.088 218.841 226.086 218.853C226.509 218.876 226.932 218.814 227.331 218.669C227.729 218.525 228.094 218.302 228.403 218.014C228.692 217.712 228.917 217.355 229.062 216.964C229.207 216.573 229.271 216.157 229.248 215.741C229.264 215.307 229.194 214.874 229.039 214.467C228.882 214.061 228.646 213.69 228.344 213.376C227.399 212.591 226.295 212.018 225.104 211.698L222.956 210.96C220.137 210.01 218.127 208.958 216.927 207.807C216.351 207.282 215.894 206.644 215.583 205.933C215.272 205.222 215.117 204.455 215.125 203.68C215.117 202.681 215.368 201.696 215.852 200.82C216.352 199.939 217.025 199.166 217.832 198.547C218.731 197.88 219.742 197.375 220.816 197.054C222.025 196.676 223.287 196.489 224.555 196.501C225.747 196.502 226.937 196.594 228.115 196.777C229.546 196.998 230.959 197.317 232.344 197.733L232.8 204.879H232.344C231.896 203.774 231.328 202.719 230.652 201.734C230.054 200.827 229.363 199.984 228.589 199.218C227.929 198.572 227.177 198.027 226.357 197.599C225.679 197.223 224.917 197.018 224.14 197.004C223.742 196.995 223.344 197.065 222.973 197.209C222.602 197.353 222.262 197.568 221.976 197.843C221.684 198.107 221.453 198.43 221.297 198.79C221.14 199.15 221.063 199.539 221.071 199.931C221.071 201.676 222.466 202.995 225.257 203.89L228.242 204.846Z" fill="white"/>
<path d="M93.158 30L123.585 107.563L154.367 30H191V152.902H154.721V35.1755L106.102 159L57.4115 37.9761V152.902H55V30H93.158Z" fill="white"/>
</g>
<defs>
<linearGradient id="paint0_linear_12_714" x1="-3.5" y1="-2.86195e-06" x2="256" y2="256" gradientUnits="userSpaceOnUse">
<stop stop-color="white"/>
<stop offset="1" stop-color="#999999"/>
</linearGradient>
<linearGradient id="paint1_linear_12_714" x1="0" y1="0" x2="256" y2="256" gradientUnits="userSpaceOnUse">
<stop stop-color="white" stop-opacity="0.15"/>
<stop offset="1" stop-opacity="0"/>
</linearGradient>
<clipPath id="clip0_12_714">
<rect width="256" height="256" fill="white"/>
</clipPath>
</defs>
</svg>
