<svg width="256" height="256" viewBox="0 0 256 256" fill="none" xmlns="http://www.w3.org/2000/svg">
<g clip-path="url(#clip0_26_1422)">
<rect width="256" height="256" fill="url(#paint0_linear_26_1422)"/>
<path d="M0 0H256V256H0V0Z" fill="#F1BB00"/>
<path d="M176.079 62.0351H183.17V58.1119H164.255L127.999 117.69L95.6791 58.1119H74.3991V62.0319H75.1863C83.0711 62.0319 83.0711 63.5999 83.0711 72.2207V124.739C83.0711 130.227 82.2807 131.795 78.3415 131.795H74.3991V135.715H98.8343V131.795H97.2567C90.1623 131.795 89.3751 127.875 89.3751 116.115V67.5199L125.631 134.15H136.665L131.148 123.962L164.255 69.8719V122.394C164.255 131.014 164.255 132.582 159.525 132.582H157.951V136.502H183.17V132.582H180.805C173.714 132.582 173.714 130.23 173.714 116.122V65.1711C172.924 62.8191 173.714 62.0351 176.079 62.0351ZM157.161 141.99V145.126H163.465C167.407 145.126 167.407 148.262 167.407 157.667V192.157L139.823 141.206H122.479V144.342H124.847C128.786 144.342 128.786 146.691 128.786 156.883V196.861C128.786 197.536 128.786 197.92 128.594 198.141C128.345 198.429 127.765 198.429 126.421 198.429H122.482V201.565H142.975V198.429H138.245C135.881 198.429 135.093 196.861 135.093 187.453V151.395L161.887 201.568H172.921V148.256C172.921 147.472 172.921 144.336 175.289 144.336H182.38V141.2H157.157L157.161 141.99ZM111.449 196.861C114.601 196.077 116.175 194.509 116.965 191.373V189.021H119.33L116.962 200.778H72.8311V197.642H79.9223C81.4999 197.642 81.4999 196.861 81.4999 195.293V149.824C81.4999 144.336 80.7127 143.552 77.5575 143.552H72.8311V140.416H116.969V151.392H113.813V150.608C113.813 149.824 113.026 148.256 112.239 147.472C110.661 145.904 108.297 145.904 100.415 145.904H90.9591L91.7463 146.688V167.853H105.145C108.217 167.853 109.58 167.853 110.181 167.178C110.661 166.64 110.661 165.674 110.661 163.933V161.584H113.813V179.613H110.661V177.261C110.661 174.125 110.661 173.341 105.145 173.341H91.7431V197.642L90.9559 198.426H98.8375C103.564 198.426 108.293 197.642 111.445 196.858" fill="#141414"/>
</g>
<defs>
<linearGradient id="paint0_linear_26_1422" x1="-3.5" y1="-2.86195e-06" x2="256" y2="256" gradientUnits="userSpaceOnUse">
<stop stop-color="white"/>
<stop offset="1" stop-color="#E0E0E0"/>
</linearGradient>
<clipPath id="clip0_26_1422">
<rect width="256" height="256" fill="white"/>
</clipPath>
</defs>
</svg>
