<svg width="256" height="256" viewBox="0 0 256 256" fill="none" xmlns="http://www.w3.org/2000/svg">
<g clip-path="url(#clip0_31_1506)">
<rect width="256" height="256" fill="#ED1C24"/>
<rect width="256" height="256" fill="url(#paint0_linear_31_1506)"/>
<path d="M24.0574 121.803C24.0574 122.098 24.0574 122.392 24.0574 122.602C24.0574 128.235 24.0574 133.952 24.0574 139.585C24.0574 140.089 24.143 140.384 24.6566 140.594C25.3413 140.888 26.0688 141.182 26.7536 141.477C27.1387 141.687 27.3527 141.855 27.3527 142.275C27.3527 142.57 27.3527 142.948 27.3527 143.284C22.9448 143.284 18.6224 143.284 14.1716 143.284C14.1716 142.906 14.1716 142.486 14.1716 142.107C14.1716 141.813 14.2572 141.603 14.5568 141.519C15.2415 141.224 16.0546 140.93 16.7822 140.72C17.2957 140.51 17.3813 140.342 17.3813 139.837C17.3813 134.204 17.3813 128.655 17.3813 123.023C17.3813 120.837 17.3813 118.693 17.3813 116.423C17.3813 116.044 17.2957 115.834 16.8678 115.624C15.7551 115.246 14.6424 114.741 13.6581 114.447C13.2729 114.363 13.1445 114.153 13.1445 113.774C13.1445 113.186 13.1445 112.681 13.1445 112.093C13.4441 112.093 13.6581 112.093 13.8293 112.093C17.3385 112.093 20.9762 112.093 24.4854 112.093C24.999 112.093 25.1701 112.303 25.3841 112.681C28.2942 119.407 31.2043 126.217 34.1144 132.943C34.2 133.153 34.2 133.237 34.414 133.532C35.3127 131.472 36.1258 129.496 37.0246 127.52C39.1215 122.56 41.3469 117.642 43.4439 112.597C43.5295 112.303 43.6579 112.009 44.1286 112.009C47.9375 112.009 51.6607 112.009 55.5123 112.009C55.5979 112.009 55.7263 112.009 55.8119 112.009C55.8119 112.681 55.8119 113.312 55.8119 113.985C55.8119 114.069 55.5979 114.279 55.4267 114.363C54.314 114.741 53.2013 115.246 52.0031 115.666C51.7035 115.75 51.6179 115.96 51.6179 116.255C51.6179 124.073 51.6179 131.976 51.6179 139.753C51.6179 140.131 51.7035 140.342 52.1314 140.426C52.8162 140.72 53.6293 141.098 54.3568 141.308C54.742 141.519 54.956 141.687 54.956 142.191C54.956 142.486 54.956 142.78 54.956 143.2C50.548 143.2 46.2256 143.2 41.7749 143.2C41.7749 142.696 41.7749 142.191 41.7749 141.813C41.7749 141.729 41.9889 141.519 42.16 141.435C42.9732 141.056 43.7863 140.762 44.5566 140.426C44.8562 140.342 44.9418 140.131 44.9418 139.837C44.9418 133.826 44.9418 127.773 44.9418 121.677C44.8562 121.972 44.7278 122.056 44.6422 122.266C41.5181 129.076 38.608 135.802 35.5695 142.528C35.4839 142.822 35.2699 143.326 35.0559 143.326C34.5424 143.41 33.9433 143.41 33.4297 143.326C33.3441 143.326 33.1301 143.032 33.1301 142.822C30.7336 137.399 28.4226 131.934 25.9833 126.512C25.2985 124.914 24.571 123.359 23.9719 121.761C24.0574 121.803 24.0574 121.803 24.0574 121.803ZM180.989 141.645C180.989 142.149 180.989 142.443 180.989 142.822C180.989 143.326 180.904 143.41 180.39 143.41C177.994 143.41 175.554 143.41 173.243 143.41C172.559 143.41 171.917 143.41 171.232 143.41C171.232 142.906 171.232 142.528 171.232 142.023C171.232 141.813 171.446 141.645 171.617 141.645C172.43 141.266 173.243 140.972 174.014 140.636C174.399 140.426 174.613 140.258 174.613 139.837C174.613 136.39 174.613 132.901 174.613 129.37C174.613 124.62 174.613 119.996 174.613 115.246C174.613 114.741 174.527 114.447 174.014 114.363C173.5 114.153 173.115 113.985 172.601 113.774C172.002 113.564 171.788 113.27 171.917 112.681C171.917 112.471 171.917 112.303 171.917 112.093C172.131 112.093 172.302 112.093 172.43 112.093C175.126 112.093 177.78 112.093 180.476 112.093C180.989 112.093 181.075 112.177 181.075 112.681C181.075 115.456 181.075 118.23 181.075 120.879C181.075 121.089 181.075 121.383 181.075 121.551C181.161 121.551 181.289 121.551 181.289 121.551C185.611 118.903 191.432 119.954 194.77 124.62C196.781 127.478 197.38 130.841 197.081 134.288C196.867 136.769 195.968 139.039 194.256 140.888C191.646 143.747 185.697 145.638 181.503 141.981C181.289 141.729 181.161 141.729 180.989 141.645ZM180.989 131.766C180.989 133.742 180.989 135.718 180.989 137.777C180.989 137.988 180.989 138.366 181.203 138.45C182.316 139.459 183.514 140.131 185.012 140.047C187.238 139.963 188.735 138.744 189.634 136.895C190.533 135.045 190.747 133.027 190.533 130.967C190.319 129.076 189.72 127.394 188.521 125.923C186.596 123.737 183.6 123.275 181.375 124.914C181.075 125.124 180.861 125.419 180.861 125.797C180.989 127.815 180.989 129.79 180.989 131.766ZM87.7375 143.326C87.7375 142.738 87.7375 142.233 87.7375 141.645C87.5235 141.729 87.4379 141.855 87.2239 141.939C83.2011 145.302 77.5521 143.705 74.9416 141.266C72.9302 139.375 71.9031 136.937 71.7319 134.246C71.4323 131.178 71.8175 128.235 73.4437 125.545C75.1555 122.77 77.4665 120.795 80.8046 120.29C83.2011 119.912 85.5121 120.206 87.6519 121.677C87.6519 121.467 87.6519 121.299 87.6519 121.089C87.6519 119.113 87.6519 117.137 87.6519 115.162C87.6519 114.783 87.5663 114.489 87.1384 114.363C86.5392 114.153 85.9401 113.859 85.3409 113.564C84.7418 113.27 85.0414 112.681 85.0414 112.261C85.0414 111.757 85.4265 111.967 85.7261 111.967C88.3366 111.967 90.9472 111.967 93.5577 111.967C93.7717 111.967 93.9429 111.967 94.2425 111.967C94.2425 112.261 94.2425 112.555 94.2425 112.85C94.2425 121.761 94.2425 130.631 94.2425 139.627C94.2425 140.216 94.4564 140.426 94.9272 140.636C95.6119 140.93 96.3394 141.224 97.1526 141.519C97.5377 141.603 97.7517 141.813 97.6661 142.317C97.6661 142.612 97.6661 142.99 97.6661 143.41C94.2852 143.326 91.0756 143.326 87.7375 143.326ZM87.7375 131.85C87.7375 129.875 87.7375 127.899 87.7375 126.007C87.7375 125.419 87.5235 124.998 87.0528 124.704C84.8274 123.317 82.1313 123.821 80.3338 125.713C77.8089 128.487 77.2953 133.91 79.3067 137.273C81.0186 140.342 84.6562 140.93 87.3523 138.66C87.6519 138.366 87.7375 138.156 87.7375 137.777C87.7375 135.802 87.7375 133.826 87.7375 131.85ZM152.231 132.439C152.231 136.096 152.231 139.669 152.231 143.326C144.485 143.326 136.739 143.326 128.907 143.326C128.907 142.822 128.907 142.443 128.907 141.939C128.907 141.729 129.121 141.645 129.292 141.561C130.105 141.182 130.918 140.888 131.689 140.468C131.903 140.384 132.074 140.173 132.074 139.963C132.074 131.976 132.074 123.947 132.074 115.96C132.074 115.96 132.074 115.96 132.074 115.876C130.876 115.372 129.677 114.867 128.351 114.489C127.965 114.405 127.837 114.195 127.837 113.816C127.837 113.228 127.837 112.724 127.837 112.135C133.058 112.135 138.279 112.135 143.629 112.135C143.629 112.808 143.629 113.522 143.629 114.195C143.629 114.279 143.329 114.489 143.244 114.489C142.131 114.867 141.018 115.372 139.906 115.792C139.606 115.876 139.392 116.002 139.392 116.381C139.392 123.905 139.392 131.514 139.392 138.996C139.392 139.081 139.392 139.207 139.392 139.291C139.606 139.291 139.777 139.291 139.991 139.291C142.302 139.291 144.613 139.291 147.052 139.291C147.438 139.291 147.652 139.207 147.866 138.786C148.679 136.895 149.577 135.045 150.39 133.153C150.604 132.649 150.904 132.481 151.503 132.481C151.717 132.439 151.931 132.439 152.231 132.439ZM242.145 132.439C236.923 132.439 231.874 132.439 226.738 132.439C226.738 134.414 227.337 136.096 228.664 137.567C230.162 139.165 232.173 139.837 234.313 140.131C236.239 140.342 238.036 140.131 239.834 139.753C239.919 139.753 240.048 139.753 240.219 139.669C240.304 140.342 240.433 141.056 240.433 141.729C240.433 141.939 240.133 142.107 239.919 142.233C237.694 143.41 235.297 143.831 232.772 143.705C229.648 143.621 226.952 142.612 224.513 140.636C221.817 138.45 220.49 135.591 220.49 132.144C220.49 129.58 220.875 127.1 222.416 124.914C224.727 121.341 228.15 119.87 232.387 120.08C236.795 120.29 240.219 123.149 241.46 127.605C241.845 128.992 241.845 130.379 242.059 131.766C242.145 131.976 242.145 132.144 242.145 132.439ZM226.738 129.412C229.862 129.412 232.986 129.412 236.11 129.412C236.11 127.941 235.896 126.638 235.212 125.461C234.398 123.989 233.2 123.191 231.574 123.191C229.862 123.191 228.535 123.863 227.637 125.377C226.952 126.427 226.738 127.815 226.738 129.412ZM207.822 120.122C207.822 121.131 207.822 122.014 207.822 123.107C208.036 122.896 208.122 122.812 208.336 122.728C210.262 121.047 212.444 120.08 215.055 120.08C217.28 120.08 219.078 121.761 219.292 123.821C219.506 126.007 218.093 127.857 215.868 128.361C214.071 128.74 211.332 127.689 211.032 125.082C209.62 125.082 208.336 126.259 207.994 127.941C207.908 128.529 207.78 129.034 207.78 129.622C207.78 132.985 207.78 136.348 207.78 139.795C207.78 140.3 207.865 140.468 208.379 140.678C209.063 140.972 209.791 141.266 210.604 141.561C211.118 141.771 211.203 141.939 211.203 142.443C211.203 142.738 211.203 143.032 211.203 143.452C206.881 143.452 202.558 143.452 198.236 143.452C198.236 142.948 198.236 142.57 198.236 142.149C198.236 141.939 198.45 141.771 198.621 141.645C199.434 141.266 200.247 140.972 201.018 140.636C201.317 140.552 201.403 140.342 201.403 139.963C201.403 135.003 201.403 130.001 201.403 125.04C201.403 124.662 201.317 124.536 200.889 124.368C200.29 124.157 199.691 123.863 199.092 123.569C198.407 123.275 198.792 122.686 198.792 122.266C198.792 122.182 199.092 121.888 199.306 121.888C201.917 121.299 204.527 120.795 207.138 120.206C207.437 120.122 207.651 120.122 207.822 120.122ZM168.193 143.326C163.786 143.326 159.549 143.326 155.098 143.326C155.098 142.822 155.098 142.443 155.098 142.023C155.098 141.813 155.312 141.645 155.483 141.645C156.296 141.266 157.109 140.972 158.008 140.552C158.308 140.468 158.393 140.258 158.393 139.963C158.393 135.003 158.393 130.001 158.393 125.04C158.393 124.746 158.308 124.536 158.008 124.452C157.409 124.242 156.81 123.947 156.211 123.653C155.526 123.359 155.911 122.77 155.826 122.35C155.74 121.972 156.125 121.972 156.339 121.845C158.95 121.341 161.689 120.753 164.299 120.248C164.513 120.248 164.599 120.248 164.813 120.248C164.813 120.542 164.813 120.837 164.813 121.047C164.813 127.268 164.813 133.49 164.813 139.627C164.813 140.216 165.027 140.51 165.497 140.72C166.182 140.93 166.824 141.308 167.509 141.519C167.894 141.729 168.108 141.897 168.108 142.401C168.193 142.654 168.193 142.948 168.193 143.326ZM67.6235 120.122C67.6235 120.416 67.6235 120.71 67.6235 120.921C67.6235 127.142 67.6235 133.364 67.6235 139.585C67.6235 140.089 67.8375 140.384 68.2226 140.594C68.9074 140.888 69.6349 141.182 70.3196 141.477C70.8332 141.687 70.9188 141.855 70.9188 142.359C70.9188 142.654 70.9188 142.948 70.9188 143.368C70.6192 143.368 70.5336 143.368 70.3196 143.368C66.3824 143.368 62.488 143.368 58.5508 143.368C58.0373 143.368 57.8661 143.284 57.8661 142.696C57.9517 141.519 57.7805 141.813 58.7648 141.308C59.4495 141.014 60.0915 140.72 60.7762 140.426C61.0758 140.342 61.1613 140.131 61.1613 139.837C61.1613 134.877 61.1613 129.875 61.1613 124.914C61.1613 124.62 61.0758 124.41 60.7762 124.326C60.177 124.115 59.5779 123.821 58.9788 123.527C58.294 123.233 58.6792 122.644 58.5936 122.224C58.508 121.845 58.8932 121.845 59.1071 121.719C61.8033 121.215 64.4566 120.626 67.1527 120.122C67.2383 120.122 67.3239 120.122 67.6235 120.122ZM110.376 120.122C110.376 120.416 110.376 120.626 110.376 120.921C110.376 127.142 110.376 133.448 110.376 139.711C110.376 140.089 110.462 140.384 110.89 140.51C111.703 140.804 112.388 141.182 113.201 141.393C113.715 141.603 113.8 141.771 113.8 142.275C113.8 142.57 113.8 142.864 113.8 143.284C109.478 143.284 105.155 143.284 100.705 143.284C100.705 142.78 100.705 142.401 100.705 141.981C100.705 141.771 100.919 141.603 101.09 141.603C101.903 141.224 102.716 140.93 103.486 140.51C103.786 140.426 104 140.216 104 139.837C104 134.877 104 129.875 104 124.914C104 124.536 103.914 124.41 103.486 124.242C102.887 124.031 102.374 123.737 101.774 123.569C101.09 123.275 101.475 122.686 101.389 122.266C101.304 121.888 101.689 121.888 101.988 121.888C104.599 121.383 107.21 120.795 109.948 120.29C109.948 120.206 110.162 120.206 110.376 120.122ZM107.252 111C109.264 111 110.89 112.597 110.89 114.573C110.89 116.549 109.264 118.146 107.252 118.146C105.241 118.146 103.615 116.549 103.615 114.573C103.615 112.597 105.241 111 107.252 111ZM68.0087 114.573C68.0087 116.549 66.3824 118.146 64.371 118.146C62.3596 118.146 60.7334 116.549 60.7334 114.573C60.7334 112.597 62.3596 111 64.371 111C66.4252 111 68.0087 112.597 68.0087 114.573ZM161.646 111C163.657 111 165.283 112.471 165.283 114.573C165.283 116.549 163.657 118.146 161.646 118.146C159.634 118.146 158.008 116.549 158.008 114.573C158.136 112.597 159.634 111 161.646 111Z" fill="white"/>
</g>
<defs>
<linearGradient id="paint0_linear_31_1506" x1="0" y1="0" x2="256" y2="256" gradientUnits="userSpaceOnUse">
<stop stop-color="white" stop-opacity="0.15"/>
<stop offset="1" stop-opacity="0"/>
</linearGradient>
<clipPath id="clip0_31_1506">
<rect width="256" height="256" fill="white"/>
</clipPath>
</defs>
</svg>
