<svg width="256" height="256" viewBox="0 0 256 256" fill="none" xmlns="http://www.w3.org/2000/svg">
<rect width="256" height="256" fill="white"/>
<path d="M166.523 20.9225H236.955V70.2664H166.523V20.9225Z" fill="#E0000E"/>
<path d="M166.622 91.4282H237V237.135H166.622V91.4282Z" fill="#E0000E"/>
<path d="M143.076 19.2117V41.644C131.387 41.644 112.898 44.2892 112.898 61.3645V90.0591H144.479V114.152H112.898V237.235H86.0322V64.3185C86.0322 37.0273 109.481 19.211 121.936 19.211L143.076 19.2117Z" fill="#E0000E"/>
<path d="M19.0039 90.0528H32.4744V117.513C46.4686 94.5921 59.115 89.6037 72.6613 89.6037V99.7797C53.5859 100.378 32.4744 122.082 32.4744 143.401V237.155H19.0039V90.0528Z" fill="#E0000E"/>
</svg>
