<svg width="256" height="256" viewBox="0 0 256 256" fill="none" xmlns="http://www.w3.org/2000/svg">
<rect width="256" height="256" fill="#004296"/>
<path d="M116.719 147.444C115.678 146.478 114.524 145.928 112.998 145.928L82.9677 145.931H82.9459L82.9248 145.935C82.0208 146.17 80.9079 145.489 79.9922 144.937C79.2247 144.276 78.885 143.357 78.885 142.152V122.818L112.968 122.82C114.084 122.82 115.369 122.668 116.554 121.573C117.531 120.536 118.024 119.375 118.024 117.887C118.024 116.475 117.525 115.228 116.464 114.24C115.478 113.179 114.231 112.681 112.818 112.681H78.8855L78.8861 105.676C78.8861 104.292 78.328 103.068 77.3683 102.092C76.4047 101.042 75.1699 100.551 73.7551 100.551C72.3432 100.551 71.0972 101.048 70.035 102.111C68.9728 103.098 68.4766 104.344 68.4766 105.831V146.494C68.4766 153.018 71.604 156.156 78.1041 156.156L113.148 156.152C114.533 156.152 115.685 155.594 116.734 154.634C117.712 153.67 118.278 152.435 118.278 151.095C118.278 149.635 117.795 148.595 116.719 147.444Z" fill="#F1EFFA"/>
<path d="M145.35 112.708C144.113 112.708 142.772 112.858 141.689 113.924C140.712 114.887 140.22 116.122 140.22 117.536C140.22 118.948 140.718 120.195 141.779 121.256C142.767 122.244 144.014 122.816 145.426 122.816L146.201 122.819H165.01C166.244 122.819 167.183 123.151 167.931 123.899C168.605 124.573 169.01 125.5 169.01 126.708L169.038 142.16C169.038 143.362 168.698 144.28 167.932 144.94C167.157 145.608 166.128 145.936 164.962 145.936H140.083C138.816 145.936 137.775 145.608 137.002 144.94C136.235 144.28 135.895 143.364 135.895 142.159L135.866 105.59C135.866 104.28 135.308 103.054 134.348 102.005C133.384 101.026 132.15 100.46 130.735 100.46C129.323 100.46 128.077 101.032 127.015 102.093C125.953 103.082 125.456 104.327 125.456 105.74V146.422C125.456 152.798 128.754 156.158 135.302 156.158L169.499 156.166C175.974 156.166 179.346 152.968 179.346 146.475V122.225C179.346 115.948 176.21 112.836 169.695 112.72L145.35 112.708Z" fill="#F1EFFA"/>
<path d="M238.455 121.615C239.433 120.652 240 119.418 240 118.003C240 116.59 239.428 115.344 238.441 114.283C237.285 113.201 236.039 112.692 234.72 112.692L196.456 112.695C190.162 112.842 186.864 116.001 187.037 122.2L186.775 151.408C186.775 152.724 187.34 153.954 188.317 154.931C189.293 155.908 190.518 156.474 191.832 156.474C193.317 156.474 194.558 155.908 195.535 154.931C196.678 153.929 197.106 152.7 197.106 151.406L197.297 125.346C197.297 123.651 198.009 122.833 199.575 122.833L234.799 122.831C236.034 122.832 237.3 122.681 238.455 121.615Z" fill="#F1EFFA"/>
<path d="M60.2612 114.137C59.3059 113.18 58.0767 112.708 56.5411 112.708C46.8412 112.698 37.0655 112.731 27.3662 112.693C26.6115 112.681 26.1503 112.4 25.7013 111.78C24.7556 110.403 22.7254 109.927 21.1535 109.927C19.5918 109.927 18.172 110.553 17.1054 111.667C16.0705 112.75 15.8895 113.943 15.8895 115.336L15.875 151.126C15.875 152.438 16.3729 153.671 17.4346 154.658C18.4951 155.792 19.7405 156.217 21.1535 156.217C22.5666 156.217 23.8003 155.805 24.7634 154.843C25.7994 153.733 26.2845 152.647 26.2845 151.16V126.761C26.2845 125.603 26.6421 124.541 27.3912 123.896C28.1554 123.163 29.1095 122.835 30.3572 122.826H56.6909C58.231 122.826 59.4201 122.386 60.2768 121.469C61.3284 120.506 61.8207 119.271 61.8207 117.857C61.8207 116.443 61.3228 115.199 60.2612 114.137Z" fill="#F1EFFA"/>
<path d="M227.318 137.089V137.086C227.318 135.53 226.709 134.102 225.647 133.101C224.462 132.051 223.142 131.56 221.412 131.56H211.443C209.861 131.56 208.54 132.051 207.354 133.101C206.149 134.102 205.538 135.53 205.538 137.086V137.089C205.538 138.645 206.147 139.931 207.354 140.925C208.54 141.902 209.861 142.468 211.443 142.468H221.412C223.142 142.468 224.462 141.902 225.647 140.925C226.707 139.931 227.318 138.645 227.318 137.089Z" fill="#F1EFFA"/>
</svg>
