<svg width="256" height="256" viewBox="0 0 256 256" fill="none" xmlns="http://www.w3.org/2000/svg">
<g clip-path="url(#clip0_26_1424)">
<rect width="256" height="256" fill="url(#paint0_linear_26_1424)"/>
<rect width="256" height="256" fill="url(#paint1_linear_26_1424)"/>
<path d="M241.216 100.262H104.826C102.745 100.262 101.042 101.965 101.042 104.046V153.229C101.042 155.31 102.745 157.013 104.826 157.013H241.216C243.297 157.013 245 155.31 245 153.229V104.046C245 101.965 243.297 100.262 241.216 100.262Z" fill="url(#paint2_linear_26_1424)"/>
<path opacity="0.35" d="M103.738 128.401C103.738 128.401 103.88 128.401 104.117 128.401C115.325 128.023 242.162 123.577 242.162 123.577C243.58 123.53 245 122.489 245 120.692V104.046C245 101.965 243.297 100.262 241.216 100.262H104.826C102.745 100.262 101.042 101.965 101.042 104.046V131.38C101.042 131.049 101.09 128.685 103.738 128.401Z" fill="url(#paint3_linear_26_1424)"/>
<path fill-rule="evenodd" clip-rule="evenodd" d="M46.2316 139.562C46.2316 142.163 45.1912 143.676 40.0836 143.676C39.4216 143.676 38.8067 143.629 38.2392 143.534V108.917C38.2392 106.268 39.1378 103.525 44.2927 103.525C44.9547 103.525 45.6169 103.573 46.2316 103.715V139.562ZM67.0873 152.946C67.7495 153.277 69.121 153.702 70.8707 153.75C73.8501 153.797 75.4581 152.662 76.6403 150.013L92.5305 114.639C91.8684 114.308 90.4023 113.882 89.2201 113.882C87.1864 113.835 84.4436 114.261 82.6937 118.422L77.5389 130.529L67.4657 114.119C66.8037 113.93 65.1956 113.646 64.0607 113.646C60.4666 113.646 58.4802 114.97 56.4467 117.193L46.61 127.881L54.5077 140.271C55.9737 142.541 57.8654 143.676 60.9868 143.676C63.0203 143.676 64.7227 143.203 65.5267 142.825L56.021 128.59L62.7365 121.449L73.8028 138.758L67.0873 152.946ZM26.038 143.44C32.5169 142.73 35.6855 139.184 35.6855 134.312C35.6855 130.103 33.0844 126.698 27.1256 125.705L21.2614 124.618C19.3698 124.287 18.1875 123.861 18.1875 122.773C18.1875 121.733 19.4171 120.929 22.3964 120.929C24.1035 120.929 25.6709 121.022 27.0095 121.102C28.0073 121.161 28.878 121.213 29.5848 121.213C31.7603 121.213 33.9829 120.314 33.9829 116.058C33.9829 115.49 33.8884 114.923 33.7938 114.403C30.5779 113.977 24.7138 113.409 19.9373 113.93C13.6001 114.592 10.3843 118.422 10.3843 122.962C10.3843 126.698 13.1272 130.245 18.2347 131.191L24.3827 132.373C26.6527 132.846 27.7877 133.319 27.7877 134.549C27.7877 135.448 26.8891 136.441 24.0043 136.441C22.6222 136.441 20.9954 136.338 19.4397 136.239C18.0145 136.149 16.6491 136.062 15.5864 136.062C13.411 136.062 11.1409 137.008 11.1409 141.264C11.1409 141.785 11.2355 142.447 11.3301 142.967C14.546 143.345 21.356 143.96 26.038 143.44Z" fill="#1C1C1C"/>
<path opacity="0.25" fill-rule="evenodd" clip-rule="evenodd" d="M44.2927 103.525C39.1378 103.525 38.2865 106.268 38.2865 108.917V132.657C38.2865 131.711 39.0432 130.718 40.2255 130.671C40.6326 130.648 41.3967 130.626 42.1609 130.603C42.9944 130.578 43.828 130.554 44.1981 130.529C45.002 130.482 46.1843 129.962 46.2316 128.496V103.715C45.6169 103.62 44.9547 103.525 44.2927 103.525ZM67.4657 114.119L77.3025 130.103C76.9241 129.583 76.4512 129.347 76.0256 129.347C75.8774 129.347 74.1944 129.411 72.5862 129.473L72.5829 129.473L72.5813 129.473H72.5787C71.1103 129.529 69.7066 129.583 69.5939 129.583C69.3101 129.583 68.0804 129.583 67.2766 128.496L62.7365 121.402L56.021 128.543L57.7709 131.191C57.2979 130.576 56.5412 130.056 55.3117 130.103C55.133 130.103 53.9846 130.146 52.772 130.19C51.4164 130.24 49.9808 130.293 49.7312 130.293C48.407 130.34 47.745 129.583 47.4139 129.11L46.61 127.881L56.4467 117.193C58.4802 114.97 60.4666 113.646 64.0607 113.646C65.1956 113.646 66.8037 113.93 67.4657 114.119ZM86.702 127.617L86.7135 127.597L92.5305 114.639C91.8684 114.261 90.4023 113.882 89.2674 113.882C87.2337 113.835 84.4909 114.261 82.741 118.422L77.7501 130.193C77.7351 130.226 77.7281 130.245 77.7281 130.245L77.7501 130.193C77.8379 130.001 78.1973 129.34 79.0049 129.3C79.0049 129.3 83.9234 129.11 84.3016 129.11C85.8781 129.064 86.4999 127.972 86.702 127.617ZM21.2141 124.523L27.0784 125.611C33.0844 126.698 35.6855 130.103 35.7328 134.312C35.7328 134.608 35.7328 134.866 35.6992 135.12C35.7728 132.933 34.3195 130.863 31.8076 130.955C31.3429 130.974 30.2042 131.009 28.9727 131.047C27.1965 131.102 25.2272 131.163 24.8083 131.191C22.5383 131.286 19.5589 131.097 18.2347 130.86C16.6268 130.576 15.0662 130.151 13.5055 129.158C11.4247 127.55 10.3843 125.28 10.3843 122.962C10.3843 118.422 13.6001 114.592 19.89 113.835C24.7138 113.315 30.5307 113.93 33.7466 114.308C33.8884 114.876 33.9357 115.396 33.9357 115.963C33.9357 120.219 31.713 121.118 29.5375 121.118C28.8274 121.118 27.9433 121.066 26.9335 121.006C25.5897 120.927 24.0234 120.834 22.3492 120.834C19.3698 120.834 18.1402 121.686 18.1402 122.679C18.1402 123.766 19.3225 124.192 21.2141 124.523ZM35.6992 135.12C35.6951 135.15 35.6905 135.181 35.6855 135.211V135.258V135.353C35.692 135.275 35.6965 135.197 35.6992 135.12Z" fill="url(#paint4_linear_26_1424)"/>
<path d="M136.654 126.462V140.886C136.654 141.926 136.039 142.636 134.195 142.636C133.438 142.636 132.54 142.541 132.067 142.399V127.077C132.067 121.733 129.466 119.179 125.493 119.179C122.419 119.179 119.109 121.307 117.737 123.814V140.933C117.737 141.974 117.123 142.683 115.278 142.683C114.521 142.683 113.623 142.588 113.15 142.447V115.585C113.576 115.49 114.474 115.348 115.278 115.348C117.123 115.348 117.737 116.01 117.737 117.098V119.368C119.676 116.956 122.656 115.065 126.581 115.065C132.067 115.065 136.654 118.517 136.654 126.462Z" fill="white"/>
<path fill-rule="evenodd" clip-rule="evenodd" d="M146.774 130.624H167.488C167.63 129.678 167.678 128.732 167.584 127.928C167.584 121.449 163.517 115.065 155.287 115.065C148.005 115.065 142.045 120.834 142.045 128.874C142.045 137.244 147.673 142.872 156.043 142.872C159.922 142.872 163.563 141.69 165.975 140.649C166.212 138.19 165.36 137.15 164.083 137.15C163.697 137.15 163.311 137.276 162.539 137.528C162.366 137.585 162.172 137.648 161.955 137.717C160.3 138.285 158.503 138.711 156.233 138.711C150.937 138.711 147.389 135.826 146.774 130.624ZM163.232 127.077H146.774C147.484 121.78 151.22 118.943 155.381 118.943C160.11 118.943 163.042 122.489 163.232 127.077Z" fill="white"/>
<path d="M209.672 116.01L202.579 140.65C202.154 142.21 200.972 142.589 199.268 142.589C198.323 142.589 197.377 142.399 196.573 142.21L189.81 120.55L183.473 140.65C182.953 142.21 181.724 142.589 180.258 142.589C179.312 142.589 178.271 142.399 177.467 142.21L169.9 116.01C170.562 115.679 171.792 115.348 172.786 115.348C174.062 115.348 174.724 115.727 175.056 116.956L180.399 137.528H180.447L187.067 116.01C187.824 115.585 188.864 115.348 189.905 115.348C191.655 115.348 192.6 115.727 193.073 117.335L199.222 137.481H199.268L204.47 116.909C204.802 115.679 205.464 115.301 206.74 115.301C207.875 115.348 209.01 115.679 209.672 116.01Z" fill="white"/>
<path d="M212.7 141.028C212.369 138.711 213.078 137.481 214.449 137.481C215.726 137.481 218.847 138.852 223.198 138.852C227.785 138.852 229.488 137.244 229.488 135.116C229.488 133.603 228.826 132.279 224.711 131.144L219.982 129.867C214.733 128.495 212.7 125.847 212.7 122.631C212.7 118.611 215.868 115.065 223.056 115.065C226.273 115.065 230.292 115.774 232.752 116.72C233.177 118.99 232.468 120.219 231.096 120.219C229.867 120.219 227.077 119.037 223.151 119.037C218.895 119.037 217.334 120.503 217.334 122.395C217.334 123.719 217.949 124.949 221.732 126.036L226.556 127.361C231.948 128.874 234.122 131.38 234.122 134.927C234.122 139.089 230.907 142.825 223.104 142.825C219.604 142.872 215.301 142.021 212.7 141.028Z" fill="white"/>
</g>
<defs>
<linearGradient id="paint0_linear_26_1424" x1="-3.5" y1="-2.86195e-06" x2="256" y2="256" gradientUnits="userSpaceOnUse">
<stop stop-color="white"/>
<stop offset="1" stop-color="#E0E0E0"/>
</linearGradient>
<linearGradient id="paint1_linear_26_1424" x1="0" y1="0" x2="256" y2="256" gradientUnits="userSpaceOnUse">
<stop stop-color="white" stop-opacity="0.15"/>
<stop offset="1" stop-opacity="0"/>
</linearGradient>
<linearGradient id="paint2_linear_26_1424" x1="101.024" y1="100.262" x2="101.024" y2="157.013" gradientUnits="userSpaceOnUse">
<stop offset="0.4" stop-color="#E90E10"/>
<stop offset="1" stop-color="#BC0000"/>
</linearGradient>
<linearGradient id="paint3_linear_26_1424" x1="238.697" y1="126.783" x2="238.651" y2="98.5197" gradientUnits="userSpaceOnUse">
<stop stop-color="white"/>
<stop offset="1" stop-color="white" stop-opacity="0.25"/>
</linearGradient>
<linearGradient id="paint4_linear_26_1424" x1="76.3799" y1="130.007" x2="76.2802" y2="110.997" gradientUnits="userSpaceOnUse">
<stop stop-color="white"/>
<stop offset="1" stop-color="white" stop-opacity="0.25"/>
</linearGradient>
<clipPath id="clip0_26_1424">
<rect width="256" height="256" fill="white"/>
</clipPath>
</defs>
</svg>
