<svg width="256" height="256" viewBox="0 0 256 256" fill="none" xmlns="http://www.w3.org/2000/svg">
<g clip-path="url(#clip0_5_642)">
<rect width="256" height="256" fill="url(#paint0_linear_5_642)"/>
<rect width="256" height="256" fill="black"/>
<rect width="256" height="256" fill="url(#paint1_linear_5_642)"/>
<path d="M167.16 200.681L167.008 205.135C161.782 204.793 160.295 206.125 160.295 210.504V211.075H155.794V200.947H160.295V203.841C161.63 201.48 163.461 200.414 167.16 200.681ZM60.4759 218.842H64.9767V201.557H60.4759V218.842ZM82.6748 200.719C79.5472 200.719 77.64 202.128 76.6102 203.651V194.132H53V198.32H72.4145V211.113H76.6865C76.6865 207.458 78.8225 204.869 81.4161 204.869C83.6666 204.869 84.6583 205.973 84.6583 209.933V218.918H89.1591V208.258C89.1591 203.194 86.5654 200.719 82.6748 200.719ZM100.297 215.415C97.5886 215.415 95.7959 213.778 95.5289 211.075H91.3332C91.7528 215.834 94.8804 219.223 100.297 219.223C104.492 219.223 106.857 217.357 108.078 214.502L104.263 212.826C103.691 214.54 102.623 215.415 100.297 215.415ZM100.144 200.795C98.5421 200.757 96.9783 201.138 95.5289 201.861L97.6648 204.907C98.4658 204.488 99.3431 204.298 100.259 204.298C102.776 204.298 104.035 205.935 104.225 208.067H99.9152V211.037H108.459C108.535 210.58 108.535 210.161 108.535 209.742C108.574 203.27 104.263 200.795 100.144 200.795ZM144.504 215.415C141.796 215.415 140.003 213.778 139.736 211.075H135.54C135.96 215.834 139.088 219.223 144.504 219.223C148.699 219.223 151.064 217.357 152.285 214.502L148.471 212.826C147.86 214.54 146.792 215.415 144.504 215.415ZM144.351 200.795C142.749 200.757 141.185 201.138 139.736 201.861L141.872 204.907C142.673 204.488 143.55 204.298 144.466 204.298C146.983 204.298 148.28 205.935 148.432 208.067H144.161V211.037H152.704C152.781 210.58 152.781 210.161 152.781 209.742C152.819 203.27 148.509 200.795 144.351 200.795ZM196.873 215.415C194.165 215.415 192.373 213.778 192.106 211.075H187.91C188.33 215.834 191.457 219.223 196.873 219.223C201.069 219.223 203.434 217.357 204.654 214.502L200.84 212.826C200.23 214.54 199.2 215.415 196.873 215.415ZM196.645 200.795C195.043 200.757 193.479 201.138 192.029 201.861L194.165 204.907C194.966 204.488 195.844 204.298 196.759 204.298C199.276 204.298 200.535 205.935 200.726 208.067H196.378V211.037H204.921C204.998 210.58 204.998 210.161 204.998 209.742C205.112 203.27 200.802 200.795 196.645 200.795ZM110.862 192L118.91 211.075H123.792L117.651 195.922H125.585V192.038L110.862 192ZM134.777 192.038L125.547 215.377L124.174 218.88H128.865L139.965 192.038H134.777ZM175.971 218.423C177.878 218.423 179.48 217.89 180.587 216.976L178.794 214.159C178.222 214.387 177.611 214.502 176.963 214.502C174.522 214.502 173.111 213.055 172.615 211.113H168.228C168.839 215.225 171.814 218.423 175.971 218.423ZM181.502 203.46C180.472 201.861 178.412 200.681 175.552 200.681C172.729 200.643 170.136 202.166 168.762 204.641L172.5 207.039C173.187 205.592 174.522 204.641 176.582 204.641C179.519 204.641 181.464 206.887 181.464 209.59C181.464 210.085 181.388 210.618 181.273 211.075H185.965V200.985H181.464L181.502 203.46ZM177.154 222.497C174.255 222.497 173.187 221.088 172.958 219.451H168.686C168.762 222.573 170.86 226 177.23 226C181.54 226 184.325 223.868 185.507 220.632L181.464 219.223C180.93 221.317 179.366 222.497 177.154 222.497Z" fill="white"/>
<path d="M205.334 20L128 154.222L70.0319 53.5556H147.331L156.997 36.7778H41L118.317 171H137.666L215 36.7778L205.334 20Z" fill="#D4D4D4"/>
<path d="M186.003 20L128 120.667L89.3544 53.5904H70.0317L128 154.222L205.334 20H186.003Z" fill="#EC008C"/>
<path d="M41 36.7778H156.997L118.326 103.854L128 120.667L186.003 20H50.6657L41 36.7778Z" fill="#393092"/>
</g>
<defs>
<linearGradient id="paint0_linear_5_642" x1="-3.5" y1="-2.86195e-06" x2="256" y2="256" gradientUnits="userSpaceOnUse">
<stop stop-color="white"/>
<stop offset="1" stop-color="#999999"/>
</linearGradient>
<linearGradient id="paint1_linear_5_642" x1="0" y1="0" x2="256" y2="256" gradientUnits="userSpaceOnUse">
<stop stop-color="white" stop-opacity="0.15"/>
<stop offset="1" stop-opacity="0"/>
</linearGradient>
<clipPath id="clip0_5_642">
<rect width="256" height="256" fill="white"/>
</clipPath>
</defs>
</svg>
