<svg width="256" height="256" viewBox="0 0 256 256" fill="none" xmlns="http://www.w3.org/2000/svg">
<g clip-path="url(#clip0_15_812)">
<rect width="256" height="256" fill="url(#paint0_linear_15_812)"/>
<rect width="256" height="256" fill="#052962"/>
<rect width="256" height="256" fill="url(#paint1_linear_15_812)"/>
<path d="M82.4778 207.277C83.0371 207.004 83.6524 206.676 84.2118 206.402C84.4355 206.293 85.2187 206.019 85.3305 205.8C85.3865 205.691 85.3305 205.363 85.3305 205.199V203.886V194.531V185.395V184.191C85.3305 184.136 85.3865 183.753 85.3305 183.699C85.2746 183.644 84.8271 183.699 84.7712 183.699H83.5406C83.0931 183.699 83.149 183.753 82.8693 184.082C81.8065 185.449 80.7437 186.817 79.6809 188.239C79.1775 188.896 78.674 189.498 78.2265 190.154C77.8909 190.592 77.8909 190.647 77.2756 190.647L77.4434 187.036C77.4994 186.161 77.4994 185.285 77.5553 184.41C77.5553 184.082 77.6112 183.753 77.6112 183.425C77.6112 183.316 77.5553 182.988 77.6112 182.933C77.7231 182.769 78.73 182.878 79.0097 182.878H99.9301C100.042 182.878 100.545 182.823 100.657 182.878C100.769 182.933 100.713 183.261 100.713 183.425C100.769 184.136 100.769 184.902 100.825 185.613C100.881 187.2 100.937 188.732 101.049 190.318V190.647C100.769 190.647 100.545 190.701 100.322 190.537C100.098 190.373 99.9301 190.045 99.7623 189.826C99.091 188.951 98.4198 188.021 97.6926 187.145L95.6789 184.519C95.567 184.355 95.3992 183.972 95.1754 183.863C95.0076 183.753 94.672 183.808 94.4483 183.808H93.5533C93.4414 183.808 92.9939 183.753 92.882 183.808C92.8261 183.863 92.882 183.863 92.8261 183.972C92.7142 184.41 92.8261 184.957 92.8261 185.395V204.433C92.8261 204.816 92.7142 205.363 92.8261 205.746C92.938 206.129 93.833 206.402 94.2245 206.566C94.6161 206.785 95.2873 206.949 95.6229 207.277C95.7348 207.387 95.8467 207.934 95.7348 208.098C95.6789 208.153 95.3992 208.098 95.3433 208.098H83.0371C82.9253 208.098 82.5337 208.153 82.4778 208.098C82.4218 207.879 82.4778 207.442 82.4778 207.277ZM103.23 206.293V198.306V185.231V183.097C103.23 182.769 103.342 182.276 103.23 181.948C103.118 181.565 102.447 181.51 102.056 181.346C101.832 181.292 101.105 181.127 100.993 180.909V180.471H101.161C101.384 180.362 101.832 180.362 102.112 180.307C102.615 180.197 103.118 180.143 103.566 180.033C104.685 179.815 105.859 179.596 106.978 179.432C107.649 179.322 108.321 179.158 108.992 179.049C109.16 179.049 109.831 178.939 109.887 179.049C109.943 179.103 109.887 179.322 109.887 179.377V190.701C112.012 188.622 115.704 187.474 118.669 188.185C121.242 188.786 122.081 191.139 122.081 193.546C122.137 196.61 122.081 199.618 122.081 202.682V205.144C122.081 205.417 121.969 206.074 122.081 206.347C122.137 206.457 122.361 206.512 122.473 206.621C122.864 206.84 123.312 207.059 123.703 207.277C123.759 207.332 123.927 207.387 123.927 207.442C123.983 207.496 123.983 207.989 123.927 208.043C123.871 208.153 123.871 208.098 123.703 208.098C123.088 208.208 122.417 208.098 121.857 208.098H113.802C113.747 208.098 113.467 208.153 113.411 208.098C113.355 208.043 113.355 207.442 113.411 207.387C113.579 207.168 114.25 206.949 114.474 206.785C114.642 206.676 115.145 206.512 115.257 206.347C115.369 206.183 115.257 205.582 115.257 205.417V203.174C115.257 200.001 115.313 196.774 115.257 193.601C115.257 192.671 115.089 191.577 114.138 191.084C113.635 190.811 112.963 190.756 112.404 190.756C111.957 190.756 111.509 190.865 111.117 190.975C110.782 191.084 110.167 191.303 109.943 191.577C109.775 191.795 109.887 192.124 109.887 192.397V205.308C109.887 205.582 109.775 206.129 109.887 206.347C109.943 206.457 110.167 206.566 110.334 206.621C110.726 206.84 111.229 207.059 111.621 207.277C111.677 207.332 111.789 207.332 111.789 207.387C111.845 207.442 111.845 207.934 111.789 207.989C111.733 208.043 111.677 208.043 111.565 208.043C110.95 208.098 110.278 208.043 109.663 208.043H101.608C101.552 208.043 101.273 208.098 101.217 208.043C101.161 207.989 101.217 207.442 101.273 207.332C101.44 207.113 102.056 206.895 102.279 206.785C102.671 206.621 102.951 206.457 103.23 206.293ZM129.8 198.743C129.912 201.15 130.695 203.831 132.933 205.144C134.108 205.8 135.562 206.019 136.904 205.91C138.527 205.746 139.869 204.98 141.267 204.269C141.267 204.487 141.323 204.87 141.267 205.089C141.156 205.308 140.876 205.582 140.708 205.746C140.484 205.965 140.205 206.238 139.925 206.457C138.974 207.223 137.911 207.77 136.793 208.153C134.667 208.864 132.206 208.809 130.024 208.262C128.29 207.825 126.724 207.004 125.549 205.691C124.375 204.378 123.703 202.682 123.424 200.931C122.808 197.157 123.535 192.835 126.724 190.318C129.521 188.13 133.996 187.692 137.296 189.005C141.323 190.592 141.995 195.078 141.995 198.798H131.311C130.807 198.743 130.304 198.743 129.8 198.743ZM129.689 197.813C130.807 197.758 131.926 197.704 133.101 197.594C133.772 197.54 134.499 197.54 135.17 197.485C135.282 197.485 135.562 197.485 135.674 197.43C135.842 197.321 135.73 196.227 135.73 196.008C135.674 194.038 135.618 191.631 134.443 189.935C133.604 188.732 132.318 188.951 131.534 190.045C129.912 192.178 129.689 195.351 129.689 197.813ZM45 217.781C45 214.718 45.6153 211.545 47.3494 208.973C49.0275 206.457 51.7124 204.816 54.6212 203.995C58.1452 203.01 62.0608 203.12 65.6967 203.776C66.4798 203.94 67.2629 204.104 67.9901 204.323C68.102 204.378 68.6054 204.487 68.6613 204.597V204.761C68.8291 205.417 68.7173 206.238 68.7173 206.895C68.7732 208.59 68.7732 210.341 68.8291 212.037C68.6054 212.037 68.2138 212.092 68.046 212.037C67.9341 211.982 67.8223 211.709 67.7663 211.599C67.3188 210.943 66.8713 210.286 66.4798 209.575C65.5289 208.098 64.522 206.621 63.5711 205.144C63.0676 204.323 61.6692 204.323 60.7742 204.323C59.7674 204.323 58.7605 204.487 57.9214 204.98C56.0196 206.129 55.1246 208.372 54.6212 210.396C53.838 213.624 53.894 217.015 54.0618 220.298C54.2296 222.814 54.4533 225.495 55.4602 227.793C56.0755 229.215 57.1383 230.473 58.7605 230.802C59.2639 230.911 59.7674 230.911 60.3267 230.856C60.6623 230.802 61.837 230.747 62.0048 230.419C62.0608 230.309 62.0048 230.036 62.0048 229.926V228.996V223.197V220.954C62.0048 220.571 62.1167 220.407 61.7811 220.188C61.3895 219.97 60.942 219.751 60.5505 219.477C60.2708 219.313 59.7114 219.149 59.5436 218.93C59.4317 218.821 59.3758 218.219 59.4877 218.109C59.5436 218 59.5436 218.055 59.7114 218.055C60.2149 217.945 60.8861 218.055 61.3895 218.055H70.0598C70.6191 218.055 71.2344 218 71.7938 218.055H72.0175C72.0735 218.109 72.0735 218.875 72.0175 218.985C71.9057 219.149 71.3463 219.368 71.1226 219.477C70.731 219.696 70.2835 219.915 69.8919 220.188C69.4444 220.407 69.5004 220.407 69.5004 220.9V229.817C69.5004 229.926 69.5563 230.2 69.5004 230.309C69.3885 230.583 68.2138 230.747 67.8782 230.856C66.9273 231.13 65.9204 231.349 64.9136 231.513C62.9558 231.841 60.998 231.95 59.0402 231.896C55.9077 231.786 52.6074 231.13 50.0343 229.27C47.7968 227.683 46.3425 225.276 45.6712 222.65C45.1678 221.118 45 219.422 45 217.781ZM70.7869 212.803C70.7869 212.693 70.731 212.256 70.7869 212.201C70.8429 212.146 70.8988 212.201 70.9547 212.146C71.2904 211.982 71.7379 211.982 72.1294 211.928C73.416 211.709 74.7025 211.49 76.045 211.271C77.0519 211.107 78.0587 210.888 79.0097 210.779C79.2894 210.724 79.625 210.724 79.9047 210.833C80.1843 210.888 80.0725 210.833 80.1284 211.052C80.2403 211.709 80.1284 212.475 80.1284 213.131V224.565C80.1284 225.933 79.7368 228.449 81.0793 229.27C81.7506 229.707 82.7015 229.707 83.4846 229.543C84.0999 229.434 85.2746 228.996 85.4984 228.34C85.5543 228.176 85.4984 227.957 85.4984 227.793V226.644V219.04V215.538V214.389C85.4984 214.28 85.5543 213.952 85.4984 213.842C85.3305 213.678 84.7712 213.514 84.6034 213.459C84.2677 213.35 83.9881 213.186 83.6524 213.076C83.5406 213.022 83.149 212.967 83.0931 212.858C83.0371 212.803 83.0371 212.311 83.0931 212.256C83.149 212.201 83.149 212.256 83.2049 212.201C83.4846 212.037 83.9881 212.092 84.2677 212.037C86.5612 211.654 88.9105 211.162 91.2599 210.833C91.5395 210.779 91.8192 210.779 92.0989 210.833C92.3786 210.888 92.2667 210.779 92.3227 211.052C92.4345 211.599 92.3227 212.365 92.3227 212.967V228.723C92.3227 228.887 92.2667 229.16 92.3227 229.379C92.3786 229.543 92.3227 229.489 92.6023 229.598C93.1617 229.817 93.777 230.09 94.3364 230.309C94.5042 230.364 94.5601 230.364 94.6161 230.473C94.672 230.583 94.672 230.966 94.6161 230.966C94.5042 231.075 93.9448 231.02 93.833 231.075C92.6023 231.239 91.3717 231.349 90.0852 231.513C88.9664 231.622 87.8477 231.786 86.7849 231.896C86.5612 231.95 86.3374 231.95 86.1137 231.896C86.0018 231.896 85.6662 231.896 85.6102 231.841C85.5543 231.732 85.6102 231.294 85.6102 231.184V230.254C85.6102 230.09 85.7221 229.653 85.6102 229.489C85.4984 229.324 85.2746 229.543 85.1068 229.653C84.6593 230.036 84.1559 230.419 83.6524 230.692C81.8065 231.786 79.5131 232.279 77.3875 231.841C75.8213 231.513 74.4788 230.637 73.8075 229.16C73.3041 228.121 73.1922 226.972 73.1922 225.878V219.368V215.648V214.389C73.1922 214.28 73.2482 213.952 73.1922 213.842C73.0803 213.678 72.4091 213.514 72.2413 213.405C71.6819 213.186 71.2344 213.022 70.7869 212.803ZM123.535 210.724C123.647 210.724 124.151 210.724 124.207 210.833C124.263 210.888 124.207 211.271 124.207 211.326V216.14C124.207 216.304 124.151 216.578 124.207 216.742V216.851C124.43 217.07 124.486 216.359 124.542 216.304C125.046 214.28 125.997 211.928 128.122 211.107C128.514 210.943 128.905 210.888 129.297 210.833C129.633 210.833 130.584 210.724 130.751 210.998C130.807 211.107 130.751 211.381 130.751 211.49V217.07C129.409 216.797 127.899 216.851 126.612 217.125C125.997 217.234 125.437 217.398 124.878 217.672C124.598 217.781 124.542 217.727 124.486 217.945C124.43 218.164 124.486 218.547 124.486 218.766V229.324C124.486 229.434 124.43 229.598 124.486 229.707C124.598 229.872 124.99 229.981 125.158 230.036C125.437 230.2 125.773 230.364 126.053 230.528C126.165 230.583 126.332 230.637 126.388 230.747C126.444 230.802 126.444 231.458 126.388 231.513C126.332 231.567 125.997 231.513 125.885 231.513H116.599C116.32 231.513 115.816 231.622 115.592 231.513H115.425C115.369 231.458 115.425 230.856 115.425 230.802C115.536 230.473 116.264 230.254 116.599 230.09C116.823 229.981 117.271 229.817 117.382 229.598C117.438 229.489 117.382 229.16 117.382 229.051V227.902V213.842C117.382 213.788 117.438 213.514 117.382 213.459C117.326 213.405 117.047 213.35 116.935 213.35C116.599 213.241 116.264 213.131 115.928 213.076C115.592 212.967 114.753 212.912 115.033 212.365C115.089 212.201 115.313 212.256 115.536 212.201C117.998 211.763 120.403 211.326 122.864 210.888C123.088 210.779 123.312 210.779 123.535 210.724ZM144.624 211.216V206.84V205.582C144.624 205.417 144.68 205.089 144.624 204.925C144.568 204.816 144.344 204.761 144.176 204.706C143.729 204.542 143.281 204.378 142.778 204.214C142.442 204.104 142.274 204.159 142.274 203.776C142.274 203.448 142.218 203.557 142.498 203.503C143.113 203.284 143.841 203.284 144.456 203.174C146.302 202.846 148.092 202.518 149.938 202.19C150.329 202.135 150.721 202.026 151.112 202.08C151.56 202.135 151.616 202.026 151.616 202.409C151.672 203.284 151.616 204.214 151.616 205.089V229.051C151.616 229.27 151.56 229.27 151.728 229.379C152.063 229.598 152.623 229.707 152.958 229.817C153.182 229.872 153.797 229.981 153.909 230.145C153.965 230.2 153.965 230.802 153.909 230.856C153.853 230.911 153.518 230.911 153.462 230.911C152.679 231.02 151.951 231.13 151.168 231.184C149.434 231.403 147.7 231.622 145.91 231.841C145.631 231.896 144.959 232.005 144.847 231.786C144.736 231.567 144.847 230.856 144.847 230.637C144.847 230.473 144.959 229.762 144.847 229.653C144.736 229.543 143.505 230.637 143.337 230.747C142.666 231.184 141.939 231.513 141.156 231.732C139.925 232.06 138.527 232.06 137.296 231.786C131.926 230.583 130.807 224.346 131.255 219.805C131.479 217.398 132.262 214.991 133.94 213.241C135.506 211.654 137.632 210.833 139.813 210.669C141.491 210.505 143.113 210.615 144.624 211.216ZM144.624 228.668V215.21V212.693C144.624 212.365 144.568 212.311 144.176 212.092C143.393 211.654 142.386 211.49 141.547 211.818C140.261 212.311 139.645 213.788 139.31 214.991C138.638 217.179 138.583 219.532 138.638 221.83C138.694 223.799 138.75 226.206 139.869 227.957C140.876 229.489 143.169 229.872 144.624 228.668ZM163.139 210.724C163.419 210.779 163.754 210.669 163.866 210.943C163.922 211.107 163.866 211.49 163.866 211.654V228.777C163.866 228.996 163.81 229.324 163.866 229.543C163.922 229.762 164.146 229.817 164.369 229.926C164.705 230.09 164.985 230.254 165.32 230.419C165.432 230.473 165.768 230.583 165.824 230.747C165.824 230.802 165.88 231.458 165.824 231.513H165.656C165.32 231.567 164.873 231.513 164.481 231.513H155.979C155.755 231.513 155.14 231.622 154.972 231.513C154.86 231.458 154.804 230.802 154.916 230.692C155.028 230.528 155.42 230.419 155.587 230.364C155.923 230.2 156.259 229.981 156.594 229.817C156.874 229.653 156.818 229.707 156.818 229.489C156.93 228.668 156.818 227.738 156.818 226.917V222.595V214.718C156.818 214.499 156.874 214.116 156.818 213.897C156.762 213.678 156.482 213.678 156.259 213.569C155.867 213.405 155.531 213.295 155.14 213.131C155.028 213.076 154.58 213.022 154.469 212.858C154.413 212.803 154.413 212.256 154.469 212.201C154.525 212.146 154.636 212.201 154.692 212.146C155.14 211.982 155.643 211.982 156.147 211.873C156.874 211.763 157.545 211.599 158.272 211.49C159.671 211.271 161.013 210.998 162.412 210.779C162.691 210.833 162.915 210.779 163.139 210.724ZM163.922 205.636C163.81 208.919 159.279 210.341 157.21 207.77C156.259 206.566 156.203 204.925 157.042 203.667C157.881 202.409 159.503 201.861 161.013 202.19C162.691 202.518 163.922 203.94 163.922 205.636ZM188.422 229.653V216.468V213.952C188.422 213.897 188.478 213.624 188.422 213.569C188.366 213.459 188.031 213.405 187.919 213.405L186.912 213.076C186.744 213.022 186.297 212.967 186.185 212.803C186.073 212.693 186.129 212.42 186.129 212.256C186.129 211.928 186.241 211.982 186.576 211.928L190.268 211.271L193.96 210.615C194.184 210.56 194.352 210.505 194.575 210.505C194.687 210.505 195.247 210.505 195.359 210.56C195.414 210.615 195.359 210.943 195.359 211.052V212.092C195.359 212.256 195.247 212.748 195.359 212.912C195.47 213.131 195.694 212.912 195.862 212.748C196.365 212.365 196.869 212.037 197.428 211.763C199.442 210.669 201.847 210.177 204.141 210.505C205.707 210.724 206.993 211.545 207.553 213.022C207.944 214.061 208 215.155 208 216.249V228.723C208 228.941 207.944 229.324 208 229.543C208.056 229.762 208.224 229.817 208.504 229.926C208.783 230.09 209.119 230.254 209.399 230.419C209.511 230.473 209.902 230.583 209.958 230.747C210.014 230.856 210.014 231.403 209.958 231.458C209.902 231.567 210.014 231.458 209.846 231.513C209.622 231.622 209.119 231.513 208.839 231.513H200.84C200.505 231.513 199.218 231.677 199.05 231.458C198.994 231.403 198.994 230.802 199.05 230.692C199.106 230.583 199.442 230.473 199.554 230.419C199.889 230.254 200.169 230.09 200.505 229.926C200.617 229.872 200.952 229.762 201.008 229.653C201.064 229.543 201.008 229.324 201.008 229.215V228.011V224.182V216.797C201.008 215.921 201.064 214.936 200.505 214.171C200.057 213.514 199.274 213.35 198.491 213.295C197.876 213.295 197.316 213.35 196.757 213.514C196.477 213.624 195.638 213.842 195.47 214.171C195.414 214.28 195.47 214.499 195.47 214.608V228.777C195.47 228.941 195.414 229.324 195.47 229.489C195.526 229.707 195.862 229.762 196.03 229.872C196.309 230.036 196.645 230.2 196.925 230.364C197.037 230.419 197.26 230.528 197.316 230.583C197.372 230.637 197.372 231.294 197.316 231.349C197.316 231.403 197.26 231.349 197.204 231.349C196.981 231.458 196.421 231.349 196.198 231.349H186.8C186.52 231.349 186.465 231.403 186.409 231.239C186.353 231.13 186.353 230.637 186.409 230.528C186.465 230.419 186.8 230.309 186.912 230.254C187.471 230.2 187.919 229.926 188.422 229.653ZM176.564 219.587C176.564 218.164 176.62 216.687 176.508 215.21C176.34 213.624 175.892 211.873 174.047 211.545C173.487 211.435 172.48 211.271 172.089 211.709C171.697 212.092 171.418 212.639 171.082 213.076L168.229 216.851C168.061 217.07 167.893 217.508 167.67 217.617C167.614 217.672 167.054 217.672 167.054 217.617C166.998 217.562 167.054 217.179 167.054 217.07V212.639C167.054 212.475 166.998 212.201 167.054 212.037C167.166 211.763 168.397 211.599 168.677 211.49C170.243 211.107 171.865 210.833 173.487 210.724C175.781 210.56 178.354 210.615 180.479 211.599C182.157 212.365 183.22 213.733 183.5 215.484C183.668 216.359 183.612 217.344 183.612 218.219V229.16C183.612 229.324 183.5 229.762 183.612 229.872C183.668 229.926 183.947 229.981 184.003 229.981C184.451 230.09 184.842 230.2 185.29 230.309C185.57 230.364 185.625 230.364 185.625 230.637C185.625 230.911 185.681 230.911 185.346 231.02C184.954 231.184 184.563 231.349 184.171 231.458C182.101 232.06 178.857 232.224 177.347 230.364C177.235 230.2 176.899 229.489 176.732 229.434C176.508 229.379 175.837 230.254 175.613 230.419C174.718 231.184 173.543 231.622 172.368 231.786C170.187 232.06 167.838 231.622 166.495 229.762C165.376 228.176 165.153 225.714 165.992 223.963C167.502 220.626 171.977 220.298 175.221 219.751C175.613 219.751 176.06 219.641 176.564 219.587ZM176.564 228.668V220.571C174.886 220.681 173.152 220.79 172.536 222.595C172.089 223.799 172.089 225.221 172.257 226.48C172.368 227.355 172.592 228.449 173.431 228.996C174.326 229.598 175.837 229.489 176.564 228.668ZM105.748 219.587C105.748 218.164 105.803 216.687 105.692 215.21C105.524 213.624 105.076 211.873 103.23 211.545C102.671 211.435 101.664 211.271 101.273 211.709C100.881 212.092 100.601 212.639 100.266 213.076L97.4129 216.851C97.2451 217.07 97.0773 217.508 96.8536 217.617C96.7976 217.672 96.2382 217.672 96.2382 217.617C96.1823 217.562 96.2382 217.179 96.2382 217.07V212.693C96.2382 212.529 96.1823 212.256 96.2382 212.092C96.3501 211.818 97.5248 211.654 97.8604 211.545C99.4267 211.162 101.049 210.888 102.615 210.779C104.908 210.615 107.482 210.669 109.607 211.654C111.285 212.42 112.348 213.788 112.628 215.538C112.796 216.414 112.74 217.398 112.74 218.274V229.215C112.74 229.379 112.628 229.817 112.74 229.926C112.796 229.981 113.075 230.036 113.131 230.036C113.579 230.145 113.97 230.254 114.418 230.364C114.697 230.419 114.753 230.419 114.753 230.692C114.753 230.966 114.809 230.966 114.474 231.075C114.082 231.239 113.691 231.403 113.299 231.513C111.229 232.115 107.985 232.279 106.475 230.419C106.363 230.254 106.027 229.543 105.859 229.489C105.636 229.434 104.964 230.309 104.797 230.473C103.902 231.239 102.727 231.677 101.552 231.841C99.3707 232.115 97.0214 231.677 95.6789 229.817C94.5601 228.23 94.3364 225.768 95.1754 224.018C96.6857 220.681 101.161 220.352 104.349 219.805C104.797 219.751 105.244 219.641 105.748 219.587ZM105.748 228.668V220.571C104.069 220.681 102.335 220.79 101.72 222.595C101.273 223.799 101.273 225.221 101.44 226.48C101.552 227.355 101.776 228.449 102.615 228.996C103.51 229.598 105.02 229.489 105.748 228.668Z" fill="white"/>
<path d="M141.468 30.3118C152.095 32.0027 165.592 39.2327 170.422 44.3928V67.7154H167.495L141.468 32.9356V30.3118ZM131.69 31.7695H131.427C112.836 31.7695 102.736 57.4243 102.736 92C102.736 126.605 112.836 152.231 131.427 152.231H131.69V154.883C103.702 156.778 66.0532 135.555 67.0193 91.9709C66.024 48.4451 103.673 27.2216 131.69 29.1165V31.7695ZM179 97.4517L170.217 101.242V140.423C161.836 147.236 152.003 152.053 141.468 154.504V100.513L131.807 97.335V94.6821H179V97.4517Z" fill="white"/>
</g>
<defs>
<linearGradient id="paint0_linear_15_812" x1="-3.5" y1="-2.86195e-06" x2="256" y2="256" gradientUnits="userSpaceOnUse">
<stop stop-color="white"/>
<stop offset="1" stop-color="#999999"/>
</linearGradient>
<linearGradient id="paint1_linear_15_812" x1="0" y1="0" x2="256" y2="256" gradientUnits="userSpaceOnUse">
<stop stop-color="white" stop-opacity="0.15"/>
<stop offset="1" stop-opacity="0"/>
</linearGradient>
<clipPath id="clip0_15_812">
<rect width="256" height="256" fill="white"/>
</clipPath>
</defs>
</svg>
