<svg width="256" height="256" viewBox="0 0 256 256" fill="none" xmlns="http://www.w3.org/2000/svg">
<g clip-path="url(#clip0_6_837)">
<rect width="256" height="256" fill="url(#paint0_linear_6_837)"/>
<rect width="256" height="256" fill="white"/>
<rect width="256" height="256" fill="url(#paint1_linear_6_837)"/>
<path d="M22.1942 219.054C22.1942 219.941 22.4454 220.113 23.0035 220.256L23.8683 220.457V220.857H18.1204V220.457L18.8459 220.285C19.4041 220.143 19.6552 219.856 19.6552 219.055V201.715H19.0413C17.3114 201.715 16.6139 204.605 16.4185 207.667H16V201.143H25.8494V207.667H25.4309C25.2355 204.605 24.538 201.716 22.8081 201.716H22.1942V219.054ZM26.4633 220.456L27.0773 220.284C27.6354 220.142 27.8866 219.855 27.8866 219.054V202.917C27.8866 202.116 27.6354 201.858 27.0773 201.715L26.4633 201.544V201.143H31.9043V201.544L31.2626 201.715C30.7325 201.858 30.4255 202.087 30.4255 202.888V210.413H34.6389V202.888C34.6389 202.087 34.332 201.858 33.8018 201.715L33.1602 201.544V201.143H38.6011V201.544L37.9872 201.715C37.4293 201.858 37.1782 202.116 37.1782 202.917V219.026C37.1782 219.827 37.4293 220.143 37.9872 220.285L38.6011 220.457V220.857H33.1599V220.457L33.8016 220.314C34.3317 220.171 34.6386 219.856 34.6386 219.055V211.072H30.4255V219.054C30.4255 219.855 30.7325 220.17 31.2626 220.313L31.9043 220.456V220.856H26.4633V220.456ZM43.1769 220.285H45.1023C47.6135 220.285 48.0878 217.366 48.4225 214.334H48.841V220.857H39.2148V220.456L39.8287 220.285C40.3868 220.142 40.638 219.855 40.638 219.055V202.946C40.638 202.145 40.3868 201.858 39.8287 201.715L39.2148 201.544V201.143H48.5621V207.667H48.1436C47.8366 204.605 47.2507 201.715 45.1023 201.715H43.1769V210.328L44.0698 210.299C45.2696 210.213 45.7159 209.154 46.0229 206.665H46.4414V214.619H46.0229C45.772 211.5 45.2974 211.014 44.0418 210.928L43.1769 210.899V220.285ZM54.8069 203.775C54.4442 202.087 54.221 201.83 53.6909 201.687L53.1608 201.544V201.143H58.3786V201.544L57.9601 201.629C57.0672 201.83 57.1508 202.745 57.4019 203.976L59.6062 215.192L61.2245 206.264L60.6386 203.203C60.4155 202.115 60.3317 201.772 59.7738 201.629L59.4111 201.543V201.143H64.5173V201.543L63.9034 201.658C62.9825 201.829 63.1221 202.859 63.3452 203.975L65.466 215.192L67.5586 204.576C67.9491 202.373 67.754 201.83 66.9169 201.658L66.3311 201.544V201.143H70.1536V201.544L69.6235 201.687C68.9538 201.858 68.7865 202.402 68.3957 204.319L64.9916 220.972H64.2661L61.6434 207.982L59.2715 220.972H58.3506L54.8069 203.775ZM82.0957 220.285H83.2117C85.5833 220.285 86.2811 217.394 86.56 214.334H86.9785V220.857H72.7203V220.456L73.3062 220.341C74.506 220.113 74.506 219.77 74.1991 218.052L73.669 215.477H70.2369L69.8741 217.424C69.4556 219.627 69.6788 220.17 70.5161 220.341L71.102 220.456V220.857H67.2236V220.456L67.6979 220.314C68.4512 220.085 68.6466 219.627 69.0374 217.681L72.4414 201.028H73.2785L76.8499 218.224C77.2126 219.998 77.38 220.37 78.3844 220.37C79.2492 220.37 79.5562 219.912 79.5562 219.054V202.917C79.5562 202.116 79.3053 201.858 78.7472 201.715L78.1332 201.543V201.143H83.658V201.572L82.9045 201.744C82.3466 201.858 82.0954 202.116 82.0954 202.917L82.0957 220.285ZM70.3487 214.82H73.5297L71.9113 206.694L70.3487 214.82ZM91.5547 220.285H92.6706C95.0425 220.285 95.74 217.394 96.0189 214.334H96.4375V220.857H87.5925V220.456L88.2064 220.285C88.7645 220.142 89.0157 219.855 89.0157 219.055V202.917C89.0157 202.116 88.7645 201.858 88.2064 201.715L87.5925 201.544V201.143H93.1172V201.572L92.364 201.744C91.8058 201.858 91.5547 202.116 91.5547 202.917V220.285ZM105.536 220.971C103.918 220.971 103.36 219.827 102.83 219.827C102.523 219.827 102.16 219.913 101.881 220.857H101.547V214.333H101.965C102.3 218.024 103.639 220.341 105.509 220.341C106.764 220.341 107.629 219.168 107.629 217.051C107.629 212.587 101.407 210.67 101.407 205.72C101.407 203.059 102.747 201.028 105.118 201.028C106.653 201.028 106.988 202.058 107.629 202.058C107.992 202.058 108.243 201.772 108.383 201.142H108.717V207.666H108.299C107.964 204.375 107.099 201.657 105.09 201.657C103.695 201.657 103.416 203.088 103.416 204.061C103.416 208.324 109.638 209.783 109.638 215.734C109.637 218.768 108.019 220.971 105.536 220.971ZM115.804 219.054C115.804 219.855 116.055 220.142 116.613 220.284L117.339 220.456V220.856H111.73V220.456L112.456 220.284C113.014 220.142 113.265 219.855 113.265 219.054V201.715H112.651C110.921 201.715 110.224 204.605 110.028 207.667H109.61V201.143H119.46V207.667H119.041C118.846 204.605 118.149 201.716 116.418 201.716H115.804V219.054H115.804ZM120.073 220.456L120.687 220.284C121.245 220.142 121.496 219.855 121.496 219.054V202.917C121.496 202.116 121.245 201.858 120.687 201.715L120.073 201.544V201.143H125.402C127.774 201.143 129.979 202.688 129.979 205.921C129.979 208.411 128.834 210.156 126.518 210.786C129.058 211.272 129.058 212.503 129.309 215.792L129.476 218.31C129.56 219.712 129.616 220.028 130.007 220.028C130.425 220.028 130.593 219.055 130.593 218.11V217.624H131.067V218.282C131.067 219.856 130.732 220.971 129.142 220.971C127.579 220.971 126.854 220.056 126.742 216.766L126.602 213.103C126.547 211.358 126.128 211.1 125.319 211.1H124.007V219.055C124.007 219.856 124.259 220.171 124.817 220.314L125.431 220.457V220.857H120.073L120.073 220.456ZM124.007 210.528H124.928C126.491 210.528 127.272 210.099 127.272 206.293C127.272 202.488 126.239 201.716 125.123 201.716H124.007L124.007 210.528ZM135.196 220.285H137.121C139.632 220.285 140.107 217.366 140.441 214.334H140.86V220.857H131.234V220.456L131.847 220.285C132.405 220.142 132.657 219.855 132.657 219.055V202.946C132.657 202.145 132.405 201.858 131.847 201.715L131.234 201.544V201.143H140.581V207.667H140.162C139.856 204.605 139.27 201.715 137.121 201.715H135.196V210.328L136.089 210.299C137.288 210.213 137.735 209.154 138.042 206.665H138.461V214.619H138.042C137.79 211.5 137.317 211.014 136.06 210.928L135.196 210.899V220.285ZM145.548 220.285H147.473C149.984 220.285 150.459 217.366 150.793 214.334H151.212V220.857H141.586V220.456L142.2 220.285C142.758 220.142 143.009 219.855 143.009 219.055V202.946C143.009 202.145 142.758 201.858 142.2 201.715L141.586 201.544V201.143H150.933V207.667H150.515C150.208 204.605 149.622 201.715 147.473 201.715H145.548V210.328L146.441 210.299C147.64 210.213 148.087 209.154 148.394 206.665H148.813V214.619H148.394C148.143 211.5 147.669 211.014 146.413 210.928L145.548 210.899V220.285ZM158.021 219.054C158.021 219.941 158.272 220.113 158.83 220.256L159.694 220.457V220.857H153.947V220.457L154.672 220.285C155.229 220.143 155.481 219.856 155.481 219.055V201.715H154.867C153.137 201.715 152.44 204.605 152.245 207.667H151.826V201.143H161.676V207.667H161.257C161.062 204.605 160.364 201.716 158.635 201.716H158.021V219.054ZM173.341 216.308C173.341 219.37 171.833 220.971 169.518 220.971C167.426 220.971 166.199 219.226 166.226 217.309C166.254 215.821 167.314 215.078 168.179 215.192C168.793 215.277 169.407 215.735 169.323 216.737C169.239 218.168 167.732 218.11 167.677 218.997C167.621 219.541 168.318 220.342 169.211 220.342C170.774 220.342 170.774 218.31 170.774 216.766V202.888C170.774 202.087 170.522 201.858 169.909 201.715L169.211 201.544V201.143H174.709V201.544L174.095 201.715C173.537 201.858 173.342 202.116 173.342 202.917L173.341 216.308ZM179.842 221C176.578 221 174.987 216.479 174.987 210.985C174.987 205.521 176.522 201 179.842 201C183.135 201 184.725 205.521 184.725 210.985C184.725 216.479 183.219 221 179.842 221ZM179.842 201.658C178.447 201.658 177.75 202.802 177.75 210.872C177.75 219.197 178.391 220.371 179.842 220.371C181.293 220.371 181.963 219.197 181.963 210.814C181.963 202.803 181.293 201.658 179.842 201.658ZM195.775 220.456L196.388 220.284C196.947 220.142 197.198 219.855 197.198 219.054V202.917C197.198 201.973 196.779 201.63 195.802 201.63C194.575 201.63 194.268 202.202 194.268 203.833V216.251C194.268 219.341 193.208 221 190.613 221C187.935 221 186.372 219.341 186.372 216.336V202.917C186.372 202.116 186.177 201.858 185.619 201.715L185.005 201.544V201.143H190.557V201.544L189.804 201.715C189.19 201.858 188.939 202.087 188.939 202.888V216.537C188.939 219.312 189.72 220.027 191.143 220.027C192.818 220.027 193.515 219.054 193.515 216.25V204.863C193.515 202.459 193.487 201.887 192.483 201.658L191.953 201.544V201.143H201.105C203.477 201.143 205.681 202.688 205.681 205.921C205.681 208.411 204.537 210.156 202.221 210.786C204.76 211.272 204.76 212.503 205.011 215.792L205.179 218.31C205.263 219.712 205.318 220.028 205.709 220.028C206.128 220.028 206.295 219.055 206.295 218.11V217.624H206.769V218.282C206.769 219.856 206.435 220.971 204.844 220.971C203.282 220.971 202.556 220.056 202.444 216.766L202.305 213.103C202.249 211.358 201.831 211.1 201.022 211.1H199.71V219.055C199.71 219.856 199.961 220.171 200.519 220.314L201.133 220.457V220.857H195.776V220.457L195.775 220.456ZM199.709 210.528H200.63C202.192 210.528 202.973 210.099 202.973 206.293C202.973 202.488 201.941 201.716 200.825 201.716H199.709V210.528ZM207.271 201.658L206.88 201.544V201.143H210.535L215.53 214.133V204.777C215.53 202.66 215.585 201.916 214.106 201.658L213.632 201.544V201.143H217.762V201.544L217.372 201.658C216.172 201.944 216.256 202.946 216.256 204.948V220.857H215.363L209.113 205.092V217.223C209.113 219.541 209.113 220.199 210.898 220.456V220.856H206.88V220.456L207.383 220.37C208.414 220.17 208.387 219.14 208.387 217.052V203.375C207.912 202.374 207.717 201.83 207.271 201.658ZM231.825 220.285H232.941C235.312 220.285 236.01 217.394 236.289 214.334H236.708V220.857H222.477V220.456L223.063 220.341C224.263 220.113 224.291 219.77 223.956 218.052L223.426 215.477H219.994L219.631 217.424C219.212 219.627 219.435 220.17 220.273 220.341L220.858 220.456V220.857H216.98V220.456L217.454 220.314C218.208 220.085 218.402 219.627 218.794 217.681L222.197 201.028H223.035L226.606 218.225C226.969 219.999 227.108 220.37 228.113 220.37C228.977 220.37 229.285 219.912 229.285 219.054V202.917C229.285 202.116 229.034 201.858 228.476 201.715L227.862 201.543V201.143H233.387V201.572L232.633 201.744C232.076 201.858 231.824 202.116 231.824 202.917L231.825 220.285ZM220.105 214.82H223.286L221.668 206.694L220.105 214.82ZM240 219.598C240 220.37 239.442 220.943 238.772 220.943C238.103 220.943 237.545 220.37 237.545 219.598C237.545 218.825 238.103 218.253 238.772 218.253C239.442 218.253 240 218.826 240 219.598Z" fill="black"/>
<g clip-path="url(#clip1_6_837)">
<path fill-rule="evenodd" clip-rule="evenodd" d="M69.6422 74.178C66.4265 58.8492 65.4216 58.2441 58.1863 57.8407V55.2187H90.5441V57.8407C81.701 58.6475 81.5 58.6475 84.7157 76.5983L95.3677 133.275L108.029 72.3627C110.642 59.8577 109.637 58.6475 101.397 58.0424L98.7843 57.8407V55.2187H121.897V57.8407C114.863 58.4458 114.863 60.2611 112.049 73.5729L91.348 172H89.3382L71.652 83.8594L52.9608 172H50.951L29.848 68.7322C28.0392 59.656 27.6373 58.2441 20 57.8407V55.2187H51.5539V57.8407C43.5147 58.6475 43.3137 59.4543 46.5294 76.5983L57.3824 132.871L69.6422 74.178ZM153.853 171.395C142.397 171.395 135.564 160.705 132.951 160.705C130.137 160.705 126.922 166.756 125.917 169.378H123.505V131.459H125.917C132.951 152.234 144.206 168.571 153.451 168.571C158.877 168.571 162.294 163.529 162.294 156.066C162.294 128.636 124.108 110.886 124.108 77.2034C124.108 63.4882 133.755 52.7983 144.206 52.7983C153.652 52.7983 158.877 60.4627 161.892 60.4627C163.5 60.4627 164.706 59.2526 166.716 54.4119H168.525V88.2966H166.113C161.691 71.9594 152.647 55.4204 143.804 55.4204C138.377 55.4204 134.358 60.4627 134.358 67.9255C134.358 94.3475 172.544 111.088 172.544 145.981C172.745 160.503 163.902 171.395 153.853 171.395ZM193.446 171.395C181.789 171.395 177.167 164.134 177.167 157.075C177.167 150.015 181.387 142.754 187.819 142.754C194.652 142.754 197.466 149.612 194.25 154.453C191.637 158.688 184.603 159.092 184.603 162.319C184.603 167.361 188.824 168.571 192.24 168.571C202.289 168.571 201.686 162.319 201.686 140.939V65.3034C201.686 59.2526 200.279 57.8407 193.848 57.8407H191.436V55.2187H225V57.8407H222.186C218.77 57.8407 217.363 59.2526 217.363 65.5051V139.527C217.363 160.302 202.49 171.395 193.446 171.395Z" fill="black"/>
</g>
</g>
<defs>
<linearGradient id="paint0_linear_6_837" x1="-3.5" y1="-2.86195e-06" x2="256" y2="256" gradientUnits="userSpaceOnUse">
<stop stop-color="white"/>
<stop offset="1" stop-color="#E0E0E0"/>
</linearGradient>
<linearGradient id="paint1_linear_6_837" x1="0" y1="0" x2="256" y2="256" gradientUnits="userSpaceOnUse">
<stop stop-color="white" stop-opacity="0.15"/>
<stop offset="1" stop-opacity="0"/>
</linearGradient>
<clipPath id="clip0_6_837">
<rect width="256" height="256" fill="white"/>
</clipPath>
<clipPath id="clip1_6_837">
<rect width="205" height="119" fill="white" transform="translate(20 53)"/>
</clipPath>
</defs>
</svg>
