<svg width="256" height="256" viewBox="0 0 256 256" fill="none" xmlns="http://www.w3.org/2000/svg">
<g clip-path="url(#clip0_15_785)">
<rect width="256" height="256" fill="url(#paint0_linear_15_785)"/>
<rect width="256" height="256" fill="#E3120B"/>
<rect width="256" height="256" fill="url(#paint1_linear_15_785)"/>
<path d="M97.6618 133.169C97.6618 146.384 94.3381 149.897 81.5131 150.226L81 154.81L109.835 154.654L152.471 155L165.964 154.81L170 125.578L162.982 125.202C161.257 141.979 155.457 146.384 135.955 146.384C121.213 146.384 120.342 145.692 120.342 130.714V93.8863L127.003 93.5303L136.494 93.7299C149.65 93.8863 152.471 96.3648 153.159 108.983H158.787C158.612 101.072 158.612 95.1239 158.612 90.8855C158.612 85.6158 158.612 80.1931 159.141 69.7203H153.159C153.014 82.8047 149.852 85.7655 136.14 85.7655C133.448 85.7436 130.757 85.6349 128.072 85.4395C126.49 85.4395 123.815 85.2532 120.518 85.2532V37.6797L122.266 37.5267H126.139C151.08 37.5267 154.057 39.2865 155.265 55.2819L162.277 54.7496L161.581 29.1996L150.392 29L107.885 29.539L81.0033 29.1996L81.5131 33.458C94.3381 33.8239 97.6618 37.3337 97.6618 50.5312V133.169Z" fill="white"/>
<path fill-rule="evenodd" clip-rule="evenodd" d="M120.502 179.712L120.62 184.535L119.504 184.593C119.416 181.642 118.799 181.239 114.345 181.239H113.392V198.134C113.392 200.468 113.981 201.086 116.263 201.151L116.32 201.957C114.16 201.929 112.522 201.929 111.482 201.929C110.389 201.929 108.691 201.929 106.465 201.957L106.522 201.151C108.809 201.086 109.4 200.468 109.4 198.134V181.239H108.286C103.711 181.239 103.093 181.642 103.034 184.593L101.925 184.535L102.035 179.712C106.21 179.74 109.335 179.779 111.431 179.779C113.392 179.779 116.448 179.74 120.502 179.712ZM122.352 201.21C124.423 201.21 124.702 200.806 124.733 197.884V183.791C124.702 180.863 124.422 180.457 122.352 180.457L122.29 179.711C125.104 179.558 125.749 179.462 128.291 179V188.581C129.926 186.805 131.258 186.09 133.083 186.09C136.108 186.09 137.78 187.957 137.78 191.505V197.884C137.811 200.806 138.089 201.21 140.156 201.21L140.209 201.957C138.43 201.899 137.07 201.833 136.174 201.833C135.303 201.833 134.036 201.899 132.337 201.957L132.402 201.21C134.036 200.964 134.192 200.658 134.223 197.884V193.214C134.223 189.294 133.546 187.991 131.505 187.991C130.419 187.991 129.247 188.701 128.753 189.793C128.568 190.167 128.443 190.567 128.319 190.972C128.291 191.134 128.291 191.252 128.291 191.316V197.884C128.291 200.658 128.476 200.964 130.107 201.21L130.174 201.957C128.443 201.899 127.17 201.833 126.309 201.833C125.413 201.833 124.051 201.899 122.29 201.957L122.352 201.21ZM145.185 192.068C148.025 192.004 148.889 191.936 151.707 191.629C151.336 188.611 150.211 187.178 148.302 187.178C146.448 187.178 145.49 188.668 145.185 192.068ZM154.983 198.908C153.065 201.306 151.183 202.305 148.763 202.305C144.473 202.305 141.568 199.129 141.568 194.487C141.568 189.484 144.565 186.089 148.889 186.089C151.213 186.089 152.885 186.957 154.028 188.797C154.799 190.107 155.012 191.005 155.042 193.248H145.273C145.402 197.916 147.096 200.589 149.921 200.589C151.584 200.589 153.004 199.81 154.522 198.04L154.983 198.908ZM41.1003 230.717C43.6081 230.653 44.258 229.964 44.258 227.374V211.177C44.258 208.59 43.6081 207.902 41.1003 207.83L41.0006 206.996L46.257 207.062L54.5687 206.957L56.7567 206.996L56.8926 212.004L55.5216 212.108C55.2853 208.973 54.7034 208.628 49.8264 208.628H49.069L48.7272 208.658V217.983C49.3719 217.983 49.895 218.019 50.2044 218.019C50.7294 218.057 51.2556 218.079 51.7819 218.083C54.4632 218.083 55.0814 217.503 55.1099 214.938H56.2796C56.176 216.991 56.176 218.054 56.176 219.086C56.176 219.917 56.176 221.083 56.2103 222.634H55.1099C54.9752 220.16 54.4237 219.675 51.8512 219.644L49.9953 219.605L48.6929 219.675V226.893C48.6929 229.829 48.8631 229.964 51.7457 229.964C55.5591 229.964 56.6932 229.101 57.0305 225.813L58.4028 225.886L57.6137 231.616L54.9752 231.653L46.6383 231.585L41 231.616L41.1003 230.717ZM75.7157 229.169C73.7627 231.205 72.2091 231.999 69.9506 231.999C65.4303 231.999 62.5335 228.446 62.5335 223.092C62.5335 217.504 65.5928 214.004 70.5319 214.004C71.833 214.004 73.1484 214.246 75.1778 214.8L75.236 218.878L73.6941 218.982C73.1212 215.938 72.5192 215.213 70.5319 215.213C67.9646 215.213 66.6285 217.463 66.6285 221.912C66.6285 227.102 68.2326 230.033 71.1494 230.033C72.6571 230.033 73.8663 229.375 75.2056 227.928L75.7157 229.169ZM83.573 223.294C83.9135 228.168 85.526 230.822 88.1639 230.822C90.6302 230.822 92.1081 228.24 92.1081 223.952C92.1081 218.85 90.0787 215.315 87.2732 215.315C84.7738 215.315 83.5012 217.433 83.5012 221.746C83.5012 222.264 83.5012 222.779 83.573 223.294ZM79.377 223.677V223.153C79.377 217.329 82.492 214.005 87.7884 214.005C92.7017 214.005 96.1953 217.676 96.1953 223.016C96.1953 228.376 92.8014 232 87.6855 232C82.8033 232 79.5499 228.688 79.377 223.677ZM100.244 230.79C102.479 230.79 102.819 230.34 102.819 227.102V219.153C102.819 216.007 102.479 215.558 100.244 215.523L100.175 214.732C103.164 214.559 103.855 214.454 106.453 213.901L106.628 216.957C108.581 214.799 110.088 214.004 112.121 214.004C115.45 214.004 117.331 216.181 117.331 220.021V227.102C117.3 227.374 117.3 227.652 117.3 227.928C117.3 230.136 117.88 230.79 119.973 230.79L120.04 231.616C118.053 231.55 116.545 231.479 115.55 231.479C114.592 231.479 113.152 231.55 111.325 231.616L111.386 230.79C113.152 230.512 113.355 230.171 113.355 227.102L113.392 224.986V221.913C113.392 217.572 112.603 216.181 110.433 216.181C109.093 216.181 107.963 216.872 107.278 218.123C107.004 218.64 106.767 219.463 106.767 219.812V227.102C106.801 230.172 106.973 230.513 108.787 230.79L108.893 231.616C106.973 231.55 105.534 231.479 104.574 231.479C103.576 231.479 102.113 231.55 100.175 231.616L100.244 230.79ZM127.178 223.294C127.524 228.168 129.129 230.822 131.714 230.822C134.181 230.822 135.656 228.24 135.656 223.952C135.656 218.85 133.635 215.315 130.844 215.315C128.381 215.315 127.112 217.433 127.112 221.746C127.112 222.264 127.113 222.78 127.177 223.294M122.928 223.677V223.153C122.928 217.329 126.051 214.005 131.342 214.005C136.31 214.005 139.801 217.676 139.801 223.016C139.801 228.376 136.409 232 131.239 232C126.39 232 123.102 228.688 122.928 223.677ZM143.635 230.79C145.936 230.79 146.279 230.34 146.279 227.102V219.153C146.279 216.007 145.936 215.558 143.635 215.523L143.566 214.732C146.617 214.559 147.309 214.454 149.893 213.901L150.047 216.957C151.975 214.835 153.486 214.004 155.507 214.004C157.837 214.004 159.205 214.972 160.177 217.225C162.271 214.865 163.81 214.004 165.903 214.004C169.137 214.004 170.948 216.213 170.948 220.021V227.102C170.948 227.374 170.914 227.652 170.914 227.928C170.914 230.136 171.534 230.79 173.587 230.79L173.661 231.616C171.671 231.55 170.164 231.479 169.199 231.479C168.27 231.479 166.859 231.55 164.977 231.616L165.045 230.79C166.859 230.512 167.032 230.171 167.066 227.102V221.913C167.066 217.639 166.32 216.181 164.188 216.181C162.922 216.181 161.617 216.957 161.069 218.123C160.897 218.534 160.728 218.951 160.625 219.434C160.591 219.605 160.554 219.743 160.554 219.812V227.102C160.554 230.172 160.76 230.513 162.575 230.79L162.649 231.616C160.832 231.55 159.497 231.479 158.59 231.479C157.701 231.479 156.362 231.55 154.579 231.616L154.651 230.79C156.466 230.512 156.638 230.171 156.667 227.102V221.913C156.667 217.639 155.917 216.181 153.788 216.181C152.493 216.181 151.325 216.903 150.673 218.123C150.397 218.672 150.176 219.463 150.176 219.812V227.102C150.211 230.172 150.364 230.513 152.182 230.79L152.25 231.616C150.364 231.55 148.98 231.479 148.025 231.479C147.026 231.479 145.556 231.55 143.566 231.616L143.635 230.79ZM178.83 208.146C178.829 207.846 178.887 207.548 179.001 207.27C179.114 206.992 179.281 206.74 179.492 206.527C179.702 206.315 179.953 206.146 180.228 206.031C180.504 205.916 180.799 205.857 181.097 205.857C182.369 205.857 183.393 206.92 183.393 208.146C183.393 209.452 182.402 210.49 181.097 210.49C179.796 210.49 178.83 209.488 178.83 208.146ZM183.221 213.901V224.986L183.254 227.102C183.254 230.34 183.568 230.789 185.893 230.789L185.965 231.616C183.837 231.55 182.296 231.48 181.235 231.48C180.209 231.48 178.705 231.55 176.631 231.616L176.696 230.789C178.959 230.789 179.282 230.34 179.282 227.102L179.314 224.986V221.363L179.282 219.154C179.282 216.007 178.959 215.558 176.696 215.524L176.631 214.731C179.728 214.526 180.444 214.42 183.221 213.901ZM190.092 230.998L189.957 227.475L191.702 227.41C192.491 230.067 193.008 230.582 194.825 230.582C196.398 230.582 197.43 229.756 197.43 228.516C197.43 227.338 196.712 226.482 194.548 225.021C193.454 224.262 192.701 223.74 192.291 223.433C191.396 222.744 190.746 221.913 190.402 220.985C190.192 220.466 190.092 219.848 190.092 219.122C190.092 216.045 192.223 214.004 195.44 214.004C196.638 214.004 197.325 214.107 200.043 214.763L200.118 218.191L198.376 218.262C197.987 216.007 197.292 215.213 195.683 215.213C194.14 215.213 193.041 216.112 193.041 217.328C193.041 218.534 193.593 219.258 195.374 220.396C196.982 221.469 198.214 222.431 199.051 223.191C200.012 224.12 200.563 225.293 200.563 226.598C200.563 229.647 198.019 231.999 194.757 231.999C193.491 231.999 192.291 231.716 190.092 230.998ZM204.192 215.008C206.895 214.799 207.918 213.63 208.694 210.038H210.234V214.697H214.556L214.073 216.594H210.234V225.021C210.234 229.207 210.785 230.203 213.115 230.203C213.661 230.203 214.173 230.135 215 229.896V230.894C213.837 231.551 212.226 231.928 210.583 231.928C209.067 231.928 207.662 231.069 207.073 229.789C206.558 228.72 206.389 227.652 206.389 225.364V216.594H204.192V215.008Z" fill="white"/>
</g>
<defs>
<linearGradient id="paint0_linear_15_785" x1="-3.5" y1="-2.86195e-06" x2="256" y2="256" gradientUnits="userSpaceOnUse">
<stop stop-color="white"/>
<stop offset="1" stop-color="#999999"/>
</linearGradient>
<linearGradient id="paint1_linear_15_785" x1="0" y1="0" x2="256" y2="256" gradientUnits="userSpaceOnUse">
<stop stop-color="white" stop-opacity="0.15"/>
<stop offset="1" stop-opacity="0"/>
</linearGradient>
<clipPath id="clip0_15_785">
<rect width="256" height="256" fill="white"/>
</clipPath>
</defs>
</svg>
