<svg width="256" height="256" viewBox="0 0 256 256" fill="none" xmlns="http://www.w3.org/2000/svg">
<g clip-path="url(#clip0_26_1420)">
<rect width="256" height="256" fill="url(#paint0_linear_26_1420)"/>
<rect width="256" height="256" fill="url(#paint1_linear_26_1420)"/>
<path fill-rule="evenodd" clip-rule="evenodd" d="M52.9015 97.035V165.724C52.9015 167.585 52.695 168.516 53.3152 169.446C53.6255 170.068 54.2457 170.377 54.7633 170.377C55.4868 170.377 56.1084 170.068 56.5213 169.345C57.1421 168.413 57.0391 167.48 57.0391 165.517V97.035H60.2458V167.067C60.2458 171.825 58.4872 174.204 54.7633 174.204C53.2112 174.204 51.8669 173.689 50.8324 172.551C49.7978 171.412 49.2803 169.653 49.2803 167.172V97.035H52.9015Z" fill="black"/>
<path fill-rule="evenodd" clip-rule="evenodd" d="M87.1411 173.791L81.9689 126.621V173.791H79.1758V97.035H82.8997L88.1749 141.31V97.035H90.555V173.791H87.1411Z" fill="black"/>
<path fill-rule="evenodd" clip-rule="evenodd" d="M118.485 131.585V134.276H113.417V170.586H119.209V173.791H108.864V97.035H118.485V100.346H113.417V131.585H118.485Z" fill="black"/>
<path fill-rule="evenodd" clip-rule="evenodd" d="M218.931 86.1733V92.5884H38.2119V86.1733H218.931Z" fill="black"/>
<path fill-rule="evenodd" clip-rule="evenodd" d="M218.931 179.482V185.894H38.2119V179.482H218.931Z" fill="black"/>
<path fill-rule="evenodd" clip-rule="evenodd" d="M228.861 192.411V198.826H26.626V192.411H228.861Z" fill="black"/>
<path fill-rule="evenodd" clip-rule="evenodd" d="M239 204.928V211.445H16.3867V204.928H239Z" fill="black"/>
<path fill-rule="evenodd" clip-rule="evenodd" d="M127.692 45.8301L218.516 71.6923V78.5193L126.865 53.5889L37.7988 78.9322V72.1055L127.692 45.8301Z" fill="black"/>
<path fill-rule="evenodd" clip-rule="evenodd" d="M197.932 78.9322H179.207L128.416 65.1747L77.7295 78.5192L58.3838 78.9322L128.622 58.7609L197.932 78.9322Z" fill="black"/>
<path fill-rule="evenodd" clip-rule="evenodd" d="M144.243 119.173H148.174V104.276C148.174 104.276 148.07 99.9314 147.035 98.6911C146.002 97.5525 144.761 96.5175 142.071 96.5175C139.485 96.622 138.863 97.3461 137.932 98.4833C136.897 99.6217 136.484 101.586 136.484 103.657C136.484 105.724 136.589 114.932 136.897 118.034C137.208 121.035 140.105 133.241 141.76 139.138C143.313 145.138 144.036 148.138 144.141 149.793C144.243 151.55 144.449 157.448 144.243 160.344C144.141 163.24 144.243 167.273 144.243 167.273C144.243 167.273 144.449 170.481 142.588 170.481C140.623 170.481 140.829 167.273 140.829 167.273V149.069H136.897V167.172C136.897 167.172 135.864 173.791 142.071 173.791C148.381 173.791 148.381 167.896 148.381 167.896V151.344C148.381 151.344 148.07 145.861 147.035 142.035C146.002 138.309 142.691 126.414 141.966 123.103C141.14 119.587 140.829 114.413 140.829 109.759C140.829 105.105 140.933 102.208 140.933 102.208C140.933 102.208 140.829 100.036 142.588 100.036C144.243 100.036 144.141 102.312 144.141 102.312L144.243 119.173Z" fill="black"/>
<path fill-rule="evenodd" clip-rule="evenodd" d="M174.345 119.379H177.758V101.483C177.758 98.6911 176.208 95.8977 172.378 95.8977C168.863 95.8977 166.795 98.4833 166.795 101.586V168.827C166.795 171.825 168.863 174.413 172.378 174.413C176.208 174.413 177.758 171.723 177.758 168.928V148.758H174.345V168.827C174.345 169.862 174.449 171.101 172.378 171.101C170.206 171.101 170.416 169.24 170.416 168.516V101.794C170.416 101.07 170.206 99.2073 172.378 99.2073C174.449 99.2073 174.345 100.552 174.345 101.586V119.379Z" fill="black"/>
<path fill-rule="evenodd" clip-rule="evenodd" d="M202.896 95.8977C199.38 95.8977 196.896 98.4833 196.896 101.586V168.827C196.896 171.825 199.38 174.413 202.896 174.413C206.722 174.413 208.689 171.723 208.689 168.928V101.483C208.689 98.6911 206.722 95.8977 202.896 95.8977ZM205.274 168.827C205.274 169.862 204.966 171.101 202.896 171.101C200.723 171.101 200.517 169.24 200.517 168.516V101.794C200.517 101.07 200.723 99.2073 202.896 99.2073C204.966 99.2073 205.274 100.552 205.274 101.586V168.827Z" fill="black"/>
</g>
<defs>
<linearGradient id="paint0_linear_26_1420" x1="-3.5" y1="-2.86195e-06" x2="256" y2="256" gradientUnits="userSpaceOnUse">
<stop stop-color="white"/>
<stop offset="1" stop-color="#E0E0E0"/>
</linearGradient>
<linearGradient id="paint1_linear_26_1420" x1="0" y1="0" x2="256" y2="256" gradientUnits="userSpaceOnUse">
<stop stop-color="white" stop-opacity="0.15"/>
<stop offset="1" stop-opacity="0"/>
</linearGradient>
<clipPath id="clip0_26_1420">
<rect width="256" height="256" fill="white"/>
</clipPath>
</defs>
</svg>
