<svg width="256" height="256" viewBox="0 0 256 256" fill="none" xmlns="http://www.w3.org/2000/svg">
<g clip-path="url(#clip0_7_593)">
<rect width="256" height="256" fill="url(#paint0_linear_7_593)"/>
<rect width="256" height="256" fill="white"/>
<rect width="256" height="256" fill="url(#paint1_linear_7_593)"/>
<g filter="url(#filter0_d_7_593)">
<path d="M215.984 110.08V146.049H233.427C238.301 146.049 241.122 145.267 243.174 143.443C245.74 141.097 247.022 136.927 247.022 128.065C247.022 119.203 245.74 115.032 243.174 112.686C241.122 110.862 238.301 110.08 233.427 110.08H215.984ZM239.84 128.065C239.84 135.884 239.327 137.709 237.788 138.751C236.762 139.533 235.479 139.794 232.914 139.794H223.166V116.075H232.914C235.479 116.075 236.762 116.075 237.788 117.117C239.327 118.421 239.84 120.245 239.84 128.065ZM256 154H204.825L204.825 -3.2381H256L256 154ZM163.015 116.075V110.08H193.284V121.548H186.869V116.075H174.556V124.676H184.304V130.41H174.556V140.054H187.127V133.799H193.538V146.049H163.017V140.054H167.889V116.075H163.015ZM135.568 136.666C135.568 140.576 135.823 143.443 136.336 145.789H143.264C143.005 143.964 142.751 140.576 142.751 136.145C142.492 130.932 140.953 130.15 137.362 129.368C141.466 128.586 143.264 126.761 143.264 120.245C143.264 115.032 142.492 112.947 140.953 111.644C139.927 110.601 138.133 110.08 135.31 110.08H113.763V146.049H120.945V131.974H130.951C133.003 131.974 133.771 132.235 134.542 132.756C135.314 133.278 135.568 134.059 135.568 136.666ZM120.945 126.24V116.336H132.49C134.029 116.336 134.542 116.596 134.797 116.857C135.31 117.378 135.823 118.16 135.823 121.288C135.823 124.416 135.31 125.458 134.797 125.979C134.542 126.24 134.029 126.501 132.49 126.501L120.945 126.24ZM153.524 154H102.221L102.221 -3.2381H153.395V154H153.524ZM88.8828 140.054V146.049H64.512V140.054H73.2334V116.075H64.512V110.08H88.8807V116.075H80.1593V140.054H88.8828ZM47.7114 110.08H41.0421L36.1683 138.49L30.5251 112.165C30.2685 110.341 29.499 110.08 27.9599 110.08H24.3687C22.8297 110.08 22.0601 110.601 21.8036 112.165L16.1603 138.49L11.2866 110.08H4.10421L11.0301 144.225C11.2866 145.789 11.7996 146.049 13.5952 146.049H18.4689C20.008 146.049 20.521 145.789 21.0341 144.225L26.4208 119.463L31.8076 144.225C32.0641 145.789 32.5772 146.049 34.3727 146.049H38.99C40.5291 146.049 41.2986 145.789 41.5551 144.225L47.7114 110.08ZM51.3026 154H0V-3.2381H51.1754L51.1754 154H51.3026Z" fill="black"/>
</g>
</g>
<defs>
<filter id="filter0_d_7_593" x="-3" y="-3.2381" width="262" height="164.238" filterUnits="userSpaceOnUse" color-interpolation-filters="sRGB">
<feFlood flood-opacity="0" result="BackgroundImageFix"/>
<feColorMatrix in="SourceAlpha" type="matrix" values="0 0 0 0 0 0 0 0 0 0 0 0 0 0 0 0 0 0 127 0" result="hardAlpha"/>
<feOffset dy="4"/>
<feGaussianBlur stdDeviation="1.5"/>
<feComposite in2="hardAlpha" operator="out"/>
<feColorMatrix type="matrix" values="0 0 0 0 0 0 0 0 0 0 0 0 0 0 0 0 0 0 0.15 0"/>
<feBlend mode="normal" in2="BackgroundImageFix" result="effect1_dropShadow_7_593"/>
<feBlend mode="normal" in="SourceGraphic" in2="effect1_dropShadow_7_593" result="shape"/>
</filter>
<linearGradient id="paint0_linear_7_593" x1="-3.5" y1="-2.86195e-06" x2="256" y2="256" gradientUnits="userSpaceOnUse">
<stop stop-color="white"/>
<stop offset="1" stop-color="#E0E0E0"/>
</linearGradient>
<linearGradient id="paint1_linear_7_593" x1="0" y1="0" x2="256" y2="256" gradientUnits="userSpaceOnUse">
<stop stop-color="white" stop-opacity="0.15"/>
<stop offset="1" stop-opacity="0"/>
</linearGradient>
<clipPath id="clip0_7_593">
<rect width="256" height="256" fill="white"/>
</clipPath>
</defs>
</svg>
